<?xml version="1.0" encoding="UTF-8"?>
<svg xmlns="http://www.w3.org/2000/svg" width="44" height="46" viewBox="0 0 44 46" fill="none">
  <path d="M29.6791 11.5051C28.2216 11.5051 27.0391 10.3226 27.0391 8.8651C27.0391 7.41447 28.2216 6.2251 29.6791 6.2251C31.1366 6.2251 32.3122 7.41447 32.3122 8.8651C32.3122 10.3226 31.1297 11.5051 29.6791 11.5051ZM29.6791 7.56572C28.9572 7.56572 28.3728 8.1501 28.3728 8.87197C28.3728 9.59385 28.9572 10.1782 29.6791 10.1782C30.4009 10.1782 30.9853 9.59385 30.9853 8.87197C30.9853 8.1501 30.3941 7.56572 29.6791 7.56572ZM35.4609 14.0832C34.0034 14.0832 32.8209 12.9007 32.8209 11.4432C32.8209 9.9926 34.0034 8.80322 35.4609 8.80322C36.9184 8.80322 38.1009 9.98572 38.1009 11.4432C38.1009 12.9007 36.9116 14.0832 35.4609 14.0832ZM35.4609 10.1438C34.7391 10.1438 34.1547 10.7282 34.1547 11.4501C34.1547 12.172 34.7391 12.7563 35.4609 12.7563C36.1828 12.7563 36.7672 12.172 36.7672 11.4501C36.7672 10.7282 36.1828 10.1438 35.4609 10.1438ZM39.2078 28.3488C37.7503 28.3488 36.5678 27.1663 36.5678 25.7088C36.5678 24.2582 37.7503 23.0688 39.2078 23.0688C40.6653 23.0688 41.8478 24.2513 41.8478 25.7088C41.8478 27.1663 40.6584 28.3488 39.2078 28.3488ZM39.2078 24.4095C38.4859 24.4095 37.9016 24.9938 37.9016 25.7157C37.9016 26.4376 38.4859 27.022 39.2078 27.022C39.9297 27.022 40.5141 26.4376 40.5141 25.7157C40.5141 24.9938 39.9228 24.4095 39.2078 24.4095ZM30.2703 28.6376C28.8128 28.6376 27.6303 27.4551 27.6303 25.9976C27.6303 24.547 28.8128 23.3576 30.2703 23.3576C31.7278 23.3576 32.9103 24.5401 32.9103 25.9976C32.9034 27.4551 31.7209 28.6376 30.2703 28.6376ZM30.2703 24.6982C29.5484 24.6982 28.9641 25.2826 28.9641 26.0045C28.9641 26.7263 29.5484 27.3107 30.2703 27.3107C30.9922 27.3107 31.5766 26.7263 31.5766 26.0045C31.5697 25.2826 30.9853 24.6982 30.2703 24.6982ZM33.1578 42.6351C31.7003 42.6351 30.5178 41.4526 30.5178 39.9951C30.5178 38.5445 31.7003 37.3551 33.1578 37.3551C34.6153 37.3551 35.7978 38.5376 35.7978 39.9951C35.7978 41.4526 34.6153 42.6351 33.1578 42.6351ZM33.1578 38.6957C32.4359 38.6957 31.8516 39.2801 31.8516 40.002C31.8516 40.7238 32.4359 41.3082 33.1578 41.3082C33.8797 41.3082 34.4641 40.7238 34.4641 40.002C34.4641 39.2801 33.8797 38.6957 33.1578 38.6957Z" fill="#CC3199" stroke="#CC3199"></path>
  <path d="M31.7719 39.2662C31.6 39.2662 31.4281 39.1974 31.2975 39.0668L30.0394 37.7949H23.6044C23.2331 37.7949 22.9375 37.4993 22.9375 37.128C22.9375 36.7568 23.2331 36.4612 23.6044 36.4612H30.3212C30.5 36.4612 30.6719 36.5299 30.7956 36.6605L32.2463 38.1249C32.5075 38.3862 32.5006 38.8055 32.2394 39.0668C32.1088 39.2043 31.9369 39.2662 31.7719 39.2662ZM35.1337 34.8249C33.6762 34.8249 32.4937 33.6424 32.4937 32.1849C32.4937 30.7343 33.6762 29.5449 35.1337 29.5449C36.5912 29.5449 37.7738 30.7274 37.7738 32.1849C37.7738 33.6424 36.5912 34.8249 35.1337 34.8249ZM35.1337 30.8855C34.4119 30.8855 33.8275 31.4699 33.8275 32.1918C33.8275 32.9137 34.4119 33.498 35.1337 33.498C35.8556 33.498 36.44 32.9137 36.44 32.1918C36.44 31.4699 35.8556 30.8855 35.1337 30.8855Z" fill="#CC3199" stroke="#CC3199"></path>
  <path d="M33.1575 32.852H23.6356C23.2644 32.852 22.9688 32.5564 22.9688 32.1851C22.9688 31.8139 23.2644 31.5182 23.6356 31.5182H33.1644C33.5356 31.5182 33.8313 31.8139 33.8313 32.1851C33.8313 32.5564 33.5288 32.852 33.1575 32.852ZM28.2969 26.6714H23.6563C23.285 26.6714 22.9894 26.3757 22.9894 26.0045C22.9894 25.6332 23.285 25.3376 23.6563 25.3376H28.2969C28.6681 25.3376 28.9638 25.6332 28.9638 26.0045C28.9638 26.3757 28.6613 26.6714 28.2969 26.6714ZM37.805 24.9939C37.6331 24.9939 37.4544 24.9251 37.3238 24.7876L33.185 20.477H23.7113C23.34 20.477 23.0444 20.1814 23.0444 19.8101C23.0444 19.4389 23.34 19.1432 23.7113 19.1432H33.4738C33.6525 19.1432 33.8313 19.2189 33.955 19.3495L38.2863 23.8664C38.5406 24.1345 38.5338 24.5539 38.2656 24.8082C38.135 24.932 37.97 24.9939 37.805 24.9939ZM31.645 15.8982H23.6838C23.3125 15.8982 23.0169 15.6026 23.0169 15.2314C23.0169 14.8601 23.3125 14.5645 23.6838 14.5645H31.3838L33.6456 12.392C33.9137 12.1376 34.3331 12.1445 34.5875 12.4126C34.8419 12.6807 34.835 13.1001 34.5669 13.3545L32.1056 15.7126C31.9819 15.8295 31.8169 15.8982 31.645 15.8982ZM27.7056 9.53199H23.6838C23.3125 9.53199 23.0169 9.23637 23.0169 8.86512C23.0169 8.49387 23.3125 8.19824 23.6838 8.19824H27.7056C28.0769 8.19824 28.3725 8.49387 28.3725 8.86512C28.3725 9.23637 28.07 9.53199 27.7056 9.53199Z" fill="#CC3199" stroke="#CC3199"></path>
  <path d="M17.1445 45.0001C16.2576 45.0001 15.4188 44.9038 14.6076 44.7251L14.5182 44.7045C14.3051 44.6563 14.092 44.6013 13.8926 44.5395C9.86383 43.357 7.00383 40.0638 6.61883 36.1657C6.5982 35.9457 6.58445 35.7188 6.57758 35.492L6.5707 35.3338C6.5707 35.2582 6.5707 35.1963 6.5707 35.1276C3.85508 33.3263 2.21883 30.3563 2.1432 27.1595C2.10883 25.647 2.4182 24.1757 3.05758 22.8007C3.66945 21.4945 4.58383 20.3188 5.69758 19.3907L5.67008 19.3563C4.79008 18.1326 4.30883 16.7095 4.27445 15.2038C4.22633 13.2307 4.95508 11.3607 6.31633 9.93071C7.67758 8.50759 9.52008 7.69634 11.4932 7.64821C11.6651 7.64821 11.837 7.64821 12.0088 7.65509C12.002 7.53134 11.9951 7.41446 11.9882 7.28384C11.9263 3.89446 14.6213 1.07571 18.0107 1.00009C19.3788 0.986339 20.7401 1.39884 21.8263 2.21696C22.0257 2.36821 22.2182 2.52634 22.3901 2.69134C23.5795 3.83259 24.2532 5.36571 24.2945 6.99509C24.3013 7.03634 24.4182 8.76884 24.3632 10.5151L24.3495 12.7838V13.4851L24.2532 38.6132C24.1088 40.8063 23.0432 44.4982 17.4538 44.9863C17.3507 45.0001 17.2476 45.0001 17.1445 45.0001ZM11.6788 8.97509C11.6307 8.97509 11.5826 8.97509 11.5345 8.97509C9.91883 9.00946 8.4132 9.67634 7.29258 10.8451C6.17195 12.0138 5.5807 13.547 5.61508 15.1626C5.64258 16.3932 6.03446 17.562 6.74258 18.5382L6.85258 18.6826C6.85258 18.6826 6.89383 18.7376 6.89383 18.7445C6.92133 18.772 6.91445 18.7651 6.94196 18.7995C6.99008 18.8682 7.05195 18.937 7.10695 18.9988C7.25133 19.1363 7.32695 19.3288 7.3132 19.5213C7.29945 19.7138 7.2032 19.8995 7.04508 20.0163C6.89383 20.1263 6.79758 20.202 6.70133 20.2776C6.6532 20.312 6.61196 20.3463 6.5707 20.3807C5.58758 21.1988 4.79695 22.2163 4.26758 23.3438C3.72445 24.547 3.45633 25.812 3.4907 27.1251C3.55258 29.8888 4.96883 32.4532 7.27195 33.9863C7.40945 34.0757 7.51258 34.1445 7.6157 34.2063C7.82195 34.337 7.9457 34.5638 7.93195 34.8113C7.92508 34.9763 7.9182 35.1413 7.9182 35.3063V35.4645C7.92508 35.657 7.93195 35.8563 7.95258 36.042C8.28258 39.397 10.7645 42.2295 14.2845 43.2676C14.4701 43.3295 14.6557 43.3707 14.8345 43.412L14.9101 43.4326C15.6938 43.6113 16.5257 43.6938 17.3782 43.6732C20.8432 43.3707 22.7201 41.652 22.9195 38.5857L23.0088 13.5057V12.8045L23.0226 10.522C23.0226 10.5151 23.0226 10.5082 23.0226 10.5013C23.0776 8.81696 22.9607 7.08446 22.9607 7.07071C22.9332 5.76446 22.397 4.56134 21.4688 3.66759C21.3313 3.53696 21.1801 3.41321 21.022 3.29634C20.1695 2.65696 19.1107 2.30634 18.0382 2.34759C15.3845 2.40946 13.2738 4.61634 13.3357 7.26321C13.3426 7.62071 13.3838 7.95071 13.4595 8.26009C13.5145 8.48009 13.4526 8.70696 13.3013 8.87196C13.1501 9.03696 12.9232 9.10571 12.7032 9.07134C12.3663 9.00259 12.0226 8.97509 11.6788 8.97509Z" fill="#CC3199" stroke="#CC3199"></path>
  <path d="M14.1006 20.4699C13.9287 20.4699 13.7637 20.4081 13.6331 20.2774C10.4981 17.1699 7.23248 19.8787 7.09498 19.9956C6.8131 20.2362 6.39373 20.2018 6.1531 19.9199C5.91248 19.6381 5.94685 19.2187 6.22185 18.9849C7.69998 17.7131 11.3506 16.1387 14.5681 19.3287C14.8294 19.5899 14.8294 20.0093 14.575 20.2706C14.4444 20.4081 14.2725 20.4699 14.1006 20.4699ZM16.5481 11.7387C13.9494 11.7387 12.5675 9.75868 12.1894 8.61743C12.0725 8.2668 12.2581 7.88868 12.6087 7.7718C12.9594 7.65493 13.3306 7.84055 13.4544 8.1843C13.4887 8.2943 14.3687 10.7143 17.0706 10.3637C17.4419 10.3224 17.7719 10.5768 17.8131 10.9412C17.8612 11.3056 17.6 11.6424 17.2356 11.6837C16.995 11.7249 16.7681 11.7387 16.5481 11.7387ZM16.6719 39.2249C15.5856 39.2249 14.7194 38.9293 14.0731 38.3312C13.0487 37.3893 13.0419 36.0624 13.0419 36.0074C13.0419 35.6362 13.3375 35.3406 13.7087 35.3406C14.0731 35.3406 14.3756 35.6362 14.3756 36.0006C14.3756 36.0281 14.4031 36.8256 14.9875 37.3618C15.4481 37.7812 16.1562 37.9531 17.0912 37.8706C17.4625 37.8431 17.7787 38.1112 17.8131 38.4824C17.8406 38.8468 17.5725 39.1699 17.2012 39.2043C17.0225 39.2181 16.8437 39.2249 16.6719 39.2249ZM8.72435 29.4831C8.3531 29.4831 8.05748 29.1874 8.05748 28.8162C8.05748 28.4518 8.3531 28.1493 8.71748 28.1493C8.74498 28.1493 9.54248 28.1218 10.0787 27.5374C10.4981 27.0768 10.67 26.3687 10.5875 25.4268C10.56 25.0624 10.8281 24.7393 11.1994 24.7049C11.5775 24.6774 11.8869 24.9456 11.9212 25.3168C12.0312 26.6506 11.7425 27.7024 11.055 28.4449C10.1062 29.4693 8.78623 29.4831 8.72435 29.4831ZM20.8175 29.5587C20.46 29.5587 20.1644 29.2768 20.1506 28.9193C20.1506 28.8987 20.0956 28.0943 19.4837 27.5856C19.0094 27.1868 18.2944 27.0356 17.3594 27.1524C17.0019 27.2006 16.665 26.9393 16.6169 26.5681C16.5756 26.2037 16.83 25.8737 17.2012 25.8256C18.5281 25.6674 19.5937 25.9149 20.3637 26.5749C21.4225 27.4756 21.4844 28.8024 21.4844 28.8574C21.4981 29.2287 21.2094 29.5381 20.845 29.5518C20.8312 29.5587 20.8244 29.5587 20.8175 29.5587ZM20.2331 18.7856C19.8756 18.7856 19.58 18.5037 19.5662 18.1462C19.5662 18.1256 19.5112 17.3212 18.8994 16.8124C18.425 16.4137 17.71 16.2693 16.775 16.3793C16.4106 16.4206 16.0737 16.1662 16.0325 15.7949C15.9912 15.4306 16.2456 15.1006 16.6169 15.0524C17.9437 14.8943 19.0094 15.1418 19.7794 15.8018C20.8381 16.7024 20.9 18.0293 20.9 18.0843C20.9137 18.4556 20.625 18.7649 20.2606 18.7787C20.2469 18.7856 20.24 18.7856 20.2331 18.7856Z" fill="#CC3199"></path>
</svg>
