<?xml version="1.0" encoding="UTF-8"?>
<svg xmlns="http://www.w3.org/2000/svg" width="68" height="68" viewBox="0 0 68 68" fill="none">
  <mask id="mask0_1760_10371" style="mask-type:alpha" maskUnits="userSpaceOnUse" x="0" y="0" width="68" height="68">
    <rect width="68" height="68" fill="#D9D9D9"></rect>
  </mask>
  <g mask="url(#mask0_1760_10371)">
    <path d="M34.0012 62.3331C30.4595 62.3331 27.1426 61.6606 24.0505 60.3157C20.9565 58.969 18.2648 57.15 15.9755 54.8587C13.6843 52.5694 11.8653 49.8777 10.5185 46.7837C9.17362 43.6916 8.50117 40.3747 8.50117 36.8331C8.50117 33.2914 9.17362 29.9736 10.5185 26.8796C11.8653 23.7875 13.6843 21.0958 15.9755 18.8046C18.2648 16.5152 20.9565 14.6981 24.0505 13.3532C27.1426 12.0065 30.4595 11.3331 34.0012 11.3331C37.5428 11.3331 40.8607 12.0065 43.9547 13.3532C47.0468 14.6981 49.7385 16.5152 52.0297 18.8046C54.319 21.0958 56.1371 23.7875 57.4838 26.8796C58.8287 29.9736 59.5012 33.2914 59.5012 36.8331C59.5012 40.3747 58.8287 43.6916 57.4838 46.7837C56.1371 49.8777 54.319 52.5694 52.0297 54.8587C49.7385 57.15 47.0468 58.969 43.9547 60.3157C40.8607 61.6606 37.5428 62.3331 34.0012 62.3331ZM41.9345 48.7331L45.9012 44.7664L36.8345 35.6997V22.6664H31.1678V37.9664L41.9345 48.7331ZM15.8678 6.65808L19.8345 10.6247L7.79284 22.6664L3.82617 18.6997L15.8678 6.65808ZM52.1345 6.65808L64.1762 18.6997L60.2095 22.6664L48.1678 10.6247L52.1345 6.65808ZM34.0012 56.6664C39.5262 56.6664 44.2125 54.7416 48.0602 50.8921C51.9097 47.0444 53.8345 42.3581 53.8345 36.8331C53.8345 31.3081 51.9097 26.6208 48.0602 22.7712C44.2125 18.9236 39.5262 16.9997 34.0012 16.9997C28.4762 16.9997 23.7898 18.9236 19.9422 22.7712C16.0926 26.6208 14.1678 31.3081 14.1678 36.8331C14.1678 42.3581 16.0926 47.0444 19.9422 50.8921C23.7898 54.7416 28.4762 56.6664 34.0012 56.6664Z" fill="#1C1B1F"></path>
  </g>
</svg>
