<svg id="Layer_1" data-name="Layer 1" xmlns="http://www.w3.org/2000/svg" xmlns:xlink="http://www.w3.org/1999/xlink" viewBox="0 0 48 48"><defs><style>.cls-1{fill:none;}.cls-2{fill:#e6f7fe;}.cls-3{clip-path:url(#clip-path);}.cls-4{fill:#af2022;}</style><clipPath id="clip-path"><rect class="cls-1" x="14.5" y="12.5" width="23" height="23"/></clipPath></defs><path class="cls-2" d="M24,0h0A24,24,0,0,1,48,24h0A24,24,0,0,1,24,48h0A24,24,0,0,1,0,24H0A24,24,0,0,1,24,0Z"/><g class="cls-3"><path class="cls-4" d="M27,16.52H16.32a1.81,1.81,0,0,0-1.28.53,1.73,1.73,0,0,0-.54,1.29V33.66A1.75,1.75,0,0,0,15,35a1.81,1.81,0,0,0,1.28.53H27A1.79,1.79,0,0,0,28.29,35a1.73,1.73,0,0,0,.54-1.29V18.34a1.73,1.73,0,0,0-.54-1.29A1.79,1.79,0,0,0,27,16.52Zm.54,17.14a.47.47,0,0,1-.16.38.55.55,0,0,1-.38.16H16.32a.55.55,0,0,1-.38-.16.47.47,0,0,1-.16-.38V18.34a.55.55,0,0,1,.16-.39.46.46,0,0,1,.38-.17H27a.46.46,0,0,1,.38.17.55.55,0,0,1,.16.39ZM31.1,12.5H20.41a1.81,1.81,0,0,0-1.28.53,1.73,1.73,0,0,0-.54,1.29.55.55,0,0,0,.19.45.65.65,0,0,0,.46.18.67.67,0,0,0,.44-.18.64.64,0,0,0,.19-.45.55.55,0,0,1,.54-.54H31.1a.55.55,0,0,1,.54.54V29.64a.55.55,0,0,1-.16.39.5.5,0,0,1-.38.17.65.65,0,0,0-.46.18.63.63,0,0,0,0,.89h0a.65.65,0,0,0,.46.18,1.81,1.81,0,0,0,1.28-.53,1.73,1.73,0,0,0,.54-1.29V14.32A1.72,1.72,0,0,0,32.38,13,1.78,1.78,0,0,0,31.1,12.5Z"/></g></svg>