<svg fill="none" height="28" viewBox="0 0 22 28" width="22" xmlns="http://www.w3.org/2000/svg"><path d="m12.6981 17.7288c.0355.2262.0533.6218.0533 1.1871v4.4296h-.9594v-4.3821c0-.4975-.0373-.8692-.1119-1.1158-.0746-.2465-.207-.4432-.397-.5902-.1901-.1467-.4131-.2205-.6689-.2205-.4087 0-.76132.1651-1.05802.4952-.2967.3302-.44502.9565-.44502 1.879v3.9344h-.95937v-7.204h.86342v1.0243c.41572-.7914 1.01619-1.1871 1.80149-1.1871.3411 0 .6546.078.9407.234.286.1561.5001.3607.6422.614.1421.2532.2416.5539.2985.9021zm9.2824 5.661c-.27.0724-.5117.1085-.7249.1085-.3482 0-.6182-.07-.8101-.2103-.1919-.1401-.3269-.3245-.4051-.5528-.0781-.2281-.1172-.7088-.1172-1.4414v-4.35h-2.0829c.0047.0066.0101.012.0149.0185.4797.6557.7195 1.5783.7195 2.7677 0 .0723-.0018.1809-.0053.3255h-4.2212c.0355.7915.2114 1.3975.5276 1.818.3163.4205.7107.6308 1.1832.6308.3518 0 .652-.1175.9008-.3527.2487-.2352.4459-.6105.5916-1.126l.9914.156c-.1564.7371-.446 1.3092-.8688 1.7162-.4229.407-.963.6105-1.6203.6105-.8279 0-1.4844-.3245-1.9693-.9734-.4851-.6487-.7276-1.5591-.7276-2.7303 0-1.212.2452-2.1526.7355-2.822.4904-.6692 1.1264-1.0039 1.9081-1.0039.0945 0 .1871.0052.2773.0154h3.6454v-1.5629h.9541v1.5629h.9647v.9496h-.9647v4.4178c0 .3482.0168.5721.0506.6716s.0888.1786.1652.2374.1857.0882.3278.0882c.1066 0 .2469-.0159.4211-.0475zm-4.4184-4.3382c-.0427-.606-.1635-1.0605-.3625-1.3634-.3056-.4704-.7017-.7055-1.1885-.7055-.4406 0-.8111.1877-1.1113.563-.3002.3754-.4664.8773-.4983 1.5059zm-10.7762 2.8271c-.17338 0-.3205.0785-.44167.2381-.12118.1585-.1812.3503-.1812.5768 0 .2207.06002.4118.1812.5728.12117.161.26829.242.44167.242.17785 0 .32923-.081.45375-.242.12487-.161.18692-.3521.18692-.5728 0-.2211-.06201-.4128-.18692-.5736-.12456-.1617-.2759-.2413-.45375-.2413zm6.1517-7.0123c-.4975.2782-1.1246.4173-1.8814.4173-1.32896 0-2.24922-.3257-2.76089-.9769-.00215-.0027-.00413-.0056-.00627-.0083l.24079.8156h-2.52828l-.39106-1.6416h-2.74093l-.38092 1.6416h-2.4652025l2.9367425-9.94446h2.63364l1.96165 6.64416 2.16825-.1728c.04976.4748.15099.8367.30378 1.0854.2488.4025.6041.6037 1.066.6037.3446 0 .6103-.1028.7968-.3087.1866-.2058.2798-.4443.2798-.7156 0-.2578-.0888-.4885-.2664-.6919-.1777-.2036-.5899-.3957-1.2366-.5767-1.0588-.3028-1.81384-.7054-2.2651-1.20736-.45482-.50203-.68221-1.14188-.68221-1.91975 0-.511.11635-.99379.34912-1.44824.23272-.45451.58274-.81162 1.04998-1.07176.46724-.26004 1.10771-.39009 1.92141-.39009.9984 0 1.7597.23641 2.2838.70886.5241.47261.8359 1.22445.9354 2.25548l-2.2758.16964c-.0604-.44773-.1875-.77334-.3811-.97683s-.461-.30521-.8021-.30521c-.2807 0-.4921.07574-.6343.22722-.1421.15154-.21316.33579-.21316.55279 0 .15837.05866.30089.17586.42732.1137.13125.3838.25337.8101.3663 1.0554.28946 1.8113.58237 2.2679.87845.4565.29618.7888.66374.9966 1.10228.1065.2247.1853.4633.2372.7153v-5.95196h4.0134c.874 0 1.5287.26452 1.964.79363.4353.52915.6529 1.28204.6529 2.25892 0 1.0039-.2372 1.78851-.7116 2.35381-.4743.5654-1.1983.8479-2.1719.8479h-1.3218v3.6902h-2.425v-2.4537c-.0677.3438-.1812.6711-.3412.9818-.2772.5381-.6645.9462-1.1619 1.2242zm3.928-5.45717h.5917c.4654 0 .7923-.10281.9807-.30871.1883-.20573.2824-.46905.2824-.79023 0-.31205-.0817-.57657-.2451-.79368-.1635-.21706-.4709-.32561-.9221-.32561h-.6876zm-11.75591 1.91287-.86238-3.57476-.85349 3.57476z" fill="#000"/></svg>