<svg id="Layer_1" data-name="Layer 1" xmlns="http://www.w3.org/2000/svg" viewBox="0 0 41.48 41.53"><defs><style>.cls-1{fill:#af2022;}</style></defs><path class="cls-1" d="M27.49,6.23A2.59,2.59,0,0,1,24.9,3.66v0a2.6,2.6,0,1,1,5.19-.32,1.71,1.71,0,0,1,0,.32,2.59,2.59,0,0,1-2.58,2.6Zm0,34.23a2.58,2.58,0,1,1,1.84-.75A2.53,2.53,0,0,1,27.49,40.46Zm8.3-27a2.6,2.6,0,1,1,1.84-.75,2.49,2.49,0,0,1-1.84.82Zm0,19.71a2.6,2.6,0,1,1,1.85-.77A2.59,2.59,0,0,1,35.79,33.17Zm3.11-9.86a2.56,2.56,0,1,1,1.85-.75,2.49,2.49,0,0,1-1.85.78ZM20.75,41.53a20.15,20.15,0,0,1-8.1-1.66,20.77,20.77,0,0,1-11-11A20.1,20.1,0,0,1,0,20.78a20.21,20.21,0,0,1,1.63-8.12,20.77,20.77,0,0,1,11-11A20.32,20.32,0,0,1,20.75,0V4.15A16,16,0,0,0,9,9,16.09,16.09,0,0,0,4.15,20.75a16.46,16.46,0,0,0,16.32,16.6h.28Zm0-16.6a4.17,4.17,0,0,1-4.1-4.18v-.54a2.1,2.1,0,0,1,.13-.55l-4.3-4.3,2.9-2.91,4.27,4.31a9.87,9.87,0,0,1,1.09-.16,4.14,4.14,0,0,1,4.14,4.14,4.2,4.2,0,0,1-1.23,2.94,4,4,0,0,1-2.9,1.22Z" transform="translate(-0.02 0)"/></svg>