<?xml version="1.0" encoding="UTF-8"?>
<svg xmlns="http://www.w3.org/2000/svg" width="50" height="51" viewBox="0 0 50 51" fill="none">
  <mask id="mask0_11337_4135" style="mask-type:alpha" maskUnits="userSpaceOnUse" x="0" y="0" width="50" height="51">
    <rect x="0.199219" y="0.320312" width="49.8008" height="49.8008" fill="#D9D9D9"></rect>
  </mask>
  <g mask="url(#mask0_11337_4135)">
    <path d="M31.8418 10.6956C31.1156 10.6956 30.5017 10.4448 30.0002 9.94336C29.4988 9.44189 29.248 8.82803 29.248 8.10177C29.248 7.3755 29.4988 6.76164 30.0002 6.26017C30.5017 5.75871 31.1156 5.50798 31.8418 5.50798C32.5681 5.50798 33.182 5.75871 33.6834 6.26017C34.1849 6.76164 34.4356 7.3755 34.4356 8.10177C34.4356 8.82803 34.1849 9.44189 33.6834 9.94336C33.182 10.4448 32.5681 10.6956 31.8418 10.6956ZM31.8418 44.9336C31.1156 44.9336 30.5017 44.6829 30.0002 44.1814C29.4988 43.6799 29.248 43.0661 29.248 42.3398C29.248 41.6135 29.4988 40.9997 30.0002 40.4982C30.5017 39.9967 31.1156 39.746 31.8418 39.746C32.5681 39.746 33.182 39.9967 33.6834 40.4982C34.1849 40.9997 34.4356 41.6135 34.4356 42.3398C34.4356 43.0661 34.1849 43.6799 33.6834 44.1814C33.182 44.6829 32.5681 44.9336 31.8418 44.9336ZM40.142 17.9582C39.4157 17.9582 38.8018 17.7074 38.3004 17.206C37.7989 16.7045 37.5482 16.0906 37.5482 15.3644C37.5482 14.6381 37.7989 14.0243 38.3004 13.5228C38.8018 13.0213 39.4157 12.7706 40.142 12.7706C40.8682 12.7706 41.4821 13.0213 41.9836 13.5228C42.485 14.0243 42.7358 14.6381 42.7358 15.3644C42.7358 16.0906 42.485 16.7045 41.9836 17.206C41.4821 17.7074 40.8682 17.9582 40.142 17.9582ZM40.142 37.671C39.4157 37.671 38.8018 37.4202 38.3004 36.9188C37.7989 36.4173 37.5482 35.8035 37.5482 35.0772C37.5482 34.3509 37.7989 33.7371 38.3004 33.2356C38.8018 32.7341 39.4157 32.4834 40.142 32.4834C40.8682 32.4834 41.4821 32.7341 41.9836 33.2356C42.485 33.7371 42.7358 34.3509 42.7358 35.0772C42.7358 35.8035 42.485 36.4173 41.9836 36.9188C41.4821 37.4202 40.8682 37.671 40.142 37.671ZM43.2545 27.8146C42.5283 27.8146 41.9144 27.5638 41.4129 27.0624C40.9115 26.5609 40.6607 25.947 40.6607 25.2208C40.6607 24.4945 40.9115 23.8807 41.4129 23.3792C41.9144 22.8777 42.5283 22.627 43.2545 22.627C43.9808 22.627 44.5946 22.8777 45.0961 23.3792C45.5976 23.8807 45.8483 24.4945 45.8483 25.2208C45.8483 25.947 45.5976 26.5609 45.0961 27.0624C44.5946 27.5638 43.9808 27.8146 43.2545 27.8146ZM25.098 45.9711C22.2275 45.9711 19.53 45.4264 17.0054 44.337C14.4807 43.2476 12.2847 41.7692 10.4171 39.9016C8.5496 38.0341 7.07114 35.838 5.98174 33.3134C4.89235 30.7888 4.34766 28.0912 4.34766 25.2208C4.34766 22.3503 4.89235 19.6528 5.98174 17.1282C7.07114 14.6035 8.5496 12.4075 10.4171 10.5399C12.2847 8.6724 14.4807 7.19394 17.0054 6.10455C19.53 5.01516 22.2275 4.47046 25.098 4.47046V8.62052C20.4637 8.62052 16.5385 10.2287 13.3222 13.445C10.1059 16.6613 8.49772 20.5865 8.49772 25.2208C8.49772 29.855 10.1059 33.7803 13.3222 36.9966C16.5385 40.2129 20.4637 41.821 25.098 41.821V45.9711ZM25.098 29.3709C23.9567 29.3709 22.9797 28.9645 22.167 28.1518C21.3543 27.3391 20.9479 26.3621 20.9479 25.2208C20.9479 25.0479 20.9566 24.8663 20.9739 24.6761C20.9911 24.4859 21.0344 24.3043 21.1035 24.1314L16.7979 19.8257L19.7029 16.9207L24.0086 21.2263C24.1469 21.1918 24.5101 21.1399 25.098 21.0707C26.2393 21.0707 27.2162 21.4771 28.029 22.2898C28.8417 23.1025 29.248 24.0795 29.248 25.2208C29.248 26.3621 28.8417 27.3391 28.029 28.1518C27.2162 28.9645 26.2393 29.3709 25.098 29.3709Z" fill="#511374"></path>
  </g>
</svg>
