<svg width="18" height="17" viewBox="0 0 18 17" fill="none" xmlns="http://www.w3.org/2000/svg">
<g clip-path="url(#clip0_14834_3043)">
<path d="M15.8259 3.77236H12.4201V2.0851C12.4097 1.61642 12.2405 1.21804 11.9124 0.889967C11.5843 0.561891 11.1859 0.397852 10.7172 0.397852C10.7172 0.397852 10.712 0.397852 10.7016 0.397852H7.29587C7.29587 0.397852 7.29327 0.397852 7.28806 0.397852C7.28286 0.397852 7.28025 0.397852 7.28025 0.397852C6.81157 0.397852 6.41319 0.561891 6.08511 0.889967C5.75704 1.21804 5.593 1.61642 5.593 2.0851V3.77236H2.17163C2.17163 3.77236 2.16902 3.77236 2.16381 3.77236C2.15861 3.77236 2.156 3.77236 2.156 3.77236C1.69774 3.77236 1.30456 3.9364 0.976488 4.26447C0.648411 4.59255 0.484373 4.98572 0.484373 5.44399L0.46875 14.7083C0.46875 15.1769 0.632788 15.5753 0.960865 15.9034C1.28894 16.2315 1.68732 16.3955 2.156 16.3955C2.156 16.3955 2.15861 16.3955 2.16381 16.3955C2.16902 16.3955 2.17163 16.3955 2.17163 16.3955H15.8259C15.8259 16.3955 15.8285 16.3955 15.8337 16.3955C15.8389 16.3955 15.8415 16.3955 15.8415 16.3955C16.3102 16.3955 16.7086 16.2315 17.0366 15.9034C17.3647 15.5753 17.5287 15.1769 17.5287 14.7083V5.44399C17.5287 4.98572 17.3647 4.59255 17.0366 4.26447C16.7086 3.9364 16.3102 3.77236 15.8415 3.77236C15.8415 3.77236 15.8389 3.77236 15.8337 3.77236C15.8285 3.77236 15.8259 3.77236 15.8259 3.77236ZM10.7016 3.77236H7.29587V2.0851H10.7016V3.77236Z" fill="#3D1554"/>
</g>
<defs>
<clipPath id="clip0_14834_3043">
<rect width="17.06" height="16" fill="white" transform="matrix(1 0 0 -1 0.46875 16.3965)"/>
</clipPath>
</defs>
</svg>
