<?xml version="1.0" encoding="UTF-8"?>
<svg xmlns="http://www.w3.org/2000/svg" width="46" height="46" viewBox="0 0 46 46" fill="none">
  <g clip-path="url(#clip0_15696_22373)">
    <path d="M24.4375 46H21.5625C20.4188 46 19.3219 45.5457 18.5131 44.7369C17.7044 43.9281 17.25 42.8312 17.25 41.6875C17.2406 41.4053 17.1484 41.1322 16.9848 40.9021C16.8212 40.672 16.5934 40.4952 16.33 40.3937C15.985 40.2979 15.6687 40.1829 15.3812 40.0488C15.129 39.9256 14.8461 39.8791 14.5677 39.9148C14.2892 39.9506 14.0274 40.0671 13.8144 40.25C13.0089 41.0359 11.9281 41.4757 10.8028 41.4757C9.67748 41.4757 8.59673 41.0359 7.79125 40.25L5.75 38.2088C4.96415 37.4033 4.52427 36.3225 4.52427 35.1972C4.52427 34.0719 4.96415 32.9911 5.75 32.1856C5.94229 31.9788 6.06937 31.7198 6.11539 31.4412C6.16141 31.1625 6.12432 30.8765 6.00875 30.6187C5.83625 30.3312 5.68771 30.015 5.56312 29.67C5.46461 29.413 5.29439 29.1897 5.0727 29.0266C4.85101 28.8636 4.58716 28.7675 4.3125 28.75C3.16875 28.75 2.07185 28.2956 1.2631 27.4869C0.454351 26.6781 0 25.5812 0 24.4375L0 21.5625C0 20.4188 0.454351 19.3219 1.2631 18.5131C2.07185 17.7044 3.16875 17.25 4.3125 17.25C4.59466 17.2406 4.86782 17.1484 5.09789 16.9848C5.32797 16.8212 5.50477 16.5934 5.60625 16.33C5.70208 15.985 5.81708 15.6687 5.95125 15.3812C6.07437 15.129 6.12092 14.8461 6.08515 14.5677C6.04939 14.2892 5.93288 14.0274 5.75 13.8144C4.96415 13.0089 4.52427 11.9281 4.52427 10.8028C4.52427 9.67748 4.96415 8.59673 5.75 7.79125L7.79125 5.75C8.59673 4.96415 9.67748 4.52427 10.8028 4.52427C11.9281 4.52427 13.0089 4.96415 13.8144 5.75C14.0212 5.94229 14.2802 6.06937 14.5588 6.11539C14.8375 6.16141 15.1235 6.12432 15.3812 6.00875L16.33 5.62063C16.5957 5.5182 16.8249 5.3392 16.9887 5.10631C17.1525 4.87342 17.2434 4.59714 17.25 4.3125C17.25 3.16875 17.7044 2.07185 18.5131 1.2631C19.3219 0.454351 20.4188 0 21.5625 0L24.4375 0C25.5812 0 26.6781 0.454351 27.4869 1.2631C28.2956 2.07185 28.75 3.16875 28.75 4.3125C28.7594 4.59466 28.8516 4.86782 29.0152 5.09789C29.1788 5.32797 29.4066 5.50477 29.67 5.60625L30.6187 5.99438C30.8751 6.1118 31.1603 6.15125 31.4389 6.1078C31.7175 6.06435 31.9772 5.93992 32.1856 5.75C32.9911 4.96415 34.0719 4.52427 35.1972 4.52427C36.3225 4.52427 37.4033 4.96415 38.2088 5.75L40.25 7.79125C41.0359 8.59673 41.4757 9.67748 41.4757 10.8028C41.4757 11.9281 41.0359 13.0089 40.25 13.8144C40.0577 14.0212 39.9306 14.2802 39.8846 14.5588C39.8386 14.8375 39.8757 15.1235 39.9912 15.3812C40.135 15.6975 40.2644 16.0138 40.3794 16.33C40.4818 16.5957 40.6608 16.8249 40.8937 16.9887C41.1266 17.1525 41.4029 17.2434 41.6875 17.25C42.8312 17.25 43.9281 17.7044 44.7369 18.5131C45.5457 19.3219 46 20.4188 46 21.5625V24.4375C46 25.5812 45.5457 26.6781 44.7369 27.4869C43.9281 28.2956 42.8312 28.75 41.6875 28.75C41.4053 28.7594 41.1322 28.8516 40.9021 29.0152C40.672 29.1788 40.4952 29.4066 40.3937 29.67C40.2788 29.9862 40.1494 30.3025 40.0056 30.6187C39.8919 30.8778 39.8572 31.1647 39.9057 31.4434C39.9543 31.7221 40.0841 31.9803 40.2788 32.1856C41.0646 32.9911 41.5045 34.0719 41.5045 35.1972C41.5045 36.3225 41.0646 37.4033 40.2788 38.2088L38.2088 40.25C37.9394 40.5177 37.5751 40.668 37.1953 40.668C36.8155 40.668 36.4512 40.5177 36.1819 40.25C35.9141 39.9807 35.7639 39.6163 35.7639 39.2366C35.7639 38.8568 35.9141 38.4925 36.1819 38.2231L38.2806 36.1244C38.5313 35.8578 38.6708 35.5056 38.6708 35.1397C38.6708 34.7738 38.5313 34.4216 38.2806 34.155C37.6749 33.5377 37.2687 32.7525 37.1149 31.9015C36.9611 31.0504 37.0668 30.1728 37.4181 29.3825C37.5475 29.1238 37.6481 28.8506 37.7631 28.5775C38.0679 27.7835 38.6059 27.1003 39.3064 26.618C40.0069 26.1356 40.837 25.8766 41.6875 25.875C42.0687 25.875 42.4344 25.7236 42.704 25.454C42.9735 25.1844 43.125 24.8187 43.125 24.4375V21.5625C43.125 21.1813 42.9735 20.8156 42.704 20.546C42.4344 20.2765 42.0687 20.125 41.6875 20.125C40.8237 20.1167 39.9823 19.8491 39.2723 19.357C38.5624 18.8649 38.0166 18.1709 37.7056 17.365C37.6103 17.0908 37.5 16.822 37.375 16.56C37.0236 15.7697 36.918 14.8921 37.0718 14.041C37.2256 13.19 37.6318 12.4048 38.2375 11.7875C38.4882 11.5209 38.6277 11.1687 38.6277 10.8028C38.6277 10.4369 38.4882 10.0847 38.2375 9.81812L36.1819 7.71937C35.9153 7.46871 35.5631 7.32916 35.1972 7.32916C34.8313 7.32916 34.4791 7.46871 34.2125 7.71937C33.5952 8.32512 32.81 8.73126 31.959 8.88507C31.1079 9.03888 30.2303 8.93324 29.44 8.58187C29.178 8.45692 28.9092 8.34654 28.635 8.25125C27.8358 7.94305 27.1465 7.40384 26.6549 6.70236C26.1634 6.00087 25.8919 5.1689 25.875 4.3125C25.875 3.93125 25.7236 3.56562 25.454 3.29603C25.1844 3.02645 24.8187 2.875 24.4375 2.875H21.5625C21.1813 2.875 20.8156 3.02645 20.546 3.29603C20.2765 3.56562 20.125 3.93125 20.125 4.3125C20.1167 5.1763 19.8491 6.01769 19.357 6.72765C18.8649 7.43762 18.1709 7.98343 17.365 8.29438C17.0908 8.38967 16.822 8.50004 16.56 8.625C15.7697 8.97636 14.8921 9.082 14.041 8.92819C13.19 8.77439 12.4048 8.36824 11.7875 7.7625C11.5209 7.51184 11.1687 7.37228 10.8028 7.37228C10.4369 7.37228 10.0847 7.51184 9.81812 7.7625L7.71937 9.81812C7.46871 10.0847 7.32916 10.4369 7.32916 10.8028C7.32916 11.1687 7.46871 11.5209 7.71937 11.7875C8.3323 12.3999 8.74653 13.1828 8.90807 14.0341C9.06961 14.8854 8.97097 15.7656 8.625 16.56C8.49562 16.8188 8.395 17.0919 8.28 17.365C7.98195 18.1767 7.44132 18.8769 6.73152 19.3707C6.02172 19.8645 5.17715 20.1278 4.3125 20.125C3.93125 20.125 3.56562 20.2765 3.29603 20.546C3.02645 20.8156 2.875 21.1813 2.875 21.5625V24.4375C2.875 24.8187 3.02645 25.1844 3.29603 25.454C3.56562 25.7236 3.93125 25.875 4.3125 25.875C5.1763 25.8833 6.01769 26.1509 6.72765 26.643C7.43762 27.1351 7.98343 27.8291 8.29438 28.635C8.38967 28.9092 8.50004 29.178 8.625 29.44C8.97636 30.2303 9.082 31.1079 8.92819 31.959C8.77439 32.81 8.36824 33.5952 7.7625 34.2125C7.51184 34.4791 7.37228 34.8313 7.37228 35.1972C7.37228 35.5631 7.51184 35.9153 7.7625 36.1819L9.86125 38.2806C10.1278 38.5313 10.48 38.6708 10.8459 38.6708C11.2119 38.6708 11.564 38.5313 11.8306 38.2806C12.4479 37.6749 13.2331 37.2687 14.0841 37.1149C14.9352 36.9611 15.8129 37.0668 16.6031 37.4181C16.8652 37.5431 17.1339 37.6535 17.4081 37.7487C18.1993 38.0637 18.8794 38.6058 19.3629 39.3068C19.8464 40.0077 20.1116 40.8361 20.125 41.6875C20.125 42.0687 20.2765 42.4344 20.546 42.704C20.8156 42.9735 21.1813 43.125 21.5625 43.125H24.4375C24.8187 43.125 25.1844 42.9735 25.454 42.704C25.7236 42.4344 25.875 42.0687 25.875 41.6875C25.8833 40.8237 26.1509 39.9823 26.643 39.2723C27.1351 38.5624 27.8291 38.0166 28.635 37.7056C28.9092 37.6103 29.178 37.5 29.44 37.375C29.7888 37.2187 30.1855 37.2074 30.5427 37.3435C30.8999 37.4796 31.1884 37.7521 31.3447 38.1009C31.501 38.4498 31.5123 38.8464 31.3762 39.2036C31.2401 39.5608 30.9676 39.8493 30.6187 40.0056C30.3025 40.1494 29.9862 40.2788 29.67 40.3937C29.4066 40.4952 29.1788 40.672 29.0152 40.9021C28.8516 41.1322 28.7594 41.4053 28.75 41.6875C28.75 42.8312 28.2956 43.9281 27.4869 44.7369C26.6781 45.5457 25.5812 46 24.4375 46Z" fill="#CC3199"></path>
    <path d="M34.5 28.9226C34.5 28.4914 34.5 30.7051 34.5 17.2501C34.4914 17.0368 34.4426 16.8271 34.3562 16.632C34.0688 16.0282 34.5144 16.4307 23.7188 10.2495C23.5002 10.1233 23.2523 10.0569 23 10.0569C22.7477 10.0569 22.4998 10.1233 22.2812 10.2495C11.27 16.5457 11.8594 15.9995 11.6006 16.7613C11.5 17.1495 11.5 16.1432 11.5 28.7501C11.5242 28.9053 11.5578 29.0589 11.6006 29.2101C11.6664 29.3786 11.7533 29.538 11.8594 29.6845L12.2188 30.0007C23 36.1388 22.4825 35.9376 23 35.9376C23.5175 35.9376 23 36.1676 33.7812 30.0007L34.1406 29.6845C34.3449 29.4797 34.4719 29.2105 34.5 28.9226ZM14.375 19.7226L21.5625 23.8338V32.0276L14.375 27.9163V19.7226ZM24.4375 23.8338L31.625 19.7226V27.9163L24.4375 32.0276V23.8338ZM23 13.1532L30.1875 17.2501L23 21.347L15.8125 17.2501L23 13.1532Z" fill="#CC3199"></path>
  </g>
  <defs>
    <clipPath id="clip0_15696_22373">
      <rect width="46" height="46" fill="white"></rect>
    </clipPath>
  </defs>
</svg>
