<?xml version="1.0" encoding="UTF-8"?>
<svg xmlns="http://www.w3.org/2000/svg" width="28" height="34" viewBox="0 0 28 34" fill="none">
  <g clip-path="url(#clip0_8751_14055)">
    <path d="M25.1003 17.3249C25.1003 17.0101 25.1003 16.6954 25.1003 16.3807C25.1003 16.3621 25.1003 16.345 25.1003 16.3278C25.1003 16.3106 25.0884 16.2762 25.0514 16.2722C24.9319 16.2579 24.8137 16.2336 24.6983 16.1995C24.3124 16.0823 23.9705 15.8519 23.717 15.5383C23.4566 15.2138 23.254 14.847 23.118 14.4538C22.9421 13.967 22.818 13.463 22.7477 12.9502C22.6197 12.0459 22.5754 11.1317 22.6154 10.2193C22.6245 10.0545 22.6129 9.88928 22.581 9.72737C22.55 9.57222 22.5058 9.42002 22.4488 9.27244C22.3509 9.03315 22.2171 8.81018 22.0521 8.61121C21.8535 8.37304 21.6053 8.18121 21.3247 8.04916C21.0442 7.91711 20.7381 7.84805 20.4281 7.84683H17.1365C16.9328 7.84683 16.7305 7.84683 16.5268 7.84683H16.4303C13.3675 7.84683 10.3055 7.84683 7.24448 7.84683C6.09923 7.8098 5.19466 8.69188 5.0201 9.73001C4.9937 9.88948 4.98307 10.0512 4.98836 10.2127C5.00423 10.6571 5.00555 11.1014 4.98836 11.5457C4.96585 12.349 4.85452 13.1474 4.65642 13.9262C4.54721 14.3505 4.38176 14.7584 4.16447 15.1389C4.01934 15.3965 3.83102 15.6274 3.60771 15.8213C3.29058 16.0891 2.89639 16.2489 2.4823 16.2775V17.4254C2.76706 17.4474 3.04393 17.5295 3.29466 17.6663C3.5454 17.803 3.76432 17.9914 3.93701 18.2189C4.18759 18.55 4.38236 18.9199 4.5136 19.3139C4.66939 19.7638 4.7823 20.2274 4.85082 20.6985C4.93549 21.2568 4.9832 21.82 4.99365 22.3846C4.99365 22.4018 4.99365 22.419 4.99365 22.4362C4.99365 22.4957 4.99365 22.5539 4.99365 22.6121C5.00291 22.9215 4.99365 23.2297 4.98307 23.5378C4.9757 23.9173 5.06152 24.2928 5.23302 24.6315C5.34898 24.8621 5.50326 25.0714 5.68926 25.2504C5.97079 25.5242 6.32212 25.7154 6.70491 25.8032C6.83513 25.8348 6.9679 25.8547 7.10165 25.8627H20.5722C20.6493 25.844 20.7275 25.8299 20.8063 25.8204C21.1512 25.7549 21.4754 25.6076 21.7516 25.3909C22.0277 25.1741 22.2478 24.8941 22.3932 24.5746C22.5643 24.2205 22.6417 23.8285 22.6181 23.436C22.5947 22.8239 22.6071 22.211 22.6551 21.6004C22.6923 21.066 22.7714 20.5354 22.8918 20.0135C22.9966 19.5332 23.1665 19.0696 23.397 18.6355C23.5725 18.3003 23.8211 18.0088 24.1243 17.7825C24.3836 17.5963 24.6847 17.4768 25.0011 17.4347C25.1241 17.4241 25.1003 17.4333 25.1003 17.3249ZM17.6046 19.5136C17.5748 19.6694 17.5305 19.8222 17.4724 19.9698C17.4129 20.1166 17.3403 20.2578 17.2555 20.3917C17.1466 20.565 17.013 20.7213 16.8588 20.8559C16.6259 21.0551 16.3641 21.2178 16.0825 21.3386C15.8382 21.4412 15.5843 21.5196 15.3247 21.5726C15.14 21.6092 14.9532 21.634 14.7653 21.6467C14.5537 21.6639 14.3421 21.6652 14.1305 21.6652H10.4554C10.3232 21.6652 10.3232 21.6652 10.3232 21.533V12.1792C10.3232 12.1382 10.3232 12.0972 10.3232 12.0562C10.3247 12.0543 10.3255 12.052 10.3255 12.0496C10.3255 12.0472 10.3247 12.0449 10.3232 12.043C10.3562 12.043 10.388 12.043 10.4197 12.043H14.272C14.7353 12.0372 15.1959 12.1152 15.6315 12.2731C15.9636 12.3941 16.2664 12.5838 16.5202 12.8299C16.8517 13.1663 17.0695 13.598 17.1433 14.0645C17.217 14.531 17.143 15.0089 16.9315 15.4311C16.793 15.7072 16.5955 15.9494 16.353 16.1406C16.1106 16.3319 15.829 16.4676 15.5284 16.538L15.4146 16.5632C15.4822 16.5877 15.5523 16.6045 15.6236 16.6134C15.7774 16.6399 15.9287 16.6792 16.0759 16.7311C16.4758 16.8631 16.8327 17.1007 17.1087 17.4188C17.2185 17.5537 17.3163 17.6979 17.401 17.8499C17.4806 18.0058 17.5418 18.1705 17.5835 18.3405C17.6808 18.7247 17.6881 19.1262 17.6046 19.5136Z" fill="#7711F7"></path>
    <path d="M10.3232 12.0561C10.3247 12.0543 10.3256 12.0519 10.3256 12.0495C10.3256 12.0471 10.3247 12.0448 10.3232 12.0429C10.3563 12.0429 10.388 12.0429 10.4198 12.0429H14.2721C14.7354 12.0371 15.196 12.1151 15.6316 12.273C15.9637 12.394 16.2665 12.5837 16.5203 12.8298C16.8517 13.1662 17.0696 13.5979 17.1434 14.0644C17.2171 14.5309 17.1431 15.0088 16.9316 15.431C16.7931 15.7071 16.5956 15.9493 16.3531 16.1405C16.1107 16.3318 15.8291 16.4675 15.5284 16.5379L15.4147 16.5631C15.4823 16.5876 15.5524 16.6044 15.6237 16.6133C15.7775 16.6398 15.9288 16.6792 16.0759 16.731C16.4759 16.863 16.8328 17.1006 17.1088 17.4187C17.2186 17.5536 17.3164 17.6978 17.401 17.8498C17.4807 18.0057 17.5419 18.1704 17.5835 18.3405C17.7153 18.8845 17.6732 19.4561 17.4632 19.975C17.4037 20.1218 17.3311 20.263 17.2463 20.3969C17.1375 20.5702 17.0038 20.7265 16.8496 20.8611C16.6167 21.0603 16.355 21.223 16.0733 21.3438C15.829 21.4464 15.5752 21.5248 15.3155 21.5778C15.1308 21.6145 14.944 21.6392 14.7561 21.6519C14.5445 21.6691 14.3329 21.6704 14.1213 21.6704H10.4555C10.3232 21.6704 10.3232 21.6704 10.3232 21.5382V12.1791C10.3272 12.1381 10.3246 12.0971 10.3232 12.0561ZM12.0874 16.1121C12.1312 16.1187 12.1758 16.1187 12.2196 16.1121C12.2311 16.1128 12.2426 16.1128 12.254 16.1121H13.6889C13.7387 16.1149 13.7886 16.1105 13.837 16.0989C13.8874 16.1028 13.9381 16.1002 13.9878 16.091C14.0134 16.0942 14.0394 16.0905 14.0632 16.0804C14.0916 16.0837 14.1205 16.081 14.1478 16.0724C14.1665 16.075 14.1856 16.0713 14.202 16.0619C14.2692 16.0617 14.3358 16.0501 14.3991 16.0275C14.6189 15.9794 14.8294 15.8954 15.0219 15.7789C15.2906 15.6139 15.4843 15.3505 15.5615 15.0449C15.6283 14.7873 15.6283 14.5169 15.5615 14.2593C15.5101 14.0432 15.3938 13.848 15.2282 13.6999C14.9724 13.48 14.6523 13.3487 14.3157 13.3257C14.2656 13.3088 14.2123 13.303 14.1597 13.3085C14.0634 13.2946 13.966 13.2893 13.8688 13.2926H12.0067C11.8864 13.2926 11.897 13.2807 11.897 13.4011C11.897 14.2686 11.897 15.1361 11.897 16.0037C11.8917 16.0356 11.8917 16.0682 11.897 16.1002C11.9584 16.1205 12.024 16.1246 12.0874 16.1121ZM14.5763 20.3585C14.6056 20.3591 14.6348 20.3565 14.6636 20.3506C14.8305 20.324 14.994 20.2796 15.1515 20.2183C15.3415 20.1527 15.5141 20.045 15.6566 19.9033C15.799 19.7615 15.9076 19.5894 15.9741 19.3997C16.0556 19.1523 16.0804 18.8897 16.0468 18.6314C16.0321 18.4308 15.9698 18.2366 15.8652 18.0649C15.7605 17.8931 15.6166 17.7487 15.4451 17.6435C15.353 17.5859 15.2556 17.5372 15.1542 17.498C14.8319 17.3746 14.4902 17.3097 14.1452 17.3063C13.4297 17.2904 12.7142 17.3063 11.9988 17.3063C11.8837 17.3063 11.897 17.3063 11.897 17.4055V20.3374C11.897 20.4154 11.897 20.4154 11.9737 20.4167C11.9798 20.4174 11.986 20.4174 11.9922 20.4167H13.9534C14.0856 20.4167 14.2179 20.4167 14.3581 20.3982C14.3841 20.4014 14.4106 20.3978 14.4348 20.3876C14.4618 20.3929 14.4897 20.3929 14.5168 20.3876C14.5395 20.3855 14.5606 20.3751 14.5763 20.3585Z" fill="white"></path>
    <path d="M14.358 20.3878C14.2258 20.401 14.0936 20.4063 13.9534 20.4063H11.9922C11.986 20.4069 11.9798 20.4069 11.9736 20.4063C11.8983 20.4063 11.8983 20.4063 11.8969 20.3269V17.395C11.8969 17.2919 11.8837 17.2959 11.9988 17.2959C12.7142 17.2959 13.4297 17.2866 14.1451 17.2959C14.4902 17.2993 14.8319 17.3642 15.1542 17.4876C15.2556 17.5267 15.353 17.5755 15.4451 17.6331C15.6165 17.7382 15.7605 17.8827 15.8651 18.0544C15.9698 18.2262 16.032 18.4204 16.0468 18.621C16.0804 18.8793 16.0555 19.1419 15.9741 19.3893C15.9076 19.5789 15.799 19.7511 15.6566 19.8928C15.5141 20.0346 15.3415 20.1423 15.1515 20.2079C14.994 20.2692 14.8304 20.3135 14.6635 20.3402C14.6348 20.346 14.6055 20.3487 14.5762 20.3481C14.5556 20.3455 14.5347 20.3496 14.5167 20.36C14.4901 20.3652 14.4627 20.3652 14.4361 20.36C14.4078 20.3607 14.3804 20.3704 14.358 20.3878Z" fill="#7711F7"></path>
    <path d="M12.2195 16.1121C12.1757 16.1187 12.1311 16.1187 12.0873 16.1121C12.0269 16.0992 11.9649 16.096 11.9035 16.1029C11.8982 16.0709 11.8982 16.0383 11.9035 16.0063C11.9035 15.1388 11.9035 14.2712 11.9035 13.4037C11.9035 13.2834 11.8929 13.2953 12.0132 13.2953H13.8753C13.9725 13.2919 14.0699 13.2973 14.1662 13.3111C14.2162 13.3288 14.2696 13.3347 14.3223 13.3283C14.6588 13.3513 14.9789 13.4826 15.2348 13.7026C15.4003 13.8507 15.5166 14.0459 15.568 14.262C15.6348 14.5196 15.6348 14.7899 15.568 15.0475C15.4908 15.3532 15.2971 15.6166 15.0284 15.7815C14.8359 15.898 14.6254 15.982 14.4056 16.0301C14.3423 16.0527 14.2757 16.0644 14.2085 16.0645C14.1898 16.0627 14.171 16.0664 14.1543 16.0751C14.127 16.0837 14.0981 16.0864 14.0697 16.083C14.044 16.0799 14.0181 16.0836 13.9943 16.0936C13.9446 16.1028 13.8939 16.1055 13.8435 16.1015H12.2883C12.2649 16.0996 12.2413 16.1033 12.2195 16.1121Z" fill="#7711F7"></path>
    <path d="M12.2196 16.112C12.2414 16.1032 12.2649 16.0996 12.2884 16.1014H13.837C13.7885 16.113 13.7386 16.1175 13.6889 16.1147H12.254C12.2425 16.1144 12.231 16.1135 12.2196 16.112Z" fill="#8712FB"></path>
    <path d="M11.9036 16.103C11.9649 16.0962 12.027 16.0993 12.0874 16.1123C12.0263 16.1245 11.9631 16.1213 11.9036 16.103Z" fill="#8712FB"></path>
    <path d="M14.3196 13.3283C14.267 13.3346 14.2136 13.3287 14.1636 13.3111C14.2162 13.3056 14.2694 13.3114 14.3196 13.3283Z" fill="#8712FB"></path>
    <path d="M13.9878 16.0936C14.0116 16.0835 14.0376 16.0799 14.0632 16.083C14.0394 16.0931 14.0134 16.0968 13.9878 16.0936Z" fill="#8712FB"></path>
    <path d="M14.3579 20.3876C14.3822 20.3762 14.4095 20.3725 14.4359 20.377C14.4112 20.387 14.3844 20.3906 14.3579 20.3876Z" fill="#8712FB"></path>
    <path d="M14.1477 16.0751C14.1644 16.0664 14.1832 16.0628 14.2019 16.0645C14.1855 16.0739 14.1665 16.0776 14.1477 16.0751Z" fill="#8712FB"></path>
    <path d="M14.5166 20.3705C14.5346 20.3601 14.5555 20.3559 14.5761 20.3586C14.5581 20.369 14.5372 20.3732 14.5166 20.3705Z" fill="#8712FB"></path>
  </g>
  <defs>
    <clipPath id="clip0_8751_14055">
      <rect width="26.4492" height="33.6626" fill="white" transform="translate(0.56604 0.0267334)"></rect>
    </clipPath>
  </defs>
</svg>
