<svg id="Layer_1" data-name="Layer 1" xmlns="http://www.w3.org/2000/svg" xmlns:xlink="http://www.w3.org/1999/xlink" viewBox="0 0 48.05 48"><defs><style>.cls-1{fill:none;}.cls-2{clip-path:url(#clip-path);}.cls-3{fill:#af2022;fill-rule:evenodd;}</style><clipPath id="clip-path" transform="translate(0.09 0.04)"><rect class="cls-1" x="-1.04" y="-1.04" width="50" height="50"/></clipPath></defs><g class="cls-2"><path class="cls-3" d="M24,48A24,24,0,1,1,45.63,13.74,23.65,23.65,0,0,1,48,24.43h0a23.76,23.76,0,0,1-2.4,10h0a24.26,24.26,0,0,1-3.43,5.18,1.36,1.36,0,0,1-1.92.13,1.3,1.3,0,0,1-.46-.92,1.35,1.35,0,0,1,.33-1,21.79,21.79,0,0,0,3-4.6h0A21.25,21.25,0,0,0,24,2.69,20.56,20.56,0,0,0,20.83,3,21.27,21.27,0,0,0,24,45.23a21,21,0,0,0,8.86-1.93,1.33,1.33,0,0,1,.52-.13,1.16,1.16,0,0,1,.52.08,1.33,1.33,0,0,1,.46.27,1.38,1.38,0,0,1,.43.95,1.14,1.14,0,0,1-.09.52,1.31,1.31,0,0,1-.28.45,1.35,1.35,0,0,1-.44.31A23.73,23.73,0,0,1,24,48Z" transform="translate(0.09 0.04)"/><path class="cls-3" d="M44.29,35.22a1.31,1.31,0,0,1-.52-.11,9.12,9.12,0,0,1-5.39-6.32L37,22.88l-1.29-.79a2.59,2.59,0,0,1-1-1.05,2.64,2.64,0,0,1-.27-1.41l.1-1.15a2.9,2.9,0,0,1,1-1.93l3.21-2.69a2.83,2.83,0,0,1,1.95-.67L44.33,13a1.33,1.33,0,0,1,1.3.77A23.72,23.72,0,0,1,48,24.43h0a23.76,23.76,0,0,1-2.4,10h0a1.34,1.34,0,0,1-.49.54A1.37,1.37,0,0,1,44.29,35.22Zm-7.18-15.4,1.27.78a2.77,2.77,0,0,1,.76.69,2.72,2.72,0,0,1,.43.93L41,28.16A6.53,6.53,0,0,0,43.62,32a21.4,21.4,0,0,0-.09-16.3l-2.8.18h-.3l-3.21,2.7a.14.14,0,0,0,0,.09Z" transform="translate(0.09 0.04)"/><path class="cls-3" d="M17.27,38.63h0a3.61,3.61,0,0,1-3.41-2.47l-3-8.87a6,6,0,0,1-2.2-2.93A2,2,0,0,1,8.57,24l-.31-2.6A5.78,5.78,0,0,0,4,16.51l-.39-.1A2.11,2.11,0,0,1,2.82,16a2.06,2.06,0,0,1-.51-.66,1.94,1.94,0,0,1,0-1.63A23.92,23.92,0,0,1,20.36.27a1.49,1.49,0,0,1,.88.15,1.47,1.47,0,0,1,.63.63l1.68,3.37a2.74,2.74,0,0,1,.28,1.19v.27a2.7,2.7,0,0,1-1.27,2.27l-1.07.65-1.37,5a2.74,2.74,0,0,1-1,1.45,2.72,2.72,0,0,1-2.64.37l-.79-.3h-.27a4.7,4.7,0,0,0-1.18.2,1,1,0,0,0-.53.35,1,1,0,0,0-.21.6,1,1,0,0,0,.2.59.94.94,0,0,0,.51.36,3.72,3.72,0,0,1,1.52,1.08A3.17,3.17,0,0,0,18,19.72c.66-.07,1.33-.11,2-.12,1.53,0,3.65.18,4.33,1.73A6.18,6.18,0,0,1,24.41,26s-2.58,7.11-3.74,10.29A3.62,3.62,0,0,1,19.34,38,3.75,3.75,0,0,1,17.27,38.63ZM12.1,24.89a2.63,2.63,0,0,1,1.32,1.53l3,8.88a.89.89,0,0,0,.87.63h0a.92.92,0,0,0,.87-.61L21.91,25A3.56,3.56,0,0,0,22,22.56,4.87,4.87,0,0,0,20,22.31a17.7,17.7,0,0,0-1.78.1h-.17a5.71,5.71,0,0,1-4.23-2A4.47,4.47,0,0,0,13.4,20a3.67,3.67,0,0,1-2.3-2.14,3.56,3.56,0,0,1-.27-1.37A3.7,3.7,0,0,1,13.56,13a7.44,7.44,0,0,1,1.88-.29,3.59,3.59,0,0,1,1.22.2l.83.31h0l1.38-5a2.64,2.64,0,0,1,1.18-1.57l1.06-.65V5.62L19.88,3.09a21.18,21.18,0,0,0-14.74,11,8.53,8.53,0,0,1,5.82,7l.29,2.41A4,4,0,0,0,12.1,24.89Z" transform="translate(0.09 0.04)"/></g></svg>