<?xml version="1.0" encoding="UTF-8"?>
<svg xmlns="http://www.w3.org/2000/svg" width="50" height="50" viewBox="0 0 50 50" fill="none">
  <g clip-path="url(#clip0_10798_5905)">
    <path fill-rule="evenodd" clip-rule="evenodd" d="M25.001 48.959C11.791 48.959 1.04297 38.21 1.04297 25C1.04297 21.68 1.70997 18.465 3.02597 15.444C4.64184 11.7447 7.16172 8.51093 10.354 6.04C14.5475 2.79675 19.6996 1.03867 25.001 1.042C29.629 1.042 34.121 2.364 37.991 4.866C41.7528 7.29474 44.7601 10.7274 46.673 14.776C48.2546 18.1133 49.0357 21.7737 48.954 25.466V25.481C48.8915 28.9495 48.0717 32.3625 46.552 35.481L46.536 35.513C45.6231 37.3792 44.4714 39.1188 43.11 40.688C42.876 40.9579 42.5445 41.1237 42.1883 41.1491C41.8321 41.1746 41.4803 41.0574 41.2105 40.8235C40.9406 40.5896 40.7747 40.258 40.7493 39.9018C40.7239 39.5456 40.841 39.1939 41.075 38.924C42.29 37.524 43.315 35.974 44.123 34.32L44.141 34.283C45.5472 31.3909 46.2747 28.2159 46.268 25C46.268 21.826 45.585 18.773 44.239 15.926C40.741 8.52 33.189 3.735 25.001 3.735C23.955 3.735 22.902 3.812 21.872 3.965C14.68 5.023 8.40497 9.835 5.49397 16.519C4.32765 19.194 3.72838 22.0818 3.73397 25C3.73397 36.727 13.274 46.267 25.001 46.267C28.094 46.267 31.075 45.618 33.861 44.34C34.0221 44.2621 34.1972 44.2172 34.376 44.2078C34.5547 44.1984 34.7335 44.2247 34.902 44.2853C35.0704 44.3458 35.2251 44.4394 35.3569 44.5604C35.4888 44.6815 35.5951 44.8276 35.6698 44.9903C35.7445 45.153 35.786 45.3289 35.7919 45.5078C35.7977 45.6867 35.7679 45.865 35.704 46.0322C35.6401 46.1994 35.5436 46.3522 35.4199 46.4816C35.2963 46.6111 35.1481 46.7145 34.984 46.786C31.8532 48.2255 28.4468 48.967 25.001 48.959Z" fill="#912CC6"></path>
    <path fill-rule="evenodd" clip-rule="evenodd" d="M45.3285 36.2584C45.1555 36.2584 44.9795 36.2244 44.8105 36.1544C43.6451 35.67 42.593 34.9492 41.7205 34.0374C40.5945 32.8623 39.8005 31.4096 39.4195 29.8274L37.9985 23.9214L36.7085 23.1314C36.2915 22.8782 35.9539 22.5132 35.7338 22.0779C35.5137 21.6425 35.4201 21.1542 35.4635 20.6684L35.5615 19.5244C35.6277 18.774 35.9879 18.0803 36.5635 17.5944L39.7655 14.8984C40.3107 14.4382 41.0097 14.201 41.7225 14.2344L45.3695 14.0084C45.6382 13.992 45.9057 14.0564 46.1374 14.1935C46.3691 14.3306 46.5544 14.5339 46.6695 14.7774C48.2512 18.1147 49.0322 21.7751 48.9505 25.4674V25.4824C48.8877 28.9505 48.068 32.3631 46.5485 35.4814L46.5315 35.5164C46.4194 35.7394 46.2475 35.9268 46.0351 36.0578C45.8227 36.1889 45.578 36.2583 45.3285 36.2584ZM38.1475 20.8584L39.4245 21.6404C39.7189 21.8196 39.975 22.0554 40.1779 22.3342C40.3808 22.6129 40.5264 22.929 40.6065 23.2644L42.0345 29.1984C42.4118 30.7656 43.3581 32.1366 44.6895 33.0454C45.7338 30.4928 46.2682 27.7603 46.2625 25.0024C46.2625 22.1324 45.7045 19.3624 44.6025 16.7524L41.8025 16.9264C41.7371 16.9301 41.6716 16.9291 41.6065 16.9234H41.5925C41.5581 16.923 41.5247 16.9351 41.4985 16.9574L38.2935 19.6554C38.2639 19.6799 38.2452 19.7151 38.2415 19.7534L38.1475 20.8584Z" fill="#912CC6"></path>
    <path fill-rule="evenodd" clip-rule="evenodd" d="M18.3062 39.6657H18.2802C17.5258 39.6599 16.7919 39.4188 16.181 38.976C15.5701 38.5332 15.1126 37.9109 14.8722 37.1957L11.9092 28.3257C10.6892 27.7077 9.91622 25.9317 9.70822 25.4007C9.66624 25.2941 9.63801 25.1825 9.62422 25.0687L9.31422 22.4737C9.17004 21.2828 8.66073 20.1656 7.85622 19.2757C7.08769 18.4258 6.08327 17.8242 4.97122 17.5477L4.57822 17.4497C4.30536 17.3818 4.05101 17.2541 3.83361 17.0758C3.6162 16.8975 3.44118 16.673 3.32122 16.4187C3.20009 16.1647 3.13707 15.8869 3.13672 15.6055C3.13637 15.324 3.19872 15.0461 3.31922 14.7917C6.73922 7.53973 13.5002 2.50073 21.4032 1.31173C21.7046 1.26676 22.0125 1.31816 22.283 1.45859C22.5534 1.59903 22.7726 1.82132 22.9092 2.09373L24.5912 5.45973C24.7742 5.82273 24.8712 6.23573 24.8712 6.64873V6.91673C24.8712 7.83673 24.3832 8.70673 23.5982 9.18673L22.5332 9.83673L21.1592 14.8767C21.0002 15.4549 20.656 15.965 20.1792 16.3287C19.8071 16.6108 19.369 16.7931 18.9066 16.8582C18.4442 16.9233 17.9728 16.8691 17.5372 16.7007L16.7462 16.4017C16.7462 16.4017 16.6682 16.3737 16.4762 16.3737C16.2662 16.3737 15.8942 16.4067 15.3022 16.5667C15.091 16.6231 14.9042 16.7473 14.7705 16.9202C14.6368 17.0931 14.5636 17.3052 14.5622 17.5237C14.5615 17.7365 14.6299 17.9437 14.757 18.1143C14.8841 18.2848 15.0632 18.4096 15.2672 18.4697C15.9042 18.6587 16.3552 19.1117 16.7912 19.5497C17.4012 20.1627 17.9792 20.7417 19.0492 20.7667C19.7207 20.6932 20.3957 20.6555 21.0712 20.6537C22.6042 20.6537 24.7212 20.8327 25.4042 22.3837C26.0142 23.7667 26.0312 25.4037 25.4542 26.9937C25.4542 26.9937 22.8692 34.0987 21.7072 37.2847C21.4513 37.9813 20.9881 38.5828 20.3801 39.0083C19.7721 39.4338 19.0483 39.6639 18.3062 39.6657ZM13.1352 25.9277C13.4462 26.0847 13.7192 26.2977 13.9472 26.5617C14.1772 26.8277 14.3502 27.1307 14.4602 27.4617L17.4272 36.3407C17.4884 36.5232 17.6048 36.6822 17.7603 36.7956C17.9158 36.909 18.1028 36.9713 18.2952 36.9737H18.3082C18.6962 36.9737 19.0482 36.7277 19.1812 36.3617L22.9262 26.0717C23.2462 25.1917 23.2702 24.3177 22.9962 23.5957C22.8342 23.5207 22.3232 23.3457 21.0732 23.3457C20.1312 23.3457 19.3002 23.4477 19.2922 23.4497C19.2362 23.4557 19.1792 23.4597 19.1232 23.4597C16.8882 23.4597 15.6352 22.2007 14.8862 21.4497C14.7461 21.3022 14.5979 21.1627 14.4422 21.0317C13.9227 20.8688 13.446 20.592 13.0471 20.2214C12.6481 19.8509 12.3369 19.3959 12.1362 18.8897C11.9615 18.4555 11.8719 17.9918 11.8722 17.5237C11.8744 16.7137 12.1428 15.9268 12.6361 15.2843C13.1294 14.6417 13.8202 14.1791 14.6022 13.9677C15.3072 13.7777 15.9372 13.6817 16.4772 13.6817C16.9312 13.6817 17.3422 13.7497 17.6972 13.8827L18.5282 14.1937C18.5402 14.1937 18.5482 14.1897 18.5492 14.1877C18.5564 14.1831 18.5618 14.176 18.5642 14.1677L19.9402 9.11773C20.1172 8.46194 20.5397 7.89939 21.1202 7.54673L22.1812 6.89873V6.65673L20.9172 4.12673C17.7956 4.73261 14.8502 6.03265 12.2989 7.93066C9.74767 9.82866 7.65584 12.2761 6.17822 15.0917C7.59024 15.5469 8.85743 16.3661 9.85222 17.4667C11.0318 18.7699 11.7784 20.4067 11.9892 22.1517L12.2772 24.5647C12.5332 25.1557 12.9272 25.7897 13.1352 25.9277Z" fill="#912CC6"></path>
  </g>
  <defs>
    <clipPath id="clip0_10798_5905">
      <rect width="50" height="50" fill="white"></rect>
    </clipPath>
  </defs>
</svg>
