<svg fill="none" height="28" viewBox="0 0 22 28" width="22" xmlns="http://www.w3.org/2000/svg"><path d="m3.22803 24.9616-1.72803-24.668631h18.9887l-1.7297 24.664931-7.7761 2.7438z" fill="#1572b6"/><path d="m11 25.6072 6.2836-2.2173 1.4783-21.0774h-7.7619z" fill="#33a9dc"/><path d="m11 11.2526h3.1457l.2172-3.09816h-3.3629v-3.02553h5.961l-.0571.81178-.5844 8.33741h-5.3195z" fill="#fff"/><path d="m11.01 19.1079-.0105.004-2.64736-.9098-.1693-2.413h-2.38596l.33292 4.7506 4.8694 1.72.0108-.004z" fill="#ebebeb"/><path d="m13.9455 14.1484-.2863 4.0517-2.6514.9109v3.1478l4.8734-1.7189.0357-.5112.4135-5.8803z" fill="#fff"/><path d="m11.0095 5.12891v3.02553h-5.74203l-.04761-.67988-.10828-1.53387-.05689-.81178zm-.0081 6.12409v3.0256h-2.61406l-.04761-.6799-.10845-1.5339-.05672-.8118z" fill="#ebebeb"/></svg>