<?xml version="1.0" encoding="UTF-8"?>
<svg xmlns="http://www.w3.org/2000/svg" width="47" height="48" viewBox="0 0 47 48" fill="none">
  <g clip-path="url(#clip0_15630_21454)">
    <path d="M27.2124 27.6034H8.76599C8.20689 27.6031 7.65321 27.7131 7.1366 27.9269C6.61998 28.1406 6.15055 28.454 5.75512 28.8493C5.35969 29.2446 5.046 29.7139 4.83199 30.2304C4.61797 30.7469 4.50781 31.3006 4.50781 31.8597V32.9535C4.50781 34.6417 5.11342 36.2769 6.21108 37.5619C9.17288 41.0327 13.6884 42.7473 19.6424 42.7473C20.9955 42.7473 22.2729 42.6565 23.4766 42.4805C23.4438 42.2542 23.4275 42.026 23.4273 41.7973V39.6153C22.2654 39.8102 21.005 39.9067 19.6424 39.9067C14.4606 39.9067 10.7399 38.4948 8.36856 35.7185C7.70915 34.9475 7.34674 33.9663 7.3466 32.9517V31.8597C7.3466 31.0762 7.98248 30.4403 8.76599 30.4403H23.8211C24.1255 29.7451 24.5925 29.1332 25.1827 28.656C25.7727 28.1788 26.4689 27.8502 27.2124 27.6981V27.6034ZM19.6424 4.90259C20.8849 4.90259 22.1155 5.14735 23.2635 5.62289C24.4115 6.09843 25.4548 6.79543 26.3334 7.67412C27.2121 8.55281 27.909 9.59596 28.3847 10.744C28.8602 11.8921 29.1049 13.1226 29.1049 14.3652C29.1049 15.6078 28.8602 16.8383 28.3847 17.9863C27.909 19.1345 27.2121 20.1776 26.3334 21.0563C25.4548 21.9349 24.4115 22.632 23.2635 23.1075C22.1155 23.5831 20.8849 23.8278 19.6424 23.8278C17.1327 23.8278 14.7259 22.8308 12.9512 21.0563C11.1767 19.2817 10.1797 16.8748 10.1797 14.3652C10.1797 11.8556 11.1767 9.4487 12.9512 7.67412C14.7259 5.89954 17.1327 4.90259 19.6424 4.90259ZM19.6424 7.74137C18.7724 7.74137 17.9111 7.91271 17.1075 8.24558C16.3038 8.57846 15.5737 9.06636 14.9585 9.68144C14.3435 10.2965 13.8556 11.0267 13.5227 11.8304C13.1898 12.634 13.0185 13.4953 13.0185 14.3652C13.0185 15.2351 13.1898 16.0964 13.5227 16.9001C13.8556 17.7037 14.3435 18.4338 14.9585 19.049C15.5737 19.664 16.3038 20.1519 17.1075 20.4849C17.9111 20.8177 18.7724 20.989 19.6424 20.989C21.399 20.989 23.0838 20.2911 24.3261 19.049C25.5683 17.8068 26.2661 16.1219 26.2661 14.3652C26.2661 12.6085 25.5683 10.9236 24.3261 9.68144C23.0838 8.43923 21.399 7.74137 19.6424 7.74137ZM29.1049 29.4959H28.1587C27.4057 29.4959 26.6837 29.7949 26.1514 30.3274C25.619 30.8598 25.3199 31.5818 25.3199 32.3347V41.7973C25.3199 42.5502 25.619 43.2722 26.1514 43.8046C26.6837 44.337 27.4057 44.6361 28.1587 44.6361H39.5138C40.2667 44.6361 40.9887 44.337 41.5212 43.8046C42.0536 43.2722 42.3526 42.5502 42.3526 41.7973V32.3347C42.3526 31.5818 42.0536 30.8598 41.5212 30.3274C40.9887 29.7949 40.2667 29.4959 39.5138 29.4959H38.5675V27.6034C38.5675 26.3485 38.069 25.1452 37.1818 24.2579C36.2945 23.3705 35.091 22.8721 33.8363 22.8721C32.5814 22.8721 31.378 23.3705 30.4906 24.2579C29.6034 25.1452 29.1049 26.3485 29.1049 27.6034V29.4959ZM31.9437 27.6034C31.9437 27.1015 32.1431 26.6201 32.4981 26.2652C32.8529 25.9102 33.3342 25.7109 33.8363 25.7109C34.3382 25.7109 34.8195 25.9102 35.1745 26.2652C35.5293 26.6201 35.7288 27.1015 35.7288 27.6034V29.4959H31.9437V27.6034ZM35.7288 37.0661C35.7288 37.568 35.5293 38.0493 35.1745 38.4043C34.8195 38.7591 34.3382 38.9585 33.8363 38.9585C33.3342 38.9585 32.8529 38.7591 32.4981 38.4043C32.1431 38.0493 31.9437 37.568 31.9437 37.0661C31.9437 36.564 32.1431 36.0827 32.4981 35.7277C32.8529 35.3729 33.3342 35.1734 33.8363 35.1734C34.3382 35.1734 34.8195 35.3729 35.1745 35.7277C35.5293 36.0827 35.7288 36.564 35.7288 37.0661Z" fill="#CC3199"></path>
  </g>
  <defs>
    <clipPath id="clip0_15630_21454">
      <rect width="46.8399" height="46.8399" fill="white" transform="translate(0 0.902588)"></rect>
    </clipPath>
  </defs>
</svg>
