<?xml version="1.0" encoding="UTF-8"?>
<svg xmlns="http://www.w3.org/2000/svg" width="47" height="47" viewBox="0 0 47 47" fill="none">
  <path d="M37.984 8.65534C28.3637 8.65534 24.163 3.50003 24.119 3.45597L23.5006 2.66284L22.8691 3.45597C22.8397 3.50003 18.6831 8.65534 9.00406 8.65534H8.21094V18.6869C8.21094 18.8485 8.38719 35.9741 23.1334 43.7585L23.5006 43.9494L23.8678 43.7585C38.6141 35.9741 38.7756 18.8485 38.7756 18.6869V8.65534H37.984ZM37.2055 18.6869C37.1908 18.8485 37.0146 34.7403 23.5021 42.1575C9.98959 34.7403 9.79866 18.8485 9.79866 18.6869V10.2269C17.6858 10.0213 21.9893 6.59909 23.5021 5.11565C25.0149 6.59909 29.3183 10.0213 37.2055 10.2269V18.6869Z" fill="#CC3199" stroke="#CC3199"></path>
  <path d="M19.2978 15.955V19.1128C18.6742 19.2623 18.1191 19.6175 17.7221 20.1212C17.325 20.6248 17.1092 21.2474 17.1094 21.8888V28.7478C17.1129 29.5063 17.4157 30.2328 17.9521 30.7692C18.4884 31.3055 19.2149 31.6084 19.9734 31.6119H27.0234C27.782 31.6084 28.5084 31.3055 29.0448 30.7692C29.5812 30.2328 29.884 29.5063 29.8875 28.7478V21.8843C29.8874 21.2409 29.6697 20.6164 29.2697 20.1124C28.8697 19.6085 28.311 19.2546 27.6844 19.1084V15.9506C27.6828 14.9616 27.2893 14.0137 26.59 13.3144C25.8907 12.6151 24.9427 12.2215 23.9538 12.22H23.0284C22.0387 12.2215 21.0901 12.6157 20.3906 13.3159C19.6912 14.0162 19.2982 14.9653 19.2978 15.955ZM25.305 25.3109C25.3056 25.6701 25.1995 26.0213 25.0003 26.3201C24.8011 26.6189 24.5177 26.8519 24.1859 26.9894C23.8542 27.127 23.4891 27.163 23.1369 27.0928C22.7846 27.0227 22.4612 26.8496 22.2074 26.5955C21.9537 26.3413 21.7811 26.0175 21.7115 25.6652C21.642 25.3129 21.6786 24.9478 21.8167 24.6163C21.9548 24.2848 22.1882 24.0018 22.4873 23.803C22.7864 23.6043 23.1378 23.4988 23.497 23.5C23.9762 23.5027 24.4349 23.6944 24.7735 24.0336C25.1121 24.3727 25.3031 24.8317 25.305 25.3109ZM25.7897 15.955V19.0247H21.2072V15.955C21.2064 15.4704 21.3976 15.0052 21.7389 14.6611C22.0802 14.3171 22.5438 14.1222 23.0284 14.1191H23.9538C24.4407 14.1191 24.9076 14.3125 25.252 14.6568C25.5963 15.0011 25.7897 15.4681 25.7897 15.955Z" fill="#CC3199" stroke="#CC3199"></path>
</svg>
