<?xml version="1.0" encoding="UTF-8"?>
<svg xmlns="http://www.w3.org/2000/svg" width="28" height="35" viewBox="0 0 28 35" fill="none">
  <g clip-path="url(#clip0_8751_14663)">
    <g clip-path="url(#clip1_8751_14663)">
      <mask id="mask0_8751_14663" style="mask-type:luminance" maskUnits="userSpaceOnUse" x="0" y="4" width="28" height="26">
        <path d="M0.67334 4.89079H2.80829C4.46306 4.87736 6.10412 5.19168 7.63681 5.81564C9.1695 6.43959 10.5635 7.36082 11.7384 8.5262C12.9132 9.69158 13.8458 11.078 14.4821 12.6056C15.1185 14.1332 15.4462 15.7716 15.4462 17.4265C15.4462 19.0813 15.1185 20.7197 14.4821 22.2473C13.8458 23.7749 12.9132 25.1614 11.7384 26.3267C10.5635 27.4921 9.1695 28.4133 7.63681 29.0373C6.10412 29.6613 4.46306 29.9756 2.80829 29.9621H0.67334V24.4541H2.80829C4.67158 24.4541 6.45856 23.7139 7.77611 22.3964C9.09366 21.0788 9.83385 19.2918 9.83385 17.4285C9.83385 15.5652 9.09366 13.7783 7.77611 12.4607C6.45856 11.1432 4.67158 10.403 2.80829 10.403H0.67334V4.89079ZM10.6604 4.89079H19.4771C20.9296 4.89092 22.3521 5.30484 23.578 6.0841C24.8038 6.86336 25.7823 7.97571 26.3989 9.29092C27.0155 10.6061 27.2446 12.0698 27.0595 13.5105C26.8744 14.9512 26.2828 16.3094 25.3537 17.4261C26.2828 18.5427 26.8744 19.9009 27.0595 21.3416C27.2446 22.7823 27.0155 24.246 26.3989 25.5612C25.7823 26.8764 24.8038 27.9888 23.578 28.768C22.3521 29.5473 20.9296 29.9612 19.4771 29.9613H10.6604C12.8298 28.6023 14.6095 26.7036 15.8254 24.4508H19.4762C20.0426 24.4508 20.5857 24.2258 20.9862 23.8254C21.3866 23.4249 21.6116 22.8818 21.6116 22.3154C21.6116 21.7491 21.3866 21.206 20.9862 20.8055C20.5857 20.4051 20.0426 20.1801 19.4762 20.1801H17.3413C17.6865 18.3595 17.6865 16.4902 17.3413 14.6696H19.4762C20.0426 14.6696 20.5857 14.4446 20.9862 14.0441C21.3866 13.6437 21.6116 13.1005 21.6116 12.5342C21.6116 11.9679 21.3866 11.4247 20.9862 11.0243C20.5857 10.6238 20.0426 10.3988 19.4762 10.3988H15.8254C14.6091 8.14699 12.8295 6.24916 10.6604 4.89079Z" fill="white"></path>
      </mask>
      <g mask="url(#mask0_8751_14663)">
        <path d="M-34.5941 -23.2083V59.4455H48.0596L-34.5941 -23.2083Z" fill="url(#paint0_linear_8751_14663)"></path>
        <path d="M-19.1636 -23.2083H63.4901V59.4455L-19.1636 -23.2083Z" fill="url(#paint1_linear_8751_14663)"></path>
        <path d="M-26.8777 -23.2083L55.776 59.4455" stroke="#F5844B" stroke-width="114.005" stroke-miterlimit="13.793"></path>
        <path d="M9.93457 3.22101L10.8338 6.77512L27.0265 23.0579L30.0847 21.7528L28.106 2.09692L9.93457 3.22101Z" fill="#D56C4D"></path>
      </g>
    </g>
  </g>
  <defs>
    <linearGradient id="paint0_linear_8751_14663" x1="-49.1412" y1="42.6668" x2="-45.6697" y2="39.278" gradientUnits="userSpaceOnUse">
      <stop stop-color="#F9A03C"></stop>
      <stop offset="1" stop-color="#F7974E"></stop>
    </linearGradient>
    <linearGradient id="paint1_linear_8751_14663" x1="-36.3555" y1="58.371" x2="-31.3137" y2="53.3291" gradientUnits="userSpaceOnUse">
      <stop stop-color="#B84E51"></stop>
      <stop offset="1" stop-color="#F68E48"></stop>
    </linearGradient>
    <clipPath id="clip0_8751_14663">
      <rect width="26.4492" height="33.6626" fill="white" transform="translate(0.671753 0.457275)"></rect>
    </clipPath>
    <clipPath id="clip1_8751_14663">
      <rect width="26.4492" height="26.4492" fill="white" transform="translate(0.671753 4.06396)"></rect>
    </clipPath>
  </defs>
</svg>
