<?xml version="1.0" encoding="UTF-8"?>
<svg xmlns="http://www.w3.org/2000/svg" width="47" height="48" viewBox="0 0 47 48" fill="none">
  <g clip-path="url(#clip0_15630_21439)">
    <path d="M4.49219 14.4117C4.49219 12.7804 5.14021 11.216 6.29369 10.0625C7.44716 8.909 9.01162 8.26099 10.6429 8.26099H36.1919C36.9997 8.26099 37.7995 8.42007 38.5457 8.72917C39.292 9.03827 39.97 9.49133 40.5412 10.0625C41.1122 10.6336 41.5653 11.3117 41.8744 12.0579C42.1836 12.8041 42.3427 13.604 42.3427 14.4117V25.2937H41.8544C41.7325 23.4422 40.8884 21.7125 39.5039 20.4772V14.4117C39.5039 13.5333 39.1549 12.6909 38.5338 12.0698C37.9128 11.4487 37.0704 11.0998 36.1919 11.0998H10.6429C9.76452 11.0998 8.92211 11.4487 8.30101 12.0698C7.67991 12.6909 7.33097 13.5333 7.33097 14.4117V32.3906C7.33097 34.2188 8.81472 35.7025 10.6429 35.7025H23.4174V36.6488C23.4174 37.2923 23.4932 37.9244 23.6408 38.5413H10.6429C9.01162 38.5413 7.44716 37.8933 6.29369 36.7398C5.14021 35.5864 4.49219 34.0219 4.49219 32.3906V14.4117ZM41.3964 32.8637C42.1492 32.8637 42.8713 33.1629 43.4037 33.6952C43.9361 34.2276 44.2352 34.9496 44.2352 35.7025V36.6488C44.2352 40.379 40.7151 44.2188 34.7725 44.2188C28.8301 44.2188 25.31 40.379 25.31 36.6488V35.7025C25.31 34.9496 25.6091 34.2276 26.1413 33.6952C26.6737 33.1629 27.3958 32.8637 28.1488 32.8637H41.3964ZM34.7725 20.5624C36.1529 20.5624 37.4766 21.1107 38.4527 22.0867C39.4287 23.0628 39.977 24.3865 39.977 25.7667C39.977 27.1471 39.4287 28.4708 38.4527 29.4469C37.4766 30.4229 36.1529 30.9712 34.7725 30.9712C33.3923 30.9712 32.0684 30.4229 31.0925 29.4469C30.1165 28.4708 29.5682 27.1471 29.5682 25.7667C29.5682 24.3865 30.1165 23.0628 31.0925 22.0867C32.0684 21.1107 33.3923 20.5624 34.7725 20.5624Z" fill="#CC3199"></path>
  </g>
  <defs>
    <clipPath id="clip0_15630_21439">
      <rect width="46.8399" height="46.8399" fill="white" transform="translate(0 0.484863)"></rect>
    </clipPath>
  </defs>
</svg>
