<?xml version="1.0" encoding="UTF-8"?>
<svg xmlns="http://www.w3.org/2000/svg" width="28" height="35" viewBox="0 0 28 35" fill="none">
  <g clip-path="url(#clip0_8751_13475)">
    <g clip-path="url(#clip1_8751_13475)">
      <path d="M12.3756 4.08838H16.7067V23.9377C14.857 24.3172 12.9744 24.513 11.0862 24.522C5.79885 24.5162 3.04565 22.1532 3.04565 17.6155C3.04565 13.2431 5.96664 10.4048 10.4919 10.4048C11.1269 10.3931 11.7605 10.4673 12.3756 10.6255V4.08838ZM12.5277 14.2027C12.0556 14.0462 11.5603 13.9715 11.0631 13.982C8.87274 13.982 7.60731 15.3177 7.60731 17.6593C7.60731 19.9389 8.81654 21.1977 11.035 21.1977C11.5329 21.1974 12.0301 21.1606 12.5227 21.0878V14.2027H12.5277Z" fill="#912CC6"></path>
      <path d="M23.7892 10.9371V20.8753C23.7892 24.298 23.533 25.9437 22.78 27.3628C22.0138 28.8068 20.7599 29.9318 19.2416 30.5376L15.2255 28.644C17.1372 27.7554 18.0621 26.9702 18.6531 25.7726C19.2714 24.5477 19.4664 23.1277 19.4664 19.3958V10.9379H23.7917L23.7892 10.9371ZM19.0275 4.08838H23.3586V8.48886H19.0275V4.08838Z" fill="#912CC6"></path>
    </g>
  </g>
  <defs>
    <clipPath id="clip0_8751_13475">
      <rect width="26.4492" height="33.6626" fill="white" transform="translate(0.56604 0.481689)"></rect>
    </clipPath>
    <clipPath id="clip1_8751_13475">
      <rect width="26.4492" height="26.4492" fill="white" transform="translate(0.56604 4.08838)"></rect>
    </clipPath>
  </defs>
</svg>
