<svg fill="none" height="28" viewBox="0 0 22 28" width="22" xmlns="http://www.w3.org/2000/svg" xmlns:xlink="http://www.w3.org/1999/xlink"><linearGradient id="a" gradientUnits="userSpaceOnUse" x1="10.7216" x2="9.48888" y1="2.16317" y2="27.9303"><stop offset="0" stop-color="#d9d8dc"/><stop offset="1" stop-color="#fff" stop-opacity=".385"/></linearGradient><linearGradient id="b" gradientUnits="userSpaceOnUse" x1="10.4058" x2="-1.24021" y1="1.75148" y2="21.8065"><stop offset="0" stop-color="#8d67af" stop-opacity=".672"/><stop offset="1" stop-color="#9f8daf"/></linearGradient><linearGradient id="c" gradientUnits="userSpaceOnUse" x1="11.5045" x2="11.5045" y1="9.3402" y2="27.1681"><stop offset="0" stop-color="#26053d" stop-opacity=".762"/><stop offset="1" stop-color="#b7b4b4" stop-opacity=".278"/></linearGradient><linearGradient id="d" gradientUnits="userSpaceOnUse" x1="6.30914" x2="11.703" y1="9.84612" y2="21.0719"><stop offset="0" stop-color="#91739f" stop-opacity=".46"/><stop offset="1" stop-color="#32054f" stop-opacity=".54"/></linearGradient><linearGradient id="e" gradientUnits="userSpaceOnUse" x1="14.3548" x2="2.70915" y1="25.391" y2="17.8123"><stop offset="0" stop-color="#463d49" stop-opacity=".331"/><stop offset="1" stop-color="#340a50" stop-opacity=".821"/></linearGradient><linearGradient id="f" gradientUnits="userSpaceOnUse" x1="11.8976" x2="2.46507" y1="9.15571" y2="20.4324"><stop offset="0" stop-color="#715383" stop-opacity=".145"/><stop offset="1" stop-color="#f4f4f4" stop-opacity=".234"/></linearGradient><linearGradient id="g" gradientUnits="userSpaceOnUse" x1="13.0154" x2="8.20375" y1="12.4452" y2="12.2145"><stop offset="0" stop-color="#a5a1a8" stop-opacity=".356"/><stop offset="1" stop-color="#370c50" stop-opacity=".582"/></linearGradient><g clip-rule="evenodd" fill-rule="evenodd"><path d="m11.0746.109375c-4.76098 2.931245-10.742226 18.134325-5.75785 24.806225 4.60625 7.3282 14.67815.2844 11.75625-8.8593-3.6953-7.87505-6.0156-8.29068-5.9984-15.946925z" fill="url(#a)"/><path d="m11.0651.0429688c-4.74375 2.9312512-10.74219 18.0906312-5.74063 24.7843312 1.83906 2.7125 4.81253 3.6094 6.47973 1.9907 4.5375-4.1125 1.2718-11.6157 1.7875-17.17191-1.8907-2.23125-2.561-7.175-2.5266-9.6031212z" fill="url(#b)"/><path d="m9.74085.941406c-3.83281 3.478124-4.84687 16.406294-4.14218 20.606294 1.40937 10.5218 12.92503 6.1906 11.96253-3.6094-1.0313-6.3875-8.38753-8.57502-7.82035-16.996894z" fill="url(#c)"/><path d="m13.5439 10.8961c1.7875 2.9312 2.1828 4.9437 1.1688 6.1031-4.76096 4.2438-10.53596 1.6188-9.28127-8.15936-1.63281 4.94376-4.65781 12.33746 2.01094 13.38746 3.57503.7875 9.28123.4375 10.12343-3.5218-.0344-3.4782-1.8562-5.0094-4.0219-7.8094z" fill="url(#d)"/><path d="m6.55 7.96484c-.49844 4.63746 6.0328 17.04066 10.0203 15.53126-3.0422 7.7875-9.77968-4.6375-10.99999-9.1219.25781-2.4062.37813-3.5875.97969-6.40936z" fill="url(#e)"/><path d="m10.3768 10.8719c.1375 1.7281.6703 4.4843 0 6.3-.67035 1.8156-3.72972 5.1406-2.88754 8.05 1.95938 5.425 6.37654-.9625 6.34224-4.1563.189-2.5812-1.1344-8.4656-.3094-11.48435l-.3781-.6125-2.3375-.875c-.3782.7-.5157 1.64063-.4297 2.77815z" fill="url(#f)"/><path d="m11.2232 2.36328c-5.03592 3.63125-2.97342 9.31872-2.74998 15.48752l3.28278-12.11877c-.2406-1.24687-.3953-2.07812-.5328-3.36875z" fill="url(#g)"/><path d="m11.7438 5.70703c-2.5438 2.55938-2.42349 6.84687-3.19692 11.81247 1.39218-4.6593.70468-8.35622 3.19692-11.81247z" fill="#330a4c" fill-opacity=".316"/><path d="m7.875 26.1836c1.375.2406 2.07969.4812 2.1484.6562.0516.9188-1.90778.2625-2.1484-.6562z" fill="#fff"/><path d="m8.56463 2.36328c-1.18594 1.68438-2.475 4.76875-3.12813 6.49688-.17187 1.42184-.08594 3.43434.10313 5.14064.15468-3.9813 1.28906-8.57502 3.025-11.63752z" fill="#ededed" fill-opacity=".603"/></g></svg>