<svg fill="none" height="28" viewBox="0 0 22 28" width="22" xmlns="http://www.w3.org/2000/svg" xmlns:xlink="http://www.w3.org/1999/xlink"><clipPath id="a"><path d="m0 0h22v28h-22z"/></clipPath><g clip-path="url(#a)"><path d="m0 0h22v28h-22z" fill="#e04e39"/><path clip-rule="evenodd" d="m11.2192 6.0018c1.4173-.03566 2.4188.45347 3.2806 2.01031 1.8793 5.93009-4.83777 8.99059-5.1071 9.11089l-.00842.0035s-.20282 1.6107 1.72352 1.5488c2.3707 0 4.8631-2.3387 5.8111-3.3272.1102-.1153.2505-.1733.3929-.1626.1424.0108.2764.0895.3751.2206l.7098.9384c.0998.131.1568.3052.1595.4876.0027.1823-.0491.3592-.1449.4948-.617.8744-2.0649 2.6694-4.2446 3.829 0 0-3.6369 2.1433-6.08781.1138-1.46146-1.2097-1.86347-2.6581-2.02693-4.1646.00086 0-1.77443-.1146-2.91448-.6812-1.14039-.567.00842-2.2774.00842-2.2774s.35063-.7072 1.0175 0c.66739.7061 1.91297.3876 1.91297.3876.11103-1.1154.29562-2.5873.83944-4.1409 1.13987-3.25609 2.88561-4.3564 4.30339-4.3914zm.8341 3.26265c-.7509-.92094-2.9191.91915-3.00281 5.12965 0 0 .64007.2481 2.05731-.9909 1.418-1.2383 1.6964-3.2196.9455-4.13875z" fill="#fff" fill-rule="evenodd"/></g></svg>