<?xml version="1.0" encoding="UTF-8"?>
<svg xmlns="http://www.w3.org/2000/svg" width="34" height="33" viewBox="0 0 34 33" fill="none">
  <mask id="mask0_20408_8293" style="mask-type:alpha" maskUnits="userSpaceOnUse" x="0" y="0" width="34" height="33">
    <rect x="0.5" width="33" height="33" fill="#D9D9D9"></rect>
  </mask>
  <g mask="url(#mask0_20408_8293)">
    <path d="M14.9375 20.625H19.0625L18.2719 16.1906C18.7302 15.9615 19.0911 15.6292 19.3547 15.1938C19.6182 14.7583 19.75 14.2771 19.75 13.75C19.75 12.9937 19.4807 12.3464 18.9422 11.8078C18.4036 11.2693 17.7563 11 17 11C16.2437 11 15.5964 11.2693 15.0578 11.8078C14.5193 12.3464 14.25 12.9937 14.25 13.75C14.25 14.2771 14.3818 14.7583 14.6453 15.1938C14.9089 15.6292 15.2698 15.9615 15.7281 16.1906L14.9375 20.625ZM17 30.25C13.8146 29.4479 11.1849 27.6203 9.11094 24.7672C7.03698 21.9141 6 18.7458 6 15.2625V6.875L17 2.75L28 6.875V15.2625C28 18.7458 26.963 21.9141 24.8891 24.7672C22.8151 27.6203 20.1854 29.4479 17 30.25ZM17 27.3625C19.3833 26.6062 21.3542 25.0938 22.9125 22.825C24.4708 20.5562 25.25 18.0354 25.25 15.2625V8.76562L17 5.67188L8.75 8.76562V15.2625C8.75 18.0354 9.52917 20.5562 11.0875 22.825C12.6458 25.0938 14.6167 26.6062 17 27.3625Z" fill="#511374"></path>
  </g>
</svg>
