<svg width="18" height="18" viewBox="0 0 18 18" fill="none" xmlns="http://www.w3.org/2000/svg">
<path d="M8.99935 13.167C9.23546 13.167 9.43338 13.0871 9.5931 12.9274C9.75282 12.7677 9.83268 12.5698 9.83268 12.3337C9.83268 12.0975 9.75282 11.8996 9.5931 11.7399C9.43338 11.5802 9.23546 11.5003 8.99935 11.5003C8.76324 11.5003 8.56532 11.5802 8.4056 11.7399C8.24588 11.8996 8.16602 12.0975 8.16602 12.3337C8.16602 12.5698 8.24588 12.7677 8.4056 12.9274C8.56532 13.0871 8.76324 13.167 8.99935 13.167ZM8.16602 9.83366H9.83268V4.83366H8.16602V9.83366ZM8.99935 17.3337C7.84657 17.3337 6.76324 17.1149 5.74935 16.6774C4.73546 16.2399 3.85352 15.6462 3.10352 14.8962C2.35352 14.1462 1.75977 13.2642 1.32227 12.2503C0.884766 11.2364 0.666016 10.1531 0.666016 9.00033C0.666016 7.84755 0.884766 6.76421 1.32227 5.75033C1.75977 4.73644 2.35352 3.85449 3.10352 3.10449C3.85352 2.35449 4.73546 1.76074 5.74935 1.32324C6.76324 0.885742 7.84657 0.666992 8.99935 0.666992C10.1521 0.666992 11.2355 0.885742 12.2493 1.32324C13.2632 1.76074 14.1452 2.35449 14.8952 3.10449C15.6452 3.85449 16.2389 4.73644 16.6764 5.75033C17.1139 6.76421 17.3327 7.84755 17.3327 9.00033C17.3327 10.1531 17.1139 11.2364 16.6764 12.2503C16.2389 13.2642 15.6452 14.1462 14.8952 14.8962C14.1452 15.6462 13.2632 16.2399 12.2493 16.6774C11.2355 17.1149 10.1521 17.3337 8.99935 17.3337Z" fill="#868686"/>
</svg>
