<svg fill="none" height="37" viewBox="0 0 37 37" width="37" xmlns="http://www.w3.org/2000/svg"><path d="m23.1237 12.7187c-5.7381 0-10.4063 4.6681-10.4063 10.4062s4.6682 10.4063 10.4063 10.4063 10.4062-4.6682 10.4062-10.4063-4.6681-10.4062-10.4062-10.4062zm-1.5417 9.6354h3.0834c1.2749 0 2.3125 1.0375 2.3125 2.3125 0 1.2749-1.0376 2.3125-2.3125 2.3125h-.7709v1.5417c0 .4255-.3453.7708-.7708.7708s-.7708-.3453-.7708-.7708v-1.5417h-2.3125c-.4255 0-.7709-.3453-.7709-.7708s.3454-.7709.7709-.7709h4.625c.4255 0 .7708-.3469.7708-.7708 0-.424-.3453-.7708-.7708-.7708h-3.0834c-1.2749 0-2.3125-1.0376-2.3125-2.3125 0-1.275 1.0376-2.3125 2.3125-2.3125h.7709v-1.5417c0-.4255.3453-.7708.7708-.7708s.7708.3453.7708.7708v1.5417h2.3125c.4255 0 .7709.3453.7709.7708s-.3454.7708-.7709.7708h-4.625c-.4255 0-.7708.3469-.7708.7709 0 .4239.3453.7708.7708.7708zm-18.49997-13.10418v-3.08333c0-1.69584 1.3875-3.08334 3.08333-3.08334h15.41664c1.6959 0 3.0834 1.3875 3.0834 3.08334v3.08333c0 .43167-.0925.84788-.2467 1.21788-.4163-.0462-.8633-.0616-1.295-.0616-1.8808 0-3.6846.4162-5.2879 1.1562h-11.67044c-.58583 0-1.15625.0925-1.68041.2775-.84792-.555-1.40292-1.5108-1.40292-2.58998zm0 10.79168v-3.0833c0-1.6959 1.3875-3.0834 3.08333-3.0834h8.24794c-2.4667 2.3125-4.0084 5.6117-4.0084 9.25h-4.23954c-1.69583 0-3.08333-1.3875-3.08333-3.0833zm13.31997 13.875h-10.23664c-1.69583 0-3.08333-1.3875-3.08333-3.0833v-3.0834c0-1.0791.555-2.035 1.40292-2.59.52416.185 1.09458.2775 1.68041.2775h4.45544c.6629 3.5767 2.8058 6.6292 5.7812 8.4792z" fill="#000"/></svg>