<svg fill="none" height="40" viewBox="0 0 41 40" width="41" xmlns="http://www.w3.org/2000/svg"><path d="m39.5535 11.1232-3.148 24.6768h-10.6328l-3.1352-24.8h12.9808l2.5656-8.86157 1.4544.4384-2.4616 8.52797zm-18.4192 14.2768s.3976-3.2-5.116-3.2h-8.78082c-5.5056 0-5.116 3.2-5.116 3.2zm-19.01282 7.2s-.3896 3.2 5.116 3.2h8.78162c5.5136 0 5.116-3.2 5.116-3.2zm18.18802-1.6c.9024 0 1.6312-.8912 1.6312-1.9992 0-1.1144-.7288-2.0008-1.6312-2.0008h-17.43922c-.8984 0-1.632.8864-1.632 2.0008 0 1.108.7336 1.9992 1.632 1.9992z" fill="#000"/></svg>