<svg fill="none" height="28" viewBox="0 0 22 28" width="22" xmlns="http://www.w3.org/2000/svg"><g clip-rule="evenodd" fill-rule="evenodd"><path d="m3.95243 26.7094c.00395.0764-.02424.0917-.0691.051-.09522-.0864-.20195-.161-.27895-.2691-.38603-.5427-.6655-1.1622-.79784-1.8806-.0538-.2927-.05758-.586-.04057-.8885.03283-.5799 0-1.1583-.12271-1.7231-.00808-.0377-.02647-.0718-.05879-.1562l-.23375.3629-.02818-.0217c.00704-.8358-.01547-1.6692-.13286-2.5036l-.25867.7784-.04297-.0097c-.01908-.1244-.04039-.2485-.05707-.3734-.09745-.7324-.11378-1.4728-.08164-2.2098.04985-1.1397.19766-2.2579.6148-3.2893.11739-.2901.25936-.5607.44842-.8081-.09659.037-.19456.0689-.28944.1124-.09951.0455-.19593.1022-.31487.1652.12427-.4156.28944-.7801.50411-1.1043.21192-.32.43828-.6247.66687-.9482l-.53057-.2525-.03747-.0448c.03678-.0245.077-.0433.10965-.0748.51803-.4999 1.11083-.7845 1.73439-.9827.19818-.0627.16346-.0159.17738-.2797.02251-.42704.05912-.85272.08989-1.27907l.03059-.00328.45496 1.10275c-.0495-1.69097.04606-3.35631.41301-4.98469l.03111-.00043c.00241.05447.00791.10893.00636.16318-.01083.357.0165.70547.12891 1.03797.07803.231.19181.42066.37761.56482.07786-.99794.28737-1.9425.53418-2.90369l.36988.5309c.0551-.65561.17463-1.29983.35578-1.91756l.52663.854.31229-1.88059.22172.61906c-.01547.98328.36214 1.73644.89169 2.42156l-.58592.37669c.61428-.06366 1.05601-.33316 1.37071-.83234.093-.18528.2006-.36138.2755-.55782.1126-.29443.104-.30253-.1074-.483-.56549-.48212-.94877-1.1364-1.15141-1.96262.24183-.395064.57733-.601127.92711-.758189l.0447.883089c.0936-.06321.1608-.10675.2268-.15312.5806-.406875 1.1989-.68075 1.8482-.842844.125-.031063.2511-.052938.3771-.076344.0143-.002625.031.013344.0464.020563l-.607.616c-.2219.225095-.3983.500935-.5514.802375l-.0215.02734-.0003.02713c-.0219.02887-.0504.05315-.0647.08706-.1156.27497-.2349.54775-.3399.8295-.0612.16406-.098.34278-.1479.52259l.976.11835.0171.04747c-.701.80347-1.4033 1.6054-2.0551 2.50819l.698.12162c-.1978.10303-.376.18134-.5438.28613-.48864.30515-.94565.66434-1.27599 1.23834-.25575.4445-.52165.87959-.78307 1.31862-.20418-.26031-.4082-.52084-.61359-.78334l-.15675.91066.4357.49896c-.02303.05622-.04744.11157-.06892.16866-.13612.36375-.28377.72145-.40391 1.09355-.12495.3876-.15314.8054-.17651 1.2213-.02681.4775-.06858.9542-.08044 1.4321-.01426.5791-.01684 1.1598.05999 1.7354.06754.5066.11928 1.0172.19851 1.5207.04899.3109.13613.6119.20642.9172l.02939-.0074.29064-.7422.02905.0094c.10484.64.2542 1.2626.46819 1.8565.21295.5911.45822 1.1581.84442 1.6168v-.7831l.04297.0006c.07889.0523.15812.1042.23547.1602.54203.3933 1.10463.7386 1.68403 1.0333.7018.357 1.4004.723 2.067 1.1789.2064.1411.414.2916.5943.4793.4092.4265.802.8791 1.2014 1.3212l-.0332.0995c-.1308.333-.2638.6644-.3927.9986-.1138.2951-.2231.5928-.3345.8895l-.0288-.0057v-1.0279c-.0459.1319-.0641.2653-.092.3955-.1124.5286-.2273 1.0563-.3444 1.5833-.0356.1588-.125.2502-.2477.3124-.1437.0726-.2777.0494-.4156-.0059l.0012.0008-.0399-.0234c-.2093-.1984-.4185-.3972-.6283-.595-.0537-.0503-.11-.096-.163-.1419l.076.9837-.0404.0264c-.8563-.8883-1.9033-1.3286-2.85243-1.9989-.30852-.25-.61789-.4981-.92503-.7512-.08199-.0676-.15658-.1492-.25283-.2419l.04709.4841-.02578.0229-.87708-.7662c.0153-.1521.03816-.3037.04452-.4561.01134-.2785.0385-.5613.01358-.8357-.06033-.6626-.33086-1.1709-.76278-1.5476-.17577-.1536-.3448-.3193-.50635-.4964-.08886-.0971-.15761-.2261-.17737-.3657l.50393.0575c-.14987-.3557-.29906-.6704-.41748-1.0029-.11859-.3336-.23169-.6771-.21708-1.0988.08817.1524.14541.2942.27655.3618-.04486-.5622.01959-1.0944.09161-1.6225.07167-.5274.17136-1.0487.25884-1.5728-.30542.6808-.61703 1.356-.7107 2.1779l-.25214-.3378c-.011.2039-.03214.3881-.02888.5718.00722.4117.01943.8239.04228 1.2347.02596.4685.1265.915.27191 1.347.16569.4933.44963.877.71259 1.2815.16724.2568.31041.5352.34839.8734.04108.366.06807.7344.10124 1.1019l.06669 1.2434c-.1913.05-.72549-.1142-.83755-.2691l.08989-.061c-.09608-.1057-.2023-.1978-.28308-.3177-.12272-.1817-.14678-.4165-.17548-.6462-.00739-.059-.04503-.1117-.06858-.1673-.04469.0516-.10347.0938-.12959.1577-.022.0536-.01668.1356-.00464.1993.02217.1183.05053.2369.0892.3478.1167.336.2432.6663.3587 1.0028.14197.4127.25867.8352.25077 1.2954-.00241.135-.02407.1603-.12169.1107-.13168-.0684-.26084-.1444-.38706-.2277-.09935-.0648-.19319-.1429-.30164-.224v.145l-.00877.0094c-.03094-.0199-.06617-.0332-.09247-.0606-.11172-.1161-.22086-.2367-.33086-.3555l.00069.0011-.02234-.0568-.19714-.6243-.01788.0918-.0318.0853c-.14815-.3456-.22618-.6916-.26623-1.0556-.07202.3112.00498.6083.0373.927l.06497-.0897c.0562.1442.10467.284.16379.4163.05964.1334.12547.2629.19628.3872.03575.0632.08818.1111.13286.1658.10399.3334.21124.6657.26366 1.0559l-.56358-.2126c-.22722-.1295-.45959-.2474-.6423-.4749-.00893-.011-.02629-.0107-.0397-.0158l-.00825-.0356-.00808.007.01599.0291.18734.497-.01341.035-.2927-.13zm.22928-.4495-.22035-.6766-.07235.0628-.14799-.8818c-.1418.3454.13664 1.3306.44069 1.4956zm2.42361-11.0049-.0031-.0116-.00773.0026.00309.0116z" fill="#d3edf6"/><path d="m15.0377 23.6914c-.3994-.4421-.7922-.8945-1.2014-1.3213-.1803-.1877-.3879-.3382-.5944-.4793-.6663-.4556-1.3652-.8216-2.0669-1.1788-.5794-.2947-1.1421-.64-1.68405-1.0334-.07735-.056-.15658-.1078-.23547-.1601l-.04297-.0007v.7832c-.3862-.4585-.6313-1.0257-.84442-1.6168-.21399-.5937-.36335-1.2165-.46819-1.8565l-.02905-.0095-.29064.7423-.02939.0074c-.07012-.3054-.15744-.6064-.20642-.9172-.07924-.5036-.13097-1.0141-.19852-1.5208-.07665-.5755-.07407-1.1563-.05998-1.7353.01169-.478.05362-.9549.08044-1.4322.02337-.4156.05156-.8334.17651-1.2212.11997-.3721.26778-.7298.40391-1.09358.02148-.05731.04589-.11243.06892-.16865l.04297.04025c.27242.28547.54759.56678.81469.86038.05087.0557.08903.1548.09968.241.02063.165.01891.3349.02338.5029.00739.2818.0648.4012.27362.4863.71329.2901 1.43948.4541 2.19258.3424.2097-.0313.3854-.1322.5074-.3564.108-.1974.2126-.3977.3137-.6009.1153-.2327.1466-.2485.358-.2078.0952.0184.1262.0746.1239.1877-.0034.1724-.0007.3449-.0022.5173-.0033.3837.1622.6033.4386.6845.2355.0689.4759.1196.7164.1485.3045.0363.6131.0713.9104-.0724-.0727.2395-.1447.4793-.2183.7186-.0323.1052-.0619.2129-.1033.3124-.0605.1452-.0802.2754.0425.3846l.0222.0301-.0002-.0006.0584.1424c.1379.3572.2912.7066.4094 1.0741.1863.5796.2523 1.1941.2652 1.8182.0212.7328-.0888 1.4357-.3061 2.1116-.0632.1962-.1193.4123-.2255.5677-.4781.7008-1.0862 1.0191-1.8191.9231l-.2112-.0313c.0101.0273.0273.0495.0486.0628.4931.3651.986.7304 1.4797 1.0944.0266.0197.0577.0293.0866.0437.0921.1031.1849.205.2764.3091l.4364.4994.0335.0298c.1478-.1621.2898-.3257.4381-.4789.4388-.4534.9214-.8133 1.4369-1.1099.3762-.2163.739-.4712 1.1079-.7088.0215-.0137.0436-.0266.0966-.0227l-.1319.6407-.0287.1291-.0089.0061.0039.005.0049-.0113c.171-.1033.347-.1949.5113-.3131.1365-.0982.259-.2272.3879-.3423-.0244.07-.0443.1433-.0742.2093-.2228.4935-.5205.9089-.8448 1.2953-.0923.1098-.1918.2097-.3004.3279l.0278-.6241c-.4754.5033-.8736 1.0441-1.2592 1.6014l-.0288-.0118-.0399-.7317c-.4192.4804-.8334.931-1.1648 1.4884zm-5.64627-11.13c.00619.0752.00722.129.01547.1811.05844.3758.22653.6639.45822.8932.47778.4733 1.03708.6986 1.62298.8233.528.1125 1.0617.0654 1.5935.0477.0239-.0006.0474-.0105.0931-.0214l-.122-.3253c-.0607-.1586-.1246-.3152-.1823-.4756-.042-.1163-.0136-.1968.0733-.2734.1829-.161.3563-.3404.5408-.5191-.1263-.1336-.2824-.213-.4462-.2268-.455-.0447-.911-.0897-1.3671-.0994-.7532-.0159-1.5067-.0043-2.27977-.0043zm2.39647 3.951.0421-.0107c.0612-.157.1304-.3099.1815-.4723.0626-.1995.1215-.3896.2977-.4764.0955-.047.1823-.1229.2729-.1857l-.0087-.0429c-.7908.0624-1.5655-.0475-2.3446-.3679.0208.4252.1055.7853.2451 1.1475l.3006-.4261c.0945.3251.158.6416.3499.9157l.3677-.691zm.7059 3.7783-.0021-.0081-.0091-.0024.0026.0138zm-4.34331-11.43823c.26143-.43925.52714-.87434.78307-1.31863.33034-.574.78736-.93318 1.27604-1.23834.1677-.10478.3458-.18309.5438-.28612l-.698-.12163c.6517-.90278 1.354-1.70472 2.0551-2.50819l-.0172-.04747-.9759-.11834c.05-.17959.0866-.35853.1478-.52259.105-.28153.2243-.55453.34-.8295.0142-.03391.0428-.05841.0646-.08707.0361.01816.0712.0431.1086.05338.5296.1459 1.0595.28897 1.5888.43509.1444.03982.1467.04091.1467-.15597v-1.0139c.1742-.06082.3468-.132565.5233-.180253.4086-.111304.8186-.214421 1.2298-.309312.205-.046594.4142-.063.6387-.095813l-.4349.955498.0244.0221c.185-.06935.3677-.15182.5554-.20432.1888-.05315.3827-.07634.5926-.11615v.3885c.5154-.0816 1.012-.06782 1.5219.05534-.0331.08575-.0605.15291-.0854.2216-.087.23843-.1726.47796-.26.71574-.0373.1015-.0186.15729.0697.18966.208.07635.4143.16144.6209.24434.0402.01619.079.03785.1347.06476-.0894.13868-.1751.26249-.2528.39396-.2202.37144-.4373.74594-.6545 1.12022-.0121.02078-.0148.0501-.022.07569l-.4381.86887c-.1337.28919-.268.57816-.4.86866-.0096.02122-.0029.05425-.0036.08203-.0655.12141-.1408.23625-.1949.36531-.2545.60857-.5112 1.21647-.752 1.83379-.2359.60528-.4542 1.2215-.679 1.83359-.0134.0363-.0169.0781-.025.1174l-1.086-.2826c-.1188-.2065-.2953-.2251-.4301-.0453-.3026.0123-.6053.0313-.9081.0342-.1554.0015-.3151-.0018-.4658-.0442-.4658-.1308-.9282-.28156-1.392-.42441-.0765-.23625-.3424-.27256-.4729-.12315l-.0319-.00132c-.57479-.12446-1.15178-.21043-1.73667-.18046-.02715.00131-.06256-.02122-.08215-.04725-.1571-.21066-.31161-.4246-.46699-.63744zm1.97641.42569.0572-.0315c.2472-.16472.5036-.26382.7867-.19075.0548.01421.1115.01793.1775.028-.1662-.32266-.5849-.35132-.8171-.15947-.1012.08356-.1986.1774-.2043.35372zm1.0647-.72385c-.0996-.30406-.414-.45456-.6955-.3559-.2362.08246-.4588.40446-.434.65515.3152-.45325.6963-.49394 1.1295-.29925zm3.1057.58013c.3071.03653.5735.16537.7638.50881.0137-.28394-.0731-.45062-.2537-.57641-.1691-.1179-.3747-.08509-.5101.0676zm.5415 1.09116c-.0259-.31635-.1036-.57185-.3509-.66198-.1272-.04637-.256-.0199-.3639.11091.3238.11331.4383.12622.7148.55107z" fill="#e9f5fa"/><path d="m15.108 16.7307c-.013-.6241-.0788-1.2385-.2652-1.8182-.1182-.3675-.2715-.7169-.4094-1.0741l-.0584-.1424c.105.0403.2093.0836.3152.1197.1542.0527.308.1135.4653.1441.0839.0164.1748-.0221.2621-.0389.0337-.0066.0663-.0217.1186-.0392l-.0425.2676c.351-.2076.605-.5268.8104-.9004.2046-.3723.3795-.7709.5638-1.1511l.0823.1766c.1483-.2954.0461-1.1675-.1987-1.6866.0622 0 .1136-.0046.1643.0007.322.0332.6502.0293.9414.2489.2308.1739.3956.4206.5062.7464l-.2465-.0175c.2456.5059.3401 1.0298.3016 1.6294l-.1899-.192c-.0091.0573-.0156.1163-.0282.1732-.038.17-.0797.3384-.1165.5088-.0098.0455-.0069.0952-.0098.1429.0399.0013.0839.0175.1191.0015.2013-.091.4003-.1899.6002-.2855.0833-.0398.1683-.0748.2506-.1179.087-.0455.1193-.0061.1133.1055-.2264.1004-.4531.2003-.6791.3021-.0289.0131-.0554.0356-.0829.0538.2864-.0405.4-.0212.5464.1089.1066.0947.1221.2126.0273.3279-.0735.0895-.1617.1604-.2469.2326-.0511.0435-.109.0739-.1798.1209l.0983.0475c-.1561.1304-.3063.2428-.4446.3751-.1721.1648-.3448.3328-.4975.5246-.1216.1529-.0845.2597.0858.2772.2088.0214.419.0223.6286.0315l.1345.0002-.0993.1634-.005.0105.0043-.0112c.0786 0 .1581.0097.2351-.0039.0485-.0088.1166-.0378.1348-.084.0393-.1002.1029-.1127.1724-.1293.1358-.0326.2722-.0615.407-.1002.1077-.031.2136-.0743.3202-.1122l.0158.0284-.2386.2829-.0357-.1667c-.3785.2214-.7523.422-1.1119.658-.1734.114-.3197.2947-.4783.4454l-.0088.0127.01-.011.1016.0092-.3976.4268c.0634.0702.1143.1625.1826.194.1283.0595.2655.1057.4013.1182.2047.0185.4113.0035.617.0026l.0053-.0573-.161-.0843.8205-.1257c-.5598.4383-1.2058.3922-1.8248.5243.0011.2131.1413.3135.231.4598l-.0668.0705.1942.2073c.0369.074.0029.0792-.045.0823-.3572.0227-.7028-.0543-1.0342-.2166-.202-.0989-.395-.2273-.5925-.341-.0185-.0107-.0407-.0114-.0613-.0169l-.0031-.01-.0062-.0022.0088.0129.0859.2454c-.1138-.0273-.2269-.0691-.3415-.0789-.2659-.0228-.5175.0708-.765.1835l-.0908.0348c.0072-.1166.0201-.2334.0203-.3502.0009-.4741-.0017-.9479-.0052-1.4219.0002-.0175-.0227-.0354-.0349-.0532z" fill="#b3e0ee"/><path d="m15.0457 23.6927c.3313-.5571.7456-1.008 1.1646-1.4884l.0399.7318.0288.0118c.3856-.5572.7838-1.0982 1.2592-1.6015l-.0278.6241c.1086-.1181.2081-.2181.3004-.3279.3243-.3863.622-.8017.8448-1.2952.0297-.0661.0498-.1394.0742-.2094l.0212-.0013.0032.0035c-.0717.2977-.1358.5987-.2167.8923-.1774.6423-.5131 1.1666-.8015 1.7275-.2901.5646-.5558 1.1495-.8305 1.727-.0213.0448-.0276.1011-.0409.152l-.0084.0158.0113-.0121c.126-.0829.2517-.1666.378-.2487.1164-.0757.2336-.1496.3692-.2012l-.0861.2067c-.3008.7374-.5983 1.477-.9037 2.2113-.1217.2927-.2572.5764-.3947.8575-.0237.0488-.0895.0906-.1361.0908-.6107.0046-1.2213-.0122-1.8317.0044-.4417.0118-.777-.252-1.0915-.5961l-.0147-.0348c.1381.0554.2721.0786.4156.0059.1228-.0621.2121-.1535.2477-.3123.1172-.527.2321-1.0547.3445-1.5834.0278-.1301.046-.2638.0919-.3955v1.028l.0289.0056c.1114-.2966.2207-.5945.3345-.8894.1289-.3343.2619-.6657.3927-.9986z" fill="#65c1dd"/><path d="m7.47025 23.929.87708.7663.02578-.023-.04709-.484c.09625.0927.17084.1743.25282.2419.30714.2529.61652.5011.92504.7512l-.65554.2273c.76468.4167 1.45456 1.004 1.78616 2.1159-.2254.0191-.4307.0416-.63648.0532-.44224.0245-.88447.0477-1.32688.0634-.63886.0228-1.27789.0381-1.91675.0573-.18562.0055-.37125.0103-.55653.0197-.29528.0149-.5268-.1297-.69609-.4377-.01994-.0365-.04366-.0696-.07168-.114l-.20453.1807c-.12117-.1312-.22498-.2806-.28806-.4727l.56358.2126c-.05242-.3902-.15967-.7225-.26366-1.0559l-.0605-.248c.11.1187.21914.239.33086.3554.0263.0274.06136.0409.09247.0606l.01478.03-.00601-.0394v-.145c.10845.0811.20229.1592.30164.224.12622.0834.25538.1593.38706.2277.09762.0497.11928.0241.12169-.1107.0079-.4602-.10897-.8829-.25077-1.2954-.11567-.3367-.24217-.6668-.3587-1.0028-.03797-.1122-.06783-.2286-.08921-.3478-.01186-.0639-.01736-.1457.00464-.1993.02613-.0638.08491-.1058.1296-.1577.02372.0556.06119.1085.06858.1674.0287.2296.05276.4644.17548.6461.08078.1197.187.2118.28308.3177l-.08989.061c.11206.1549.64625.3192.83755.2691l-.06669-1.2434.06428.0422c.1143.0945.22842.1905.34289.2861z" fill="#65c2dd"/><path d="m17.9774 18.6655-.1942-.2074.0668-.0704c-.0895-.1464-.2298-.2468-.231-.4598.6191-.1322 1.265-.086 1.8248-.5244l-.8205.1258.161.0842-.0053.0573c-.2057.0009-.4123.016-.617-.0026-.1358-.0124-.273-.0586-.4013-.1181-.0683-.0317-.119-.1238-.1826-.194l.3976-.4268-.1016-.0092-.0012-.0018c.1585-.1505.3047-.3314.4783-.4451.3594-.236.7334-.4366 1.1119-.658l.0357.1667.2386-.2829-.0158-.0284c-.1068.0378-.2125.0811-.3202.1122-.1348.0387-.2712.0676-.407.1002-.0695.0166-.1331.0293-.1724.1293-.0182.0461-.0861.0752-.1348.084-.077.0138-.1565.0039-.2351.0039l.0007.0007.0993-.1634-.1345-.0003c-.2096-.0091-.4198-.01-.6286-.0314-.1701-.0175-.2073-.1241-.0857-.2772.1526-.1921.3251-.3601.4974-.5246.1383-.1323.2885-.2448.4446-.3751l-.0983-.0475c.0708-.047.1287-.0774.1798-.121.0852-.0724.1734-.1432.247-.2325.0947-.1153.0792-.233-.0274-.3279-.1464-.1302-.26-.1492-.5464-.1089.0277-.0182.054-.0407.0829-.0539.226-.1017.4527-.2016.6791-.302.1849.0094.3717.0004.5539.033.2506.0448.384.2931.5216.5241l-.0149.0348-.252-.1033c.1496.3251.2838.6305.2931 1.0065-.0193-.0136-.0366-.0188-.0449-.033-.0105-.018-.0137-.0427-.0265-.0862-.0694.212-.1024.3942-.1811.5351-.1327.238-.1272.4449-.0282.7021.0708.184.0737.4104.1069.618l-.0416.021-.1062-.1662c-.0132.2854-.016.542-.1263.7756l-.0483-.141c-.0787.0923-.1571.176-.2262.2708-.0189.0258-.0191.0868-.0127.1279.0361.2383.0981.4741.0276.7261l-.0818-.0486c-.1146.32-.3216.4826-.5782.5187-.2787.0391-.5531-.0234-.8169-.1501-.0332-.0155-.068-.0234-.1019-.035z" fill="#ebf7fe"/><path d="m14.1401 10.3189 1.0861.2826.091.0381c.0745.0308.102.0973.0796.1901-.028.1165-.0543.2358-.0966.3443-.0228.059-.0711.1168-.1186.1422-.0823.0441-.1309.1131-.167.2132-.0502.1396-.1009.2814-.1681.4082-.0602.1138-.1423.2087-.2149.3122-.2973.1437-.6058.1087-.9104.0724-.2411-.0293-.4804-.0789-.7164-.1485-.2762-.0812-.4418-.3008-.4386-.6845.0016-.1724-.0012-.345.0023-.5174.0022-.113-.0287-.1693-.124-.1876-.2112-.0407-.2425-.0252-.358.2078-.1011.2031-.2057.4035-.3137.6009-.122.2242-.2975.3253-.5073.3563-.753.1116-1.47919-.0525-2.19264-.3423-.20883-.0851-.26606-.2046-.27363-.4863-.00446-.168-.00275-.3378-.02337-.5029-.01066-.086-.04881-.1851-.09969-.2411-.26709-.2935-.54226-.57485-.81469-.86032l-.04296-.04025-.43571-.49897.15675-.91065.6136.78334c.15537.21284.30989.42678.46732.63722.0196.02603.05483.04878.08216.04725.58472-.02997 1.16188.05578 1.73666.18047l.0319.00131.4729.12316c.4637.14284.9262.29354 1.392.42434.1505.0425.3104.0458.4658.0442.3026-.0028.6053-.0219.9081-.0341zm-3.9012-.36927c-.31646-.02319-.63288-.05425-.94965-.06585-.12719-.00459-.19903.08772-.21416.24782-.02712.284-.04798.5688-.06256.8542-.01426.2905.00808.326.2286.4209.60912.2621 1.23767.3454 1.87737.3319.2338-.0048.4058-.1374.5229-.3804.0967-.2006.1791-.4128.2595-.625.0699-.1846.0481-.2686-.1073-.3336-.2363-.0991-.479-.1739-.7189-.2592zm3.5236.58167-.0035.0297c-.1213 0-.243-.0065-.364.002-.1064.0074-.2126.0271-.3178.0499-.1384.0299-.2265.1336-.2399.3154-.0143.1892-.0263.3798-.026.5696.0005.3308.048.4038.2975.4804.356.1089.7176.1523 1.0832.1302.0883-.0053.1763-.0307.2638-.0519.1159-.0282.199-.1065.2467-.2509.0852-.2592.1815-.5125.2648-.7724.0695-.2165.0524-.2732-.1261-.3108-.3582-.0757-.719-.1289-1.0787-.1912z" fill="#515053"/><path d="m10.3644 4.22853c-.3147.49919-.75639.76869-1.37068.83234l.58593-.37668c-.52955-.68491-.90716-1.43828-.89169-2.42156.02681-.60354.17187-1.155.44722-1.649161.02647-.047469.05981-.088813.08972-.133l.01684.010062.0012.053157c-.0189.039812-.04743.076781-.05517.119656-.10759.598276-.10605 1.194156.04778 1.780186.16672.63503.48125 1.134.89375 1.54.0803.07919.1569.16341.2351.245z" fill="#4f4e51"/><path d="m15.1087 16.7305c.0123.0179.0352.0356.0352.0536.0036.4738.006.9478.0052 1.4218-.0002.1169-.0133.2334-.0203.3503-.0787.4125-.1408.8314-.2401 1.2357-.154.6276-.4091 1.1926-.7269 1.711-.0289-.0142-.0601-.0238-.0866-.0437-.4936-.3642-.9866-.7293-1.4797-1.0944-.0213-.0134-.0384-.0355-.0486-.0628.0704.0105.1406.0221.2112.0313.7329.096 1.341-.2225 1.8191-.9231.1061-.1554.1623-.3715.2255-.5677.2171-.6764.3271-1.3792.306-2.112z" fill="#66c2dd"/><path d="m13.5159 1.09222v1.0139c0 .19688-.0022.196-.1466.15597-.5294-.14612-1.0593-.28918-1.5888-.43509-.0375-.01028-.0724-.03522-.1086-.05337l.0003-.02713.0215-.02734c.1531-.30144.3295-.57728.5514-.802379l.607-.616c-.001.0455.0054.094281-.0048.1365-.0471.192719-.099.383906-.159.613589.2943-.139558.5504-.311058.8278-.37012z" fill="#ebf7fd"/><path d="m10.3686 4.2315c-.0782-.08159-.1548-.16581-.2347-.24478-.41236-.40578-.72706-.90497-.89378-1.54-.154-.58603-.15555-1.18191-.04778-1.780189.00773-.043094.03626-.080062.05517-.119656l.13784.681185c.20264.82622.58592 1.4805 1.15135 1.96263.2116.18025.2202.18834.1075.483-.075.19622-.1826.37253-.2756.55781z" fill="#737f84"/><path d="m16.8766 6.45259c.0008-.02756-.006-.06081.0036-.08203.132-.2905.2662-.57925.3999-.86865.2328-.0606.4693-.10347.6972-.1855.5063-.18222.9542-.49832 1.3122-1.00078.0427-.05972.0873-.11682.1312-.17501-.1819.65625-.4539 1.24185-.8493 1.7266-.3769.46222-.8415.62715-1.3531.61359-.114-.00284-.2278-.01837-.3417-.02822z" fill="#4f4e51"/><path d="m19.4218 4.14222c-.0438.05819-.0887.11528-.1312.175-.358.50247-.8057.81856-1.3122 1.00078-.2279.08203-.4646.12491-.6972.1855l.4382-.86887c.6197.12731 1.1641-.11485 1.668-.55388l.0715-.05731z" fill="#737f84"/><path d="m18.7426 20.1357.0048-.038.0096.0035-.0112.038z" fill="#65c1dd"/><path d="m9.22656.483844.01049-.015094.00636.025375z" fill="#737f84"/><path d="m7.46764 23.927-.34324-.2867-.06428-.0423c-.03317-.3675-.06016-.7358-.10123-1.1018-.03799-.3382-.18116-.6167-.34839-.8735-.26315-.4044-.54691-.7881-.7126-1.2814-.14523-.432-.24595-.8785-.27191-1.3471-.02183-.411-.03592-.8227-.04228-1.2346-.00326-.1835.01788-.3679.02888-.5718l.25214.3377c.09367-.8218.40528-1.4971.7107-2.1778-.08748.5241-.187 1.0454-.25884 1.5728-.07184.528-.13647 1.0603-.09161 1.6224-.13114-.0676-.18855-.2093-.27655-.3618-.01444.4218.09849.7652.21708 1.0988.11825.3325.26761.6471.41749 1.003l-.50394-.0576c.01959.1396.08851.2687.17737.3658.16163.1769.33066.3426.50635.4963.43192.3769.70245.8851.76278 1.5477.02492.2743-.00224.5572-.01358.8356-.00619.1527-.02905.3043-.04434.4563zm-2.29368 1.8539.0605.2481c-.04486-.0547-.09711-.1028-.13286-.1658-.0709-.1244-.13643-.2537-.19628-.3872-.05895-.1323-.10759-.2721-.16379-.4163l-.06497.0897c-.03232-.3187-.10949-.6156-.0373-.9271.04005.364.11825.7101.26624 1.0557l.03179-.0853.01788-.0919.19714.6244.02234.0568z" fill="#b3e0ee"/><path d="m4.18186 26.2651c-.30405-.1647-.58248-1.1499-.44069-1.4956l.14799.8818.07236-.0628z" fill="#b4e1ee"/><path d="m6.60458 15.2577-.00774.0026-.00309-.0116.00773-.0026z" fill="#b3e0ee"/><path d="m9.39062 12.5627c.77308 0 1.52658-.0116 2.27988.0043.456.0097.912.0547 1.3671.0993.1639.0138.3201.0932.4462.2269-.1846.1787-.3578.3581-.5407.5191-.0868.0765-.1151.157-.0734.2734.0578.1604.1217.317.1824.4756l.122.3253c-.0457.0109-.0693.0207-.0931.0214-.532.0177-1.0655.0645-1.5935-.0477-.5861-.1245-1.1452-.35-1.62302-.8234-.23168-.2292-.39978-.5173-.45821-.8931-.00843-.0519-.00946-.1059-.01565-.1811z" fill="#4f4e51"/><path d="m11.7936 16.513-.2959-.6099-.3677.6911c-.192-.2741-.2554-.5907-.3499-.9157l-.3006.4261c-.1396-.3623-.2243-.7221-.2451-1.1476.7791.3203 1.5537.4303 2.3445.368l.0088.0428c-.0908.063-.1776.1387-.273.1858-.1761.0866-.2352.2769-.2976.4764-.0511.1623-.1203.3152-.1815.4723z" fill="#d3edf6"/><path d="m12.4955 20.2878-.0085.0033-.0026-.0138.0091.0025z" fill="#66c2dd"/><path d="m11.194 8.55416c-.4333-.19447-.8144-.15379-1.1296.29903-.0248-.25069.1978-.57247.434-.65516.2815-.09866.5959.05206.6956.35613zm-1.065.72362c.0059-.17609.1033-.26994.2044-.3535.2322-.19184.6509-.16319.8171.15947-.066-.01006-.1226-.01378-.1776-.028-.2829-.07306-.5395.02581-.7867.19075zm4.1706-.1435c.1352-.15291.341-.18572.5101-.06759.1806.12578.2673.29247.2537.5764-.1901-.34343-.4565-.47228-.7638-.50881z" fill="#d4edf6"/><path d="m14.8398 10.2263c-.2765-.42477-.391-.43767-.7148-.55121.1079-.13081.2367-.15728.3639-.1109.2473.09034.325.34584.3509.66211z" fill="#cdebf4"/><path d="m18.4472 16.0977-.0043.0111.005-.0105zm-.5779.8198-.0099.011.0087-.0127z" fill="#ebf7fe"/><path d="m5.61033 26.1914.00601.0394-.01478-.03z" fill="#d3edf6"/><path d="m11.0812 10.1435c.2399.0853.4826.1601.7189.2592.1554.065.1772.149.1073.3336-.0803.2122-.1628.4244-.2595.625-.1173.243-.2891.3756-.5229.3804-.6399.0135-1.26825-.0698-1.87738-.3319-.22051-.0949-.24286-.1303-.22859-.4208.01409-.2853.03592-.5703.06256-.8543.01513-.16008.0868-.25261.21416-.2478.31676.01181.63319.04265.94965.06584l-.0872.34716c-.0788.2494-.0929.5243-.0402.7847.0559.283.249.4333.4505.3655.1832-.0617.384-.3673.403-.6138.0944-.2157.1066-.4531.1097-.6928z" fill="#e8f4f8"/><path d="m13.764 10.5352c.3597.0623.7205.1152 1.0784.1909.1785.0377.1955.0943.1261.3109-.0834.2598-.1796.5132-.2649.7724-.0474.1446-.1306.2229-.2466.2509-.0873.0212-.1755.0466-.2638.0518-.3641.0224-.7288-.0215-1.0832-.1301-.2495-.0766-.2971-.1497-.2975-.4804-.0003-.1901.0119-.3804.026-.5696.0135-.1818.1015-.2855.2399-.3155.1052-.0227.2114-.0424.3178-.0498.121-.0086.2427-.002.364-.002zm.4773.5711c-.0179.0481-.0261.082-.0414.1094-.0672.1218-.1238.259-.2075.359-.1803.215-.4047.1509-.5063-.1357-.0404-.1144-.0614-.2402-.0923-.3644-.0232.3286.0019.5598.0773.7214.076.1628.1826.2258.3238.1914.2517-.061.466-.4727.4464-.8811zm-.7049-.0621-.0206.0249c.0425.0681.0746.1658.1298.1962.0768.0425.126-.0533.1619-.1336.0155-.0355.026-.0741.0313-.1142.0175-.1306-.0289-.2662-.0958-.2892-.073-.0249-.1601.0698-.1909.21z" fill="#ecf5f9"/><path d="m10.1497 10.3008c.0085.1577.0047.3183.0284.472.0285.1838.1009.3406.2585.396.1578.0555.2862-.0191.3977-.1549.0456-.0553.0859-.1175.1287-.1765-.019.2465-.2198.5521-.403.6138-.2014.0678-.3946-.0825-.4505-.3655-.0528-.2604-.0387-.5355.0402-.7849zm4.0881.8054c.0196.4084-.1948.8201-.4462.8809-.1413.0344-.2477-.0286-.3238-.1914-.0755-.1616-.1006-.3929-.0774-.7214.0308.1242.0518.25.0923.3644.1016.2866.3261.3509.5064.1356.0837-.0999.1402-.2371.2074-.3589.0152-.0271.0234-.0611.0413-.1092z" fill="#778287"/><path d="m13.537 11.04.0157-.1057c.0309-.1402.1181-.2349.1909-.21.0667.023.1133.1586.0958.2892-.0053.0401-.0158.0787-.0313.1142-.0358.0803-.0851.1761-.1619.1337-.0552-.0304-.0875-.1284-.1298-.1962zm-3.2398-.5224c.0046-.1518.0846-.2784.1758-.2793.0767-.0007.1405.1172.136.2513-.0052.1497-.0964.289-.1868.2846-.0812-.0039-.1298-.1034-.125-.2566z" fill="#1c1c1c"/></g></svg>