<svg xmlns="http://www.w3.org/2000/svg" xmlns:xlink="http://www.w3.org/1999/xlink" width="290" height="521" viewBox="0 0 290 521"><defs><path id="s1haa" d="M369.2 740.86c-6.41-.43-12.73-.86-19.15-1.18.43-1.92-1.5-4.06-5.78-4.06-21.08-.11-42.26-.32-63.35-.43-19.36-.1-39.38-1.18-58.53.53-3.1.32-3.96 2.36-2.78 3.86-8.14.1-16.27.32-24.3.42-3.53 0-5.77 3.54-3 5.46 4.72 3.32 7.82 2.68 13.39 4.28 2.46.75 4.49 1.18 5.88 2.14-3.96 1.07-7.7 2.68-10.49 5.46-.96.96-1.6 2.67-1.07 4.07 1.72 4.17 3.96 4.6 8.24 5.24 4.71.75 9.53 1.28 14.34 1.6 0 .54 0 .97.32.97 20.98 1.6 35-6.32 52.23-7.5 21.3-1.38 51.15 10.5 62.49 9.1 1.28-.1 2.35-.85 3.32-1.82 1.28 0 2.67-.1 3.96-.21 5.24-.32 10.06.1 14.12-3.42 2.04-1.82 1.07-4.82-.75-6.1a11.56 11.56 0 0 0-3.2-1.72c1.5-1.82 3.2-3.2 8.23-5.24 4.71-1.93 7.39-1.82 10.49-5.46 2.14-2.78-.96-5.67-4.6-5.99z"/><path id="s1hab" d="M235.33 723.3c-6.42 2.9-12.52 16.27-12.62 19.27-.11 3-9.42.64-11.56 9.95-2.03 9.42.1 16.59 24.18 16.27 9.1-.11 8.46-6.74 14.02-6.96 5.57-.21 10.6-1.82 10.81-4.7.21-2.9 1.07-24.2-6.85-33.07-7.81-8.67-17.98-.75-17.98-.75z"/><path id="s1hac" d="M326.51 725.24c6.42 2.88 12.52 16.26 12.63 19.26.1 3 9.42.64 11.56 9.95 2.03 9.42-.11 16.59-24.19 16.26-9.1-.1-8.45-6.74-14.02-6.95-5.56-.22-10.6-1.82-10.8-4.7-.22-2.9-1.08-24.2 6.84-33.08 7.82-8.77 17.98-.74 17.98-.74z"/><path id="s1had" d="M248.29 735.73c.75 0 1.18.64 1.28 1.28.32 2.67-.64 4.7 1.6 5.46 2.58.85 5.68-3.21 7.29-4.93.1-.21.32-.32.42-.53-.96-4.92-2.67-9.63-5.45-12.74-7.82-8.77-17.98-.85-17.98-.85-2.36 1.07-4.6 3.53-6.53 6.31 5.03 5.35 11.77 6.42 19.37 6z"/><path id="s1hae" d="M304.14 743.86c1.5 1.28 6.96 5.77 9.2 2.46.43-.54-.74-5.25-.85-6.42-.1-1.18.96-1.82 1.93-1.93 7.27-.96 13.9-1.18 19.8-4.7-2.25-3.54-4.93-6.75-7.71-8.03 0 0-10.17-8.03-17.98.85-3.42 3.85-5.14 10.06-6.1 16.05.54.54 1.07 1.18 1.71 1.72z"/><path id="s1haf" d="M320.3 748.24c-.1 0-.32 0-.42-.1a.83.83 0 0 1-.22-1.07c.96-1.5 5.57-3.32 9.85-3.96 3.2-.54 7.7-.54 10.8 1.92.33.32.43.75.11 1.18-.32.32-.75.43-1.18.1-2.03-1.6-5.45-2.24-9.63-1.6-4.5.64-8.24 2.57-8.66 3.32-.11.1-.33.21-.65.21z"/><path id="s1hag" d="M318.92 744.4c-.22 0-.33-.11-.54-.22-.32-.32-.43-.75-.1-1.18 2.46-2.89 10.16-4.6 14.65-4.6h.33c2.14 0 3.53.43 4.17 1.28.32.33.21.86-.1 1.18-.33.32-.86.22-1.19-.1-.2-.33-1.17-.65-3-.65-4.6 0-11.76 1.71-13.69 3.96a.59.59 0 0 1-.53.32z"/><path id="s1hah" d="M318.27 739.04c-.21 0-.53-.11-.64-.32a.87.87 0 0 1 .21-1.18c3.96-2.9 11.99-4.82 15.63-3.1.43.2.53.64.32 1.06-.21.43-.64.54-1.07.33-2.78-1.4-10.06.1-13.91 2.89-.1.32-.32.32-.54.32z"/><path id="s1hai" d="M317.2 747.17c-.22 0-.43-.1-.64-.32a24.35 24.35 0 0 1-5.57-11.56c-.1-.42.21-.85.64-.96.43-.1.86.21.97.64 0 .11.96 5.89 5.13 10.7.32.32.22.86-.1 1.18 0 .22-.22.32-.43.32z"/><path id="s1haj" d="M244.65 744.92c-.22 0-.33-.1-.54-.21-.32-.32-.43-.75-.1-1.18 2.67-3.42 3.85-12.3 3.85-12.41.1-.43.42-.75.85-.75.43.1.75.43.75.86 0 .42-1.18 9.41-4.17 13.16-.1.43-.32.53-.64.53z"/><path id="s1hak" d="M258.77 736.9c-1.5 6.53-8.34 16.48-15.3 15.52-3.53 8.34-18.3 6.95-25.36 4.92-1.6-.43-4.6-1.71-7.28-3.53-1.5 8.67 1.5 15.2 24.4 14.98 9.1-.1 8.46-6.74 14.02-6.96 5.56-.21 10.6-1.82 10.8-4.7.22-1.72.65-11.24-1.28-20.23z"/><path id="s1hal" d="M351.02 756.06c-4.07 2.14-10.06 3.42-11.56 3.74-6.85 1.5-17.66.11-20.65-6.74-7.92 1.6-12.95-7.81-14.88-14.23a11.2 11.2 0 0 1-.42-1.82c-2.25 9.42-1.82 20.12-1.72 22.15.22 2.9 5.25 4.5 10.81 4.71 5.57.21 4.92 6.74 14.02 6.96 22.58.21 25.79-6.21 24.4-14.77z"/><path id="s1ham" d="M236.19 502.97c-7.28 8.46-3.85 24.08-6.96 33.17-3.1 9.1-.1 64.96 4.4 74.16 4.49 9.2-.12 22.9-2.26 29.11-2.14 6.2-3.42 18.73-1.7 35 1.7 16.26-4.5 31.78 3.63 43.44-4.39 6-8.77 5.24 2.46 12.63 11.24 7.38 25.8 1.07 22.15-7.07-3.64-8.13 4.18-39.7 6.53-55.32 2.35-15.62-1.28-27.6.64-32.85 1.93-5.25.32-9.74 8.46-15.95 4.5-2.57-3.43-9.84-2.14-14.66 1.28-4.81 4.28-56.07 4.28-56.07s5.35 4.7 10.06 2.46c-.97 47.94 10.05 72.12 8.98 82.4-1.07 10.27-4.06 30.71 2.57 47.4 6.64 16.7 6.2 27.93 6.53 34.57.32 6.63-6.85 10.91-1.28 11.88 5.45.96-4.71 5.78 4.7 7.49 9.42 1.71 26.97-1.07 29.65-8.46 2.67-7.38-9.96 2.46-6-6.1 3.96-8.56 1.29-8.98-.1-15.3-1.4-6.31-1.93-46.55-.54-56.29 1.4-9.73-5.13-22.15-1.6-26.32 3.53-4.17.64-9.42 2.57-19.8 1.92-10.49-.54-38.42 1.28-51.36 1.71-12.95-6.96-52.76-6.96-52.76z"/><path id="s1han" d="M241.65 535.19a7.05 7.05 0 0 0 8.67-4.93c.32-1.28.74-2.46 1.07-3.74a.95.95 0 0 1 1.07-.64c18.72 7.06 41.09 7.27 59.6-.75.54-.22 1.28-.11 1.4.53.53 2.04.85 4.07.95 6.1a7.26 7.26 0 0 0 8.46 6.64c3.1-.54 6.1-1.18 8.99-2.14-1.82-16.6-6.53-38.1-6.53-38.1l-89.35 4.6c-6.21 7.17-4.6 19.37-5.89 28.57 3.85 1.6 7.7 2.79 11.56 3.86z"/><path id="s1hao" d="M257.06 718.81a25.31 25.31 0 0 1-3.43 5.35c-5.24 6.42-12.09 7.82-18.4 2.36-.75-.64-.54-1.82 0-2.46 2.24-2.68 4.17-5.03 6.84-6.42-4.28-2.9-8.88-6.21-12.62-10.17a24.48 24.48 0 0 0 3.85 10.38c-4.39 6-8.77 5.24 2.46 12.63 11.24 7.38 25.8 1.07 22.15-7.07-.53-1.17-.75-2.67-.85-4.6z"/><path id="s1hap" d="M265.08 616.73c-1.82 2.03-1.5 5.67-1.39 8.13.1 3.1.75 6.31 1.71 9.42 1.4-4.82.54-9.1 8.24-14.98.86-.54 1.29-1.18 1.4-1.93-3-2.46-6.53-4.5-9.96-.64z"/><path id="s1haq" d="M331 720.21c3.1-6.74 2.14-8.45.86-11.98-1.93 3-3.32 6.3-4.18 10.16-.96 4.5-1.17 8.35-5.13 11.45-2.79 2.14-6.1 3-9.1.86-2.03-1.4-2.67-6.32-4.28-5.25-1.18.75-3.21-.53-2.57-1.92 2.68-6.42.43-11.88-3.1-16.91.21 3.42.32 6.31.43 8.67.32 6.63-6.85 10.91-1.29 11.88 5.46.96-4.7 5.77 4.71 7.49 9.42 1.7 26.97-1.07 29.64-8.46 2.68-7.38-10.06 2.57-5.99-5.99z"/><path id="s1har" d="M300.29 331.76c-1.82-8.99-1.82-15.52-3.85-19.05-8.46-.1-20.55 12.1-26.65 17.98-.43.43-2.35-6.1-2.78-6.2-1.18 1.7-1.07 10.05-2.25 11.66-.43 3.85-.43 8.99.96 14.23 3 11.13 23.76 10.38 31.57 6.1 7.81-4.28 3.75-18.2 3.53-21.19-.1-.96-.32-2.25-.53-3.53z"/><path id="s1has" d="M300.83 335.4c-.11-1.07-.22-2.36-.43-3.64-1.82-8.99-1.82-15.52-3.85-19.05-8.46-.1-20.55 12.1-26.65 17.98-.43.43-2.35-6.1-2.78-6.2-1.18 1.7-1.07 10.05-2.25 11.66-.43 3.85-.43 8.99.96 14.23.97 3.74 4.07 6.2 8.03 7.49-.32-7.06-1.18-14.02-3.32-20.87-.1-.53.32-1.07.86-.85 4.07 1.39 7.7 3.96 12.2 2.56a24.23 24.23 0 0 0 10.6-6.52c.31-.43.96-.11 1.06.32 1.6 4.7 1.4 9.63.32 14.44a92.26 92.26 0 0 1-3.31 11.45 23.52 23.52 0 0 0 5.13-1.92c7.6-4.28 3.64-18.2 3.43-21.08z"/><path id="s1hat" d="M264.02 343.1c7.28 8.56 12.95 14.98 34.14 4.6 21.18-10.38 27.28 144.04 27.28 144.04s3.21 14.34-13.37 23.54c-16.59 9.2-47.3 18.09-70.3-5.88-23.12-23.98-.12-103.48-.12-103.48l.97-56.3z"/><path id="s1hau" d="M258.98 506.4c.11-8.67 3.75-26.75 4.07-35.42.75-16.7.96-21.72 2.57-38.3 1.71-16.92 3.96-33.93 4.5-50.95.31-11.13-.76-22.25-1.3-33.28-1.7-1.5-3.2-3.31-4.8-5.24l-21.3 6.53-.97 56.29s-23 79.5.11 103.48a52.08 52.08 0 0 0 15.84 11.23c.64-4.07 1.28-10.16 1.28-14.34z"/><path id="s1hav" d="M325.55 491.74s-6.1-154.42-27.29-144.04c-1.18.54-2.25 1.07-3.2 1.5v1.07c.1 4.28.1 8.45-.33 12.63 6.1 26.21 5.14 54.9 7.5 81.54 2.13 24.5 3.42 50.62.74 75.33a77.26 77.26 0 0 0 9.42-4.49c16.37-9.2 13.16-23.54 13.16-23.54z"/><path id="s1haw" d="M233.84 354.55c3 18.94-3.32 33.07-2.78 40.34 1.92 23.55-11.88 101.13-14.13 110.23-2.25 9.1 24.94 17.22 30.82 16.69 5.89-.54 28.68-163.73 26.54-171.54-2.14-7.81-7.28-15.52-8.13-21.19.32-3.96-9.85 14.02-19.05 11.35-9.2-2.57-23.86-4.6-20.87-.86 3.1 3.74 6.2 10.06 7.6 14.98z"/><path id="s1hax" d="M293.45 351.02c-1.18 2.89-7.07 1.6-6.64 3.96.43 2.35 2.25 11.34 3 14.77.75 3.42 9.3.75 9.2-1.29-.21-2.03-5.56-17.44-5.56-17.44z"/><path id="s1hay" d="M299.54 327.26c-.42 6.85-1.7 16.91-6.1 20.23-4.38 3.32 2.9 18.73 4.82 37.24 1.93 18.51 14.87 123.06 14.98 131.51.1 8.46.75 8.14 11.99 6.85 11.23-1.28 27.82-12.62 28.14-15.09.32-2.46-29.54-113.1-30.4-119.2-.85-6.1 5.47-38.1 14.03-47.09-1.4-1.93-2.25.96-13.91 0-11.78-.96-23.33-17.76-23.55-14.45z"/><path id="s1haz" d="M231.7 348.77a46.25 46.25 0 0 0 30.07-8.88 35.08 35.08 0 0 1-1.6-5.46c-3.65 3.64-8.46 7.38-12.96 6.1-9.2-2.57-23.86-4.6-20.86-.86a42.5 42.5 0 0 1 5.35 9.1z"/><path id="s1haA" d="M265.83 347.38c-.86-1.6-1.93-3.53-2.89-5.78-6.96 6.96-18.51 10.38-29.54 10.17.33.96.65 1.92.97 2.78 3 18.94-5.89 13.91-5.46 21.3 1.93 38.84-9.1 119.2-11.45 129.16 4.92 3.85 16.59 6.63 22.26 7.8 2.25.44 4.17.76 6 .76 1.7-13.06 7.05-26.33 9.09-39.38 2.67-18.09 4.28-36.17 5.99-54.36 1.5-15.95 3.1-31.9 5.46-47.84.96-6.1 1.82-12.52 3-18.83-1.5-2.36-2.57-4.39-3.43-5.78z"/><path id="s1haB" d="M240.9 378.42a165.24 165.24 0 0 0-6.1-14.13c-1.07 7.6-6.2 5.89-5.88 11.56.85 18.19-1.07 45.26-3.64 70.2 4.82-1.29 7.81-9.42 9.2-13.38 5.67-15.84 6.85-33.5 6.53-50.19 0-1.39 0-2.78-.1-4.06z"/><path id="s1haC" d="M303.18 336.47c7.17 6.85 14.34 12.84 24.61 15.51 1.29.32 2.57.54 3.86.75 1.28-4.6 3.1-8.45 5.35-10.8-1.4-1.93-2.25.96-13.91 0-8.03-.65-15.95-8.78-20.23-12.74.43 2.25.54 4.7.32 7.28z"/><path id="s1haD" d="M330.79 355.51a41.24 41.24 0 0 1-9.63-2.89c-7.7-3.42-13.16-8.56-18.3-14.66a25.62 25.62 0 0 1-2.46 7.5c-1.18 2.35-3.21 5.98-5.78 9.51 1.5 4.6 2.89 9.1 3.96 13.8a528 528 0 0 1 5.24 31.68c2.79 20.55 5.78 38.85 8.56 60.79 2.25 17.55 6.1 36.06 6.64 54.36 7.6-.32 26.86-9.63 33.81-11.88-.75-22.15-28.35-105.2-29.1-110.54-.43-4.07 4.17-25.58 7.06-37.67z"/><path id="s1haE" d="M322.65 416.4c2.14 8.03 5.14 16.06 9.42 23.23 2.25 3.85 5.03 7.92 8.67 10.7-7.81-27.18-16.48-54.15-16.91-57.15-.54-4.06 4.07-25.57 6.96-37.66-.22 0-.54-.11-.75-.11-2.14 3-3.96 6.31-5.46 9.95-6.31 15.73-6.31 34.67-1.93 51.05z"/><path id="s1haF" d="M334 343.42c5.35-3.53 6.95-3.53 7.6-1.07.64 2.46 4.7 6.2 6.84 11.45 2.14 5.24 1.4 8.67 2.57 17.66 1.18 8.99 5.03 18.72 9.53 26.86 4.49 8.13 13.37 27.71 7.7 35.74-5.67 8.02-13.48 20.33-26.32 6.1-12.85-14.34-22.58-53.5-22.05-65.5.43-11.87 14.13-31.24 14.13-31.24z"/><path id="s1haG" d="M273.86 269.26c-20.66 3.42-21.2 32.42-13.27 50.19 8.02 17.76 17.23 16.59 26.96 14.23 7.7-1.82 15.1-17.23 11.67-35.53-3.43-18.08-2.9-31.89-25.36-28.89z"/><path id="s1haH" d="M261.88 298.26c3.1-.64 6.2-2.25 8.56-4.28 4.7-4.07 6.31-9.85 8.67-15.41.1-.22.21-.32.32-.43-.43-2.57-.11-5.24.21-7.81.1-.54.1-.96.22-1.5-1.82 0-3.75.1-6 .43-13.7 2.35-18.62 15.84-17.98 29.96 2.04-.64 3.96-.53 6-.96z"/><path id="s1haI" d="M258.45 311.63c-3.1-5.35-20.22-21.5-9.52-38.1 7.38-11.55 16.48-.63 16.48-.63s6.53 12.2 0 13.27c-6.53 1.07-4.71 5.45-6.1 10.48-1.5 4.93-.86 14.98-.86 14.98z"/><path id="s1haJ" d="M299.97 307.03c1.82-5.88 14.98-25.36.96-39.27-9.74-9.63-16.16 3-16.16 3s-3.74 13.37 2.9 12.95c6.63-.33 5.77 4.28 8.23 8.88 2.46 4.39 4.07 14.44 4.07 14.44z"/><path id="s1haK" d="M256.95 303.93c-1.71-6.1-9.1-10.7-11.23-4.07-2.15 6.64 3.74 13.49 7.7 14.24 4.07.75 5.67-3.32 5.67-3.32z"/><path id="s1haL" d="M299.01 299.22c.32-6.31 6.53-12.41 10.17-6.42 3.53 6-.65 13.91-4.4 15.63-3.74 1.6-5.77-2.36-5.77-2.36z"/><path id="s1haM" d="M294.2 263.16c-.33-.64-.65-1.39-1.19-2.35a27.2 27.2 0 0 0-4.28-5.67c-2.78-2.79-6.42-5.03-10.91-4.93-1.5 0-3.1.32-4.71.97-1.71.64-3.42 1.5-5.24 2.89a60.1 60.1 0 0 0-4.71 3.63c-.75.54-1.4 1.18-2.14 1.72-1.4 1.07-2.68 2.14-3.86 3.1-3.63 2.89-6.52 5.03-9.41 5.78-.97.21-1.93.43-2.9.32-1.49-.1-2.99-.54-4.6-1.5-.2-.1-.42-.21-.63-.1-.22 0-.43.1-.54.2.21.86.43 1.72.86 2.47 3.85 9.63 11.87 4.7 18.83 2.89 9.31-2.57 15.2 2.78 20.12 9.52.1 0 .32.11.43.11.21 0 .32.1.53.1.32 0 .64.11.96.11h.43c.54 0 1.07 0 1.6-.1.22 0 .33-.11.54-.11.43-.1.75-.1 1.18-.21.21 0 .43-.11.64-.22.43-.1.75-.21 1.07-.43l.64-.32c.43-.21.75-.43 1.07-.64.22-.1.33-.21.54-.32.53-.32.96-.75 1.39-1.18l1.28-1.6a26.7 26.7 0 0 0 2.25-3.75c.32-.64.64-1.39.86-2.03.53-1.4.85-2.78.85-4.28-.21-1.4-.42-2.78-.96-4.07z"/><path id="s1haN" d="M258.87 272.15c-6.95 1.93-15.4 7.06-19.26-2.57a34.3 34.3 0 0 1-.85-2.46c-.32.21-.65.64-.54 1.18 2.89 13.16 13.6 25.25 24.72 22.04 11.88-3.32 12.3-3.53 14.34-8.99.21.22.64.43 1.18.64-4.82-6.74-10.28-12.3-19.59-9.84z"/><path id="s1haO" d="M243.04 282.96c-.32-.75-1.5-.86-1.82-.1-4.07 7.37 3.21 16.04 10.27 14.22 7.7-1.92 11.56-7.17 17.98-8.56-5.56-7.8-10.27-5.03-16.05-2.78-5.24 2.03-8.13 2.57-10.38-2.78z"/><path id="s1haP" d="M265.83 274.3c-.21 0-.42-.12-.64-.33-4.39-5.46-9.74-3.53-14.12-1.82-2.14.86-3.96 1.5-5.25.96-.43-.21-.64-.64-.43-1.07.22-.42.65-.64 1.07-.42.75.32 2.36-.33 4.07-.97 4.28-1.6 10.8-4.06 15.95 2.36.32.32.2.85-.11 1.17-.22 0-.32.11-.54.11z"/><path id="s1haQ" d="M277.07 284.89c-6.96 6.31-23.54 6-25.04-9.2-.11-.86.96-1.29 1.5-.54 3.53 5.03 9.1 2.46 14.44-2.14 6.1-5.35 16.05 2.57 9.1 11.88z"/><path id="s1haR" d="M372.2 391.58c3.1-.86 28.8 9.84 18.09 15.84-10.8 5.99-16.7 0-16.7 0s-2.99-6.53-2.99-6.75c0-.21.43-5.88.64-6.95.22-1.07.97-2.14.97-2.14z"/><path id="s1haS" d="M383.76 408.7c2.68-3.53 5.89-4.39 10.27-3.1 6 1.7 13.92.75 17.66-3.1 3.64-3.86 12.41-18.1 6.85-19.05-5.56-.97-6.64 5.99-10.06 6.42-3.42.42-8.35 1.92-12.52-1.72-4.17-3.63-7.17-6.52-12.1-5.24-4.91 1.28-6.63 2.68-7.05 6.96-.43 4.28-2.04 5.99-3.54 8.98-1.5 3 4.28 12.63 7.07 12.1 2.67-.54 3.42-2.25 3.42-2.25z"/><path id="s1haT" d="M380.33 401.52c-2.56-.1-4.7.43-6.2 2.57 0 .1-.11.1-.11.22 1.6 3.42 4.5 6.95 6.2 6.63 2.79-.54 3.54-2.25 3.54-2.25 2.03-2.67 4.39-3.85 7.27-3.64-3.53-1.5-6.74-3.42-10.7-3.53z"/><path id="s1haU" d="M408.37 389.87c-3.42.42-8.34 1.92-12.52-1.72-.32-.32-.64-.53-.96-.85-2.46-.1-4.81-.1-7.28.21-2.03.22-3.74.97-5.56 1.6a24.35 24.35 0 0 0 3.64 5.9c2.78 2.88 6 3.95 9.42 4.8 1.7.22 3.42.44 5.13.86.22 0 .43.11.64.22.97 0 1.93-.1 2.9-.22.53-.1 1.06-.2 1.6-.42 4.6-4.71 10.6-9.63 10.8-16.59-3.74.96-5.02 5.78-7.8 6.2z"/><path id="s1haV" d="M384.72 394.04c9.1 1.07 11.77-6.74 14.02-7.92 2.25-1.17 9.2-1.82 8.24-4.6-.43-1.28-6.64-2.67-11.13-2.35-4.5.32-14.55 3.31-17.23 5.99 2.46 4.5 4.17 8.56 4.17 8.56z"/><path id="s1haW" d="M384.83 408.17c-3.53 2.24-7.39-.97-10.7-4.82-3.43-4.07 1.07-14.23-3.43-10.92-2.78 10.28-5.24 13.17-14.44 17.34-9.2 4.07-14.77 9.74-13.6 16.8 1.18 7.06.86 18.84 13.06 18.62 12.2-.21 21.83-8.77 22.9-18.4.86-8.03 6.53-15.1 9.53-17.77a8.95 8.95 0 0 1-3.32-.85z"/><path id="s1haX" d="M384.83 408.16c-1.7 1.07-3.53.86-5.24 0-2.68 4.39-4.6 9.1-6.96 14.02-2.03 4.28-4.28 9.63-8.77 11.88-5.35 2.78-13.48 1.39-20.44-1.6.96 6.2 4.28 15.62 11.88 14.33 12.63-2.14 22.15-10.49 23.22-20.12.86-8.02 6.53-15.09 9.52-17.76a7.04 7.04 0 0 1-3.2-.75z"/><path id="s1haY" d="M367.82 410.62c2.35 5.57 8.99 5.89 14.55 5.67 2.68-4.6 6.1-7.8 7.28-8.45 2.03-.96-.1-1.93-4.28 0-2.25 1.07-6.85-.21-9.95-4.6-4.71-6.64 0-14.23-4.5-10.92-1.17 4.5-2.35 7.6-4.06 9.96-.32 3-.11 5.88.96 8.34z"/><path id="s1haZ" d="M342.67 427.2c-.43 0-.75-.31-.85-.74-.97-9.95 7.49-14.23 14.98-18.09a49.17 49.17 0 0 0 6.31-3.53.83.83 0 0 1 1.07.22c.21.32.1.85-.21 1.07a61.66 61.66 0 0 1-6.53 3.63c-7.38 3.75-14.98 7.7-14.13 16.48.22.54-.1.97-.64.97.1 0 .1 0 0 0z"/><path id="s1haaa" d="M403.67 401.42a.82.82 0 0 1-.54-.21.84.84 0 0 1 0-1.18c1.6-1.71 3.21-5.78 3.1-8.02 0-.43.33-.86.75-.86.54 0 .86.32.86.75.1 2.67-1.6 7.17-3.53 9.2-.22.22-.43.32-.64.32z"/><path id="s1haab" d="M385.58 395.75c-.43 0-.75-.32-.86-.75 0-.43.32-.85.75-.85 6.53-.11 8.99-4.6 8.99-4.71.21-.43.75-.54 1.07-.32.43.21.53.75.32 1.07.1.21-2.78 5.35-10.27 5.56.1 0 0 0 0 0z"/><path id="s1haac" d="M320.73 385.26h-.22c-.43-.1-.64-.53-.53-.96.32-1.07 2.89-10.27 6.63-12.1.43-.2.86 0 1.07.33.22.43 0 .85-.32 1.07-2.57 1.28-5.03 8.45-5.78 11.02-.21.43-.53.64-.85.64z"/><path id="s1haad" d="M339.67 260.6c0-.65-.42-1.18-1.07-1.4l-.64-.21c-.75-.21-1.71 0-2.25.64-3.96 3.75-7.92 7.5-11.87 11.35-.43.42.1 1.07.64.74 4.7-2.78 9.3-5.67 14.02-8.45a2.53 2.53 0 0 0 1.17-2.03v-.64z"/><path id="s1haae" d="M345.88 282.1c-6 .32-11.88.43-17.87.96-.43 0-.54.65-.1.75 5.77.97 11.55 1.72 17.44 2.47 3.1.42 3.42-4.29.53-4.18z"/><path id="s1haaf" d="M341.28 302.97c-4.7-1.92-9.2-4.6-13.8-6.74-.54-.21-.86.43-.43.75 4.06 3 8.56 5.78 12.52 9 2.25 1.7 4.39-1.94 1.71-3z"/><path id="s1haag" d="M269.04 306.63c-.1-.88.4-1.66 1.1-1.73.72-.07 1.36.58 1.45 1.46.1.88-.4 1.66-1.1 1.73-.72.07-1.36-.58-1.45-1.46z"/><path id="s1haah" d="M287.35 305.13c-.1-.88.4-1.66 1.1-1.73.71-.07 1.36.58 1.45 1.46.1.88-.4 1.66-1.1 1.73-.71.07-1.36-.58-1.45-1.46z"/><path id="s1haai" d="M280.18 316.13c-.86 0-1.82-.32-2.36-.96a3.09 3.09 0 0 1-.53-3.64c.21-.43.53-.75.85-1.07l.43-.43c.22-.32.32-.64.22-.85-.22-.43-.11-.86.32-1.07.42-.22.85-.11 1.07.32.53.96.21 1.92-.32 2.67-.22.22-.33.43-.54.65-.21.2-.43.53-.64.74-.32.54-.22 1.29.21 1.72.22.21.75.42 1.18.42.32 0 .64-.1.75-.2a.84.84 0 0 1 1.18 0c.32.31.32.85 0 1.17-.43.21-1.07.53-1.82.53z"/><path id="s1haaj" d="M278.14 324.16c-.32 0-.75-.22-.75-.64-.1-.43.21-.86.64-.97 3.32-.75 5.25-.1 5.35-.1.43.1.65.64.54 1.07-.1.42-.64.64-1.07.53 0 0-1.6-.53-4.5.1h-.21z"/><path id="s1haak" d="M292.7 298.8c-.32 0-.54-.11-.75-.43-.97-1.6-2.04-2.57-3.32-2.78-1.18-.22-2.57.2-3.96 1.28-.32.32-.86.21-1.18-.1-.32-.33-.21-.86.11-1.18 1.82-1.4 3.64-1.93 5.24-1.61 1.72.32 3.21 1.6 4.4 3.64.2.43.1.85-.33 1.07.1.1 0 .1-.21.1z"/><path id="s1haal" d="M263.16 299.65c-.1 0-.22 0-.32-.1-.43-.22-.54-.64-.43-1.07.96-2.04 2.25-3.21 3.96-3.75 3.1-.85 6.31 1.29 6.42 1.4.32.2.43.74.21 1.06a.83.83 0 0 1-1.07.22s-2.67-1.82-5.13-1.18c-1.29.32-2.25 1.28-3 2.89-.1.32-.32.53-.64.53z"/><path id="s1haam" d="M267.65 286.38c-.43 0-.96 0-1.39-.1-4.81-.43-9.1-3-11.45-6.96-.21-.43-.1-.85.22-1.07.42-.21.85-.1 1.07.22a13.96 13.96 0 0 0 10.27 6.2c4.06.32 7.92-1.18 10.7-4.17a.97.97 0 0 1 1.18-.1c.32.31.32.85.1 1.17a14.13 14.13 0 0 1-10.7 4.81z"/><path id="s1haan" d="M250.21 294.2c-.85 0-1.7-.1-2.46-.43-2.14-.75-3.74-2.35-5.03-5.14-.21-.42 0-.85.43-1.07.43-.21.86 0 1.07.43 1.07 2.36 2.36 3.75 4.07 4.28 2.57.86 6.31-.21 12.1-3.31.42-.22.85-.11 1.06.32.21.42.1.85-.32 1.07-4.7 2.67-8.13 3.85-10.92 3.85z"/><path id="s1haao" d="M286.91 281.89c-.1 0-.32 0-.43-.1-.42-.22-.53-.76-.32-1.08 3.86-6.74 1.82-9.95-2.57-12.84-.42-.21-.42-.75-.2-1.07.2-.43.74-.53 1.06-.21 6 3.85 6.85 8.34 3.1 14.98 0 .1-.32.32-.64.32z"/><path id="s1haap" d="M293.34 276.1c-.11 0-.22 0-.33-.1-.42-.21-.53-.64-.42-1.07.96-2.14 1.5-5.67.42-8.67a7 7 0 0 0-3.85-3.96c-.43-.21-.64-.64-.43-1.07.22-.43.65-.64 1.07-.43a8.86 8.86 0 0 1 4.71 4.93 13.4 13.4 0 0 1-.43 9.84.8.8 0 0 1-.74.54z"/><path id="s1haaq" d="M301.26 305.43a.73.73 0 0 1-.75-.75c-.54-3.64 2.78-7.49 6.2-8.77.43-.11.86.1 1.07.53.11.43-.1.86-.53 1.07-2.78.97-5.57 4.18-5.14 6.96.1.43-.21.85-.64.85-.1.11-.1.11-.21.11z"/><path id="s1haar" d="M256.1 309.4a.8.8 0 0 1-.75-.54c-.54-1.82-3.75-6.2-6.31-6.2a.84.84 0 0 1-.86-.86c0-.43.32-.75.86-.86 3.85 0 7.38 5.56 7.91 7.28.11.42-.1.85-.53.96-.21.21-.21.21-.32.21z"/><path id="s1haas" d="M255.35 308.22c-.1 0-.32 0-.43-.11-.43-.32-2.03-1.07-3-.64-.42.21-.85 0-1.07-.43-.21-.43 0-.86.43-1.07 1.82-.75 4.18.64 4.39.86.43.21.53.74.21 1.07 0 .1-.21.32-.53.32z"/><path id="s1haat" d="M301.15 304.25c-.33 0-.54-.21-.75-.43-.22-.43 0-.85.32-1.07.1-.1 3.1-1.6 5.13-1.71.43 0 .86.32.86.75s-.32.86-.75.86c-1.39.1-3.74 1.07-4.5 1.5 0 0-.2.1-.31.1z"/><path id="s1haau" d="M336.79 416.83a.82.82 0 0 1-.54-.21.84.84 0 0 1 0-1.18c9.95-10.8 18.73-5.78 18.83-5.67.43.22.54.75.33 1.07-.22.43-.75.54-1.07.32-.33-.21-7.82-4.39-16.8 5.35-.22.22-.54.32-.75.32z"/><path id="s1haav" d="M346.63 410.2c-.11 0-.22 0-.32-.1 0 0-3-1.3-9-1.08-.42 0-.74-.32-.85-.75 0-.42.32-.85.75-.85 6.31-.32 9.52 1.07 9.74 1.18.43.2.53.64.43 1.07a.8.8 0 0 1-.75.53z"/><path id="s1haaw" d="M227.1 467.77a.84.84 0 0 1-.86-.86c0-.43.32-.86.86-.86 6.63 0 12.3-10.8 12.4-10.91.22-.43.65-.54 1.08-.32.43.21.53.64.32 1.07-.21.64-6.1 11.88-13.8 11.88z"/><path id="s1haax" d="M336.79 459.74c-3.53 0-12.63-8.56-14.45-10.27a.84.84 0 0 1 0-1.18.84.84 0 0 1 1.18 0c3.96 3.85 11.23 9.95 13.37 9.74.43.1.86.32.86.75-.1.64-.43.96-.96.96z"/><path id="s1haay" d="M247.75 522.56c-.1 0-.21 0-.32-.1-.43-.22-.54-.65-.32-1.08 7.49-14.23 25.36-128.52 25.9-165.11 0-.43.42-.86.85-.75.43 0 .75.42.75.85-.54 36.81-18.62 151.53-26.11 165.87-.22.21-.54.32-.75.32z"/><path id="s1haaz" d="M313.66 522.56a.92.92 0 0 1-.85-.86c.32-8.45-12.1-134.3-20.76-160.3-.11-.43.1-.86.53-1.07.43-.11.86.1 1.07.53 8.67 26.11 21.2 152.39 20.87 160.84-.1.54-.43.86-.86.86z"/><path id="s1haaA" d="M240.26 747.17c-.1 0-.32 0-.43-.1-.1 0-9.42-5.25-16.9-3.64-.43.1-.86-.22-.97-.64-.1-.43.21-.86.64-.97 8.14-1.7 17.66 3.53 18.09 3.75.43.21.53.75.32 1.07-.22.32-.54.53-.75.53z"/><path id="s1haaB" d="M242.4 743.11c-.1 0-.21 0-.32-.1-.1 0-10.27-5.36-16.05-3.65-.43.11-.86-.1-.96-.53-.11-.43.1-.86.53-.96 6.42-1.82 16.8 3.53 17.23 3.74.43.22.54.64.32 1.07-.21.22-.43.43-.75.43z"/><path id="s1haaC" d="M240.8 736.37h-.22c-.1 0-7.81-2.57-11.66-1.18-.43.11-.86-.1-1.07-.53-.11-.43.1-.86.53-1.07 4.39-1.5 12.3 1.07 12.63 1.18.43.1.64.64.53 1.07a.8.8 0 0 1-.74.53z"/><path id="s1haaD" d="M328.33 543.75h-.22c-6.95-1.6-10.49-12.3-10.6-12.84-.1-.43.11-.86.54-1.07.43-.11.86.1 1.07.53 0 .1 3.43 10.28 9.42 11.77.43.11.75.54.64.97-.1.42-.43.64-.85.64z"/><path id="s1haaE" d="M231.6 543.75a.8.8 0 0 1-.76-.54c-.21-.42 0-.85.43-1.07 6.1-2.56 8.78-11.66 8.78-11.77.1-.43.53-.64.96-.53.43.1.64.53.54.96-.11.43-2.9 9.95-9.74 12.84 0 .1-.11.1-.22.1z"/><path id="s1haaF" d="M278.67 543.74c-.32 0-.75-.21-.75-.64-.75-3.64 0-12.2 0-12.52 0-.43.43-.75.86-.75s.75.43.75.86c0 .1-.75 8.56 0 11.98.1.43-.22.86-.64.96-.11.11-.22.11-.22.11z"/><path id="s1haaG" d="M285.3 543.74a.84.84 0 0 1-.85-.86v-12.94c0-.43.32-.86.86-.86.42 0 .85.32.85.86v12.94c-.1.54-.43.86-.85.86z"/><path id="s1haaH" d="M248.7 717.1c-3.95 0-11.65-.1-14.33-.1.21.54.32 1.07.32 1.6 2.78 0 9.2.11 13.16.11h.86c.43 0 .86-.32.86-.85-.11-.43-.43-.75-.86-.75z"/><path id="s1haaI" d="M322.02 724.38c-2.57-.32-8.88.54-12.63 1.07.1.54.1 1.07.21 1.6 3.75-.53 9.96-1.28 12.31-1.06.43 0 .86-.22.86-.75 0-.43-.22-.86-.75-.86z"/><path id="s1haaJ" d="M266.37 263.38c-.32 0-.53-.11-.64-.43-.21-.43-.1-.86.22-1.07 5.99-3.75 12.62-1.18 12.84-1.07.42.21.64.64.42 1.07-.2.43-.64.64-1.07.43-.1 0-6.1-2.36-11.45.96 0 0-.21.1-.32.1z"/><path id="s1haaK" d="M270.32 257.17c-.32 0-.53-.11-.64-.43-.21-.43-.1-.86.22-1.07 5.99-3.75 12.62-1.18 12.84-1.07.42.21.64.64.42 1.07-.2.43-.64.64-1.07.43-.1 0-6.1-2.36-11.45.96 0 .1-.21.1-.32.1z"/><path id="s1haaL" d="M320.09 380.02a.92.92 0 0 1-.86-.86c0-.32.21-7.81 5.89-13.27a.84.84 0 0 1 1.17 0c.32.32.32.86 0 1.18-5.13 4.92-5.45 11.98-5.45 12.09 0 .54-.33.86-.75.86z"/><path id="s1haaM" d="M228.8 340.64c-4.7-2.78-7.16-.21-7.16 2.46.1 2.68-7.5 7.28-11.88 12.2-4.39 4.92 1.4 9.74-5.24 19.48-6.64 9.74-7.81 26.75-14.34 42.27-4.07 9.63-11.35 29.75 1.07 33.92 22.15 7.38 32.85-34.14 36.6-42.06 3.31-6.84 3.85-12.3 6.63-15.62 5.03-6.31 7.6-14.23 6.53-22.26-1.6-11.66-4.82-26.1-12.2-30.39z"/><path id="s1haaN" d="M157 407.3c-.64-5.88 17.34-19.36 22.05-13.26 4.71 6.1-.32 11.66-.32 11.66l-8.13 4.28s-6.64 1.93-7.07 1.5c-.42-.53-6.52-4.17-6.52-4.17z"/><path id="s1haaO" d="M175.3 404.2c-6.95 6.31-8.02 5.14-12.3 2.78-4.39-2.35-12.84 1.82-17.77-2.03-4.92-3.75-18.5-22.47-11.45-26.54 7.07-4.17 7.5 8.88 14.56 9.53 7.06.64 13.8-6 20.44-3.86 6.63 2.04 7.8 7.5 7.7 12.95-.1 5.35-1.18 7.17-1.18 7.17z"/><path id="s1haaP" d="M168.45 405.16c-1.81.86-3.63 1.5-5.56 1.82 4.28 2.36 5.46 3.54 12.3-2.78 0 0 .86-1.5 1.18-5.67-1.17 3.1-4.7 5.14-7.92 6.63z"/><path id="s1haaQ" d="M150.48 400.88c1.17-.21 2.24-.43 2.78-.53 4.07-1.18 8.45-2.36 11.45-5.67a15.24 15.24 0 0 0 3.53-6.1c.43-1.5.32-3 .32-4.6-6.63-1.93-13.27 4.49-20.33 3.85-4.92-.43-6.64-6.96-9.63-9.42-.32.32-.64.54-.96.96-2.25 2.68-1.61 6.1-.11 9 2.67 5.13 7.17 8.66 11.23 12.51h1.72z"/><path id="s1haaR" d="M160.97 394.04c-1.82-.43-4.28-3.75-4.5-6.96-3.64-2.89-5.56-7.38-4.38-9.84 1.6-3.43 3.63.1 5.45 1.92 1.82 1.82 7.7 2.04 11.45 3.43 3.86 1.39 7.92 8.35 6.74 11.13-.53 1.17-3.1-1.6-5.88-.43-2.46.96-8.88.75-8.88.75z"/><path id="s1haaS" d="M158.6 406.45c3.1 4.7 11.03 6.2 14.13 1.5 3.1-4.6 8.67-8.88 6.2-14.02 4.07 2.03 5.57 12.3 10.07 15.52 4.5 3.31 11.55 4.38 14.44 8.77 2.9 4.28 6 32.64-3.42 33.17-9.42.54-16.27 1.29-24.19-8.77-7.91-10.17-2.88-19.8-8.02-24.72-5.14-4.92-14.66-11.56-9.2-11.45z"/><path id="s1haaT" d="M206.12 439.84l-2.56.32c-4.82.64-10.7 2.14-15.41.21-8.56-3.63-11.88-16.58-14.34-25.79a17.85 17.85 0 0 1-3.43-4.49c-3.74 1.82-9.2.21-11.66-3.64-5.57-.1 4.07 6.53 9.1 11.45 5.13 4.92.1 14.55 8.02 24.72 7.92 10.17 14.77 9.31 24.19 8.78 3.85-.11 5.67-5.35 6.1-11.56z"/><path id="s1haaU" d="M206.01 444.66h-.1c-.43-.11-.75-.54-.65-.97.97-5.77 2.9-24.82-9.95-29.64-.43-.1-.64-.64-.43-1.07.11-.43.65-.64 1.07-.43 14.02 5.35 11.99 25.47 11.03 31.47-.22.32-.54.64-.97.64z"/><path id="s1haaV" d="M176.37 415c6.42-3.42 7.06-10.16 5.35-16.58-.21-.86-.53-1.71-.85-2.46a5.34 5.34 0 0 0-2.04-1.82c2.46 5.14-4.6 10.7-7.92 12.95-3.42 2.25-9.3 4.28-12.4-.54-4.93-.1 2.02 5.03 7.16 9.74 3.53.75 6.96.75 10.7-1.28z"/><path id="s1haaW" d="M150.48 401.74c-.22 0-.43-.1-.64-.32-5.67-6.64-3.96-12.52-3.86-12.74.11-.43.54-.64.97-.53.43.1.64.53.53.96-.1.21-1.5 5.24 3.53 11.24.33.32.22.85-.1 1.17 0 .11-.22.22-.43.22z"/><path id="s1haaX" d="M162.04 395c-4.82 0-6.75-5.45-6.96-8.34 0-.43.32-.86.75-.86s.86.32.86.75c0 .1.74 6.95 5.35 6.95h.1c.43 0 .75.33.86.75 0 .43-.32.86-.75.86-.1-.1-.1-.1-.21-.1z"/><path id="s1haaY" d="M209.34 417.8c-.22 0-.43-.11-.65-.33-1.92-2.35-7.7-2.57-9.73-2.46-.54.1-.86-.32-.86-.75s.32-.85.75-.85c.32 0 8.24-.43 11.13 3.1.32.32.21.86-.1 1.18-.22.1-.33.1-.54.1z"/><path id="s1haaZ" d="M211.8 428.4c-.44 0-.76-.33-.76-.65-1.07-5.89-8.34-10.06-9.63-10.49-.43-.21-.64-.64-.43-1.07.22-.43.65-.64 1.07-.43 1.5.65 9.42 5.03 10.7 11.78.11.42-.2.85-.64.96-.21-.1-.32-.1-.32-.1z"/><path id="s1haba" d="M234.27 358.5a.8.8 0 0 1-.75-.53c-3.96-10.27-11.35-13.7-11.45-13.7-.43-.2-.54-.64-.43-1.06.21-.43.64-.54 1.07-.43.32.1 8.02 3.74 12.3 14.55.22.43 0 .86-.42 1.07-.11.1-.22.1-.32.1z"/><path id="s1habb" d="M224.53 375.31c-.1 0-.21 0-.43-.1-6.31-3.32-14.76-3.11-14.76-3.11-.43 0-.75-.32-.86-.75 0-.43.32-.86.75-.86.32 0 6.63-.21 12.52 1.93-4.28-4.92-8.88-7.6-9.74-7.17 0 0-.1.32.22 1.07.1.43-.11.86-.54 1.07-.43.1-.86-.1-1.07-.53-.64-1.93 0-2.68.54-3 2.56-1.4 9.52 4.39 13.8 10.17.21.32.21.74 0 .96 0 .21-.21.32-.43.32z"/><path id="s1habc" d="M229.13 764.94c-7.17 0-14.13-2.35-16.8-4.7a.97.97 0 0 1-.11-1.19.97.97 0 0 1 1.18-.1c4.28 3.74 20.97 7.38 29 0 4.5-2.9 15.73-5.03 16.26-5.14.43-.1.86.21.97.64.1.43-.22.86-.65.97-.1 0-11.45 2.14-15.51 4.81-3.75 3.43-9.1 4.71-14.34 4.71z"/><path id="s1habd" d="M333.36 768.05c-5.46 0-10.49-1.4-13.6-4.29-6.2-5.77-16.04-6.1-16.15-6.1-.43 0-.75-.42-.75-.85s.43-.75.86-.75c.42 0 10.59.32 17.22 6.53 4.93 4.6 17.13 5.78 27.3.1.42-.2.85-.1 1.06.33.22.42.11.85-.32 1.07a33.53 33.53 0 0 1-15.62 3.96z"/></defs><g><g transform="translate(-131 -250)"><g><use fill="#cfd9e0" xlink:href="#s1haa"/></g><g><g><g><g><use fill="#ffb229" xlink:href="#s1hab"/></g></g></g><g><g><g><use fill="#ffb229" xlink:href="#s1hac"/></g></g></g><g><g><g><use fill="#fca120" xlink:href="#s1had"/></g></g></g><g><g><g><use fill="#fca120" xlink:href="#s1hae"/></g></g></g><g><g><g><use fill="#eb7d16" xlink:href="#s1haf"/></g></g></g><g><g><g><use fill="#eb7d16" xlink:href="#s1hag"/></g></g></g><g><g><g><use fill="#eb7d16" xlink:href="#s1hah"/></g></g></g><g><g><g><use fill="#eb7d16" xlink:href="#s1hai"/></g></g></g><g><g><g><g><use fill="#eb7d16" xlink:href="#s1haj"/></g></g></g></g><g><g><g><use fill="#ffeeb6" xlink:href="#s1hak"/></g></g></g><g><g><g><use fill="#ffeeb6" xlink:href="#s1hal"/></g></g></g><g><g><g><use fill="#1273eb" xlink:href="#s1ham"/></g></g></g><g><g><g><use fill="#0161cd" xlink:href="#s1han"/></g></g></g><g><g><g><use fill="#0161cd" xlink:href="#s1hao"/></g></g></g><g><g><g><use fill="#0161cd" xlink:href="#s1hap"/></g></g></g><g><g><g><use fill="#0161cd" xlink:href="#s1haq"/></g></g></g><g><g><g><use fill="#92cdfa" xlink:href="#s1har"/></g></g></g><g><g><g><use fill="#5eb2fc" xlink:href="#s1has"/></g></g></g><g><g><g><use fill="#ffeeb6" xlink:href="#s1hat"/></g></g></g><g><g><g><use fill="#fcdb7e" xlink:href="#s1hau"/></g></g></g><g><g><g><use fill="#fcdb7e" xlink:href="#s1hav"/></g></g></g><g><g><g><use fill="#ffb229" xlink:href="#s1haw"/></g></g></g><g><g><g><use fill="#fca120" xlink:href="#s1hax"/></g></g></g><g><g><g><use fill="#ffb229" xlink:href="#s1hay"/></g></g></g><g><g><g><use fill="#194c80" xlink:href="#s1haz"/></g></g></g><g><g><g><use fill="#194c80" xlink:href="#s1haA"/></g></g></g><g><g><g><use fill="#143b63" xlink:href="#s1haB"/></g></g></g><g><g><g><use fill="#194c80" xlink:href="#s1haC"/></g></g></g><g><g><g><use fill="#194c80" xlink:href="#s1haD"/></g></g></g><g><g><g><use fill="#143b63" xlink:href="#s1haE"/></g></g></g><g><g><g><use fill="#fca120" xlink:href="#s1haF"/></g></g></g><g><g><g><use fill="#92cdfa" xlink:href="#s1haG"/></g></g></g><g><g><g><use fill="#5eb2fc" xlink:href="#s1haH"/></g></g></g><g><g><g><use fill="#fcdb7e" xlink:href="#s1haI"/></g></g></g><g><g><g><use fill="#fcdb7e" xlink:href="#s1haJ"/></g></g></g><g><g><g><use fill="#92cdfa" xlink:href="#s1haK"/></g></g></g><g><g><g><use fill="#92cdfa" xlink:href="#s1haL"/></g></g></g><g><g><g><g><use fill="#ffeeb6" xlink:href="#s1haM"/></g></g></g><g><g><g><use fill="#fcdb7e" xlink:href="#s1haN"/></g></g></g></g><g><g><g><use fill="#ffeeb6" xlink:href="#s1haO"/></g></g></g><g><g><g><use fill="#fcdb7e" xlink:href="#s1haP"/></g></g></g><g><g><g><use fill="#ffeeb6" xlink:href="#s1haQ"/></g></g></g><g><g><g><g><use fill="#164372" xlink:href="#s1haR"/></g></g></g><g><g><g><use fill="#92cdfa" xlink:href="#s1haS"/></g></g></g><g><g><g><use fill="#5eb2fc" xlink:href="#s1haT"/></g></g></g><g><g><g><use fill="#5eb2fc" xlink:href="#s1haU"/></g></g></g><g><g><g><use fill="#92cdfa" xlink:href="#s1haV"/></g></g></g><g><g><g><use fill="#ffb229" xlink:href="#s1haW"/></g></g></g><g><g><g><use fill="#f69110" xlink:href="#s1haX"/></g></g></g><g><g><g><use fill="#194c80" xlink:href="#s1haY"/></g></g></g><g><g><g><use fill="#eb7d16" xlink:href="#s1haZ"/></g></g></g><g><g><g><use fill="#2c8cf4" xlink:href="#s1haaa"/></g></g></g><g><g><g><use fill="#2c8cf4" xlink:href="#s1haab"/></g></g></g></g><g><g><g><use fill="#eb7d16" xlink:href="#s1haac"/></g></g></g><g><g><g><use fill="#c7ebff" xlink:href="#s1haad"/></g></g></g><g><g><g><use fill="#c7ebff" xlink:href="#s1haae"/></g></g></g><g><g><g><use fill="#c7ebff" xlink:href="#s1haaf"/></g></g></g><g><g><g><g><use fill="#04458f" xlink:href="#s1haag"/></g></g></g><g><g><g><use fill="#04458f" xlink:href="#s1haah"/></g></g></g></g><g><g><g><use fill="#2c8cf4" xlink:href="#s1haai"/></g></g></g><g><g><g><use fill="#0161cd" xlink:href="#s1haaj"/></g></g></g><g><g><g><use fill="#1273eb" xlink:href="#s1haak"/></g></g></g><g><g><g><use fill="#1273eb" xlink:href="#s1haal"/></g></g></g><g><g><g><use fill="#fcd250" xlink:href="#s1haam"/></g></g></g><g><g><g><use fill="#fcdb7e" xlink:href="#s1haan"/></g></g></g><g><g><g><use fill="#fcdb7e" xlink:href="#s1haao"/></g></g></g><g><g><g><use fill="#fcdb7e" xlink:href="#s1haap"/></g></g></g><g><g><g><use fill="#2c8cf4" xlink:href="#s1haaq"/></g></g></g><g><g><g><use fill="#2c8cf4" xlink:href="#s1haar"/></g></g></g><g><g><g><use fill="#2c8cf4" xlink:href="#s1haas"/></g></g></g><g><g><g><use fill="#2c8cf4" xlink:href="#s1haat"/></g></g></g><g><g><g><use fill="#eb7d16" xlink:href="#s1haau"/></g></g></g><g><g><g><use fill="#eb7d16" xlink:href="#s1haav"/></g></g></g><g><g><g><use fill="#eb7d16" xlink:href="#s1haaw"/></g></g></g><g><g><g><use fill="#eb7d16" xlink:href="#s1haax"/></g></g></g><g><g><g><use fill="#eb7d16" xlink:href="#s1haay"/></g></g></g><g><g><g><use fill="#eb7d16" xlink:href="#s1haaz"/></g></g></g><g><g><g><use fill="#eb7d16" xlink:href="#s1haaA"/></g></g></g><g><g><g><use fill="#eb7d16" xlink:href="#s1haaB"/></g></g></g><g><g><g><use fill="#eb7d16" xlink:href="#s1haaC"/></g></g></g><g><g><g><use fill="#0353a7" xlink:href="#s1haaD"/></g></g></g><g><g><g><use fill="#0353a7" xlink:href="#s1haaE"/></g></g></g><g><g><g><use fill="#0353a7" xlink:href="#s1haaF"/></g></g></g><g><g><g><use fill="#0353a7" xlink:href="#s1haaG"/></g></g></g><g><g><g><use fill="#0161cd" xlink:href="#s1haaH"/></g></g></g><g><g><g><use fill="#0161cd" xlink:href="#s1haaI"/></g></g></g><g><g><g><use fill="#f8fafb" xlink:href="#s1haaJ"/></g></g></g><g><g><g><use fill="#f8fafb" xlink:href="#s1haaK"/></g></g></g><g><g><g><use fill="#eb7d16" xlink:href="#s1haaL"/></g></g></g><g><g><g><use fill="#fca120" xlink:href="#s1haaM"/></g></g></g><g><g><g><g><use fill="#164372" xlink:href="#s1haaN"/></g></g></g><g><g><g><use fill="#92cdfa" xlink:href="#s1haaO"/></g></g></g><g><g><g><use fill="#5eb2fc" xlink:href="#s1haaP"/></g></g></g><g><g><g><use fill="#5eb2fc" xlink:href="#s1haaQ"/></g></g></g><g><g><g><use fill="#92cdfa" xlink:href="#s1haaR"/></g></g></g><g><g><g><use fill="#ffb229" xlink:href="#s1haaS"/></g></g></g><g><g><g><use fill="#f69110" xlink:href="#s1haaT"/></g></g></g><g><g><g><use fill="#eb7d16" xlink:href="#s1haaU"/></g></g></g><g><g><g><use fill="#194c80" xlink:href="#s1haaV"/></g></g></g><g><g><g><use fill="#2c8cf4" xlink:href="#s1haaW"/></g></g></g><g><g><g><use fill="#2c8cf4" xlink:href="#s1haaX"/></g></g></g></g><g><g><g><use fill="#eb7d16" xlink:href="#s1haaY"/></g></g></g><g><g><g><use fill="#eb7d16" xlink:href="#s1haaZ"/></g></g></g><g><g><g><use fill="#eb7d16" xlink:href="#s1haba"/></g></g></g><g><g><g><use fill="#eb7d16" xlink:href="#s1habb"/></g></g></g><g><g><g><use fill="#fcdb7e" xlink:href="#s1habc"/></g></g></g><g><g><g><use fill="#fcdb7e" xlink:href="#s1habd"/></g></g></g></g></g></g></svg>