<?xml version="1.0" encoding="UTF-8"?>
<svg xmlns="http://www.w3.org/2000/svg" width="78" height="76" viewBox="0 0 78 76" fill="none">
  <path d="M4.78359 1.74224C3.27539 2.04693 1.96523 3.02193 1.24922 4.40826L0.837891 5.16998V38.0762V70.9825L1.26445 71.8508C1.72148 72.7954 2.52891 73.6028 3.53437 74.136L4.18945 74.4864L38.7715 74.5321C77.3602 74.5626 74.0695 74.6692 75.5473 73.4961C76.0805 73.0696 76.4461 72.5973 76.8117 71.8661L77.3145 70.8301V38.0762V5.32232L76.9793 4.60631C76.2785 3.0981 74.9379 2.06216 73.2773 1.74224C72.3023 1.55943 5.72813 1.55943 4.78359 1.74224ZM73.7039 3.64654C74.4199 3.95123 74.9074 4.40826 75.273 5.12428C75.5473 5.65748 75.5625 6.08404 75.5625 11.2637V16.8243L39.0457 16.7938L2.51367 16.7481L2.46797 11.5227C2.45273 8.20161 2.49844 6.0688 2.58984 5.68794C2.80313 4.92622 3.56484 4.05787 4.3418 3.70747C4.9207 3.43326 6.39844 3.41802 39.0457 3.41802C69.4688 3.41802 73.2012 3.44849 73.7039 3.64654ZM75.532 44.6727L75.4863 70.8454L75.0598 71.5004C74.7551 71.9422 74.3895 72.2622 73.841 72.5211L73.0488 72.8868H39.1523C15.5543 72.8868 5.07305 72.8411 4.66172 72.7192C3.82383 72.4907 2.83359 71.4395 2.62031 70.5711C2.4832 70.0379 2.4375 63.2434 2.4375 44.1852V18.5001H39H75.5625L75.532 44.6727Z" fill="black" stroke="black" stroke-width="1.5"></path>
  <path d="M9.93283 6.51058C9.17111 6.75433 7.98283 7.89691 7.69338 8.67387C7.29728 9.69457 7.43439 11.1114 8.0133 12.0407C8.53127 12.8938 9.70431 13.686 10.6488 13.8383C12.8426 14.1887 14.9449 12.3758 14.9449 10.1059C14.9602 7.47035 12.477 5.68793 9.93283 6.51058ZM12.0047 8.2016C13.5129 8.99379 13.6805 10.959 12.2942 11.7969C10.4813 12.909 8.31799 10.7762 9.49103 9.03949C9.85666 8.47582 10.6793 7.98832 11.243 7.98832C11.441 7.98832 11.7762 8.07972 12.0047 8.2016Z" fill="black" stroke="black" stroke-width="1.5"></path>
  <path d="M20.7035 6.5259C18.0832 7.4552 17.3824 11.0505 19.4543 12.8786C20.2312 13.549 20.9625 13.8232 22.0136 13.8232C24.573 13.8384 26.3097 11.4466 25.5937 8.872C25.35 8.03411 24.2074 6.84583 23.3543 6.55637C22.5011 6.26692 21.45 6.25169 20.7035 6.5259ZM23.0953 8.36926C23.598 8.70442 24.0703 9.48137 24.0703 10.0146C24.0703 12.056 21.3129 12.8786 20.2617 11.1419C19.1496 9.32903 21.3129 7.19622 23.0953 8.36926Z" fill="black" stroke="black" stroke-width="1.5"></path>
  <path d="M31.1086 6.70867C27.559 8.47586 28.793 13.8079 32.7539 13.8231C34.7649 13.8384 36.3645 12.3454 36.532 10.304C36.7758 7.47039 33.6832 5.42899 31.1086 6.70867ZM33.4699 8.15594C34.4906 8.5368 35.0543 9.66414 34.7344 10.6391C34.3078 11.9188 32.7691 12.4977 31.6875 11.7665C31.0324 11.3247 30.7734 10.8372 30.7734 10.045C30.7734 9.26805 31.2 8.5825 31.8551 8.24735C32.4645 7.95789 32.8758 7.92742 33.4699 8.15594Z" fill="black" stroke="black" stroke-width="1.5"></path>
  <path d="M66.8332 7.04375C66.6504 7.2418 66.5742 7.60742 66.5742 8.2625V9.20703H65.6145C64.5328 9.20703 64.1367 9.46602 64.1367 10.1516C64.1367 10.7152 64.4109 10.8676 65.5078 10.9133L66.498 10.959L66.5438 11.9492C66.5895 13.0613 66.7418 13.3203 67.3359 13.3203C67.991 13.3203 68.25 12.8938 68.25 11.8273V10.8828H69.2098C70.2609 10.8828 70.6875 10.6238 70.6875 10.0145C70.6875 9.46602 70.2152 9.20703 69.1945 9.20703H68.25V8.23203C68.25 7.37891 68.2043 7.21133 67.9148 7.01328C67.473 6.69336 67.1379 6.70859 66.8332 7.04375Z" fill="black" stroke="black" stroke-width="1.5"></path>
  <path d="M40.9805 9.51172C40.6149 9.87734 40.5996 10.0906 40.9195 10.5477L41.1481 10.8828H50.3496C58.5 10.8828 59.5664 10.8523 59.7797 10.6391C60.0996 10.3191 60.0844 9.7707 59.7492 9.46602C59.4902 9.2375 58.6219 9.20703 50.3801 9.20703C41.4832 9.20703 41.2852 9.20703 40.9805 9.51172Z" fill="black" stroke="black" stroke-width="1.5"></path>
  <path d="M16.8127 26.2068C16.2265 26.4653 15.6923 26.9693 15.3406 27.6155C15.067 28.1195 15.054 28.2617 15.054 32.7851C15.054 37.3473 15.054 37.4507 15.3406 37.9806C15.6923 38.6268 16.461 39.273 17.0733 39.441C17.6725 39.609 26.1146 39.609 26.7139 39.441C27.3392 39.273 28.0948 38.6268 28.4335 37.9806C28.6811 37.5024 28.7332 37.1793 28.7723 35.4604L28.8244 33.496H37.6051H46.3859V35.37C46.3859 37.4636 46.4901 37.9031 47.2067 38.6527C47.9623 39.441 48.4313 39.5703 50.5939 39.5703H52.509V43.3829V47.1955H49.4474H46.3859V45.4766C46.3859 44.546 46.3338 43.5638 46.2556 43.3183C46.0863 42.7108 45.4349 41.9483 44.7835 41.5994C44.2493 41.315 44.1451 41.315 39.5463 41.315C34.9605 41.315 34.8432 41.315 34.3221 41.5994C33.7098 41.9225 33.1366 42.5428 32.876 43.1502C32.7588 43.4475 32.7067 44.1971 32.7067 45.6446V47.7124H27.1698C21.8024 47.7124 21.62 47.7254 21.3725 47.9709C21.138 48.2036 21.1119 48.3974 21.1119 50.2843V52.3393L19.1186 52.391C17.1514 52.4297 17.0993 52.4426 16.474 52.8174C16.0831 53.063 15.6923 53.4507 15.4448 53.8384L15.054 54.4717L15.0149 58.7496C14.9758 61.7092 15.0149 63.2472 15.1191 63.7254C15.3015 64.5267 15.9138 65.2763 16.7345 65.7157C17.2557 65.9871 17.3859 66 21.8936 66C26.4142 66 26.5315 66 27.0526 65.7157C27.8343 65.3021 28.4987 64.475 28.655 63.7124C28.8765 62.7173 28.8374 55.2601 28.6159 54.5234C28.3684 53.7092 27.9776 53.2052 27.261 52.7916C26.6748 52.4426 26.5575 52.4297 24.6685 52.391L22.6752 52.3393V50.7367V49.1341L27.6649 49.1599L32.6415 49.1987L32.7067 51.0727C32.7718 53.0889 32.876 53.412 33.5795 54.0582C34.4654 54.8853 34.4394 54.8853 39.2466 54.9241C42.0216 54.9499 43.8324 54.9111 44.1451 54.8336C44.8486 54.6397 45.4609 54.2003 45.9299 53.5541L46.3208 52.9855L46.3598 50.8918L46.412 48.7851L48.0535 48.7076C48.9654 48.6559 50.5939 48.6171 51.6752 48.6171C53.0171 48.6171 53.6815 48.5654 53.7857 48.462C53.903 48.3457 53.9421 47.1696 53.9421 43.9386V39.5703H55.8702C57.7201 39.5703 57.8374 39.5574 58.5148 39.2084C59.0359 38.9499 59.3095 38.7044 59.6092 38.2262L60 37.5929V32.7851V27.9774L59.6092 27.357C59.3226 26.8918 59.0229 26.6204 58.5148 26.3619L57.8243 26H53.2385C48.1968 26 48.0795 26.0258 47.2457 26.853C46.5162 27.5767 46.3859 28.0679 46.3859 30.1615V32.0743H37.6051H28.8244L28.7723 30.0969C28.7202 27.8998 28.5638 27.4087 27.73 26.7108C26.8963 26.0129 26.8311 26 21.8675 26C18.0504 26.0129 17.1905 26.0388 16.8127 26.2068ZM26.8572 27.9128L27.235 28.3263V32.6688C27.235 37.4895 27.2089 37.6187 26.3882 37.9677C25.7498 38.2262 18.0504 38.2391 17.412 37.9677C16.5391 37.6058 16.5522 37.6575 16.5522 32.811C16.5522 29.9677 16.6043 28.3522 16.6955 28.1842C16.7606 28.042 17.0212 27.8094 17.2426 27.6672C17.6335 27.4346 17.881 27.4216 22.0629 27.4475L26.4794 27.4863L26.8572 27.9128ZM57.8504 27.6155C58.6321 28.0162 58.6451 28.1454 58.606 32.9144L58.5669 37.2439L58.137 37.6575L57.7201 38.084L53.447 38.1228C49.5777 38.1486 49.1478 38.1357 48.7309 37.9289C47.8581 37.4895 47.819 37.2956 47.819 32.7464C47.819 28.2488 47.8581 28.0162 48.6397 27.6284C49.252 27.3312 57.2772 27.3183 57.8504 27.6155ZM44.2884 43.0081C44.9007 43.4346 44.9398 43.7706 44.9398 48.1002C44.9398 52.546 44.9007 52.8304 44.1842 53.1922C43.8585 53.3732 43.142 53.399 39.4421 53.399C35.3122 53.399 35.0647 53.3861 34.7651 53.1405C34.1528 52.6753 34.1267 52.4426 34.1658 47.8546L34.2049 43.5509L34.6348 43.1761L35.0517 42.8013H39.5202C43.4416 42.8013 44.0148 42.8271 44.2884 43.0081ZM26.2318 53.9289C26.5706 54.0194 26.8051 54.1874 26.9744 54.4717C27.222 54.8595 27.235 55.1438 27.235 59.2407V63.609L26.8572 64.0226L26.4794 64.4491H21.8936H17.3078L16.93 64.0226L16.5522 63.609V59.1632C16.5522 54.8724 16.5652 54.7173 16.8257 54.3813C16.969 54.2003 17.2817 53.9935 17.5032 53.9289C18.0894 53.7738 25.6195 53.7609 26.2318 53.9289Z" fill="#912CC6" stroke="#912CC6"></path>
</svg>
