<?xml version="1.0" encoding="UTF-8"?>
<svg xmlns="http://www.w3.org/2000/svg" width="72" height="94" viewBox="0 0 72 94" fill="none">
  <path d="M44.4453 0.275593C44.2801 0.477543 44.2617 0.973248 44.3351 2.05645C44.6656 6.04044 43.2703 10.6303 40.9754 13.0904C40.3695 13.7147 38.7539 15.0549 37.3769 16.0647C31.3734 20.4342 30.2902 21.2971 28.3625 23.2064C26.3062 25.2811 24.9476 27.0619 23.9012 29.1365C21.7164 33.4877 22.7078 38.5182 26.8754 44.1912C28.032 45.7518 33.0625 50.8006 33.7234 51.0393C34.3109 51.2596 34.7148 51.0025 34.7148 50.415C34.7148 50.1947 34.2558 48.983 33.6867 47.7346C31.5203 42.9611 29.9414 37.1779 29.9414 34.0385C29.9414 31.3397 30.8226 30.2381 37.3219 24.8221C42.9949 20.0854 45.4183 17.4783 46.8137 14.5959C48.6312 10.8506 48.5394 6.29747 46.5566 2.12989C45.6203 0.128716 44.9961 -0.403706 44.4453 0.275593Z" fill="#912CC6" stroke="white"></path>
  <path d="M50.9629 20.434C43.2336 23.8122 37.7442 27.8512 35.8899 31.5047C35.2657 32.7348 35.1739 33.1204 35.1004 34.3872C34.9903 37.1227 35.7247 40.0602 37.1016 42.3184C37.4688 42.9426 38.3684 44.2094 39.0844 45.1458C40.7368 47.2754 40.9204 47.8629 40.5164 49.7907C40.3696 50.5801 40.0207 51.7551 39.7637 52.4161C39.1579 53.9215 39.1946 54.4172 39.9657 54.4907C40.443 54.5458 40.7368 54.3254 42.0954 53.0586C45.5286 49.8458 47.0524 46.5961 46.4832 43.677C46.1161 41.8778 45.6387 40.7946 44.225 38.5364C43.509 37.3797 42.7563 36.0762 42.5543 35.6356C42.1321 34.6442 42.0954 33.2856 42.4993 32.1473C43.2153 30.1645 46.0793 27.1536 51.2934 22.8942C52.8723 21.5907 54.1758 20.4157 54.1758 20.2872C54.1758 19.975 53.6801 19.461 53.3864 19.461C53.2579 19.461 52.1747 19.9016 50.9629 20.434Z" fill="#912CC6" stroke="white"></path>
  <path d="M61.4278 49.6806C59.8489 50.0478 59.2247 50.2314 57.9762 50.7087C56.4708 51.2779 56.0485 51.7001 56.3606 52.306C56.5075 52.563 56.8379 52.6732 57.7008 52.765C59.7387 52.9853 60.8403 53.2607 62.2172 53.9033C64.2918 54.8947 65.1364 56.3634 64.659 58.181C64.1266 60.1822 60.7301 63.9091 56.893 66.6998C54.9653 68.0951 54.7083 68.4255 55.0754 69.013C55.2958 69.3619 55.8833 69.3251 57.554 68.8478C62.2356 67.5443 66.3114 65.3779 68.4778 63.0462C70.4973 60.8982 71.1766 58.6583 70.6075 56.0697C69.9649 53.1138 68.643 51.2044 66.5133 50.1947C65.6321 49.7724 65.1915 49.6806 63.6309 49.6439C62.6211 49.6072 61.6297 49.6255 61.4278 49.6806Z" fill="black" stroke="white"></path>
  <path d="M18.5587 51.0576C13.5833 51.5166 9.89304 52.7467 8.99344 54.2154C8.58953 54.9131 8.53445 56.1799 8.90164 56.8775C9.94812 58.8787 13.4915 60.2189 19.8438 60.99C22.3774 61.3021 33.852 61.3021 36.7345 60.99C42.995 60.3107 47.7684 59.0807 51.8809 57.0979C54.7634 55.7025 55.5528 54.9498 54.8184 54.3439C54.5063 54.0869 53.9923 54.1236 51.0548 54.6928C42.7196 56.2533 24.6356 56.6572 17.8794 55.4271C17.2368 55.317 16.7227 55.1334 16.7227 55.0416C16.7227 54.6744 21.0555 53.0221 23.1485 52.6182C24.911 52.251 25.3516 51.9205 24.9845 51.2045C24.8009 50.8924 24.5805 50.8557 22.4509 50.874C21.1657 50.8924 19.4216 50.9658 18.5587 51.0576Z" fill="black" stroke="white"></path>
  <path d="M19.2012 62.1282C16.2454 63.0829 15.0704 64.1661 15.254 65.8185C15.4008 67.2872 18.2282 68.756 22.5059 69.5821C29.1153 70.8673 36.4774 70.4818 47.5665 68.2786C51.8442 67.4341 52.2481 67.2872 52.2481 66.6446C52.2481 66.1857 51.6606 65.6716 49.2004 63.9825L48.0071 63.1564L45.345 63.7071C39.0661 65.0107 32.6954 65.5064 26.9672 65.1759C23.9379 64.9923 21.7715 64.7169 20.5415 64.3314C20.009 64.1661 20.1743 63.7439 20.9454 63.2482C21.6797 62.7708 21.8633 62.3118 21.4594 61.9079C21.1657 61.6142 20.7067 61.6509 19.2012 62.1282Z" fill="black"></path>
  <path d="M20.9453 71.8955C18.3566 72.5932 17.255 74.3373 18.173 76.2467C19.3113 78.5967 23.6257 79.9186 31.7406 80.3959C37.8543 80.7631 44.023 79.9002 49.1453 77.9909C50.5773 77.4584 50.7793 77.3299 50.8343 76.9077C50.9078 76.3202 50.7609 76.21 47.8785 74.4659L45.5468 73.0338L43.2886 73.4194C42.0586 73.6213 40.1859 73.9334 39.1211 74.117C35.7796 74.6862 29.005 74.4842 25.223 73.6948C23.4972 73.3459 23.4605 73.3276 23.7175 72.8502C23.8277 72.6483 23.8644 72.2811 23.8093 72.0424C23.6992 71.6569 23.589 71.6018 22.8179 71.6202C22.3406 71.6202 21.4961 71.7487 20.9453 71.8955Z" fill="black" stroke="white"></path>
  <path d="M11.2332 78.5048C3.43049 79.2759 0.254317 81.0384 1.37424 83.9943C2.60432 87.2072 8.90158 88.731 23.0567 89.245C40.4613 89.8509 56.3422 87.9599 63.3555 84.4533C65.5953 83.315 66.4399 82.0849 66.036 80.5243C65.834 79.7533 64.861 78.7618 64.2735 78.7618C63.6676 78.7618 63.484 79.1107 63.6492 79.9552C63.7961 80.7447 63.4289 81.0017 61.1524 81.6993C56.5258 83.1314 48.1356 84.3431 39.5985 84.8388C34.8801 85.1142 24.6356 84.949 20.5781 84.545C14.8317 83.9943 9.91135 83.0947 8.5344 82.3786L8.03869 82.1216L8.47932 81.8279C9.10354 81.4056 12.4633 80.3408 14.4094 79.9552C15.7496 79.6798 16.0617 79.5329 16.2086 79.2025C16.686 78.156 15.8414 78.0458 11.2332 78.5048Z" fill="black" stroke="white"></path>
  <path d="M68.0371 84.545C65.1914 86.7114 59.555 88.7861 54.3593 89.5939C49.2554 90.3833 36.2937 90.6954 23.2769 90.3466C14.5195 90.1079 14.4277 90.1079 14.5562 90.9525C14.648 91.54 15.2355 91.7236 18.9257 92.3294C31.6488 94.404 43.9312 94.5325 56.0117 92.6966C58.9675 92.256 59.6652 92.1091 61.7031 91.5032C64.0347 90.7872 66.3296 89.5388 67.78 88.1618C69.6343 86.4361 70.4972 84.3798 69.616 83.9025C69.1386 83.6638 69.2855 83.6087 68.0371 84.545Z" fill="black" stroke="white"></path>
</svg>
