<?xml version="1.0" encoding="UTF-8"?>
<svg xmlns="http://www.w3.org/2000/svg" width="84" height="71" viewBox="0 0 84 71" fill="none">
  <path d="M3.01875 1.69688C2.05625 2.17812 1.4375 2.84843 1.00781 3.87968C0.784375 4.42969 0.75 8.05625 0.75 35.4703C0.75 59.275 0.801563 66.5969 0.95625 67.1469C1.23125 68.0922 2.65781 69.5187 3.60313 69.7937C4.13594 69.9484 8.175 70 19.9828 70H35.6578L36.0703 69.5703C36.6375 69.0203 36.6375 68.2297 36.0703 67.6797L35.6578 67.25H20H4.34219L3.92969 66.8203L3.5 66.4078V40.6953V15H42H80.5V40.6953V66.4078L80.0703 66.8203L79.6578 67.25H75H70.3422L69.9297 67.6797C69.6547 67.9375 69.5 68.2984 69.5 68.625C69.5 68.9516 69.6547 69.3125 69.9297 69.5703L70.3422 70H75.0172C78.1797 70 79.9156 69.9312 80.3969 69.7937C81.3938 69.5016 82.7688 68.075 83.0438 67.0781C83.2156 66.4766 83.25 59.3609 83.2156 35.1781L83.1641 4.05156L82.6484 3.20937C82.3219 2.69375 81.8063 2.17812 81.2906 1.85156L80.4484 1.33594L42.1719 1.28437L3.9125 1.25L3.01875 1.69688ZM79.6922 4.18906C80.4141 4.51562 80.5 4.99687 80.5 8.72656V12.25H42H3.5V8.72656C3.5 5.04844 3.58594 4.51562 4.25625 4.20625C4.78906 3.94843 79.125 3.93125 79.6922 4.18906Z" fill="black" stroke="black"></path>
  <path d="M6.67973 7.17969C5.82035 8.02188 6.42191 9.5 7.62504 9.5C8.32973 9.5 9.00004 8.82969 9.00004 8.125C9.00004 7.42031 8.32973 6.75 7.62504 6.75C7.29848 6.75 6.93754 6.90469 6.67973 7.17969Z" fill="#912CC6" stroke="#912CC6"></path>
  <path d="M12.1797 7.17969C11.3204 8.02188 11.9219 9.5 13.125 9.5C13.8297 9.5 14.5 8.82969 14.5 8.125C14.5 7.42031 13.8297 6.75 13.125 6.75C12.7985 6.75 12.4375 6.90469 12.1797 7.17969Z" fill="#912CC6" stroke="#912CC6"></path>
  <path d="M17.6797 7.17969C16.8204 8.02188 17.4219 9.5 18.625 9.5C19.3297 9.5 20 8.82969 20 8.125C20 7.42031 19.3297 6.75 18.625 6.75C18.2985 6.75 17.9375 6.90469 17.6797 7.17969Z" fill="#912CC6" stroke="#912CC6"></path>
  <path d="M6.67969 23.6797C6.40469 23.9375 6.25 24.2984 6.25 24.625C6.25 24.9516 6.40469 25.3125 6.67969 25.5703L7.09219 26H15.875H24.6578L25.0703 25.5703C25.3453 25.3125 25.5 24.9516 25.5 24.625C25.5 24.2984 25.3453 23.9375 25.0703 23.6797L24.6578 23.25H15.875H7.09219L6.67969 23.6797Z" fill="#912CC6" stroke="#912CC6"></path>
  <path d="M6.67969 29.1797C6.40469 29.4375 6.25 29.7984 6.25 30.125C6.25 30.4516 6.40469 30.8125 6.67969 31.0703L7.09219 31.5H11.75H16.4078L16.8203 31.0703C17.3875 30.5203 17.3875 29.7297 16.8203 29.1797L16.4078 28.75H11.75H7.09219L6.67969 29.1797Z" fill="#912CC6" stroke="#912CC6"></path>
  <path d="M33.7328 30.022C30.4328 31.0704 30.175 31.1907 30.0375 31.7751C29.9688 32.0329 30.0547 33.3907 30.2266 34.8173C30.5703 37.7907 30.7594 37.2923 28.7656 38.7188C28.1641 39.1485 27.5969 39.4751 27.4938 39.4407C27.4078 39.4063 26.325 38.9251 25.1047 38.3579C22.8531 37.3267 22.1828 37.172 21.6844 37.5501C21.5297 37.6704 20.6188 38.8563 19.6734 40.1798C18.2984 42.0704 17.9375 42.7063 17.9375 43.1532C17.9375 43.7376 18.1609 44.0298 20.7047 46.711L21.6844 47.7423L21.1172 49.461L20.55 51.1798L17.8344 51.7126C15.6344 52.1595 15.0672 52.3313 14.8094 52.6407C14.5344 52.9845 14.5 53.397 14.5 56.2501C14.5 59.1032 14.5344 59.5157 14.8094 59.8595C15.0672 60.1688 15.6344 60.3407 17.8516 60.7876L20.5844 61.3376L20.9109 62.4376C21.375 64.0704 22.3891 64.7751 23.3 64.0876C23.9359 63.6063 23.9531 63.0735 23.4547 61.2517C23.1797 60.3063 22.8703 59.4126 22.75 59.2579C22.4922 58.9485 21.8906 58.7767 19.2781 58.2782L17.25 57.8829V56.2501V54.6173L19.6734 54.1532C21.0141 53.8954 22.2859 53.5688 22.5094 53.4142C22.7672 53.2423 23.0078 52.8126 23.1797 52.1595C23.3344 51.6267 23.6953 50.5267 23.9875 49.7188C24.9156 47.1407 24.95 47.2954 22.8359 44.9923L20.9969 43.0157L21.9078 41.761C22.4062 41.0907 22.8359 40.4892 22.8703 40.4548C22.9047 40.4204 23.9703 40.8501 25.2422 41.4345C26.5141 42.0188 27.7688 42.5001 28.0438 42.5001C28.3703 42.5001 28.8172 42.2423 29.4703 41.6923C29.9859 41.2626 30.9828 40.5235 31.6875 40.0595C32.3922 39.5954 33.0797 39.0282 33.2 38.7876C33.3891 38.4438 33.3719 37.9454 33.1313 35.8829C32.9594 34.3704 32.8906 33.322 32.9937 33.236C33.1484 33.0813 35.8469 32.1532 35.9156 32.2392C35.9328 32.2563 36.4656 33.2017 37.0844 34.336C37.7203 35.4704 38.4078 36.5532 38.6141 36.7423C38.975 37.0688 39.2328 37.086 42.0516 37.086C44.8359 37.0688 45.1281 37.0345 45.4375 36.7251C45.6094 36.5532 46.2797 35.4704 46.9156 34.336C47.5516 33.2017 48.0844 32.2563 48.1016 32.2392C48.1531 32.1532 50.8516 33.0813 51.0063 33.236C51.1094 33.322 51.0406 34.3704 50.8688 35.8657C50.525 38.7876 50.5766 39.011 51.8656 39.7501C52.3469 40.0251 53.3781 40.747 54.1516 41.3657C55.0797 42.122 55.6984 42.5001 56.0078 42.5001C56.2484 42.5001 57.5031 42.0188 58.775 41.4517C60.0469 40.8673 61.1125 40.4204 61.1297 40.4548C61.1641 40.4892 61.5938 41.0907 62.0922 41.761L63.0031 43.0157L61.1813 44.9751C59.8234 46.4532 59.3594 47.072 59.3594 47.4157C59.3594 47.6563 59.6344 48.5845 59.9609 49.4782C60.2875 50.3548 60.6484 51.4892 60.7516 51.9704C61.0609 53.3798 61.3188 53.5517 64.2234 54.1017L66.75 54.6001V56.2501V57.9001L64.2234 58.3985C61.3188 58.9485 61.0609 59.1204 60.7516 60.5298C60.6484 61.011 60.2875 62.1454 59.9609 63.022C59.6344 63.9157 59.3594 64.8438 59.3594 65.0845C59.3594 65.411 59.8063 66.0126 60.9922 67.3188C63.5703 70.1548 63.9828 70.3954 64.9281 69.6392C65.2547 69.3813 65.375 69.1235 65.375 68.711C65.375 68.0751 65.0656 67.6454 63.2953 65.7892L62.3156 64.7579L62.8828 63.0392L63.45 61.3376L66.1484 60.7876C68.3828 60.3579 68.9156 60.186 69.1906 59.8595C69.4656 59.5157 69.5 59.1204 69.5 56.2501C69.5 53.3798 69.4656 52.9845 69.1906 52.6407C68.9328 52.3142 68.3828 52.1423 66.1656 51.6954L63.45 51.1454L62.8828 49.461L62.3156 47.7595L64.1891 45.7485C65.7875 44.0126 66.0625 43.6345 66.0625 43.1532C66.0625 42.7063 65.6844 42.0532 64.2578 40.0938C63.2609 38.736 62.35 37.5673 62.2297 37.4813C61.7656 37.1892 60.9922 37.3954 58.8094 38.3923C57.5547 38.9767 56.4547 39.4579 56.3516 39.4579C56.025 39.4579 53.5156 37.4642 53.5156 37.1892C53.5156 37.0345 53.6359 35.8142 53.8078 34.4563C54.0312 32.411 54.0484 31.947 53.8594 31.586C53.6016 31.1048 53.1203 30.8985 49.8031 29.8673C47.8953 29.2829 47.3453 29.1626 46.95 29.3001C46.5891 29.4376 46.1938 29.9704 45.1453 31.861L43.8047 34.2501H42C40.1953 34.2501 40.1781 34.2501 39.9203 33.7688C39.7656 33.511 39.1641 32.4454 38.5625 31.3798C37.7547 29.936 37.3766 29.4204 37.0156 29.3001C36.6547 29.1626 36.0016 29.3173 33.7328 30.022Z" fill="#912CC6" stroke="#912CC6"></path>
  <path d="M39.4218 42.7406C33.6984 43.961 29.5906 48.1203 28.4906 53.8094C28.0437 56.1297 28.2156 58.2094 29.0406 60.736C29.4875 62.0938 30.4671 63.9156 30.9484 64.2766C31.3953 64.6203 32.3234 64.5516 32.7187 64.1563C33.2343 63.6406 33.1484 63.0391 32.289 61.3203C30.5875 57.9516 30.5703 54.5828 32.2375 51.2656C32.7703 50.2 33.3031 49.4781 34.1796 48.6016C36.2765 46.5047 38.5453 45.4735 41.3984 45.3016C47.9296 44.9235 53.3265 50.3203 52.9484 56.8516C52.7765 59.7219 51.7453 61.9735 49.6312 64.0703C47.7062 65.9953 44.8359 67.2328 42.2921 67.25C41.6562 67.25 41.3812 67.336 41.0546 67.6797C40.4703 68.2469 40.4875 69.0203 41.0718 69.6047C41.5015 70.0344 41.5703 70.0516 42.9109 69.9485C47.2937 69.6219 51.1093 67.3703 53.5328 63.675C55.0453 61.3719 55.664 59.2406 55.664 56.25C55.664 53.2594 55.0453 51.1281 53.5328 48.825C51.5906 45.8516 48.8234 43.875 45.2656 42.8953C43.925 42.5344 40.7968 42.4485 39.4218 42.7406Z" fill="black" stroke="black"></path>
</svg>
