<?xml version="1.0" encoding="UTF-8"?>
<svg xmlns="http://www.w3.org/2000/svg" width="72" height="72" viewBox="0 0 72 72" fill="none">
  <path d="M1.61721 0.267189C0.942212 0.576561 0.506274 1.02657 0.210962 1.71563C0.0281494 2.16563 2.44156e-05 3.2625 2.44156e-05 9.52031C2.44156e-05 16.2984 0.0281494 16.8469 0.267212 17.3672C0.576587 18.0422 1.02659 18.4781 1.71565 18.7734C2.13752 18.9422 2.85471 18.9844 5.34377 18.9844H8.43753V26.6063C8.45159 34.8328 8.42346 34.5797 9.1969 34.875C9.45003 34.9594 12.0375 35.0156 16.4672 35.0156H23.3438V37.2656V39.5156H22.711C22.1766 39.5156 22.05 39.4594 21.8391 39.1219C21.0938 37.9266 20.236 37.4062 18.9844 37.4062C17.1563 37.4062 15.8907 38.6719 15.8907 40.5C15.8907 42.2859 17.1703 43.5938 18.9141 43.5938C20.1657 43.5938 21.2344 43.0031 21.7407 42.0188C21.9235 41.6672 22.0219 41.625 22.6266 41.625H23.3016L23.3719 43.8609C23.4282 46.0266 23.4422 46.1109 23.8641 46.8422C24.1735 47.3906 24.4828 47.7281 25.0032 48.0375C25.875 48.5578 26.4938 48.6562 29.2922 48.6562H31.3594V54.9141V61.1719H25.1719H18.9844V58.2188C18.9844 55.8563 18.9422 55.1531 18.7735 54.7313C18.4782 54.0422 18.0422 53.5922 17.3672 53.2828C16.8469 53.0438 16.2985 53.0156 9.49221 53.0156C2.68596 53.0156 2.13752 53.0438 1.61721 53.2828C0.942212 53.5922 0.506274 54.0422 0.210962 54.7313C-0.112476 55.5188 -0.112476 69.4969 0.210962 70.2844C0.506274 70.9734 0.942212 71.4234 1.61721 71.7328C2.13752 71.9719 2.68596 72 9.49221 72C16.2985 72 16.8469 71.9719 17.3672 71.7328C18.0422 71.4234 18.4782 70.9734 18.7735 70.2844C18.9422 69.8625 18.9844 69.1313 18.9844 66.5297V63.2953L25.9453 63.2531L32.8922 63.2109L33.2157 62.8875L33.5391 62.5641L33.5813 55.6172L33.6235 48.6562H36.4219H39.2344V50.9766V53.2828L38.8547 53.4937C37.8563 54.0141 37.2657 55.0406 37.2657 56.25C37.2657 58.0781 38.5313 59.3438 40.3594 59.3438C42.1875 59.3438 43.4532 58.0781 43.4532 56.25C43.4532 55.0406 42.8625 54.0141 41.8782 53.4937L41.4844 53.2828V50.9906V48.6984L43.7766 48.6281C46.0266 48.5719 46.0969 48.5578 46.8422 48.1359C47.7844 47.6156 48.4313 46.6313 48.5578 45.5344C48.6141 45.1266 48.6563 43.2844 48.6563 41.4422V38.1094H55.0547H61.4532V45.5625V53.0156H58.3313C55.5891 53.0156 55.125 53.0578 54.6328 53.2828C53.3391 53.8734 53.0157 54.6328 53.0157 57.0656C53.0157 58.6828 53.0438 58.8938 53.2969 59.175C53.6907 59.5969 54.45 59.5969 54.8438 59.175C55.0969 58.9078 55.125 58.6828 55.125 57.1641C55.125 56.025 55.1813 55.4062 55.2938 55.2938C55.4203 55.1672 57.2203 55.125 62.536 55.125C69.3703 55.125 69.6094 55.1391 69.75 55.3922C69.8344 55.575 69.8907 58.0781 69.8907 62.5641C69.8907 68.6391 69.8625 69.4688 69.6657 69.6656C69.4688 69.8625 68.6391 69.8906 62.5641 69.8906C58.0782 69.8906 55.575 69.8344 55.3922 69.75C55.1391 69.6094 55.125 69.4125 55.125 66.15C55.125 64.2094 55.0688 62.5922 54.9844 62.4516C54.9141 62.3109 54.675 62.1141 54.436 62.0297C54.0985 61.8891 53.9578 61.8891 53.6063 62.0719C53.3813 62.1844 53.1563 62.3953 53.1 62.5078C53.0578 62.6344 53.0157 64.3359 53.0157 66.2766C53.0157 70.1297 53.086 70.5375 53.8735 71.2547C54.6891 72 54.6891 72 62.536 72C69.3141 72 69.8625 71.9719 70.3828 71.7328C71.0578 71.4234 71.4938 70.9734 71.7891 70.2844C71.9719 69.8344 72 68.7375 72 62.4797C72 55.7016 71.9719 55.1531 71.7328 54.6328C71.4235 53.9578 70.9735 53.5219 70.2844 53.2266C69.8625 53.0578 69.1453 53.0156 66.6563 53.0156H63.5625V44.8594V36.6891L63.211 36.3516L62.8735 36H55.7578H48.6563V34.2422V32.4844H51.1594H53.6485L53.9297 33.0047C54.0844 33.3 54.4922 33.7219 54.8157 33.9609C55.3782 34.3406 55.5328 34.3828 56.5875 34.3828C57.6141 34.3828 57.811 34.3406 58.3313 34.0031C60.1735 32.7797 60.1735 29.9391 58.3313 28.7156C57.811 28.3781 57.6141 28.3359 56.5875 28.3359C55.5188 28.3359 55.3782 28.3641 54.8157 28.7578C54.4922 28.9969 54.0703 29.4609 53.8875 29.7844L53.5641 30.375H51.1313H48.6985L48.6282 28.1391C48.5719 25.9734 48.5578 25.8891 48.136 25.1578C47.8266 24.5953 47.5172 24.2859 46.9688 23.9344L46.2094 23.4844H43.8469H41.4844V17.0156V10.5469H47.25H53.0157V13.6688C53.0157 17.0719 53.1141 17.5359 53.8735 18.2391C54.6891 18.9844 54.7032 18.9844 62.5078 18.9844C68.7375 18.9844 69.8344 18.9563 70.2844 18.7734C70.9735 18.4781 71.4235 18.0422 71.7328 17.3672C71.9719 16.8469 72 16.2984 72 9.49219C72 2.68594 71.9719 2.1375 71.7328 1.61719C71.4235 0.942192 70.9735 0.506248 70.2844 0.210938C69.8344 0.0281296 68.7375 0 62.5078 0C54.7032 0 54.6891 0 53.8735 0.745316C53.1141 1.44844 53.0157 1.9125 53.0157 5.30157V8.4375H46.5188C39.375 8.45156 39.6282 8.42344 39.375 9.29531C39.2907 9.57656 39.2344 12.6562 39.2344 16.6219V23.4844H36.4219H33.6094V21.375V19.2797L34.0032 19.0688C35.7891 18.1266 36.1407 15.4406 34.636 14.0484C33.9891 13.4438 33.4125 13.2188 32.4844 13.2188C30.6563 13.2188 29.3907 14.4844 29.3907 16.3125C29.3907 17.5219 29.9813 18.5484 30.9797 19.0688L31.3594 19.2797V21.375V23.4844H28.575H25.7907L25.0313 23.9344C24.4828 24.2859 24.1735 24.5953 23.85 25.1719L23.4141 25.9453L23.3578 29.4188L23.3157 32.9062H16.9313H10.5469V25.9453V18.9844H13.6828C16.411 18.9844 16.875 18.9422 17.3672 18.7172C18.661 18.1266 18.9844 17.3672 18.9844 14.9344C18.9844 13.3172 18.9563 13.1063 18.7032 12.825C18.3094 12.4031 17.55 12.4031 17.1563 12.825C16.9032 13.0922 16.875 13.3172 16.875 14.7797C16.875 16.1016 16.8328 16.4813 16.65 16.65C16.4532 16.8469 15.6235 16.875 9.54846 16.875C5.06252 16.875 2.5594 16.8188 2.37659 16.7344C2.12346 16.5938 2.1094 16.3547 2.1094 9.52031C2.1094 4.20469 2.15159 2.40469 2.27815 2.27813C2.40471 2.15157 4.20471 2.10938 9.52034 2.10938C16.3547 2.10938 16.5938 2.12344 16.7344 2.37656C16.8188 2.54531 16.875 3.96563 16.875 6.00469C16.875 9.19688 16.8891 9.37969 17.1563 9.675C17.3532 9.87188 17.6203 9.98438 17.9297 9.98438C18.2391 9.98438 18.5063 9.87188 18.7032 9.675C18.9703 9.37969 18.9844 9.19688 18.9844 5.80782C18.9844 2.91094 18.9422 2.1375 18.7735 1.71563C18.4782 1.02657 18.0422 0.576561 17.3672 0.267189C16.8469 0.0281296 16.2985 0 9.49221 0C2.68596 0 2.13752 0.0281296 1.61721 0.267189ZM69.75 2.37656C69.8344 2.55938 69.8907 5.0625 69.8907 9.54844C69.8907 15.6234 69.8625 16.4531 69.6657 16.65C69.4688 16.8469 68.6391 16.875 62.5641 16.875C58.0782 16.875 55.575 16.8188 55.3922 16.7344C55.1391 16.5938 55.125 16.3547 55.125 9.52031C55.125 4.20469 55.1672 2.40469 55.2938 2.27813C55.4203 2.15157 57.2203 2.10938 62.536 2.10938C69.3703 2.10938 69.6094 2.12344 69.75 2.37656ZM33.2157 15.5672C33.5391 15.8484 33.5532 16.6922 33.2297 17.0438C32.9485 17.3672 32.1047 17.3813 31.7532 17.0578C31.4297 16.7766 31.4157 15.9328 31.7391 15.5813C32.0203 15.2578 32.8641 15.2438 33.2157 15.5672ZM46.0828 25.9031L46.4063 26.1984V36V45.8016L46.0407 46.1391L45.675 46.4766H36H26.325L25.9594 46.1391L25.5938 45.8016V36.0141V26.2406L25.9032 25.9172L26.1985 25.5938H35.986H45.7594L46.0828 25.9031ZM57.361 30.7406C57.5297 30.9516 57.6563 31.2188 57.6563 31.3594C57.6563 31.5 57.5297 31.7672 57.361 31.9781C56.7844 32.7094 55.5469 32.3016 55.5469 31.3594C55.5469 30.4172 56.7844 30.0094 57.361 30.7406ZM19.7157 39.7547C20.0391 40.0359 20.0532 40.8797 19.7297 41.2313C19.4485 41.5547 18.6047 41.5688 18.2532 41.2453C17.9297 40.9641 17.9157 40.1203 18.2391 39.7687C18.5203 39.4453 19.3641 39.4313 19.7157 39.7547ZM16.7344 55.3922C16.8188 55.575 16.875 58.0781 16.875 62.5641C16.875 68.6391 16.8469 69.4688 16.65 69.6656C16.4532 69.8625 15.6235 69.8906 9.54846 69.8906C5.06252 69.8906 2.5594 69.8344 2.37659 69.75C2.12346 69.6094 2.1094 69.3703 2.1094 62.5359C2.1094 57.2203 2.15159 55.4203 2.27815 55.2938C2.40471 55.1672 4.20471 55.125 9.52034 55.125C16.3547 55.125 16.5938 55.1391 16.7344 55.3922ZM41.0907 55.5047C41.4141 55.7859 41.4282 56.6297 41.1047 56.9813C40.8235 57.3047 39.9797 57.3188 39.6282 56.9953C39.3047 56.7141 39.2907 55.8703 39.6141 55.5188C39.8953 55.1953 40.7391 55.1812 41.0907 55.5047Z" fill="black" stroke="black" stroke-width="0.6"></path>
  <path d="M58.05 4.44365C57.2766 4.85147 57.2344 5.10459 57.2344 9.49209C57.2344 13.9077 57.2766 14.1327 58.0781 14.5546C58.6828 14.864 66.3328 14.864 66.9375 14.5546C67.7391 14.1327 67.7812 13.9077 67.7812 9.49209C67.7812 5.07647 67.7391 4.85147 66.9375 4.42959C66.3469 4.12022 58.6266 4.12022 58.05 4.44365ZM65.6719 9.49209V12.6562H62.5078H59.3438V9.49209V6.32803H62.5078H65.6719V9.49209Z" fill="#912CC6"></path>
  <path d="M28.1391 28.125C27.8297 28.4485 27.7032 28.7297 27.6329 29.2922C27.5907 29.686 27.5625 32.9907 27.5907 36.6329C27.6329 43.8891 27.6188 43.6922 28.5047 44.1704C29.0532 44.4657 42.9469 44.4657 43.4954 44.1704C44.3813 43.6922 44.3672 43.8891 44.4094 36.6329C44.4375 32.9907 44.4094 29.686 44.3672 29.2922C44.2969 28.7297 44.1704 28.4485 43.861 28.125L43.425 27.7032H41.7094C39.7547 27.7032 39.5157 27.8157 39.5157 28.7157C39.5157 29.461 39.8813 29.7 41.1329 29.7844L42.1875 29.8547V36.0844V42.3282H36H29.8125V36.0844V29.8266L33.1032 29.7844C36.0985 29.7422 36.4219 29.7141 36.6891 29.475C37.0688 29.1235 37.0969 28.2657 36.7313 27.9422C36.5063 27.7313 36 27.7032 32.5125 27.7032H28.575L28.1391 28.125Z" fill="#912CC6"></path>
  <path d="M5.03437 57.4593C4.26094 57.8671 4.21875 58.1202 4.21875 62.5077C4.21875 66.9233 4.26094 67.1483 5.0625 67.5702C5.66719 67.8796 13.3172 67.8796 13.9219 67.5702C14.7234 67.1483 14.7656 66.9233 14.7656 62.5077C14.7656 58.0921 14.7234 57.8671 13.9219 57.4452C13.3313 57.1358 5.61094 57.1358 5.03437 57.4593ZM12.6562 62.5077V65.6718H9.49219H6.32812V62.5077V59.3437H9.49219H12.6562V62.5077Z" fill="#912CC6"></path>
  <path d="M5.03437 4.44365C4.26094 4.85147 4.21875 5.10459 4.21875 9.49209C4.21875 13.9077 4.26094 14.1327 5.0625 14.5546C5.66719 14.864 13.3172 14.864 13.9219 14.5546C14.7234 14.1327 14.7656 13.9077 14.7656 9.49209C14.7656 5.07647 14.7234 4.85147 13.9219 4.42959C13.3313 4.12022 5.61094 4.12022 5.03437 4.44365ZM12.6562 9.49209V12.6562H9.49219H6.32812V9.49209V6.32803H9.49219H12.6562V9.49209Z" fill="#912CC6"></path>
  <path d="M58.05 57.4593C57.2766 57.8671 57.2344 58.1202 57.2344 62.5077C57.2344 66.9233 57.2766 67.1483 58.0781 67.5702C58.6828 67.8796 66.3328 67.8796 66.9375 67.5702C67.7391 67.1483 67.7812 66.9233 67.7812 62.5077C67.7812 58.0921 67.7391 57.8671 66.9375 57.4452C66.3469 57.1358 58.6266 57.1358 58.05 57.4593ZM65.6719 62.5077V65.6718H62.5078H59.3438V62.5077V59.3437H62.5078H65.6719V62.5077Z" fill="#912CC6"></path>
</svg>
