<?xml version="1.0" encoding="UTF-8"?>
<svg xmlns="http://www.w3.org/2000/svg" width="47" height="48" viewBox="0 0 47 48" fill="none">
  <g clip-path="url(#clip0_15630_21444)">
    <path d="M12.0429 10.4359C12.3087 10.702 12.458 11.0628 12.458 11.4389C12.458 11.8151 12.3087 12.1758 12.0429 12.442C10.5491 13.9357 9.3641 15.7091 8.55564 17.6609C7.7472 19.6125 7.33109 21.7044 7.33109 23.8169C7.33109 25.9295 7.7472 28.0214 8.55564 29.9731C9.3641 31.9249 10.5491 33.6981 12.0429 35.1921C12.3013 35.4598 12.4442 35.8184 12.4408 36.1906C12.4374 36.5628 12.2879 36.9186 12.0247 37.1818C11.7614 37.4448 11.4053 37.5938 11.0331 37.5969C10.661 37.5999 10.3025 37.4567 10.0349 37.1981C2.64462 29.8077 2.64462 17.8262 10.0349 10.4359C10.301 10.1701 10.6618 10.0208 11.0379 10.0208C11.4141 10.0208 11.7767 10.1701 12.0429 10.4359ZM36.799 10.4359C44.1893 17.8262 44.1893 29.8077 36.799 37.1999C36.5299 37.4507 36.174 37.5871 35.8062 37.5808C35.4386 37.5742 35.0878 37.4252 34.8277 37.1652C34.5675 36.9051 34.4187 36.5542 34.4121 36.1865C34.4057 35.8189 34.5421 35.4629 34.7929 35.1939C36.287 33.7001 37.4722 31.9266 38.2808 29.9747C39.0894 28.0227 39.5056 25.9307 39.5056 23.8179C39.5056 21.7051 39.0894 19.6131 38.2808 17.6611C37.4722 15.7093 36.287 13.9358 34.7929 12.442C34.6534 12.312 34.5416 12.1553 34.4641 11.9812C34.3864 11.8071 34.3447 11.6192 34.3413 11.4286C34.338 11.238 34.3731 11.0487 34.4445 10.8719C34.5159 10.6952 34.622 10.5346 34.7569 10.3999C34.8916 10.2651 35.0521 10.1588 35.229 10.0874C35.4057 10.016 35.595 9.98099 35.7855 9.98435C35.9762 9.98772 36.1641 10.0294 36.3382 10.107C36.5123 10.1846 36.669 10.2964 36.799 10.4359ZM17.3949 15.788C17.6607 16.0541 17.8101 16.4148 17.8101 16.7909C17.8101 17.1671 17.6607 17.5279 17.3949 17.794C16.6039 18.5849 15.9762 19.5238 15.5481 20.5573C15.1199 21.5907 14.8996 22.6984 14.8996 23.8169C14.8996 24.9355 15.1199 26.0432 15.5481 27.0767C15.9762 28.1101 16.6039 29.0491 17.3949 29.84C17.6457 30.1089 17.7821 30.4649 17.7757 30.8325C17.7692 31.2003 17.6201 31.5512 17.3601 31.8112C17.1001 32.0712 16.7492 32.2203 16.3816 32.2267C16.0138 32.2332 15.658 32.0968 15.3889 31.846C13.2595 29.7165 12.0633 26.8284 12.0633 23.8169C12.0633 20.8055 13.2595 17.9175 15.3889 15.788C15.655 15.5221 16.0158 15.3728 16.392 15.3728C16.7681 15.3728 17.1288 15.5221 17.3949 15.788ZM31.4469 15.788C33.5762 17.9175 34.7725 20.8055 34.7725 23.8169C34.7725 26.8284 33.5762 29.7165 31.4469 31.846C31.316 31.9817 31.1594 32.0898 30.9863 32.1644C30.8133 32.2387 30.627 32.278 30.4385 32.2797C30.25 32.2815 30.0631 32.2457 29.8887 32.1744C29.7142 32.103 29.5557 31.9977 29.4222 31.8646C29.289 31.7313 29.1835 31.5729 29.1121 31.3984C29.0406 31.2241 29.0047 31.0372 29.0061 30.8487C29.0076 30.6602 29.0468 30.474 29.1211 30.3008C29.1954 30.1277 29.3034 29.971 29.439 29.84C30.2297 29.0491 30.8571 28.1103 31.2851 27.077C31.713 26.0438 31.9333 24.9364 31.9333 23.8179C31.9333 22.6996 31.713 21.5922 31.2851 20.5588C30.8571 19.5255 30.2297 18.5867 29.439 17.7958C29.1882 17.5269 29.0518 17.171 29.0582 16.8033C29.0647 16.4355 29.2136 16.0846 29.4738 15.8246C29.7338 15.5646 30.0847 15.4157 30.4523 15.4091C30.8201 15.4026 31.1759 15.5392 31.445 15.7898L31.4469 15.788ZM23.4169 20.9791C24.1698 20.9791 24.8918 21.2782 25.4242 21.8106C25.9567 22.343 26.2557 23.0651 26.2557 23.8179C26.2557 24.5707 25.9567 25.2929 25.4242 25.8252C24.8918 26.3576 24.1698 26.6567 23.4169 26.6567C22.6641 26.6567 21.9421 26.3576 21.4096 25.8252C20.8772 25.2929 20.5782 24.5707 20.5782 23.8179C20.5782 23.0651 20.8772 22.343 21.4096 21.8106C21.9421 21.2782 22.6641 20.9791 23.4169 20.9791Z" fill="#CC3199"></path>
  </g>
  <defs>
    <clipPath id="clip0_15630_21444">
      <rect width="46.8399" height="46.8399" fill="white" transform="translate(0 0.902588)"></rect>
    </clipPath>
  </defs>
</svg>
