<?xml version="1.0" encoding="UTF-8"?>
<svg xmlns="http://www.w3.org/2000/svg" width="80" height="80" viewBox="0 0 80 80" fill="none">
  <rect width="80" height="80" rx="16" fill="white" fill-opacity="0.1"></rect>
  <path d="M24.85 33.3125C23.7875 32.8125 23.7875 31.25 24.85 30.75L39.4125 24.1875C39.6 24.0625 39.85 24.0625 40.1 24.0625C40.2875 24.0625 40.5375 24.0625 40.725 24.1875L55.2875 30.75C56.35 31.25 56.35 32.8125 55.2875 33.3125L40.725 39.875C40.2875 40.0625 39.85 40.0625 39.4125 39.875L24.85 33.3125ZM55.2875 38.8125C56.35 39.25 56.35 40.8125 55.2875 41.3125L40.725 47.875C40.2875 48.0625 39.85 48.0625 39.4125 47.875L24.85 41.3125C23.7875 40.8125 23.7875 39.25 24.85 38.8125L28.475 37.125L38.6 41.75C39.0375 41.9375 39.5375 42.0625 40.1 42.0625C40.6 42.0625 41.1 41.9375 41.5375 41.75L51.6625 37.125L55.2875 38.8125ZM55.2875 46.8125C56.35 47.25 56.35 48.8125 55.2875 49.3125L40.725 55.875C40.2875 56.0625 39.85 56.0625 39.4125 55.875L24.85 49.3125C23.7875 48.8125 23.7875 47.25 24.85 46.8125L28.475 45.125L38.6 49.75C39.0375 49.9375 39.5375 50.0625 40.1 50.0625C40.6 50.0625 41.1 49.9375 41.5375 49.75L51.6625 45.125L55.2875 46.8125Z" fill="white"></path>
  <rect x="0.5" y="0.5" width="79" height="79" rx="15.5" stroke="#656565" stroke-opacity="0.1"></rect>
</svg>
