<?xml version="1.0" encoding="UTF-8"?>
<svg xmlns="http://www.w3.org/2000/svg" width="83" height="79" viewBox="0 0 83 79" fill="none">
  <path d="M6.08794 0.165939C3.34476 0.807617 0.922415 3.51871 0.264693 6.6469C-0.088231 8.31527 -0.088231 54.3718 0.264693 56.0242C0.954499 59.2807 3.39288 61.9437 6.24836 62.5372C7.30713 62.7618 17.1569 62.7778 17.7344 62.5533C18.713 62.1843 19.0017 60.7566 18.2478 60.0026L17.8307 59.5855L12.2481 59.5053C6.89004 59.4251 6.64941 59.409 6.02377 59.0721C5.12542 58.5909 4.11477 57.4198 3.68164 56.3129L3.31267 55.4146V40.0143V24.6139L38.1719 24.5658L73.0152 24.5337V32.7151V40.8966H72.4216C71.6837 40.8966 70.5286 41.4099 69.9511 41.9553L69.518 42.3724L68.4271 41.8912C67.8175 41.6345 67.1598 41.3618 66.9673 41.3137C66.6946 41.2334 66.5984 41.0409 66.5181 40.3672C66.3256 38.9555 65.6358 37.9448 64.4487 37.3352C63.6787 36.9342 60.8714 36.7577 59.4597 37.0304C57.7111 37.3513 56.5561 38.5865 56.3796 40.303L56.2994 41.1532L54.8717 41.7628L53.4439 42.3724L52.9466 41.9393C52.0803 41.2334 51.5028 41.0089 50.4761 41.0089C49.8184 41.0089 49.3211 41.1051 48.8719 41.3457C48.0057 41.7949 45.3427 44.5221 45.0219 45.26C44.5246 46.4792 44.8775 48.2438 45.824 49.2384L46.225 49.6555L45.5994 51.0832L44.9737 52.527L44.1235 52.6072C43.1289 52.7195 42.4712 53.0243 41.8776 53.682C41.0274 54.5964 40.867 55.0937 40.8028 57.3717L40.7387 59.5053H35.7656H30.7926L30.3274 59.9705C29.5413 60.7566 29.7659 62.0239 30.7766 62.5372C31.0172 62.6656 33.2791 62.7137 38.0757 62.7137H45.0219L45.6315 64.1575L46.2571 65.6173L45.7758 66.1467C44.7652 67.3017 44.5246 68.9701 45.1983 70.2855C45.6154 71.1036 48.1661 73.5741 48.9682 73.9431C49.9628 74.3923 51.1018 74.3602 52.1124 73.8629C52.5616 73.6383 53.0429 73.3174 53.1872 73.157C53.4439 72.8683 53.5081 72.8843 54.8717 73.4458L56.2994 74.0233L56.4759 75.066C56.7004 76.4135 57.278 77.2317 58.4009 77.8252C59.203 78.2423 59.3634 78.2744 61.3366 78.2744C62.4916 78.2744 63.7108 78.1942 64.0477 78.098C65.3952 77.6809 66.3898 76.3815 66.5502 74.8093C66.5984 74.3281 66.7267 73.9431 66.8229 73.9431C66.9192 73.9431 67.5769 73.6864 68.2828 73.3816L69.5501 72.8201L70.0474 73.3014C71.058 74.28 72.7906 74.5527 74.0579 73.9431C74.8921 73.542 77.5871 70.8149 77.908 70.0449C78.4213 68.7936 78.1165 67.1252 77.1861 66.1627L76.7048 65.6654L77.2663 64.3981C77.5711 63.6922 77.8278 63.0185 77.8278 62.9062C77.8278 62.7939 78.0523 62.7137 78.4053 62.7137C79.448 62.7137 80.2822 62.3608 81.0362 61.5907C81.9826 60.6443 82.1591 60.0186 82.1591 57.4519C82.1591 55.4787 82.127 55.3183 81.7099 54.5162C81.1003 53.3452 80.2341 52.7516 78.9507 52.6233L77.9561 52.527L77.5871 51.5484C77.3786 51.003 77.1059 50.3453 76.9615 50.0726C76.7369 49.6395 76.7369 49.5753 76.9615 49.3828C77.1059 49.2705 77.4267 48.8053 77.6834 48.3561C78.5336 46.8802 78.2769 45.276 76.9454 43.8002L76.4 43.2066L76.3519 25.1594L76.3038 7.12816L75.8706 5.82876C75.1167 3.64705 73.5445 1.6418 71.9243 0.807617C70.2399 -0.0586548 71.9243 -0.0105286 38.0436 0.00551605C20.5257 0.0215607 6.40878 0.0857239 6.08794 0.165939ZM69.8549 3.45454C70.8334 3.79143 71.8762 4.80207 72.4697 6.02126L72.9349 6.96774L72.9831 14.1385L73.0312 21.3253H38.1238H3.21642L3.26455 14.2989C3.31267 7.44901 3.32871 7.27254 3.68164 6.39023C4.27519 4.91437 5.4623 3.7433 6.7617 3.34225C6.98629 3.27808 21.1032 3.21391 38.1399 3.21391C66.1011 3.19788 69.1811 3.22996 69.8549 3.45454ZM63.2295 41.4099C63.2295 42.196 63.3258 42.7574 63.5183 43.1424C63.7589 43.6558 63.9354 43.752 65.315 44.2012C66.1492 44.4739 67.4325 45.0033 68.1544 45.3562C68.8924 45.7252 69.6463 46.03 69.8549 46.03C70.3041 46.03 70.7853 45.7092 71.7799 44.7627L72.5339 44.0408L73.737 45.2279C74.3948 45.8856 74.9402 46.4952 74.9402 46.5915C74.9402 46.6877 74.5873 47.1209 74.1381 47.554C73.705 47.9871 73.2558 48.5807 73.1595 48.8694C72.9991 49.3667 73.0472 49.5432 73.7852 51.0511C74.2343 51.9495 74.7477 53.2008 74.9241 53.8264C75.4054 55.4467 75.7262 55.7033 77.4748 55.8156L78.8705 55.8958L78.9186 57.484C78.9507 58.5107 78.9026 59.1363 78.7742 59.2807C78.6459 59.4411 78.2128 59.5053 77.3465 59.5053C75.6781 59.5053 75.4375 59.6978 74.86 61.5426C74.6194 62.3287 74.106 63.5799 73.705 64.35C73.0472 65.6173 72.9991 65.7777 73.1595 66.275C73.2558 66.5798 73.705 67.1734 74.1381 67.6065C74.5873 68.0396 74.9402 68.4728 74.9402 68.569C74.9402 68.7776 72.6622 71.0555 72.4376 71.0555C72.3574 71.0555 71.8922 70.6545 71.4109 70.1732C70.2238 68.9701 69.9351 68.938 68.2346 69.8203C67.4646 70.2213 66.2133 70.7347 65.4433 70.9593C63.5985 71.5207 63.39 71.7774 63.39 73.4618C63.39 74.3281 63.3258 74.7612 63.1654 74.8896C63.021 75.0179 62.3954 75.066 61.3687 75.0339L59.7805 74.9858L59.7003 73.5902C59.588 71.8416 59.3313 71.5207 57.7111 71.0395C57.0854 70.847 55.8502 70.3336 54.9679 69.9005C53.5081 69.1626 53.3316 69.1144 52.8022 69.2749C52.4974 69.3711 51.8878 69.8042 51.4387 70.2534C51.0055 70.6866 50.5724 71.0555 50.4761 71.0555C50.3799 71.0555 49.7863 70.5261 49.1286 69.8684C47.8292 68.569 47.7971 68.3925 48.7757 67.7027C49.3532 67.2856 49.9147 66.4033 49.9147 65.9221C49.9147 65.7135 49.5938 64.9275 49.2088 64.1735C48.8238 63.4195 48.3426 62.2485 48.1501 61.5907C47.6207 59.8422 47.348 59.6015 45.6154 59.5053L44.2198 59.4251L44.1716 57.6123L44.1235 55.8156H45.2946C46.0806 55.8156 46.6421 55.7194 47.0271 55.5269C47.5405 55.2862 47.6367 55.1098 48.1501 53.5697C48.4709 52.6393 49.0003 51.388 49.3211 50.7784C49.642 50.1688 49.9147 49.5272 49.9147 49.3667C49.9147 48.8855 49.5136 48.2438 48.7276 47.4738C48.3265 47.0888 47.9896 46.6877 47.9896 46.6075C47.9896 46.3348 50.1232 44.2654 50.3959 44.2654C50.5403 44.2654 50.9414 44.5541 51.2782 44.9231C52.0162 45.6771 52.6258 46.03 53.1872 46.03C53.3958 46.03 54.1979 45.7092 54.9358 45.3242C55.6898 44.9231 56.8288 44.4418 57.4865 44.2654C58.2886 44.0248 58.8019 43.7681 59.1067 43.4472C59.5078 43.0141 59.5399 42.8697 59.5399 41.7307C59.5399 41.0409 59.588 40.4153 59.6522 40.3672C59.7003 40.303 60.5345 40.2549 61.497 40.2549H63.2295V41.4099Z" fill="black"></path>
  <path d="M13.6588 7.12761C12.6642 7.40033 11.3167 8.2666 10.8194 8.94036C9.92102 10.1596 9.72852 10.7531 9.72852 12.3413C9.72852 13.6086 9.79268 13.9936 10.0975 14.6032C10.691 15.8063 11.4931 16.6084 12.6482 17.1859C13.5946 17.6512 13.8834 17.7153 15.0224 17.7153C16.0972 17.7153 16.4662 17.6351 17.2683 17.2662C18.5035 16.6886 19.6264 15.5015 20.0756 14.2984C20.5569 13.0471 20.4767 11.1542 19.9152 10.0152C18.7922 7.70513 16.0811 6.46989 13.6588 7.12761ZM16.418 10.6889C17.3966 11.5712 17.4287 13.0311 16.4982 13.8973C15.7603 14.5711 14.9903 14.7155 14.1882 14.3305C12.6963 13.5925 12.4236 11.7798 13.6428 10.6729C14.3005 10.0633 15.7443 10.0793 16.418 10.6889Z" fill="#912CC6"></path>
  <path d="M27.7599 7.09605C24.9847 7.88211 23.2842 10.513 23.7815 13.2562C24.1184 15.085 25.2093 16.4806 26.9578 17.2988C28.2252 17.8923 30.0219 17.8923 31.3213 17.2827C32.4763 16.7533 33.4709 15.7748 34.0163 14.6037C34.3692 13.8497 34.4334 13.4808 34.4334 12.3418C34.4334 11.1707 34.3692 10.8499 33.9842 10.0638C32.8613 7.76982 30.086 6.43833 27.7599 7.09605ZM30.5031 10.7215C31.4656 11.4274 31.5138 12.9674 30.5994 13.8818C29.8935 14.5877 29.1235 14.716 28.2252 14.2829C27.3589 13.8658 26.9739 13.2401 26.9739 12.2776C26.9739 11.668 27.0701 11.4434 27.5033 10.9622C28.3214 10.0638 29.5085 9.96757 30.5031 10.7215Z" fill="#912CC6"></path>
  <path d="M46.9786 7.06345C43.69 7.83346 41.8292 11.491 43.1606 14.523C43.6098 15.5176 44.829 16.7528 45.8878 17.2662L46.7861 17.7153H55.2884C63.7906 17.7153 63.7906 17.7153 64.5767 17.3464C65.7959 16.8009 66.6461 15.9988 67.2397 14.8919C68.5391 12.4375 67.8172 9.48579 65.5071 7.89763C64.0954 6.91907 63.6784 6.88698 55.2082 6.90303C51.0212 6.91907 47.3155 6.98324 46.9786 7.06345ZM63.6944 10.5606C64.673 11.2664 64.9457 12.5338 64.304 13.4802C63.5661 14.6032 63.6623 14.5871 55.513 14.5871C51.4864 14.5871 47.9572 14.539 47.6684 14.4909C46.9786 14.3465 46.1284 13.4802 46.0001 12.7584C45.8557 12.0365 46.337 10.8494 46.8824 10.5606C47.6684 10.1435 48.3101 10.1114 55.6092 10.1435L63.149 10.1756L63.6944 10.5606Z" fill="#912CC6"></path>
  <path d="M59.0594 48.0518C56.3644 48.7577 53.8458 50.795 52.6747 53.2655C51.8405 54.982 51.6159 56.1851 51.7122 58.2706C51.7763 59.57 51.8886 60.1315 52.2416 61.0298C53.4126 63.9655 55.482 65.9547 58.4498 66.9974C59.9578 67.5429 62.5886 67.607 64.1126 67.1418C67.4494 66.1472 70.0321 63.5644 71.0267 60.2277C71.4599 58.7679 71.4278 56.3776 70.9626 54.8536C69.9359 51.5329 67.0804 48.8058 63.8399 48.0358C62.5726 47.747 60.2144 47.747 59.0594 48.0518ZM64.257 51.6132C68.3959 53.5542 69.3905 58.8481 66.2623 62.1527C63.086 65.5216 57.6317 64.6874 55.5783 60.5165C55.081 59.5058 54.9847 59.1208 54.9206 57.9979C54.8404 56.3455 55.1291 55.2547 55.9954 53.9553C56.7814 52.7682 58.0006 51.8377 59.3642 51.3565C60.8882 50.8271 62.7812 50.9233 64.257 51.6132Z" fill="#912CC6"></path>
  <path d="M25.4172 33.8379C25.2247 33.9182 24.952 34.1588 24.8076 34.3673C24.5028 34.8326 21.3426 47.8907 21.3105 48.8051C21.2944 49.3185 21.3746 49.511 21.8078 49.896C22.7222 50.7141 24.0055 50.3772 24.3905 49.1901C24.7595 48.0512 27.631 35.8111 27.6471 35.3459C27.6471 34.6721 27.3904 34.2069 26.8129 33.9182C26.2995 33.6454 25.9466 33.6294 25.4172 33.8379Z" fill="#912CC6"></path>
  <path d="M14.6876 35.1697C14.0138 35.5547 9.49 40.8005 9.2975 41.41C8.97666 42.4849 9.26541 42.9982 11.8321 45.8858C13.1155 47.3295 14.3186 48.645 14.4951 48.7894C14.6876 48.9658 15.0887 49.0781 15.4897 49.0781C16.4201 49.0781 17.0297 48.4525 17.0297 47.5221C17.0297 46.9125 16.9014 46.72 14.9443 44.5062C13.8053 43.2228 12.8588 42.0999 12.8588 42.0357C12.8588 41.9715 13.2759 41.4582 13.7893 40.8807C17.142 37.0948 17.0297 37.2391 17.0297 36.5493C17.0297 35.3301 15.7303 34.5601 14.6876 35.1697Z" fill="#912CC6"></path>
  <path d="M32.4585 35.3622C31.8971 35.8435 31.7366 36.4691 32.0254 37.1268C32.1377 37.3835 33.1163 38.5867 34.175 39.7738C35.2338 40.9609 36.1161 41.9876 36.1161 42.0357C36.1161 42.0999 35.2017 43.1586 34.0948 44.4099C31.6885 47.121 31.4318 47.7306 32.3783 48.661C32.6831 48.9819 32.9558 49.0781 33.4531 49.0781C33.8061 49.0781 34.2231 48.9819 34.3675 48.8696C35.0734 48.3402 39.501 43.1586 39.6614 42.6934C39.9983 41.6828 39.7416 41.1694 37.9128 39.084C36.9663 38.0091 35.7311 36.6456 35.1536 36.036C34.2392 35.1055 34.0306 34.9612 33.5173 34.9612C33.1323 34.9612 32.7794 35.0895 32.4585 35.3622Z" fill="#912CC6"></path>
  <path d="M23.4301 59.7457C22.4997 60.259 22.4515 61.5745 23.3338 62.3284C23.7509 62.6814 23.9434 62.7295 24.4728 62.6653C25.3712 62.537 25.8524 61.9595 25.8524 61.029C25.8524 60.4515 25.7722 60.2751 25.3551 59.9221C24.8097 59.4569 24.0878 59.3927 23.4301 59.7457Z" fill="black"></path>
</svg>
