<svg id="Layer_1" data-name="Layer 1" xmlns="http://www.w3.org/2000/svg" xmlns:xlink="http://www.w3.org/1999/xlink" viewBox="0 0 48 48"><defs><style>.cls-1{fill:none;}.cls-2{fill:#e6f7fe;}.cls-3{clip-path:url(#clip-path);}.cls-4{fill:#af2022;}</style><clipPath id="clip-path"><rect class="cls-1" x="12.72" y="12.31" width="23" height="23"/></clipPath></defs><path class="cls-2" d="M24,0h0A24,24,0,0,1,48,24h0A24,24,0,0,1,24,48h0A24,24,0,0,1,0,24H0A24,24,0,0,1,24,0Z"/><g class="cls-3"><path class="cls-4" d="M31.55,19.68a.55.55,0,0,0-.38.16.54.54,0,0,0-.15.38v3.37a6.42,6.42,0,0,1-.52,2.52,6.58,6.58,0,0,1-1.37,2.05,6.31,6.31,0,0,1-2.07,1.38A6.46,6.46,0,0,1,20,28.16a6.58,6.58,0,0,1-1.37-2.05,6.41,6.41,0,0,1-.51-2.52V20.22a.54.54,0,0,0-1.08,0v3.37a7.86,7.86,0,0,0,2,5.14,7.71,7.71,0,0,0,2.24,1.64,6.7,6.7,0,0,0,2.74.74v2.81H21.22a.55.55,0,0,0-.38.16.53.53,0,0,0,0,.75h0a.55.55,0,0,0,.38.16h6.65a.54.54,0,0,0,0-1.08H25.09V31.11a6.91,6.91,0,0,0,2.74-.74,7.66,7.66,0,0,0,2.23-1.64,7.14,7.14,0,0,0,1.49-2.33,7.51,7.51,0,0,0,.54-2.81V20.22a.54.54,0,0,0-.15-.38A.55.55,0,0,0,31.55,19.68ZM24.91,12h-.72A4.58,4.58,0,0,0,21,13.3a4.23,4.23,0,0,0-1.33,3.17V24A4.23,4.23,0,0,0,21,27.17a4.51,4.51,0,0,0,1.42.94,4.39,4.39,0,0,0,1.75.36h.72a4.55,4.55,0,0,0,3.16-1.3A4.23,4.23,0,0,0,29.38,24V16.47A4.49,4.49,0,0,0,29,14.74a4.66,4.66,0,0,0-1-1.44,4.36,4.36,0,0,0-1.41-.94A4.4,4.4,0,0,0,24.91,12Zm3.39,5.88h-2a.54.54,0,0,0-.38.93.54.54,0,0,0,.38.15h2v1.51h-2a.54.54,0,0,0-.38.15.54.54,0,0,0,.38.93h2v1.5h-2a.55.55,0,0,0-.38.16A.53.53,0,0,0,26,24L26,24a.55.55,0,0,0,.38.16h2A3.4,3.4,0,0,1,25,27.37h-.72a3.37,3.37,0,0,1-3.39-3.21h1.95a.54.54,0,1,0,0-1.08h-2v-1.5h1.95a.55.55,0,0,0,.54-.54.55.55,0,0,0-.16-.39.54.54,0,0,0-.38-.15H20.8V19h1.95a.54.54,0,0,0,.38-.15.55.55,0,0,0,.16-.39.55.55,0,0,0-.54-.54H20.8V16.47a3.3,3.3,0,0,1,.52-1.83,3.23,3.23,0,0,1,1.41-1.23v1.53a.54.54,0,0,0,.15.38.55.55,0,0,0,.39.16.52.52,0,0,0,.37-.16.5.5,0,0,0,.17-.38V13.1h1.48v1.84a.46.46,0,0,0,.17.38.52.52,0,0,0,.37.16.55.55,0,0,0,.39-.16.5.5,0,0,0,.17-.38V13.41a3.61,3.61,0,0,1,1.38,1.25,3.33,3.33,0,0,1,.53,1.81Z"/></g></svg>