<?xml version="1.0" encoding="UTF-8"?>
<svg xmlns="http://www.w3.org/2000/svg" width="28" height="35" viewBox="0 0 28 35" fill="none">
  <g clip-path="url(#clip0_8751_14559)">
    <path d="M23.8069 21.8604C23.5859 22.3941 23.3031 22.9001 22.9645 23.368C21.6385 25.2849 19.6345 26.6271 17.3573 27.1238C16.7708 27.2557 16.1738 27.3358 15.5733 27.3632C14.9685 27.3894 14.3626 27.3806 13.7589 27.3367C12.3584 27.2468 11.0597 26.8183 9.8219 26.1756C8.52269 25.5039 7.35524 24.6035 6.37557 23.5175C5.06566 22.0905 4.14841 20.348 3.71346 18.4604C3.5893 17.9039 3.51582 17.3374 3.49393 16.7676C3.42724 15.5172 3.65745 14.2687 4.16574 13.1243C4.4608 12.4967 4.8384 11.9114 5.28851 11.3839C5.57019 11.0388 5.84129 10.6857 6.11637 10.3352C6.12658 10.3202 6.14146 10.3091 6.15868 10.3035C6.09388 10.4661 6.01189 10.6288 5.94445 10.7901C5.65634 11.4879 5.47103 12.2238 5.3943 12.9748C5.23487 14.5876 5.48789 16.2144 6.12959 17.7026C6.73927 19.1526 7.64562 20.459 8.79038 21.5378C10.242 22.9436 12.0258 23.9591 13.9757 24.4895C14.4562 24.6134 14.945 24.7018 15.4384 24.754C15.9621 24.8209 16.4894 24.855 17.0174 24.8558C18.4655 24.8679 19.8975 24.5514 21.2056 23.9301C22.1696 23.4676 23.0223 22.8022 23.7051 21.9795C23.7395 21.9438 23.7738 21.8988 23.8069 21.8604Z" fill="#1169AE"></path>
    <path d="M24.3081 16.6511C24.1245 17.1723 23.8632 17.6627 23.5331 18.1058C22.4976 19.5235 21.1051 20.3725 19.3899 20.7124C18.6538 20.8501 17.9034 20.8946 17.1562 20.8447C16.712 20.8257 16.2699 20.7726 15.8338 20.686C15.2278 20.5423 14.6431 20.32 14.0947 20.0247C13.17 19.5494 12.3364 18.9146 11.6323 18.1495C10.6333 17.1033 9.95421 15.7933 9.67508 14.3739C9.40001 12.9549 9.53225 11.5729 10.2358 10.2861C10.4871 9.82856 10.8111 9.40935 11.106 8.97426C11.2316 8.78779 11.3639 8.60661 11.5027 8.42676C11.3097 8.80074 11.1564 9.19389 11.0451 9.59978C10.9283 10.0397 10.8605 10.4912 10.8428 10.946C10.7793 12.6057 11.2911 14.0961 12.2459 15.4252C13.4574 17.1536 15.2587 18.3798 17.311 18.8729C18.0567 19.0639 18.8277 19.1376 19.5962 19.0911C20.9401 19.0343 22.2316 18.5538 23.2858 17.7184C23.6397 17.4353 23.9572 17.1097 24.2314 16.749C24.2565 16.7159 24.283 16.6842 24.3081 16.6511Z" fill="#1169AE"></path>
    <path d="M23.6509 12.9563C23.483 13.269 23.2817 13.5625 23.0505 13.8318C22.4353 14.5452 21.5762 15.0035 20.641 15.1172C19.9686 15.2182 19.2829 15.1858 18.6229 15.022C17.7123 14.7803 16.8821 14.3011 16.2174 13.6334C15.5698 13.0215 15.1019 12.244 14.8645 11.3852C14.5392 10.1408 14.723 8.98234 15.494 7.93363C15.6157 7.76832 15.7347 7.60037 15.8564 7.43506C15.8564 7.43506 15.8564 7.43506 15.8471 7.43506C15.7717 7.66517 15.6739 7.90718 15.6117 8.15712C15.4142 8.9681 15.4861 9.82136 15.8167 10.5878C16.5348 12.3427 17.8295 13.4443 19.6664 13.9045C20.2033 14.0414 20.7585 14.0931 21.3115 14.0579C22.2108 13.9997 22.9937 13.681 23.598 12.9881C23.6093 12.971 23.6178 12.9523 23.6232 12.9325L23.6509 12.9563Z" fill="#1169AE"></path>
  </g>
  <defs>
    <clipPath id="clip0_8751_14559">
      <rect width="26.4492" height="33.6626" fill="white" transform="translate(0.671753 0.571045)"></rect>
    </clipPath>
  </defs>
</svg>
