<?xml version="1.0" encoding="UTF-8"?>
<svg xmlns="http://www.w3.org/2000/svg" width="33" height="33" viewBox="0 0 33 33" fill="none">
  <mask id="mask0_20408_8302" style="mask-type:alpha" maskUnits="userSpaceOnUse" x="0" y="0" width="33" height="33">
    <rect width="33" height="33" fill="#D9D9D9"></rect>
  </mask>
  <g mask="url(#mask0_20408_8302)">
    <path d="M16.5 30.25C14.5979 30.25 12.9766 29.5797 11.6359 28.2391C10.2953 26.8984 9.625 25.2771 9.625 23.375V11C8.86875 11 8.22135 10.7307 7.68281 10.1922C7.14427 9.65365 6.875 9.00625 6.875 8.25V5.5C6.875 4.74375 7.14427 4.09635 7.68281 3.55781C8.22135 3.01927 8.86875 2.75 9.625 2.75H23.375C24.1313 2.75 24.7786 3.01927 25.3172 3.55781C25.8557 4.09635 26.125 4.74375 26.125 5.5V8.25C26.125 9.00625 25.8557 9.65365 25.3172 10.1922C24.7786 10.7307 24.1313 11 23.375 11V23.375C23.375 25.2771 22.7047 26.8984 21.3641 28.2391C20.0234 29.5797 18.4021 30.25 16.5 30.25ZM9.625 8.25H23.375V5.5H9.625V8.25ZM16.5 27.5C17.3938 27.5 18.1958 27.2422 18.9062 26.7266C19.6167 26.2109 20.1094 25.5521 20.3844 24.75H16.5V22H20.625V20.625H16.5V17.875H20.625V16.5H16.5V13.75H20.625V11H12.375V23.375C12.375 24.5208 12.776 25.4948 13.5781 26.2969C14.3802 27.099 15.3542 27.5 16.5 27.5Z" fill="#511374"></path>
  </g>
</svg>
