<?xml version="1.0" encoding="UTF-8"?>
<svg xmlns="http://www.w3.org/2000/svg" width="27" height="35" viewBox="0 0 27 35" fill="none">
  <g clip-path="url(#clip0_8751_13494)">
    <g clip-path="url(#clip1_8751_13494)">
      <path d="M26.655 9.8017C26.655 9.78893 26.6439 9.77786 26.6405 9.76595C26.633 9.7432 26.6239 9.72102 26.6133 9.69958C26.6045 9.68618 26.5948 9.67339 26.5843 9.66128C26.5726 9.64401 26.5599 9.62752 26.546 9.61192C26.5328 9.60031 26.5189 9.58951 26.5043 9.57959C26.4898 9.56631 26.4742 9.55435 26.4575 9.54384L21.3387 6.59596C21.2741 6.55862 21.2007 6.53896 21.126 6.53896C21.0513 6.53896 20.9779 6.55862 20.9132 6.59596L15.7945 9.54384C15.778 9.55466 15.7624 9.5666 15.7476 9.57959C15.7331 9.58951 15.7192 9.60031 15.7059 9.61192C15.6921 9.62752 15.6793 9.64402 15.6676 9.66128C15.6572 9.67339 15.6475 9.68618 15.6387 9.69958C15.6276 9.72083 15.6185 9.74305 15.6115 9.76595C15.6057 9.77744 15.6008 9.7894 15.597 9.8017C15.5873 9.83806 15.5824 9.87554 15.5826 9.91318V15.5119L11.3165 17.9688V7.01466C11.3166 6.97702 11.3117 6.93953 11.302 6.90318C11.302 6.89041 11.2909 6.87935 11.2875 6.86743C11.2801 6.84468 11.271 6.8225 11.2603 6.80106C11.2515 6.78766 11.2419 6.77486 11.2314 6.76276C11.2197 6.74549 11.2069 6.729 11.1931 6.7134C11.1798 6.70179 11.1659 6.69099 11.1514 6.68106C11.1369 6.66779 11.1212 6.65583 11.1046 6.64532L5.98578 3.69745C5.9211 3.6601 5.84772 3.64044 5.77303 3.64044C5.69834 3.64044 5.62497 3.6601 5.56028 3.69745L0.437245 6.64532C0.420836 6.65614 0.405197 6.66808 0.390439 6.68106C0.375899 6.69099 0.361971 6.70179 0.348737 6.7134C0.33491 6.729 0.322119 6.74549 0.310443 6.76276C0.299957 6.77487 0.290294 6.78767 0.281512 6.80106C0.270439 6.82231 0.26132 6.84453 0.254276 6.86743C0.248471 6.87893 0.243634 6.89088 0.23981 6.90318C0.230078 6.93953 0.225215 6.97702 0.225344 7.01466V24.5453C0.225133 24.6204 0.244777 24.6942 0.282291 24.7592C0.319805 24.8242 0.373854 24.8781 0.438946 24.9155L10.6782 30.8104C10.701 30.8219 10.7246 30.8316 10.7488 30.8393L10.782 30.853C10.8536 30.8725 10.9292 30.8725 11.0007 30.853C11.0101 30.853 11.0195 30.8445 11.0288 30.8411C11.0543 30.8329 11.0791 30.8226 11.1029 30.8104L21.3464 24.9198C21.4115 24.8824 21.4655 24.8285 21.503 24.7634C21.5406 24.6984 21.5602 24.6246 21.56 24.5496V18.9508L26.4652 16.1264C26.5303 16.089 26.5843 16.035 26.6218 15.97C26.6593 15.905 26.679 15.8312 26.6788 15.7562V9.91233C26.6743 9.87512 26.6678 9.83819 26.6592 9.8017H26.655ZM10.8791 24.0594L6.62404 21.6494L11.0961 19.0751L16.0021 16.2506L20.2648 18.7074L17.1373 20.4946L10.8791 24.0594ZM20.6928 13.1078V17.9688L18.9006 16.9374L16.425 15.5128V10.651L18.2173 11.6824L20.6928 13.1078ZM21.1183 7.45803L25.3827 9.91403L21.1183 12.37L16.854 9.91403L21.1183 7.45803ZM7.98564 19.8835L6.19343 20.915V10.2093L8.66645 8.78474L10.4587 7.75333V18.4581L7.98564 19.8835ZM5.76452 4.56036L10.0281 7.01636L5.76452 9.47151L1.50015 7.01551L5.76452 4.56036ZM1.07124 7.75248L2.8626 8.78474L5.33817 10.2093V21.6519C5.33942 21.6679 5.3417 21.6838 5.34498 21.6996C5.34639 21.7205 5.34924 21.7412 5.35349 21.7617C5.3593 21.778 5.36612 21.7939 5.37391 21.8094C5.38026 21.8276 5.38765 21.8455 5.39604 21.863C5.40597 21.8772 5.41677 21.8909 5.42838 21.9038C5.43891 21.9197 5.45057 21.9347 5.46327 21.9489C5.47628 21.9602 5.48991 21.9707 5.50411 21.9804C5.51877 21.9929 5.53412 22.0045 5.55007 22.0153L10.4536 24.7904V29.699L1.06443 24.296L1.07124 7.75248ZM20.6971 24.3028L11.3105 29.7067V24.7972L18.2615 20.829L20.6962 19.4393L20.6971 24.3028ZM25.8159 15.5111L21.5498 17.9679V13.107L24.0254 11.6824L25.8176 10.651V15.5119L25.8159 15.5111Z" fill="#FF2D20"></path>
    </g>
  </g>
  <defs>
    <clipPath id="clip0_8751_13494">
      <rect width="26.4492" height="33.6626" fill="white" transform="translate(0.224609 0.424805)"></rect>
    </clipPath>
    <clipPath id="clip1_8751_13494">
      <rect width="26.4492" height="27.2313" fill="white" transform="translate(0.224609 3.64044)"></rect>
    </clipPath>
  </defs>
</svg>
