<?xml version="1.0" encoding="UTF-8"?>
<svg xmlns="http://www.w3.org/2000/svg" width="80" height="80" viewBox="0 0 80 80" fill="none">
  <rect width="80" height="80" rx="16" fill="white" fill-opacity="0.1"></rect>
  <mask id="mask0_13263_4749" style="mask-type:alpha" maskUnits="userSpaceOnUse" x="22" y="22" width="36" height="36">
    <rect x="22" y="22" width="36" height="36" fill="white"></rect>
  </mask>
  <g mask="url(#mask0_13263_4749)">
    <path d="M40 56.5L35.5 52H29.5C28.675 52 27.9688 51.7063 27.3813 51.1188C26.7938 50.5313 26.5 49.825 26.5 49V28C26.5 27.175 26.7938 26.4688 27.3813 25.8813C27.9688 25.2938 28.675 25 29.5 25H50.5C51.325 25 52.0313 25.2938 52.6188 25.8813C53.2063 26.4688 53.5 27.175 53.5 28V49C53.5 49.825 53.2063 50.5313 52.6188 51.1188C52.0313 51.7063 51.325 52 50.5 52H44.5L40 56.5ZM40 40C41.45 40 42.6875 39.4875 43.7125 38.4625C44.7375 37.4375 45.25 36.2 45.25 34.75C45.25 33.3 44.7375 32.0625 43.7125 31.0375C42.6875 30.0125 41.45 29.5 40 29.5C38.55 29.5 37.3125 30.0125 36.2875 31.0375C35.2625 32.0625 34.75 33.3 34.75 34.75C34.75 36.2 35.2625 37.4375 36.2875 38.4625C37.3125 39.4875 38.55 40 40 40ZM40 52.3L43.3 49H50.5V47.275C49.15 45.95 47.5813 44.9062 45.7938 44.1437C44.0063 43.3812 42.075 43 40 43C37.925 43 35.9938 43.3812 34.2063 44.1437C32.4188 44.9062 30.85 45.95 29.5 47.275V49H36.7L40 52.3Z" fill="white"></path>
  </g>
  <rect x="0.5" y="0.5" width="79" height="79" rx="15.5" stroke="#656565" stroke-opacity="0.1"></rect>
</svg>
