<svg fill="none" height="28" viewBox="0 0 24 28" width="24" xmlns="http://www.w3.org/2000/svg"><g clip-rule="evenodd" fill-rule="evenodd"><path d="m.0390625 1.25781h2.2305075v17.26959h8.82063v2.1291h-11.0511374z" fill="#000"/><path d="m17.1713 6.34262c1.5208-.23657 3.1429.11829 4.3596 1.30113 1.318 1.06456 2.0277 2.95715 2.1291 4.73135.2028 2.1292 0 4.2583-1.0139 6.0326-.9124 1.4194-2.3319 2.3656-3.954 2.4839-1.5208.2366-3.2444-.1183-4.5625-1.3011-1.2166-1.1828-1.8249-2.9571-2.0277-4.7314-.2028-1.8925 0-4.0217 1.0139-5.67765.8111-1.65598 2.4333-2.72054 4.0555-2.83883zm.3041 2.01084c1.0139-.11829 2.1291.23657 2.9402 1.06456.7097.94628 1.1153 2.12908 1.2167 3.31198.1014 1.3011 0 2.7205-.507 3.9034-.5069 1.1828-1.4194 2.0108-2.5346 2.2474-1.0139.2366-2.1292-.1183-2.8389-.828-.8111-.7097-1.318-1.7743-1.5208-2.8388-.2027-1.5377-.1014-3.0754.4056-4.4948.5069-1.30118 1.6222-2.24746 2.8388-2.36574z" fill="#000"/><path d="m.0390625 23.7305h23.9273375v2.9571h-23.9273375z" fill="#3492ff"/></g></svg>