<svg id="Layer_1" data-name="Layer 1" xmlns="http://www.w3.org/2000/svg" xmlns:xlink="http://www.w3.org/1999/xlink" viewBox="0 0 20.02 19"><defs><style>.cls-1{fill:none;}.cls-2{clip-path:url(#clip-path);}.cls-3{fill:#912cc6;}</style><clipPath id="clip-path" transform="translate(-3.48 -8)"><rect class="cls-1" x="3.5" y="8" width="21" height="19"/></clipPath></defs><g class="cls-2"><path class="cls-3" d="M21.5,12h-4V10a2,2,0,0,0-.6-1.42A1.88,1.88,0,0,0,15.5,8h-4a1.88,1.88,0,0,0-1.4.58A1.92,1.92,0,0,0,9.5,10v2h-4a1.85,1.85,0,0,0-1.38.58A1.92,1.92,0,0,0,3.5,14l0,11a1.94,1.94,0,0,0,.58,1.42,1.88,1.88,0,0,0,1.4.58H21.52a1.88,1.88,0,0,0,1.4-.58A1.94,1.94,0,0,0,23.5,25V14a1.92,1.92,0,0,0-.58-1.41,1.88,1.88,0,0,0-1.4-.58h0Zm-6,0h-4V10h4Z" transform="translate(-3.48 -8)"/></g></svg>