<?xml version="1.0" encoding="UTF-8"?>
<svg xmlns="http://www.w3.org/2000/svg" width="74" height="74" viewBox="0 0 74 74" fill="none">
  <mask id="mask0_1760_10355" style="mask-type:alpha" maskUnits="userSpaceOnUse" x="0" y="0" width="74" height="74">
    <rect width="74" height="74" fill="#D9D9D9"></rect>
  </mask>
  <g mask="url(#mask0_1760_10355)">
    <path d="M37 32.3751C33.6083 32.3751 30.4479 31.7451 27.5187 30.485C24.5896 29.227 21.9944 27.4932 19.7333 25.2834L25.2833 21.9689C26.5167 22.9966 27.8528 23.8445 29.2917 24.5126C30.7306 25.1807 32.2722 25.6432 33.9167 25.9001V9.55843L37 7.70844L40.0833 9.55843V25.9001C41.7278 25.6432 43.2694 25.1807 44.7083 24.5126C46.1472 23.8445 47.4833 22.9966 48.7167 21.9689L54.2667 25.2834C52.0056 27.4932 49.4104 29.227 46.4812 30.485C43.5521 31.7451 40.3917 32.3751 37 32.3751ZM33.2229 61.2813L27.5187 58.2751C27.6215 57.8126 27.6863 57.3501 27.713 56.8876C27.7377 56.4251 27.75 55.9626 27.75 55.5001C27.75 54.3182 27.6472 53.1496 27.4417 51.9944C27.2361 50.8371 26.9278 49.7445 26.5167 48.7168L12.4104 57.1959L9.25 55.5001V51.8772L23.2792 43.4751C22.2514 42.2932 21.0694 41.2397 19.7333 40.3147C18.3972 39.3897 16.9583 38.6445 15.4167 38.0793V31.6043C20.7611 32.9918 25.1806 35.8819 28.675 40.2746C32.1694 44.6694 33.9167 49.7445 33.9167 55.5001C33.9167 56.5279 33.8653 57.5166 33.7625 58.4663C33.6597 59.418 33.4799 60.3563 33.2229 61.2813ZM40.7771 61.2813C40.5201 60.3563 40.3403 59.418 40.2375 58.4663C40.1347 57.5166 40.0833 56.5279 40.0833 55.5001C40.0833 49.7445 41.8306 44.6694 45.325 40.2746C48.8194 35.8819 53.2389 32.9918 58.5833 31.6043V38.0793C57.0417 38.6445 55.6028 39.3897 54.2667 40.3147C52.9306 41.2397 51.7486 42.2932 50.7208 43.4751L64.75 51.8772V55.5001L61.5896 57.1959L47.4833 48.7168C47.0722 49.7445 46.7639 50.8371 46.5583 51.9944C46.3528 53.1496 46.25 54.3182 46.25 55.5001C46.25 55.9626 46.2623 56.4251 46.287 56.8876C46.3137 57.3501 46.3785 57.8126 46.4812 58.2751L40.7771 61.2813Z" fill="#1C1B1F"></path>
  </g>
</svg>
