<svg fill="none" height="40" viewBox="0 0 40 40" width="40" xmlns="http://www.w3.org/2000/svg"><path d="m2.5 13.7625v7.5375c.00032.9956.39512 1.9505 1.09795 2.6557.70284.7052 1.65644 1.1032 2.65205 1.1068h6.25v-15.0625h-6.25c-.99561.0036-1.94921.4016-2.65205 1.1068-.70283.7052-1.09763 1.6601-1.09795 2.6557zm23.35-6.8625c-.5059-.34398-1.0886-.55811-1.6969-.62352-.6082-.0654-1.2232.01995-1.7906.24852l-7.3625 2.9375v16.2l7.3625 2.9375c.442.1735.9127.2625 1.3875.2625.4929.0017.9813-.0942 1.437-.2821s.8698-.464 1.2183-.8126c.3486-.3485.6247-.7626.8126-1.2183s.2838-.9441.2821-1.437v-15.1125c0-.61235-.1505-1.21531-.4382-1.75586s-.7039-1.00213-1.2118-1.34414zm-20.85 24.4125c0 .9946.39509 1.9484 1.09835 2.6516.70326.7033 1.65709 1.0984 2.65165 1.0984s1.9484-.3951 2.6517-1.0984c.7032-.7032 1.0983-1.657 1.0983-2.6516v-3.8125h-7.5zm31.25-15.0025h-3.75c-.3315 0-.6495.1317-.8839.3661s-.3661.5524-.3661.8839.1317.6495.3661.8839.5524.3661.8839.3661h3.75c.3315 0 .6495-.1317.8839-.3661s.3661-.5524.3661-.8839-.1317-.6495-.3661-.8839-.5524-.3661-.8839-.3661zm-3.75-6.25c.1936 0 .3846-.0454.5575-.1325l2.5-1.25c.1481-.07259.2804-.17379.3893-.29776.1088-.12397.1921-.26826.2449-.42455s.0741-.32149.0628-.48607c-.0113-.16459-.0551-.3253-.1289-.47287-.0737-.14757-.1759-.27909-.3008-.38696-.1248-.10788-.2697-.18998-.4264-.24157s-.3221-.07166-.4866-.05904c-.1644.01262-.3248.05768-.4718.13257l-2.5 1.25c-.2523.12576-.4547.33313-.5743.58843-.1197.2553-.1495.54354-.0846.81791s.2206.51875.4419.69346c.2212.17472.4951.26945.777.26895zm3.0588 16.3812-2.5-1.25c-.147-.0748-.3074-.1199-.4719-.1325s-.3298.0074-.4865.059-.3017.1337-.4265.2416-.227.2394-.3008.387c-.0737.1475-.1175.3082-.1289.4728-.0113.1646.0101.3298.0629.4861s.136.3006.2449.4245c.1088.124.2411.2252.3892.2978l2.5 1.25c.173.0871.3639.1325.5575.1325.282.0005.5558-.0942.7771-.2689.2213-.1748.377-.4191.4418-.6935.0649-.2744.0351-.5626-.0845-.8179s-.322-.4627-.5743-.5885z" fill="#000"/></svg>