<?xml version="1.0" encoding="UTF-8"?>
<svg xmlns="http://www.w3.org/2000/svg" width="28" height="34" viewBox="0 0 28 34" fill="none">
  <g clip-path="url(#clip0_8751_17553)">
    <g clip-path="url(#clip1_8751_17553)">
      <path fill-rule="evenodd" clip-rule="evenodd" d="M14.5272 30.351L13.823 30.1105C13.823 30.1105 13.9056 26.5208 12.6204 26.2638C11.7616 25.2678 12.7584 -15.9863 15.8497 26.1266C15.2578 26.4235 14.8071 26.9421 14.5958 27.5697C14.4753 28.4921 14.4523 29.4238 14.5272 30.351Z" fill="white"></path>
      <path fill-rule="evenodd" clip-rule="evenodd" d="M14.5272 30.351L13.823 30.1105C13.823 30.1105 13.9056 26.5208 12.6204 26.2638C11.7616 25.2678 12.7584 -15.9863 15.8497 26.1266C15.2578 26.4235 14.8071 26.9421 14.5958 27.5697C14.4753 28.4921 14.4523 29.4238 14.5272 30.351Z" fill="#A6A385"></path>
      <path fill-rule="evenodd" clip-rule="evenodd" d="M14.9048 26.8815C16.7935 25.4609 18.2399 23.5332 19.076 21.3228C19.9121 19.1123 20.1034 16.7099 19.6276 14.395C18.2366 8.26456 14.9569 6.25525 14.5957 5.48079C14.2893 5.0039 14.0305 4.49811 13.8229 3.9707L14.0808 21.0246C14.0808 21.042 13.5485 26.2459 14.9073 26.8815" fill="white"></path>
      <path fill-rule="evenodd" clip-rule="evenodd" d="M14.9048 26.8815C16.7935 25.4609 18.2399 23.5332 19.076 21.3228C19.9121 19.1123 20.1034 16.7099 19.6276 14.395C18.2366 8.26456 14.9569 6.25525 14.5957 5.48079C14.2893 5.0039 14.0305 4.49811 13.8229 3.9707L14.0808 21.0246C14.0808 21.042 13.5485 26.2459 14.9073 26.8815" fill="#499D4A"></path>
      <path fill-rule="evenodd" clip-rule="evenodd" d="M13.4584 27.1053C13.4584 27.1053 7.67268 23.1577 8.01818 16.1991C8.34879 9.24298 12.4319 5.82525 13.2254 5.20617C13.4138 5.04664 13.5628 4.84566 13.6606 4.61895C13.7584 4.39224 13.8023 4.14596 13.7891 3.89941C14.1494 4.67223 14.0808 15.4577 14.1321 16.7289C14.285 21.6262 13.8577 26.1779 13.4584 27.1053Z" fill="white"></path>
      <path fill-rule="evenodd" clip-rule="evenodd" d="M13.4584 27.1053C13.4584 27.1053 7.67268 23.1577 8.01818 16.1991C8.34879 9.24298 12.4319 5.82525 13.2254 5.20617C13.4138 5.04664 13.5628 4.84566 13.6606 4.61895C13.7584 4.39224 13.8023 4.14596 13.7891 3.89941C14.1494 4.67223 14.0808 15.4577 14.1321 16.7289C14.285 21.6262 13.8577 26.1779 13.4584 27.1053Z" fill="#58AA50"></path>
    </g>
  </g>
  <defs>
    <clipPath id="clip0_8751_17553">
      <rect width="26.4492" height="33.6626" fill="white" transform="translate(0.56604 0.294922)"></rect>
    </clipPath>
    <clipPath id="clip1_8751_17553">
      <rect width="26.4492" height="26.4525" fill="white" transform="translate(0.56604 3.89941)"></rect>
    </clipPath>
  </defs>
</svg>
