<?xml version="1.0" encoding="UTF-8"?>
<svg xmlns="http://www.w3.org/2000/svg" width="28" height="35" viewBox="0 0 28 35" fill="none">
  <g clip-path="url(#clip0_8751_14411)">
    <path d="M3.6178 21.8329H4.28809V19.186L5.32572 21.4935C5.44817 21.7727 5.61577 21.8716 5.94444 21.8716C6.27316 21.8716 6.43429 21.7728 6.55679 21.4935L7.59443 19.186V21.8328H8.26471V19.1904C8.26471 18.9325 8.16158 18.8079 7.94893 18.7435C7.43977 18.5845 7.09816 18.722 6.94345 19.0658L5.92513 21.343L4.93906 19.0658C4.79083 18.722 4.44279 18.5845 3.93363 18.7435C3.72094 18.8079 3.6178 18.9326 3.6178 19.1903V21.8329ZM8.82205 19.6785H9.49213V21.1367C9.48586 21.216 9.51755 21.4019 9.88474 21.4076C10.0721 21.4106 11.3305 21.4076 11.3423 21.4076V19.6714H12.0139C12.017 19.6714 12.0132 22.0392 12.0133 22.0492C12.017 22.6332 11.2887 22.76 10.9531 22.7698H8.83656V22.3189C8.84032 22.3189 10.9515 22.3194 10.9568 22.3188C11.3882 22.2733 11.3373 22.0589 11.3372 21.9867V21.8109H9.91251C9.24963 21.8048 8.82758 21.5154 8.82236 21.1827C8.82184 21.1519 8.83666 19.6931 8.822 19.6784L8.82205 19.6785Z" fill="#00618A"></path>
    <path d="M12.5307 21.8328H14.4577C14.6833 21.8328 14.9024 21.7856 15.0765 21.7039C15.3665 21.5708 15.5083 21.3903 15.5083 21.1539V20.6641C15.5083 20.4708 15.3472 20.2903 15.0314 20.17C14.8638 20.1055 14.6575 20.0712 14.4577 20.0712H13.6456C13.375 20.0712 13.2461 19.9895 13.2139 19.8091C13.2074 19.7876 13.2074 19.7704 13.2074 19.7489V19.4439C13.2074 19.4266 13.2074 19.4094 13.2139 19.388C13.2461 19.2505 13.317 19.2118 13.5554 19.1903C13.5747 19.1903 13.6005 19.186 13.6199 19.186H15.5341V18.7392H13.6521C13.3814 18.7392 13.2396 18.7564 13.1107 18.795C12.7111 18.9196 12.5371 19.1173 12.5371 19.461V19.852C12.5371 20.1528 12.8787 20.4106 13.4523 20.4708C13.5168 20.475 13.5812 20.4793 13.6456 20.4793H14.3417C14.3675 20.4793 14.3933 20.4793 14.4126 20.4836C14.6253 20.5009 14.7155 20.5395 14.78 20.6168C14.8187 20.6555 14.8315 20.6942 14.8315 20.7372V21.1281C14.8315 21.1754 14.7993 21.2356 14.7349 21.2871C14.6769 21.3387 14.5802 21.3731 14.4513 21.3817C14.4255 21.3817 14.4062 21.386 14.3804 21.386H12.5306V21.8328L12.5307 21.8328ZM19.6897 21.0551C19.6897 21.5149 20.0313 21.7727 20.721 21.8243C20.7854 21.8286 20.8499 21.8328 20.9143 21.8328H22.6609V21.386H20.9014C20.5083 21.386 20.36 21.2871 20.36 21.0508V18.7391H19.6897V21.0551ZM15.9361 21.0786V19.4854C15.9361 19.0807 16.2203 18.8352 16.7821 18.7577C16.842 18.7492 16.9025 18.7449 16.963 18.7448H18.2353C18.2998 18.7448 18.358 18.7492 18.4226 18.7577C18.9845 18.8352 19.2686 19.0807 19.2686 19.4854V21.0785C19.2686 21.4068 19.148 21.5826 18.8698 21.6971L19.5301 22.2931H18.7518L18.2176 21.8109L17.6799 21.845H16.963C16.8403 21.845 16.7111 21.8277 16.569 21.789C16.1428 21.6728 15.9361 21.4488 15.9361 21.0785V21.0786ZM16.6595 21.0398C16.6595 21.0614 16.666 21.0829 16.6725 21.1087C16.7112 21.2939 16.8856 21.3972 17.1504 21.3972H17.7593L17.1999 20.8922H17.9782L18.4661 21.3326C18.556 21.2847 18.6152 21.2115 18.6358 21.1173C18.6422 21.0958 18.6422 21.0743 18.6422 21.0528V19.5243C18.6422 19.507 18.6422 19.4855 18.6358 19.4639C18.597 19.2917 18.4227 19.1927 18.1644 19.1927H17.1504C16.8533 19.1927 16.6596 19.3219 16.6596 19.5243V21.0398H16.6595Z" fill="#E48E00"></path>
    <path d="M23.2504 17.9978C22.8385 17.9866 22.5237 18.0249 22.2547 18.1384C22.1782 18.1706 22.0563 18.1715 22.0438 18.2673C22.0858 18.3113 22.0923 18.3771 22.1257 18.4313C22.1899 18.5353 22.2984 18.6746 22.3952 18.7476C22.501 18.8275 22.6099 18.9128 22.7233 18.982C22.9249 19.1049 23.1501 19.1751 23.3442 19.2983C23.4586 19.3709 23.5723 19.4623 23.684 19.5443C23.7391 19.5848 23.7762 19.6478 23.848 19.6732V19.6615C23.8103 19.6135 23.8006 19.5475 23.766 19.4974L23.6137 19.3451C23.4647 19.1475 23.2757 18.9739 23.0747 18.8296C22.9145 18.7146 22.5558 18.5593 22.489 18.3727L22.4772 18.361C22.5908 18.3482 22.7239 18.3071 22.8287 18.279C23.0049 18.2317 23.1623 18.244 23.3442 18.197C23.4262 18.1736 23.5082 18.1501 23.5903 18.1267V18.0798C23.4983 17.9854 23.4327 17.8606 23.3324 17.7752C23.0702 17.5518 22.7838 17.3286 22.489 17.1425C22.3254 17.0393 22.1233 16.9722 21.95 16.8848C21.8917 16.8554 21.7893 16.8401 21.7508 16.791C21.6598 16.675 21.6102 16.5278 21.54 16.3927C21.3929 16.1095 21.2485 15.8002 21.1182 15.5022C21.0293 15.2991 20.9713 15.0987 20.8605 14.9164C20.3285 14.0418 19.7559 13.514 18.8688 12.995C18.6801 12.8847 18.4528 12.8411 18.2127 12.7842L17.8261 12.7607C17.7474 12.7278 17.6656 12.6316 17.5917 12.5849C17.2979 12.3993 16.5442 11.9955 16.3265 12.5264C16.1891 12.8615 16.5319 13.1885 16.6545 13.3583C16.7406 13.4774 16.8508 13.6109 16.9122 13.7449C16.9527 13.8329 16.9597 13.9212 16.9943 14.0143C17.0795 14.2438 17.1535 14.4935 17.2637 14.7056C17.3194 14.8129 17.3808 14.9259 17.4512 15.0219C17.4944 15.0808 17.5683 15.1067 17.58 15.1977C17.5077 15.2989 17.5036 15.456 17.4629 15.5843C17.2798 16.1616 17.3489 16.8792 17.6152 17.3065C17.6969 17.4377 17.8894 17.719 18.1541 17.6111C18.3857 17.5168 18.3339 17.2246 18.4002 16.9668C18.4151 16.9083 18.4059 16.8653 18.4353 16.8262V16.8379L18.6462 17.2597C18.8022 17.511 19.0793 17.7737 19.314 17.9509C19.4357 18.0429 19.5315 18.2018 19.6889 18.2555V18.2438H19.6772C19.6467 18.1963 19.599 18.1766 19.56 18.1384C19.4683 18.0485 19.3664 17.9367 19.2906 17.8338C19.0771 17.5439 18.8884 17.2267 18.7165 16.8965C18.6344 16.7389 18.5631 16.5649 18.4939 16.4044C18.4672 16.3426 18.4675 16.249 18.4119 16.2169C18.3361 16.3345 18.2245 16.4296 18.1659 16.5685C18.0721 16.7904 18.06 17.061 18.0253 17.3417C18.0047 17.349 18.0138 17.344 18.0018 17.3534C17.8387 17.314 17.7813 17.146 17.7207 17.0019C17.5672 16.6375 17.5388 16.0507 17.6737 15.6312C17.7087 15.5226 17.8665 15.1807 17.8026 15.0805C17.7722 14.9805 17.6715 14.9226 17.6152 14.8462C17.5455 14.7517 17.476 14.6272 17.4277 14.5181C17.3022 14.2339 17.2436 13.915 17.1114 13.6277C17.0483 13.4904 16.9414 13.3515 16.8537 13.2294C16.7565 13.0942 16.6478 12.9945 16.5725 12.831C16.5457 12.7729 16.5094 12.6799 16.549 12.6201C16.5617 12.5798 16.5795 12.563 16.6194 12.5498C16.6873 12.4975 16.8766 12.5672 16.9474 12.5967C17.1353 12.6747 17.2921 12.749 17.4512 12.8544C17.5276 12.9051 17.6049 13.0031 17.6972 13.0302H17.8026C17.9676 13.0681 18.1523 13.042 18.3064 13.0888C18.5788 13.1716 18.8228 13.3003 19.0445 13.4403C19.7198 13.8666 20.2719 14.4736 20.6496 15.1977C20.7104 15.3142 20.7367 15.4255 20.7902 15.5491C20.8982 15.7985 21.0342 16.0551 21.1416 16.299C21.2488 16.5422 21.3533 16.7878 21.5048 16.9902C21.5845 17.0967 21.8922 17.1538 22.032 17.2128C22.1301 17.2542 22.2907 17.2974 22.3835 17.3534C22.5609 17.4604 22.7327 17.5877 22.8991 17.7049C22.9822 17.7635 23.2377 17.8919 23.2504 17.9978Z" fill="#00618A"></path>
    <path fill-rule="evenodd" clip-rule="evenodd" d="M18.0137 13.5341C17.9277 13.5325 17.867 13.5435 17.8027 13.5575V13.5692H17.8145C17.8555 13.6534 17.9277 13.7076 17.9785 13.7801C18.0175 13.8621 18.0566 13.9441 18.0957 14.0261L18.1073 14.0144C18.1799 13.9633 18.2131 13.8815 18.2128 13.7567C18.1837 13.7261 18.1794 13.6877 18.1542 13.6512C18.1207 13.6026 18.0559 13.575 18.0137 13.5341Z" fill="#00618A"></path>
    <path fill-rule="evenodd" clip-rule="evenodd" d="M22.9755 21.3733C22.9755 21.6684 23.2087 21.8673 23.4695 21.8673C23.7303 21.8673 23.9635 21.6684 23.9635 21.3733C23.9635 21.0783 23.7303 20.8794 23.4695 20.8794C23.2087 20.8794 22.9755 21.0783 22.9755 21.3733H22.9755ZM23.8528 21.3733C23.8528 21.5972 23.6816 21.7646 23.4695 21.7646C23.2548 21.7646 23.0862 21.5972 23.0862 21.3733C23.0862 21.1494 23.2548 20.9821 23.4695 20.9821C23.6816 20.9821 23.8528 21.1494 23.8528 21.3733ZM23.6026 21.6552H23.7132L23.5512 21.4076C23.6381 21.3984 23.7039 21.3562 23.7039 21.2535C23.7039 21.1389 23.6316 21.0915 23.4919 21.0915H23.2719V21.6552H23.3668V21.4115H23.455L23.6026 21.6552ZM23.3668 21.3325V21.1705H23.4761C23.5327 21.1705 23.6012 21.181 23.6012 21.2469C23.6012 21.3259 23.5393 21.3325 23.4681 21.3325H23.3668Z" fill="#E48E00"></path>
  </g>
  <defs>
    <clipPath id="clip0_8751_14411">
      <rect width="26.4492" height="33.6626" fill="white" transform="translate(0.56604 0.684937)"></rect>
    </clipPath>
  </defs>
</svg>
