<?xml version="1.0" encoding="UTF-8"?>
<svg xmlns="http://www.w3.org/2000/svg" width="27" height="35" viewBox="0 0 27 35" fill="none">
  <g clip-path="url(#clip0_8751_15574)">
    <g clip-path="url(#clip1_8751_15574)">
      <path d="M9.61426 14.6897C10.5188 17.4563 10.8613 22.3917 13.5076 22.3917C13.7122 22.3915 13.9163 22.3721 14.1172 22.3335C11.7156 21.7728 11.43 16.8903 9.95942 14.3564C9.84437 14.4609 9.73063 14.5707 9.61558 14.6844" fill="url(#paint0_linear_8751_15574)"></path>
      <path d="M9.96289 14.3563C11.4295 16.8848 11.7151 21.7621 14.1233 22.3281C14.3165 22.2896 14.5066 22.237 14.692 22.1707C12.5324 21.118 11.936 16.377 10.275 14.0918C10.1732 14.1751 10.0727 14.2637 9.97083 14.3563" fill="url(#paint1_linear_8751_15574)"></path>
      <path d="M12.0765 12.8592C11.8719 12.8594 11.6678 12.8789 11.4668 12.9174C10.8859 13.0393 10.3335 13.2704 9.83887 13.5984C9.99492 13.7534 10.1378 13.921 10.266 14.0996C10.7603 13.6724 11.3226 13.3309 11.9297 13.0893C12.1309 13.0135 12.3384 12.956 12.5499 12.9174C12.3962 12.8776 12.2379 12.8581 12.0791 12.8592" fill="#14559A"></path>
      <path d="M16.3732 21.204C16.5945 21.0277 16.8149 20.8342 17.0345 20.6235C16.1154 17.8688 15.7861 12.8633 13.1213 12.8633C12.9288 12.863 12.7366 12.8807 12.5474 12.9162C14.9741 13.5192 15.2849 18.7998 16.3706 21.204" fill="url(#paint2_linear_8751_15574)"></path>
      <path d="M12.5499 12.9161C12.3959 12.8776 12.2378 12.8581 12.0791 12.8579H13.1265C12.9335 12.8577 12.7409 12.8754 12.5512 12.9108" fill="#3092C4"></path>
      <path d="M16.3269 21.7898C16.2214 21.687 16.1212 21.5789 16.0267 21.4658C15.6166 21.7635 15.1676 22.0038 14.6924 22.1799C14.8507 22.2578 15.0182 22.3151 15.1909 22.3505C15.3312 22.3781 15.4738 22.3918 15.6168 22.3915C16.0367 22.4113 16.4557 22.3363 16.8427 22.172C16.6556 22.0683 16.4835 21.9397 16.3309 21.7898" fill="#1969BC"></path>
      <path d="M11.9297 13.0896C14.1025 14.2256 14.2929 19.3739 16.0293 21.4647C16.1457 21.3867 16.2607 21.2955 16.3758 21.2002C15.2874 18.8 14.9766 13.5181 12.5499 12.915C12.3385 12.9552 12.131 13.0136 11.9297 13.0896Z" fill="url(#paint3_linear_8751_15574)"></path>
      <path d="M10.2662 14.0997C11.9338 16.381 12.5302 21.122 14.6885 22.1799C15.1642 22.004 15.6136 21.7637 16.0242 21.4658C14.2891 19.3816 14.1 14.224 11.9259 13.0894C11.3188 13.3303 10.7564 13.6713 10.2622 14.0984" fill="url(#paint4_linear_8751_15574)"></path>
      <path d="M8.55625 14.6209C8.23218 15.3994 7.94792 16.1939 7.70459 17.0014C8.27471 16.1778 8.91354 15.4041 9.61422 14.6884C9.53384 14.4373 9.43935 14.1909 9.33121 13.9504C9.06071 14.1595 8.802 14.3833 8.55625 14.6209Z" fill="url(#paint5_linear_8751_15574)"></path>
      <path d="M9.56639 13.7796C9.48837 13.8339 9.40902 13.8907 9.33496 13.9502C9.44233 14.1905 9.53551 14.4369 9.614 14.6882C9.73038 14.5758 9.84543 14.466 9.95916 14.3615C9.84222 14.1571 9.70958 13.9622 9.56242 13.7783" fill="#2B74B1"></path>
      <path d="M9.84016 13.6014C9.75199 13.6596 9.66074 13.7204 9.56641 13.7839C9.7131 13.9676 9.84573 14.1621 9.96314 14.3658C10.0637 14.2746 10.1655 14.1859 10.266 14.1013C10.1386 13.9224 9.99616 13.7547 9.84016 13.6001" fill="#125A9E"></path>
      <path d="M24.6663 12.6478C23.4364 17.3888 20.8682 21.1975 18.7152 22.1576C18.6756 22.1761 18.6359 22.192 18.5989 22.2079H18.5843L18.5513 22.2198L18.5367 22.2264L18.4838 22.2449L18.4613 22.2528L18.4349 22.2621L18.4084 22.2713L18.386 22.2793L18.3397 22.2925H18.3198L18.2881 22.3004H18.2669L18.2339 22.3097L18.1929 22.319C18.2916 22.3549 18.3959 22.3732 18.501 22.3732C20.5416 22.3732 22.6006 18.7153 26.006 12.6306H24.6663V12.6478Z" fill="url(#paint6_linear_8751_15574)"></path>
      <path d="M7.25735 13.0521L7.29041 13.0388H7.30496L7.34067 13.0269C7.36712 13.019 7.39224 13.0084 7.41869 12.9992H7.43059L7.46365 12.9886H7.47952L7.51391 12.978H7.52581L7.63822 12.9489H7.65409H7.68715C7.69237 12.9477 7.6978 12.9477 7.70302 12.9489C7.71387 12.9517 7.72523 12.9517 7.73608 12.9489H7.74402L7.81278 12.9357H7.82601H7.85775H7.87494H7.90668C7.91188 12.937 7.91734 12.937 7.92255 12.9357C7.94635 12.9357 7.97148 12.9357 7.99661 12.9291C7.92412 12.9215 7.85127 12.918 7.7784 12.9185C5.47997 12.9185 2.31268 17.1834 0.885742 22.7047H1.1661C1.62367 21.8901 2.02967 21.1177 2.40789 20.3957C3.40767 16.4839 5.44955 13.8151 7.25074 13.1089" fill="url(#paint7_linear_8751_15574)"></path>
      <path d="M8.55591 14.6207C8.80506 14.3824 9.06731 14.1581 9.34145 13.9489C9.2852 13.8254 9.22252 13.7049 9.15366 13.5879C8.90883 13.9037 8.70777 14.2511 8.55591 14.6207Z" fill="#0D82CA"></path>
      <path d="M8.74003 13.0828C8.90347 13.2274 9.0412 13.3986 9.14735 13.5893C9.18702 13.5417 9.2267 13.498 9.26637 13.457C9.10166 13.2983 8.91451 13.1646 8.71094 13.0603L8.73474 13.0722" fill="#0D82CA"></path>
      <path d="M2.41455 20.3393C4.51065 16.2992 5.50382 13.7442 7.2574 13.0513C5.45224 13.7575 3.41036 16.4275 2.41455 20.3393Z" fill="url(#paint8_linear_8751_15574)"></path>
      <path d="M9.26736 13.457C9.22636 13.498 9.18933 13.543 9.14966 13.5893C9.2186 13.706 9.28086 13.8265 9.33613 13.9503C9.41415 13.8908 9.4935 13.8339 9.57152 13.7797C9.47911 13.6653 9.3788 13.5575 9.27133 13.457" fill="#127BCA"></path>
      <path d="M3.36703 22.6293C3.35428 22.6307 3.34142 22.6307 3.32868 22.6293H3.28504C3.25865 22.6267 3.23207 22.6267 3.20569 22.6293H3.19775C4.01161 22.6795 4.81691 22.4396 5.47063 21.9522C6.12434 21.4648 6.58415 20.7615 6.76839 19.9672C7.13472 18.7981 7.42962 17.8142 7.69412 16.989C6.71208 18.4037 5.81732 19.877 5.01481 21.4007C4.8586 21.7225 4.62608 22.0013 4.3375 22.2126C4.04891 22.424 3.71303 22.5616 3.35909 22.6134" fill="url(#paint9_linear_8751_15574)"></path>
      <path d="M3.36694 22.6297C3.7208 22.5776 4.05659 22.4399 4.34514 22.2286C4.63369 22.0172 4.86626 21.7386 5.02266 21.417C5.82478 19.892 6.7191 18.4174 7.70064 17.0013C7.94506 16.1937 8.23064 15.3992 8.55627 14.6208C6.78682 16.3057 5.00944 19.1053 3.37488 22.6283" fill="url(#paint10_linear_8751_15574)"></path>
      <path d="M2.41464 20.3391C2.04038 21.0612 1.63042 21.8308 1.17285 22.6468H1.97294C2.07445 21.8695 2.22194 21.0989 2.41464 20.3391Z" fill="#05A1E6"></path>
      <path d="M7.93347 12.8765H7.91628H7.88718C7.88427 12.8752 7.88112 12.8745 7.87792 12.8745C7.87473 12.8745 7.87158 12.8752 7.86867 12.8765H7.83693C7.83262 12.8752 7.82801 12.8752 7.8237 12.8765L7.75494 12.8884H7.747H7.71526H7.69807H7.66633C7.66113 12.8898 7.65567 12.8898 7.65046 12.8884L7.53805 12.9175H7.52483L7.49177 12.9268H7.4759L7.44284 12.9373H7.43093C7.40497 12.9475 7.37848 12.9564 7.35159 12.9638L7.3172 12.977H7.30133L7.26827 12.9889H7.25769C5.50411 13.7242 4.50962 16.2818 2.41617 20.3206C2.22164 21.0801 2.07369 21.8508 1.97314 22.6283H3.207C3.23341 22.6303 3.25993 22.6303 3.28635 22.6283H3.33131C3.34358 22.6303 3.35607 22.6303 3.36834 22.6283C5.00687 19.0987 6.78293 16.2977 8.55635 14.6103C8.7081 14.2409 8.9087 13.8935 9.15278 13.5774C9.04662 13.3868 8.9089 13.2155 8.74546 13.0709L8.72033 13.059L8.69521 13.0458L8.66082 13.0339L8.63173 13.022L8.61057 13.0127L8.56428 12.9929L8.54444 12.9849L8.51006 12.9717L8.49155 12.9651L8.44262 12.9479L8.38707 12.9334C8.38321 12.9321 8.37903 12.9321 8.37517 12.9334L8.32756 12.9188H8.31698L8.19928 12.9016H8.18738C8.17019 12.9016 8.15432 12.895 8.13713 12.8937H8.12787L8.06836 12.8858H8.05778C8.04247 12.8885 8.0268 12.8885 8.01149 12.8858C7.98671 12.8867 7.96199 12.8889 7.93744 12.8924" fill="url(#paint11_linear_8751_15574)"></path>
      <path d="M19.8659 15.2712C19.4625 16.5646 19.1359 17.6265 18.8516 18.506C20.1025 16.7261 21.1854 14.8339 22.0863 12.8538C21.5388 13.0297 21.0464 13.3447 20.6572 13.768C20.268 14.1913 19.9953 14.7083 19.8659 15.2686" fill="url(#paint12_linear_8751_15574)"></path>
      <path d="M18.8858 22.0794C18.829 22.1085 18.7721 22.1362 18.7166 22.1587C20.8695 21.1986 23.4377 17.3899 24.6676 12.6489H24.4256C21.5995 17.6941 20.6936 21.0717 18.8938 22.0781" fill="url(#paint13_linear_8751_15574)"></path>
      <path d="M17.4802 21.6524C18.108 20.6873 18.571 19.6245 18.8502 18.5076C18.3104 19.2649 17.7045 19.973 17.0398 20.6235C17.151 20.98 17.299 21.3239 17.4815 21.6497" fill="#079AE1"></path>
      <path d="M17.48 21.6521C17.3367 21.8327 17.162 21.9859 16.9643 22.1044C16.9233 22.1282 16.881 22.1507 16.832 22.1718C17.0372 22.2826 17.2616 22.3531 17.4933 22.3795L17.6017 22.3887C17.6188 22.3861 17.6362 22.3861 17.6533 22.3887H17.9059C17.9195 22.3907 17.9333 22.3907 17.9469 22.3887H17.9601H18.0051H18.0183L18.0685 22.3795H18.0765C18.1095 22.3728 18.1426 22.3675 18.177 22.3583C17.8696 22.2196 17.62 21.9783 17.4708 21.6759" fill="#1969BC"></path>
      <path d="M13.5071 22.394C13.7118 22.3941 13.9159 22.3741 14.1167 22.3345C14.3096 22.2971 14.4992 22.2449 14.6841 22.1785C14.9724 22.3189 15.2891 22.3913 15.6098 22.3901H13.5071V22.394Z" fill="#1E5CB3"></path>
      <path d="M15.6113 22.3943C16.0317 22.414 16.4511 22.339 16.8386 22.1748C17.0437 22.2853 17.2682 22.3553 17.4998 22.3811L17.6069 22.3904H15.6113V22.3943Z" fill="#1E5CB3"></path>
      <path d="M17.7221 22.3941H17.9152C17.9292 22.396 17.9435 22.396 17.9575 22.3941H17.9694L18.0144 22.3875H18.0289L18.0792 22.3796H18.0871L18.1876 22.3584C18.286 22.3942 18.3898 22.4126 18.4944 22.4126H17.7195L17.7221 22.3941Z" fill="#1D60B5"></path>
      <path d="M17.0396 20.6262C16.8191 20.8352 16.5987 21.0291 16.3783 21.2081C16.2619 21.2994 16.1469 21.3866 16.0305 21.4726C16.1244 21.5866 16.2251 21.6948 16.332 21.7966C16.484 21.9472 16.6563 22.0758 16.8438 22.1788C16.8848 22.1589 16.9271 22.1365 16.9681 22.1127C17.166 21.9938 17.3411 21.8406 17.4852 21.6604C17.3029 21.3339 17.1544 20.9896 17.0422 20.6328" fill="#175FAB"></path>
      <path d="M23.6321 12.6477H22.3757C22.3083 12.6477 22.2435 12.6543 22.1774 12.6583L22.0848 12.8553C21.1842 14.8357 20.1013 16.7279 18.85 18.5075C18.5713 19.6247 18.1083 20.6875 17.48 21.6523C17.6289 21.9553 17.8786 22.197 18.1862 22.336H18.2087H18.2285L18.2629 22.3268H18.284L18.3145 22.3189H18.3343L18.3806 22.3043L18.4031 22.2977C18.4125 22.2961 18.4216 22.2925 18.4295 22.2871C18.4389 22.2871 18.4481 22.2844 18.456 22.2792L18.4784 22.2712L18.5353 22.2514C18.5353 22.2514 18.5446 22.2514 18.5499 22.2514L18.5829 22.2382H18.5975L18.7138 22.1892L18.8818 22.1112C20.6817 21.1048 21.5889 17.7273 24.4136 12.6821H23.6321V12.6477Z" fill="url(#paint14_linear_8751_15574)"></path>
      <path d="M8.01255 12.8697H8.0681L8.12761 12.8777H8.13819L8.18844 12.8856H8.20166C8.24002 12.8935 8.27969 12.9015 8.31672 12.9121H8.32598L8.37358 12.9253H8.38549C8.404 12.9253 8.42252 12.9345 8.44103 12.9411L8.48864 12.957H8.50847L8.54286 12.9716H8.5627L8.60898 12.9914L8.63146 13.0007C8.64024 13.0057 8.64955 13.0097 8.65924 13.0126L8.68833 13.0337L8.71213 13.0456C8.91613 13.1499 9.10371 13.2836 9.26889 13.4424C9.33009 13.3781 9.39595 13.3184 9.46594 13.2638C9.09324 12.9916 8.64332 12.8457 8.18183 12.8473C8.12485 12.8459 8.06784 12.8486 8.01123 12.8552" fill="#7DCBEC"></path>
      <path d="M9.26758 13.4571C9.37539 13.5572 9.47573 13.665 9.56778 13.7798C9.66035 13.7163 9.75028 13.6555 9.84153 13.5973C9.7252 13.4805 9.59911 13.3739 9.46463 13.2786C9.39504 13.3331 9.32962 13.3928 9.2689 13.4571" fill="#5EC5ED"></path>
      <path d="M8.0101 12.8698C8.06828 12.8698 8.12383 12.8698 8.18069 12.8698C8.64214 12.8672 9.09225 13.0127 9.4648 13.285C9.91042 12.9692 10.4532 12.8208 10.9975 12.8658H7.79321C7.86727 12.8658 7.93868 12.8658 8.0101 12.8764" fill="url(#paint15_linear_8751_15574)"></path>
      <path d="M11.0015 12.8592C10.4571 12.8142 9.91437 12.9626 9.46875 13.2785C9.60323 13.3738 9.72932 13.4804 9.84565 13.5972C10.3403 13.2691 10.8927 13.038 11.4736 12.9161C11.6747 12.8786 11.8787 12.8596 12.0833 12.8592H11.0015Z" fill="url(#paint16_linear_8751_15574)"></path>
      <path d="M18.8502 18.5076C19.1359 17.6308 19.4612 16.5649 19.8646 15.2729C19.994 14.7128 20.2665 14.1959 20.6555 13.7727C21.0444 13.3494 21.5365 13.0343 22.0837 12.8581C22.1167 12.7933 22.1458 12.7258 22.1775 12.6597C21.4029 12.6432 20.6462 12.8936 20.0343 13.3689C19.4225 13.8443 18.9927 14.5156 18.8172 15.2702C18.0052 17.8662 17.5132 19.5484 17.0398 20.6209C17.7042 19.9701 18.31 19.262 18.8502 18.505" fill="url(#paint17_linear_8751_15574)"></path>
    </g>
  </g>
  <defs>
    <linearGradient id="paint0_linear_8751_15574" x1="-74.1864" y1="18.2594" x2="-74.1029" y2="18.2594" gradientUnits="userSpaceOnUse">
      <stop stop-color="#0994DC"></stop>
      <stop offset="0.35" stop-color="#66CEF5"></stop>
      <stop offset="0.85" stop-color="#127BCA"></stop>
      <stop offset="1" stop-color="#127BCA"></stop>
    </linearGradient>
    <linearGradient id="paint1_linear_8751_15574" x1="-74.0821" y1="18.3871" x2="-74.0025" y2="18.3871" gradientUnits="userSpaceOnUse">
      <stop stop-color="#0E76BC"></stop>
      <stop offset="0.36" stop-color="#36AEE8"></stop>
      <stop offset="0.85" stop-color="#00ADEF"></stop>
      <stop offset="1" stop-color="#00ADEF"></stop>
    </linearGradient>
    <linearGradient id="paint2_linear_8751_15574" x1="-74.1972" y1="16.7985" x2="-74.1216" y2="16.7985" gradientUnits="userSpaceOnUse">
      <stop stop-color="#1C63B7"></stop>
      <stop offset="0.5" stop-color="#33BDF2"></stop>
      <stop offset="1" stop-color="#33BDF2" stop-opacity="0.42"></stop>
    </linearGradient>
    <linearGradient id="paint3_linear_8751_15574" x1="-74.1025" y1="17.1964" x2="-74.0276" y2="17.1964" gradientUnits="userSpaceOnUse">
      <stop stop-color="#166AB8"></stop>
      <stop offset="0.4" stop-color="#36AEE8"></stop>
      <stop offset="0.85" stop-color="#0798DD"></stop>
      <stop offset="1" stop-color="#0798DD"></stop>
    </linearGradient>
    <linearGradient id="paint4_linear_8751_15574" x1="-74.1554" y1="17.584" x2="-74.0778" y2="17.584" gradientUnits="userSpaceOnUse">
      <stop stop-color="#124379"></stop>
      <stop offset="0.39" stop-color="#1487CB"></stop>
      <stop offset="0.78" stop-color="#165197"></stop>
      <stop offset="1" stop-color="#165197"></stop>
    </linearGradient>
    <linearGradient id="paint5_linear_8751_15574" x1="2.56414" y1="15.3632" x2="3.03848" y2="15.3632" gradientUnits="userSpaceOnUse">
      <stop stop-color="#33BDF2" stop-opacity="0.7"></stop>
      <stop offset="1" stop-color="#1DACD8"></stop>
    </linearGradient>
    <linearGradient id="paint6_linear_8751_15574" x1="-74.0624" y1="17.4663" x2="-73.9834" y2="17.4663" gradientUnits="userSpaceOnUse">
      <stop stop-color="#136AB4"></stop>
      <stop offset="0.6" stop-color="#59CAF5" stop-opacity="0.55"></stop>
      <stop offset="1" stop-color="#59CAF5" stop-opacity="0.23"></stop>
    </linearGradient>
    <linearGradient id="paint7_linear_8751_15574" x1="0.841942" y1="17.7296" x2="2.60322" y2="17.7296" gradientUnits="userSpaceOnUse">
      <stop stop-color="#05A1E6" stop-opacity="0.25"></stop>
      <stop offset="1" stop-color="#05A1E6"></stop>
    </linearGradient>
    <linearGradient id="paint8_linear_8751_15574" x1="-74.1424" y1="16.873" x2="-74.0689" y2="16.873" gradientUnits="userSpaceOnUse">
      <stop stop-color="#318ED5"></stop>
      <stop offset="1" stop-color="#38A7E4"></stop>
    </linearGradient>
    <linearGradient id="paint9_linear_8751_15574" x1="-74.2171" y1="19.9745" x2="-74.1412" y2="19.9745" gradientUnits="userSpaceOnUse">
      <stop stop-color="#05A1E6"></stop>
      <stop offset="1" stop-color="#05A1E6" stop-opacity="0.55"></stop>
    </linearGradient>
    <linearGradient id="paint10_linear_8751_15574" x1="-74.2189" y1="18.6221" x2="-74.1402" y2="18.6221" gradientUnits="userSpaceOnUse">
      <stop stop-color="#1959A6"></stop>
      <stop offset="0.5" stop-color="#05A1E6"></stop>
      <stop offset="0.92" stop-color="#7EC5EA"></stop>
      <stop offset="1" stop-color="#7EC5EA"></stop>
    </linearGradient>
    <linearGradient id="paint11_linear_8751_15574" x1="-74.155" y1="17.4722" x2="-74.0704" y2="17.4722" gradientUnits="userSpaceOnUse">
      <stop stop-color="#165096"></stop>
      <stop offset="1" stop-color="#0D82CA"></stop>
    </linearGradient>
    <linearGradient id="paint12_linear_8751_15574" x1="-74.0952" y1="15.6791" x2="-74.0135" y2="15.6791" gradientUnits="userSpaceOnUse">
      <stop stop-color="#05A1E6"></stop>
      <stop offset="0.87" stop-color="#0495D6"></stop>
      <stop offset="1" stop-color="#0495D6"></stop>
    </linearGradient>
    <linearGradient id="paint13_linear_8751_15574" x1="-74.1319" y1="17.5803" x2="-74.0417" y2="17.5803" gradientUnits="userSpaceOnUse">
      <stop stop-color="#38A7E4" stop-opacity="0.33"></stop>
      <stop offset="0.96" stop-color="#0E88D3"></stop>
      <stop offset="1" stop-color="#0E88D3"></stop>
    </linearGradient>
    <linearGradient id="paint14_linear_8751_15574" x1="-73.9938" y1="17.5418" x2="-73.9121" y2="17.5418" gradientUnits="userSpaceOnUse">
      <stop stop-color="#168CD4"></stop>
      <stop offset="0.5" stop-color="#1C87CC"></stop>
      <stop offset="1" stop-color="#154B8D"></stop>
    </linearGradient>
    <linearGradient id="paint15_linear_8751_15574" x1="-798.667" y1="13.1928" x2="-798.263" y2="13.1928" gradientUnits="userSpaceOnUse">
      <stop stop-color="#97D6EE"></stop>
      <stop offset="0.7" stop-color="#55C1EA"></stop>
      <stop offset="1" stop-color="#55C1EA"></stop>
    </linearGradient>
    <linearGradient id="paint16_linear_8751_15574" x1="-799.295" y1="13.2618" x2="-798.889" y2="13.2618" gradientUnits="userSpaceOnUse">
      <stop stop-color="#7ACCEC"></stop>
      <stop offset="1" stop-color="#3FB7ED"></stop>
    </linearGradient>
    <linearGradient id="paint17_linear_8751_15574" x1="-74.0075" y1="16.6938" x2="-73.921" y2="16.6938" gradientUnits="userSpaceOnUse">
      <stop stop-color="#136AB4"></stop>
      <stop offset="0.6" stop-color="#59CAF5" stop-opacity="0.55"></stop>
      <stop offset="1" stop-color="#59CAF5" stop-opacity="0.23"></stop>
    </linearGradient>
    <clipPath id="clip0_8751_15574">
      <rect width="26.4492" height="33.6626" fill="white" transform="translate(0.224609 0.831299)"></rect>
    </clipPath>
    <clipPath id="clip1_8751_15574">
      <rect width="26.4492" height="26.4492" fill="white" transform="translate(0.224609 4.43774)"></rect>
    </clipPath>
  </defs>
</svg>
