<?xml version="1.0" encoding="UTF-8"?>
<svg xmlns="http://www.w3.org/2000/svg" width="28" height="34" viewBox="0 0 28 34" fill="none">
  <g clip-path="url(#clip0_8751_15307)">
    <g clip-path="url(#clip1_8751_15307)">
      <mask id="mask0_8751_15307" style="mask-type:luminance" maskUnits="userSpaceOnUse" x="0" y="3" width="28" height="28">
        <path d="M27.1196 3.66553H0.67041V30.1147H27.1196V3.66553Z" fill="white"></path>
      </mask>
      <g mask="url(#mask0_8751_15307)">
        <path d="M20.2238 22.9171C20.3891 21.512 20.342 21.3103 21.3851 21.5376L21.6504 21.5607C22.4935 21.5971 23.3348 21.4563 24.1201 21.1474C25.4475 20.5317 26.2352 19.5026 24.926 19.7729C21.9397 20.3887 21.7339 19.3778 21.7339 19.3778C24.8871 14.6963 26.2054 8.756 25.0681 7.30213C21.9645 3.33475 16.592 5.21181 16.5019 5.26058L16.473 5.26554C15.817 5.13394 15.15 5.06448 14.481 5.05808C13.3521 5.00132 12.238 5.33492 11.3261 6.00281C11.3261 6.00281 1.74242 2.05444 2.1904 10.9686C2.28297 12.8647 4.9064 25.3206 8.03485 21.5558C9.17877 20.1804 10.2839 19.0175 10.2839 19.0175C10.8403 19.393 11.5099 19.5639 12.1783 19.501L12.2312 19.4555C12.2152 19.6342 12.2224 19.8143 12.2527 19.9911C11.4468 20.892 11.684 21.0499 10.0723 21.3814C8.44233 21.7178 9.39946 22.3153 10.0251 22.4716C10.6894 22.6866 11.4047 22.6863 12.0688 22.4706C12.7329 22.255 13.3119 21.835 13.7231 21.2706L13.676 21.4599C13.9925 21.7128 13.971 23.2783 14.0157 24.3966C14.008 25.3336 14.125 26.2675 14.3636 27.1737C14.5918 27.7887 14.8596 29.374 16.978 28.9194C18.7476 28.54 20.1015 27.9945 20.2246 22.9162" fill="black"></path>
        <path d="M20.2238 22.9171C20.3891 21.512 20.342 21.3103 21.3851 21.5376L21.6504 21.5607C22.4935 21.5971 23.3348 21.4563 24.1201 21.1474C25.4475 20.5317 26.2352 19.5026 24.926 19.7729C21.9397 20.3887 21.7339 19.3778 21.7339 19.3778C24.8871 14.6963 26.2054 8.756 25.0681 7.30213C21.9645 3.33475 16.592 5.21181 16.5019 5.26058L16.473 5.26554C15.817 5.13394 15.15 5.06448 14.481 5.05808C13.3521 5.00132 12.238 5.33492 11.3261 6.00281C11.3261 6.00281 1.74242 2.05444 2.1904 10.9686C2.28297 12.8647 4.9064 25.3206 8.03485 21.5558C9.17877 20.1804 10.2839 19.0175 10.2839 19.0175C10.8403 19.393 11.5099 19.5639 12.1783 19.501L12.2312 19.4555C12.2152 19.6342 12.2224 19.8143 12.2527 19.9911C11.4468 20.892 11.684 21.0499 10.0723 21.3814C8.44233 21.7178 9.39946 22.3153 10.0251 22.4716C10.6894 22.6866 11.4047 22.6863 12.0688 22.4706C12.7329 22.255 13.3119 21.835 13.7231 21.2706L13.676 21.4599C13.9925 21.7128 13.971 23.2783 14.0157 24.3966C14.008 25.3336 14.125 26.2675 14.3636 27.1737C14.5918 27.7887 14.8596 29.374 16.978 28.9194C18.7476 28.54 20.1015 27.9945 20.2246 22.9162" stroke="black" stroke-width="2.22008"></path>
        <path d="M24.926 19.7704C21.9388 20.3862 21.7339 19.3754 21.7339 19.3754C24.8871 14.6955 26.2054 8.756 25.0681 7.30213C21.9645 3.33475 16.592 5.21181 16.5027 5.26058L16.4738 5.26554C15.8175 5.13393 15.1503 5.06447 14.481 5.05808C13.3522 5.00108 12.2381 5.33439 11.3261 6.00198C11.3261 6.00198 1.74242 2.05444 2.1904 10.9678C2.28545 12.8639 4.90805 25.3165 8.03732 21.5558C9.18125 20.1804 10.2855 19.0175 10.2855 19.0175C10.842 19.393 11.5115 19.5639 12.1799 19.501L12.2337 19.4555C12.2178 19.6342 12.225 19.8143 12.2551 19.9911C11.4493 20.892 11.6857 21.0499 10.0747 21.3814C8.44398 21.7178 9.40194 22.3153 10.0276 22.4716C10.6915 22.6859 11.406 22.6852 12.0695 22.4695C12.7329 22.2539 13.3113 21.8343 13.7222 21.2706L13.6751 21.4599C13.9909 21.7128 14.2124 23.1055 14.1752 24.3676C14.0714 25.3067 14.1346 26.2567 14.362 27.1737C14.6099 27.8507 14.8579 29.374 16.9771 28.9194C18.7468 28.54 19.6642 27.5572 19.7915 25.9174C19.8824 24.752 20.0866 24.9255 20.0998 23.8816L20.2651 23.3857C20.4544 21.8054 20.2949 21.2962 21.3859 21.5326L21.6512 21.5558C22.4943 21.5921 23.3356 21.4513 24.1209 21.1425C25.4483 20.5267 26.236 19.4977 24.9268 19.768L24.926 19.7704Z" fill="#336791"></path>
        <path d="M13.8502 20.6755C13.7675 23.6155 13.8709 26.5762 14.1585 27.2961C14.2384 27.6094 14.3819 27.903 14.5799 28.1586C14.7779 28.4142 15.0262 28.6265 15.3096 28.7822C15.5929 28.9379 15.9053 29.0339 16.2272 29.064C16.5491 29.0941 16.8738 29.0579 17.1811 28.9574C18.9508 28.5781 19.5946 27.8441 19.874 26.2233C20.0798 25.0306 20.4765 21.7195 20.5278 21.0409" stroke="white" stroke-width="0.739751" stroke-linecap="round" stroke-linejoin="round"></path>
        <path d="M11.3112 5.93681C11.3112 5.93681 1.72088 2.01737 2.16721 10.9307C2.26143 12.8276 4.88486 25.2803 8.01413 21.5187C9.15723 20.1433 10.1912 19.0647 10.1912 19.0647" stroke="white" stroke-width="0.739751" stroke-linecap="round" stroke-linejoin="round"></path>
        <path d="M16.4894 5.2217C16.1588 5.32585 21.8239 3.1504 25.0449 7.2649C26.1822 8.71878 24.8639 14.6583 21.7107 19.3381" stroke="white" stroke-width="0.739751" stroke-linecap="round" stroke-linejoin="round"></path>
        <path d="M21.7131 19.3385C21.7131 19.3385 21.9189 20.3502 24.9052 19.7336C26.2136 19.4633 25.4259 20.4923 24.0993 21.1081C23.0099 21.6139 20.5684 21.7429 20.5279 21.0444C20.4254 19.2418 21.8131 19.7906 21.7131 19.3385ZM21.7131 19.3385C21.6222 18.9318 21.0015 18.5318 20.5915 17.5366C20.2328 16.6679 15.6753 10.0044 21.8553 10.9946C22.0817 10.9475 20.2435 5.11625 14.4594 5.0212C8.67532 4.92614 8.86707 12.1294 8.86707 12.1294" stroke="white" stroke-width="0.739751" stroke-linecap="round" stroke-linejoin="bevel"></path>
        <path d="M12.232 19.9551C11.4261 20.8552 11.6633 21.0138 10.0516 21.3453C8.42081 21.6817 9.37876 22.2793 10.0045 22.4355C10.6686 22.6505 11.3838 22.6502 12.0477 22.4345C12.7117 22.2188 13.2905 21.7988 13.7016 21.2345C13.7716 21.103 13.8143 20.9587 13.8272 20.8102C13.84 20.6618 13.8228 20.5122 13.7765 20.3706C13.7302 20.229 13.6558 20.0981 13.5577 19.986C13.4596 19.8738 13.3398 19.7826 13.2056 19.7178C13.0438 19.627 12.8535 19.6009 12.6733 19.6449C12.493 19.689 12.3361 19.7998 12.2344 19.9551H12.232Z" stroke="white" stroke-width="0.739751" stroke-linecap="round" stroke-linejoin="round"></path>
        <path d="M12.1791 19.9382C12.1796 19.2798 12.3326 18.6305 12.6262 18.0413C13.0395 16.9354 13.9859 15.8295 13.2271 12.3208C12.6618 9.70648 8.86881 11.777 8.86715 12.1315C8.95926 13.2899 8.93767 14.4546 8.80268 15.6088C8.71445 16.0916 8.73599 16.588 8.86572 17.0613C8.99545 17.5347 9.23004 17.9727 9.5521 18.343C9.87416 18.7134 10.2754 19.0065 10.7262 19.2006C11.1769 19.3948 11.6656 19.485 12.1559 19.4646" stroke="white" stroke-width="0.739751" stroke-linecap="round" stroke-linejoin="round"></path>
        <path d="M11.2764 12.0788C11.259 12.1995 11.4979 12.5227 11.8095 12.5665C11.9308 12.5818 12.0537 12.558 12.1605 12.4985C12.2672 12.439 12.3522 12.347 12.403 12.2359C12.4195 12.1152 12.1815 11.9813 11.8699 11.9383C11.5583 11.8954 11.2913 11.9582 11.2764 12.0788Z" fill="white" stroke="white" stroke-width="0.246308"></path>
        <path d="M20.7427 11.8325C20.7592 11.9532 20.5212 12.2764 20.2096 12.3202C20.0883 12.3348 19.9655 12.3108 19.8587 12.2514C19.752 12.192 19.6668 12.1003 19.6153 11.9895C19.5988 11.8689 19.8376 11.735 20.1484 11.692C20.4592 11.649 20.727 11.7118 20.7427 11.8325Z" fill="white" stroke="white" stroke-width="0.123154"></path>
        <path d="M21.8554 10.9941C21.9066 11.9438 21.6512 12.591 21.619 13.6019C21.571 15.0714 22.3199 16.7535 21.1917 18.4371" stroke="white" stroke-width="0.739751" stroke-linecap="round" stroke-linejoin="round"></path>
      </g>
    </g>
  </g>
  <defs>
    <clipPath id="clip0_8751_15307">
      <rect width="26.4492" height="33.6626" fill="white" transform="translate(0.671753 0.0588379)"></rect>
    </clipPath>
    <clipPath id="clip1_8751_15307">
      <rect width="26.4492" height="26.4492" fill="white" transform="translate(0.671753 3.66553)"></rect>
    </clipPath>
  </defs>
</svg>
