<?xml version="1.0" encoding="UTF-8"?>
<svg xmlns="http://www.w3.org/2000/svg" width="64" height="64" viewBox="0 0 64 64" fill="none">
  <mask id="mask0_1760_10368" style="mask-type:alpha" maskUnits="userSpaceOnUse" x="0" y="0" width="64" height="64">
    <rect width="64" height="64" fill="#D9D9D9"></rect>
  </mask>
  <g mask="url(#mask0_1760_10368)">
    <path d="M32.0026 58.6666C28.3137 58.6666 24.847 57.9661 21.6026 56.5653C18.3582 55.1661 15.5359 53.2666 13.1359 50.8666C10.7359 48.4666 8.83638 45.6444 7.43727 42.3999C6.03638 39.1555 5.33594 35.6888 5.33594 31.9999C5.33594 28.311 6.03638 24.8444 7.43727 21.5999C8.83638 18.3555 10.7359 15.5333 13.1359 13.1333C15.5359 10.7333 18.3582 8.83281 21.6026 7.43192C24.847 6.03281 28.3137 5.33325 32.0026 5.33325C35.6915 5.33325 39.1582 6.03281 42.4026 7.43192C45.647 8.83281 48.4693 10.7333 50.8693 13.1333C53.2693 15.5333 55.1688 18.3555 56.5679 21.5999C57.9688 24.8444 58.6693 28.311 58.6693 31.9999C58.6693 35.6888 57.9688 39.1555 56.5679 42.3999C55.1688 45.6444 53.2693 48.4666 50.8693 50.8666C48.4693 53.2666 45.647 55.1661 42.4026 56.5653C39.1582 57.9661 35.6915 58.6666 32.0026 58.6666ZM29.3359 53.1999V47.9999C27.8693 47.9999 26.6142 47.4781 25.5706 46.4346C24.5253 45.3893 24.0026 44.1333 24.0026 42.6666V39.9999L11.2026 27.1999C11.0693 27.9999 10.9466 28.7999 10.8346 29.5999C10.7244 30.3999 10.6693 31.1999 10.6693 31.9999C10.6693 37.3777 12.4364 42.0888 15.9706 46.1332C19.503 50.1777 23.9582 52.5333 29.3359 53.1999ZM47.7359 46.3999C48.6248 45.4221 49.4248 44.3661 50.1359 43.2319C50.847 42.0995 51.4364 40.9217 51.9039 39.6986C52.3697 38.4772 52.7253 37.2221 52.9706 35.9333C53.2142 34.6444 53.3359 33.3333 53.3359 31.9999C53.3359 27.6444 52.1253 23.6666 49.7039 20.0666C47.2808 16.4666 44.047 13.8666 40.0026 12.2666V13.3333C40.0026 14.7999 39.4808 16.055 38.4373 17.0986C37.3919 18.1439 36.1359 18.6666 34.6693 18.6666H29.3359V23.9999C29.3359 24.7555 29.0808 25.3884 28.5706 25.8986C28.0586 26.4106 27.4248 26.6666 26.6693 26.6666H21.3359V31.9999H37.3359C38.0915 31.9999 38.7253 32.255 39.2373 32.7652C39.7475 33.2773 40.0026 33.911 40.0026 34.6666V42.6666H42.6693C43.8248 42.6666 44.8693 43.0106 45.8026 43.6986C46.7359 44.3884 47.3804 45.2888 47.7359 46.3999Z" fill="#1C1B1F"></path>
  </g>
</svg>
