<?xml version="1.0" encoding="UTF-8"?>
<svg xmlns="http://www.w3.org/2000/svg" width="28" height="35" viewBox="0 0 28 35" fill="none">
  <g clip-path="url(#clip0_8751_14109)">
    <g clip-path="url(#clip1_8751_14109)">
      <path d="M12.9119 4.85884C13.2428 4.67373 13.6156 4.57654 13.9947 4.57654C14.3738 4.57654 14.7466 4.67373 15.0774 4.85884C18.3737 6.72131 21.671 8.58322 24.9694 10.4446C25.2794 10.6211 25.5375 10.876 25.718 11.1836C25.8984 11.4913 25.9949 11.841 25.9976 12.1977V23.4047C25.9913 23.7758 25.8846 24.1382 25.6891 24.4537C25.4935 24.7692 25.2163 25.0259 24.8868 25.1966C21.601 27.0492 18.3161 28.9023 15.032 30.7559C14.6949 30.9424 14.314 31.035 13.9289 31.0243C13.5438 31.0135 13.1686 30.8997 12.8425 30.6947C11.8572 30.1239 10.8717 29.5538 9.88595 28.9846C9.66968 28.8872 9.4756 28.7465 9.31564 28.5714C9.44128 28.4061 9.6661 28.3813 9.84876 28.3069C10.2536 28.162 10.6441 27.9797 11.015 27.7622C11.0616 27.7347 11.1154 27.7217 11.1695 27.725C11.2235 27.7282 11.2753 27.7475 11.3183 27.7804C12.1606 28.2631 12.9954 28.7606 13.8409 29.2384C14.0211 29.3425 14.2038 29.2045 14.3575 29.1185C17.5816 27.2963 20.807 25.4763 24.0338 23.6584C24.0914 23.6297 24.139 23.5843 24.1705 23.5282C24.2019 23.472 24.2156 23.4076 24.2098 23.3435C24.2098 19.6467 24.2098 15.9496 24.2098 12.2522C24.2157 12.1803 24.1989 12.1083 24.1619 12.0464C24.1248 11.9844 24.0694 11.9356 24.0032 11.9067C20.729 10.063 17.4557 8.21706 14.1831 6.36892C14.1263 6.32998 14.059 6.30913 13.9901 6.30913C13.9212 6.30913 13.854 6.32998 13.7971 6.36892C10.5235 8.2132 7.24958 10.0591 3.97539 11.9067C3.90899 11.9349 3.85317 11.9833 3.81592 12.045C3.77866 12.1068 3.76186 12.1787 3.76793 12.2506V23.3419C3.76225 23.4056 3.77624 23.4696 3.80801 23.5251C3.83978 23.5807 3.88781 23.6252 3.94563 23.6526C4.81901 24.1486 5.69321 24.6423 6.56823 25.1338C6.81073 25.2837 7.08213 25.3808 7.3647 25.4187C7.64727 25.4566 7.93466 25.4344 8.20809 25.3537C8.44561 25.2657 8.65048 25.1071 8.79515 24.8992C8.93981 24.6912 9.01733 24.444 9.01726 24.1907C9.02167 20.5148 9.02167 16.8395 9.01726 13.1647C9.01629 13.1257 9.02358 13.0869 9.03866 13.0509C9.05374 13.0149 9.07626 12.9824 9.10475 12.9558C9.13324 12.9291 9.16705 12.9087 9.20396 12.896C9.24088 12.8833 9.28007 12.8785 9.31895 12.882C9.73883 12.882 10.1587 12.8763 10.5786 12.882C10.6195 12.8839 10.6596 12.8943 10.6963 12.9127C10.7329 12.9311 10.7652 12.957 10.7911 12.9888C10.817 13.0206 10.8359 13.0574 10.8466 13.097C10.8573 13.1366 10.8594 13.178 10.853 13.2184C10.853 16.9169 10.853 20.6154 10.853 24.3139C10.8813 24.8164 10.7741 25.3173 10.5427 25.7643C10.3112 26.2112 9.96392 26.5878 9.53716 26.8546C8.9673 27.1203 8.34342 27.2497 7.71492 27.2325C7.08642 27.2152 6.47055 27.0519 5.9161 26.7555C4.95566 26.2761 4.03903 25.7099 3.09513 25.1966C2.76664 25.0253 2.49063 24.7682 2.29637 24.4528C2.10211 24.1373 1.99683 23.7751 1.9917 23.4047V12.1985C1.99476 11.8343 2.09526 11.4776 2.28276 11.1654C2.47025 10.8532 2.73791 10.5969 3.05793 10.4231C6.34314 8.56889 9.6278 6.71414 12.9119 4.85884Z" fill="#8CC84B"></path>
      <path d="M15.7776 12.6208C17.2292 12.433 18.7044 12.6587 20.0334 13.2721C20.5152 13.5593 20.9135 13.9674 21.189 14.456C21.4645 14.9446 21.6075 15.4967 21.6038 16.0576C21.585 16.1283 21.5411 16.1898 21.4802 16.2306C21.4194 16.2713 21.3458 16.2886 21.2732 16.2791C20.86 16.2791 20.4417 16.2849 20.026 16.2791C19.946 16.274 19.8709 16.2392 19.8152 16.1815C19.7596 16.1239 19.7274 16.0476 19.7251 15.9675C19.6777 15.696 19.5718 15.4381 19.4148 15.2116C19.2579 14.9851 19.0535 14.7954 18.8159 14.6558C18.0251 14.3418 17.1711 14.2197 16.3239 14.2995C15.6998 14.28 15.0824 14.4336 14.5403 14.7434C14.3533 14.8881 14.2165 15.0878 14.149 15.3143C14.0816 15.5409 14.0869 15.7829 14.1642 16.0063C14.2981 16.3237 14.6601 16.4262 14.9634 16.5204C16.6901 16.9717 18.5175 16.9271 20.2136 17.5214C20.5774 17.6223 20.9132 17.8052 21.1953 18.0561C21.4775 18.3069 21.6983 18.6191 21.8411 18.9686C22.0109 19.4644 22.0519 19.9953 21.9602 20.5113C21.8685 21.0273 21.6472 21.5115 21.317 21.9185C20.7199 22.5386 19.944 22.9567 19.0978 23.1145C17.9956 23.3383 16.865 23.3863 15.7478 23.2567C14.6758 23.1955 13.6478 22.8089 12.8012 22.1483C12.4666 21.8398 12.2041 21.4612 12.0327 21.0396C11.8612 20.618 11.785 20.1637 11.8094 19.7092C11.8173 19.6359 11.8539 19.5686 11.9112 19.5222C11.9685 19.4757 12.0418 19.4538 12.1152 19.4612C12.5334 19.4612 12.9525 19.4612 13.3707 19.4612C13.4095 19.4604 13.4481 19.4672 13.4843 19.4813C13.5204 19.4955 13.5534 19.5167 13.5813 19.5436C13.6092 19.5706 13.6315 19.6029 13.6468 19.6385C13.6622 19.6742 13.6703 19.7125 13.6707 19.7514C13.6912 20.0106 13.7646 20.2629 13.8864 20.4926C14.0083 20.7224 14.1759 20.9247 14.3791 21.087C15.2756 21.5281 16.2775 21.7105 17.272 21.6135C18.1038 21.6774 18.9343 21.4747 19.6433 21.035C19.8065 20.8755 19.9253 20.6761 19.9877 20.4566C20.0502 20.2371 20.0543 20.0051 19.9995 19.7836C19.8979 19.4141 19.511 19.2414 19.1788 19.129C17.4745 18.5901 15.6247 18.7851 13.9361 18.176C13.5819 18.0722 13.2545 17.8928 12.9764 17.6502C12.6982 17.4077 12.4761 17.1076 12.3251 16.7709C12.1311 16.2684 12.0821 15.7215 12.1837 15.1925C12.2852 14.6635 12.5333 14.1737 12.8996 13.7788C13.6976 13.0741 14.7138 12.6646 15.7776 12.6208Z" fill="#8CC84B"></path>
    </g>
  </g>
  <defs>
    <clipPath id="clip0_8751_14109">
      <rect width="26.4492" height="33.6626" fill="white" transform="translate(0.671753 0.969482)"></rect>
    </clipPath>
    <clipPath id="clip1_8751_14109">
      <rect width="26.4492" height="26.4492" fill="white" transform="translate(0.671753 4.57617)"></rect>
    </clipPath>
  </defs>
</svg>
