<?xml version="1.0" encoding="UTF-8"?>
<svg xmlns="http://www.w3.org/2000/svg" width="27" height="35" viewBox="0 0 27 35" fill="none">
  <g clip-path="url(#clip0_8751_13381)">
    <g clip-path="url(#clip1_8751_13381)">
      <path d="M26.6738 17.2237C26.6738 15.4806 24.4909 13.8283 21.1443 12.8042C21.9163 9.39313 21.5733 6.67878 20.0607 5.81009C19.6941 5.60448 19.2791 5.50087 18.8589 5.51006V6.70606C19.0714 6.69941 19.282 6.74751 19.4706 6.84574C20.2004 7.26397 20.5161 8.85671 20.2698 10.9057C20.2111 11.4099 20.1144 11.9405 19.9962 12.4827C18.8751 12.2126 17.7372 12.0174 16.5901 11.8984C15.9067 10.9556 15.1612 10.0596 14.3584 9.21625C16.1074 7.59128 17.7472 6.7011 18.8639 6.7011V5.50427C17.3885 5.50427 15.4577 6.55562 13.5054 8.37897C11.5532 6.56637 9.62072 5.52576 8.14701 5.52576V6.72176C9.25704 6.72176 10.9035 7.60698 12.6525 9.22121C11.8537 10.0616 11.1136 10.9558 10.4373 11.8975C9.28805 12.0153 8.14829 12.2125 7.02622 12.4877C6.90306 11.9513 6.81131 11.4314 6.74767 10.9321C6.49971 8.88316 6.80636 7.29042 7.53041 6.86641C7.71965 6.76527 7.93265 6.71701 8.14701 6.72672V5.53072C7.72338 5.52153 7.30493 5.62508 6.93448 5.83075C5.42688 6.69944 5.08965 9.40801 5.86742 12.8084C2.53152 13.8382 0.359375 15.4847 0.359375 17.2229C0.359375 18.9611 2.54226 20.6183 5.88891 21.6424C5.11692 25.0535 5.45993 27.7679 6.97249 28.6366C7.34065 28.8427 7.75739 28.9464 8.17924 28.9366C9.65461 28.9366 11.5854 27.8852 13.5377 26.0619C15.49 27.8745 17.4224 28.9151 18.8961 28.9151C19.3197 28.9243 19.7382 28.8208 20.1087 28.6151C21.6163 27.7464 21.9535 25.0378 21.1757 21.6374C24.5017 20.6134 26.6738 18.9611 26.6738 17.2237ZM19.6904 13.6465C19.4921 14.3383 19.2449 15.0516 18.9664 15.7649C18.7465 15.3359 18.5159 14.907 18.2638 14.478C18.0117 14.049 17.7538 13.6308 17.4918 13.2233C18.2531 13.3349 18.9879 13.4713 19.6904 13.6465ZM17.234 19.3587C16.8157 20.0827 16.3867 20.7696 15.9412 21.4077C15.142 21.4771 14.332 21.5151 13.517 21.5151C12.702 21.5151 11.897 21.4779 11.1035 21.4135C10.6583 20.7754 10.2257 20.096 9.80587 19.3752C9.39811 18.6727 9.02616 17.961 8.69004 17.2403C9.02065 16.5212 9.39838 15.8029 9.80008 15.1004C10.2183 14.3763 10.6473 13.6895 11.0928 13.0514C11.892 12.982 12.702 12.9439 13.517 12.9439C14.332 12.9439 15.137 12.9811 15.9305 13.0456C16.3757 13.6837 16.8083 14.3631 17.2282 15.0838C17.6359 15.7864 18.0079 16.498 18.344 17.2188C18.0068 17.937 17.6348 18.6561 17.234 19.3587ZM18.9697 18.6611C19.259 19.3802 19.5061 20.0984 19.7136 20.796C19.011 20.968 18.2704 21.1126 17.5034 21.225C17.7662 20.8117 18.0291 20.3886 18.2754 19.9538C18.5217 19.519 18.7465 19.0901 18.9664 18.6611H18.9697ZM13.5311 24.384C13.0061 23.8377 12.5095 23.2647 12.0433 22.6673C12.526 22.6888 13.0194 22.7045 13.5187 22.7045C14.0179 22.7045 14.5221 22.6938 15.0064 22.6673C14.5449 23.2658 14.0513 23.8389 13.5278 24.384H13.5311ZM9.53476 21.225C8.77352 21.1126 8.03791 20.9771 7.33535 20.801C7.53372 20.1092 7.78085 19.3959 8.05939 18.6826C8.27925 19.1116 8.50986 19.5405 8.76195 19.9695C9.01405 20.3985 9.2744 20.8175 9.53476 21.225ZM13.5021 10.0668C14.0272 10.6131 14.5237 11.1861 14.9899 11.7835C14.5072 11.762 14.0138 11.7463 13.5145 11.7463C13.0153 11.7463 12.5111 11.757 12.0268 11.7835C12.4871 11.1839 12.9797 10.6097 13.5021 10.0635V10.0668ZM9.53476 13.2258C9.27192 13.6391 9.00908 14.0622 8.76277 14.497C8.51646 14.9318 8.28504 15.3549 8.06518 15.7839C7.77589 15.0648 7.52875 14.3466 7.32129 13.649C8.02467 13.4837 8.76526 13.3349 9.53476 13.2225V13.2258ZM4.68051 19.9406C2.77947 19.1306 1.55371 18.0685 1.55371 17.2262C1.55371 16.384 2.78195 15.3169 4.68051 14.5119C5.14172 14.3135 5.64591 14.1366 6.16828 13.9705C6.49638 15.0853 6.89954 16.1766 7.37501 17.237C6.90454 18.2919 6.50661 19.3778 6.18398 20.4869C5.65004 20.3216 5.14419 20.134 4.67802 19.9373L4.68051 19.9406ZM7.56595 27.605C6.83611 27.1868 6.52038 25.5941 6.76669 23.5451C6.82537 23.0409 6.92207 22.5103 7.04027 21.9681C8.16143 22.2382 9.29934 22.4334 10.4464 22.5524C11.1298 23.4951 11.8753 24.3912 12.6781 25.2345C10.93 26.8595 9.28927 27.7497 8.17262 27.7497C7.96052 27.7519 7.75119 27.7013 7.56346 27.6026L7.56595 27.605ZM20.288 23.5178C20.536 25.5668 20.2293 27.1595 19.5053 27.5836C19.316 27.6847 19.103 27.733 18.8887 27.7232C17.7786 27.7232 16.1322 26.838 14.3832 25.2238C15.182 24.3834 15.9221 23.4892 16.5983 22.5475C17.7476 22.4297 18.8874 22.2325 20.0095 21.9573C20.1291 22.4714 20.2215 22.9915 20.2864 23.5153L20.288 23.5178ZM22.3543 19.9406C21.8931 20.1389 21.389 20.3158 20.8666 20.482C20.5385 19.3672 20.1353 18.2758 19.6598 17.2155C20.1303 16.1605 20.5282 15.0747 20.8509 13.9655C21.3815 14.1308 21.8857 14.3143 22.3577 14.5127C24.2587 15.3227 25.4844 16.3848 25.4844 17.227C25.4844 18.0693 24.2446 19.133 22.351 19.9373L22.3543 19.9406Z" fill="#61DAFB"></path>
      <path d="M13.5123 19.6752C14.8662 19.6752 15.9638 18.5777 15.9638 17.2237C15.9638 15.8698 14.8662 14.7722 13.5123 14.7722C12.1584 14.7722 11.0608 15.8698 11.0608 17.2237C11.0608 18.5777 12.1584 19.6752 13.5123 19.6752Z" fill="#61DAFB"></path>
    </g>
  </g>
  <defs>
    <clipPath id="clip0_8751_13381">
      <rect width="26.4492" height="33.6626" fill="white" transform="translate(0.224609 0.481689)"></rect>
    </clipPath>
    <clipPath id="clip1_8751_13381">
      <rect width="26.4492" height="26.4492" fill="white" transform="translate(0.224609 4.08838)"></rect>
    </clipPath>
  </defs>
</svg>
