<svg width="25" height="26" viewBox="0 0 25 26" fill="none" xmlns="http://www.w3.org/2000/svg">
<g id="credit_card">
<mask id="mask0_14607_35343" style="mask-type:alpha" maskUnits="userSpaceOnUse" x="0" y="0" width="25" height="26">
<rect id="Bounding box" y="0.892578" width="25" height="24.1715" fill="#D9D9D9"/>
</mask>
<g mask="url(#mask0_14607_35343)">
<path id="credit_card_2" d="M4.16732 21.0353C3.5944 21.0353 3.10412 20.8382 2.69648 20.4441C2.28815 20.0493 2.08398 19.5749 2.08398 19.021V6.93519C2.08398 6.38126 2.28815 5.90723 2.69648 5.5131C3.10412 5.1183 3.5944 4.9209 4.16732 4.9209H20.834C21.4069 4.9209 21.8975 5.1183 22.3059 5.5131C22.7135 5.90723 22.9173 6.38126 22.9173 6.93519V19.021C22.9173 19.5749 22.7135 20.0493 22.3059 20.4441C21.8975 20.8382 21.4069 21.0353 20.834 21.0353H4.16732ZM4.16732 12.9781H20.834V8.94949H4.16732V12.9781Z" fill="#F6F8FC"/>
</g>
</g>
</svg>
