<?xml version="1.0" encoding="UTF-8"?>
<svg xmlns="http://www.w3.org/2000/svg" width="80" height="80" viewBox="0 0 80 80" fill="none">
  <rect width="80" height="80" rx="16" fill="white" fill-opacity="0.1"></rect>
  <path d="M43.1 26C44.1625 26 45.1 26.9375 45.1 28V34C45.1 35.125 44.1625 36 43.1 36H37.1C35.975 36 35.1 35.125 35.1 34V28C35.1 26.9375 35.975 26 37.1 26H43.1ZM33.1 29.5V34C33.1 34.625 33.225 35.1875 33.4125 35.6875C31.2875 37.1875 29.725 39.4375 28.975 42H25.9125C26.7875 38 29.2875 34.5625 32.725 32.5H27.7875C27.1625 34 25.725 35 24.1 35C21.85 35 20.1 33.25 20.1 31C20.1 28.8125 21.85 27 24.1 27C25.725 27 27.1625 28.0625 27.7875 29.5H33.1ZM30.1 44C31.1625 44 32.1 44.9375 32.1 46V52C32.1 53.125 31.1625 54 30.1 54H24.1C22.975 54 22.1 53.125 22.1 52V46C22.1 44.9375 22.975 44 24.1 44H30.1ZM56.1 27C58.2875 27 60.1 28.8125 60.1 31C60.1 33.25 58.2875 35 56.1 35C54.4125 35 52.975 34 52.35 32.5H47.4125C50.85 34.5625 53.35 38 54.225 42H51.1625C50.4125 39.4375 48.85 37.1875 46.725 35.6875C46.9125 35.1875 47.1 34.625 47.1 34V29.5H52.35C52.975 28.0625 54.4125 27 56.1 27ZM56.1 44C57.1625 44 58.1 44.9375 58.1 46V52C58.1 53.125 57.1625 54 56.1 54H50.1C48.975 54 48.1 53.125 48.1 52V46C48.1 44.9375 48.975 44 50.1 44H56.1Z" fill="white"></path>
  <rect x="0.5" y="0.5" width="79" height="79" rx="15.5" stroke="#656565" stroke-opacity="0.1"></rect>
</svg>
