<?xml version="1.0" encoding="UTF-8"?>
<svg xmlns="http://www.w3.org/2000/svg" width="47" height="47" viewBox="0 0 47 47" fill="none">
  <path d="M10.2928 30.2911L9.23532 33.9898C8.7477 35.6938 9.08042 37.4819 10.1475 38.8972C11.2146 40.3125 12.8439 41.125 14.6168 41.125H25.4593C26.5407 41.125 27.4177 40.249 27.4177 39.1667C27.4177 38.0843 26.5407 37.2083 25.4593 37.2083H14.6168C14.0842 37.2083 13.5956 36.9655 13.2752 36.539C12.9548 36.1144 12.8545 35.579 13.0008 35.0663L14.0583 31.3658C14.723 29.0403 16.8754 27.4167 19.2937 27.4167H27.7085C29.0913 27.4167 30.4108 27.9368 31.4234 28.8797C32.2113 29.6161 33.4534 29.5759 34.1908 28.7822C34.9281 27.9924 34.885 26.7532 34.0932 26.0149C32.3536 24.3932 30.0865 23.5 27.7083 23.5H19.2937C15.135 23.5 11.4336 26.2922 10.2928 30.2911ZM31.3343 13.7083C31.3343 9.38805 27.8203 5.875 23.501 5.875C19.1817 5.875 15.6677 9.38805 15.6677 13.7083C15.6677 18.0286 19.1817 21.5417 23.501 21.5417C27.8203 21.5417 31.3343 18.0286 31.3343 13.7083ZM19.5843 13.7083C19.5843 11.5493 21.341 9.79167 23.501 9.79167C25.661 9.79167 27.4177 11.5493 27.4177 13.7083C27.4177 15.8674 25.661 17.625 23.501 17.625C21.341 17.625 19.5843 15.8674 19.5843 13.7083Z" fill="#CC3199"></path>
  <path d="M34.5969 31.3333C31.7178 31.3333 29.375 33.676 29.375 36.5561C29.375 39.4343 31.7178 41.777 34.5969 41.777C35.3197 41.777 36.0085 41.6288 36.6351 41.3621L37.7819 42.5095C38.1636 42.8919 38.6655 43.0833 39.1667 43.0833C39.6678 43.0833 40.1687 42.8919 40.5512 42.5095C41.3161 41.7445 41.3161 40.5053 40.5512 39.7402L39.4048 38.5932C39.6715 37.9667 39.8198 37.2784 39.8198 36.5559C39.8198 33.676 37.477 31.3333 34.5969 31.3333ZM34.5969 37.8604C33.8768 37.8604 33.2917 37.2752 33.2917 36.5561C33.2917 35.8351 33.8768 35.2499 34.5969 35.2499C35.317 35.2499 35.9031 35.8351 35.9031 36.5561C35.9031 37.2752 35.317 37.8604 34.5969 37.8604Z" fill="#CC3199"></path>
</svg>
