<svg fill="none" height="32" viewBox="0 0 32 32" width="32" xmlns="http://www.w3.org/2000/svg"><path clip-rule="evenodd" d="m26.2395 17.8621c0-.2469-.0981-.4837-.2727-.6583s-.4114-.2727-.6583-.2727h-18.62073c-.24693 0-.48374.0981-.65834.2727s-.2727.4114-.2727.6583v10.2414c-.00024.3669.07184.7302.21212 1.0692s.34601.647.60542.9064.56742.4651.9064.6054c.33899.1403.7023.2124 1.06917.2121h14.89656c.7411 0 1.4524-.2951 1.9738-.8193.5242-.5223.8193-1.2336.8193-1.9738zm0-13.96548c0-.7411-.2942-1.45148-.8184-1.97472-.2592-.25955-.567-.46543-.9058-.60586-.3389-.14043-.7021-.21265-1.0689-.21252h-14.89656c-.74111 0-1.45148.2942-1.97473.81838-.25954.25918-.46542.567-.60585.90585s-.21265.70207-.21253 1.06887v8.37928c0 .7411.29421 1.4515.81838 1.9748.25919.2595.56701.4654.90586.6058s.70207.2127 1.06887.2125h14.89656c.7411 0 1.4515-.2942 1.9747-.8183.2596-.2592.4654-.5671.6059-.9059.1404-.3389.2126-.7021.2125-1.0689zm-13.9655.93103c-.7283.01881-1.4205.32133-1.9289.84309-.50848.52176-.79303 1.22148-.79303 1.95002 0 .72853.28455 1.42825.79303 1.95001.5084.52173 1.2006.82433 1.9289.84313.7283-.0188 1.4204-.3214 1.9289-.84313.5084-.52176.793-1.22148.793-1.95001 0-.72854-.2846-1.42826-.793-1.95002-.5085-.52176-1.2006-.82428-1.9289-.84309zm7.4483 0c-.7283.01881-1.4205.32133-1.9289.84309-.5085.52176-.7931 1.22148-.7931 1.95002 0 .72853.2846 1.42825.7931 1.95001.5084.52173 1.2006.82433 1.9289.84313.7282-.0188 1.4204-.3214 1.9288-.84313.5085-.52176.7931-1.22148.7931-1.95001 0-.72854-.2846-1.42826-.7931-1.95002-.5084-.52176-1.2006-.82428-1.9288-.84309zm8.2201 12.10345h.1592c.7411 0 1.4514.2942 1.9747.8184.5242.5232.8184 1.2336.8184 1.9747v5.5862c0 .7411-.2942 1.4515-.8184 1.9747-.2592.2596-.567.4655-.9059.6059-.3388.1404-.702.2126-1.0688.2125v-10.2414c0-.3268-.0559-.6396-.1592-.931zm-23.88853 0h-.1592c-.74111 0-1.45149.2942-1.97473.8184-.25954.2592-.46543.567-.60585.9058-.14043.3389-.21265.7021-.21253 1.0689v5.5862c0 .7411.29421 1.4515.81838 1.9747.25918.2596.56701.4655.90586.6059s.70207.2126 1.06887.2125v-10.2414c0-.3268.05586-.6396.1592-.931z" fill="#000" fill-rule="evenodd"/></svg>