<?xml version="1.0" encoding="UTF-8"?>
<svg xmlns="http://www.w3.org/2000/svg" width="28" height="35" viewBox="0 0 28 35" fill="none">
  <g clip-path="url(#clip0_8751_15463)">
    <g clip-path="url(#clip1_8751_15463)">
      <path d="M1.38269 26.2952H10.5953C10.5953 26.2952 8.83475 18.2604 14.6651 15.0063C15.9364 14.3881 19.9831 12.0796 26.607 16.9768C26.8169 16.8016 27.0153 16.6619 27.0153 16.6619C27.0153 16.6619 20.951 10.6092 14.199 11.2894C10.8052 11.5927 6.63037 14.6832 4.18134 18.7646C2.75297 21.0618 1.80121 23.6227 1.38269 26.2952Z" fill="#CC0000"></path>
      <path d="M1.38269 26.2952H10.5953C10.5953 26.2952 8.83475 18.2604 14.6651 15.0063C15.9364 14.3881 19.9831 12.0796 26.607 16.9768C26.8169 16.8016 27.0153 16.6619 27.0153 16.6619C27.0153 16.6619 20.951 10.6092 14.199 11.2894C10.8052 11.5927 6.63037 14.6832 4.18134 18.7646C2.75297 21.0618 1.80121 23.6227 1.38269 26.2952Z" fill="#CC0000"></path>
      <path d="M1.38269 26.2952H10.5953C10.5953 26.2952 8.83475 18.2604 14.6651 15.0063C15.9364 14.3881 19.9831 12.0796 26.607 16.9768C26.8169 16.8016 27.0153 16.6619 27.0153 16.6619C27.0153 16.6619 20.951 10.6092 14.199 11.2894C10.7936 11.5927 6.6188 14.6832 4.16977 18.7646C2.74139 21.0607 1.79327 23.6224 1.38269 26.2952Z" fill="#CC0000"></path>
      <path d="M20.5782 11.9401L20.6245 11.159C20.2627 10.9834 19.8835 10.8466 19.4929 10.7507L19.4467 11.5202C19.8318 11.6484 20.2046 11.7889 20.5782 11.9401Z" fill="#CC0000"></path>
      <path d="M19.4697 14.4124L19.4235 15.1471C19.8126 15.159 20.1999 15.2057 20.5806 15.2868L20.6269 14.5636C20.2452 14.486 19.8586 14.4354 19.4697 14.4124Z" fill="#CC0000"></path>
      <path d="M15.1585 10.7739H15.275L15.0387 10.0623C14.6643 10.0631 14.2903 10.0866 13.9187 10.1325L14.1402 10.8202C14.4786 10.7872 14.8185 10.7717 15.1585 10.7739Z" fill="#CC0000"></path>
      <path d="M15.7147 15.0644L15.9825 15.8695C16.3103 15.7084 16.6495 15.572 16.9975 15.4612L16.7413 14.6917C16.3914 14.7937 16.0485 14.9182 15.7147 15.0644Z" fill="#CC0000"></path>
      <path d="M10.42 11.9987L9.89516 11.1936C9.60339 11.3449 9.30005 11.5085 8.98596 11.6953L9.52239 12.5119C9.82573 12.3251 10.1175 12.1499 10.42 11.9987Z" fill="#CC0000"></path>
      <path d="M12.8113 17.2455L13.3708 18.0853C13.5768 17.7912 13.8068 17.5147 14.0585 17.2587L13.5337 16.4661C13.2718 16.7055 13.0302 16.9662 12.8113 17.2455Z" fill="#CC0000"></path>
      <path d="M11.1201 21.0012L12.0648 21.7451C12.1135 21.2847 12.1964 20.8285 12.3128 20.3805L11.4731 19.7192C11.3299 20.1391 11.212 20.5672 11.1201 21.0012Z" fill="#CC0000"></path>
      <path d="M6.01207 15.462L5.18554 14.7388C4.8822 15.0305 4.59043 15.3215 4.32263 15.6132L5.22025 16.3828C5.46823 16.0625 5.73252 15.7551 6.01207 15.462Z" fill="#CC0000"></path>
      <path d="M2.49022 20.675L1.14462 20.1848C0.923104 20.6865 0.678449 21.2692 0.56604 21.5841L1.90751 22.0743C2.05877 21.6775 2.30177 21.1064 2.49022 20.675Z" fill="#CC0000"></path>
      <path d="M10.9449 23.9626C10.9609 24.4549 11.0076 24.9457 11.0846 25.4322L12.484 25.9339C12.3655 25.4336 12.2721 24.9283 12.2038 24.4181L10.9449 23.9626Z" fill="#CC0000"></path>
    </g>
  </g>
  <defs>
    <clipPath id="clip0_8751_15463">
      <rect width="26.4492" height="33.6626" fill="white" transform="translate(0.56604 0.945068)"></rect>
    </clipPath>
    <clipPath id="clip1_8751_15463">
      <rect width="26.4492" height="26.4492" fill="white" transform="translate(0.56604 4.55176)"></rect>
    </clipPath>
  </defs>
</svg>
