<?xml version="1.0" encoding="UTF-8"?>
<svg xmlns="http://www.w3.org/2000/svg" width="33" height="33" viewBox="0 0 33 33" fill="none">
  <mask id="mask0_20408_8311" style="mask-type:alpha" maskUnits="userSpaceOnUse" x="0" y="0" width="33" height="33">
    <rect width="33" height="33" fill="#D9D9D9"></rect>
  </mask>
  <g mask="url(#mask0_20408_8311)">
    <path d="M19.9438 30.25C19.3708 30.25 18.8839 30.0495 18.4828 29.6484C18.0818 29.2474 17.8813 28.7604 17.8813 28.1875V21.3125C17.8813 20.7396 18.0818 20.2526 18.4828 19.8516C18.8839 19.4505 19.3708 19.25 19.9438 19.25H22.0063L23.3813 17.875H26.1313L27.5063 19.25H29.5688C30.1417 19.25 30.6286 19.4505 31.0297 19.8516C31.4307 20.2526 31.6313 20.7396 31.6313 21.3125V28.1875C31.6313 28.7604 31.4307 29.2474 31.0297 29.6484C30.6286 30.0495 30.1417 30.25 29.5688 30.25H19.9438ZM24.7563 27.5C25.5125 27.5 26.1599 27.2307 26.6984 26.6922C27.237 26.1536 27.5063 25.5063 27.5063 24.75C27.5063 23.9937 27.237 23.3464 26.6984 22.8078C26.1599 22.2693 25.5125 22 24.7563 22C24 22 23.3526 22.2693 22.8141 22.8078C22.2755 23.3464 22.0063 23.9937 22.0063 24.75C22.0063 25.5063 22.2755 26.1536 22.8141 26.6922C23.3526 27.2307 24 27.5 24.7563 27.5ZM16.575 11.6875C15.2458 11.6875 14.1115 12.1573 13.1719 13.0969C12.2323 14.0365 11.7625 15.1708 11.7625 16.5C11.7625 17.6 12.0719 18.5625 12.6906 19.3875C13.3094 20.2125 14.1229 20.7854 15.1313 21.1063V18.0125C14.9479 17.8292 14.799 17.5943 14.6844 17.3078C14.5698 17.0214 14.5125 16.7521 14.5125 16.5C14.5125 15.9271 14.713 15.4401 15.1141 15.0391C15.5151 14.638 16.0021 14.4375 16.575 14.4375C16.8958 14.4375 17.1823 14.5005 17.4344 14.6266C17.6865 14.7526 17.9042 14.9187 18.0875 15.125H21.1813C20.8833 14.1167 20.3161 13.2917 19.4797 12.65C18.6432 12.0083 17.675 11.6875 16.575 11.6875ZM12.725 30.25L12.175 25.85C11.8771 25.7354 11.5964 25.5979 11.3328 25.4375C11.0693 25.2771 10.8115 25.1052 10.5594 24.9219L6.46875 26.6406L2.6875 20.1094L6.22813 17.4281C6.20521 17.2677 6.19375 17.113 6.19375 16.9641V16.0359C6.19375 15.887 6.20521 15.7323 6.22813 15.5719L2.6875 12.8906L6.46875 6.35938L10.5594 8.07812C10.8115 7.89479 11.075 7.72292 11.35 7.5625C11.625 7.40208 11.9 7.26458 12.175 7.15L12.725 2.75H20.2875L20.8375 7.15C21.1354 7.26458 21.4161 7.40208 21.6797 7.5625C21.9432 7.72292 22.201 7.89479 22.4531 8.07812L26.5438 6.35938L30.325 12.8906L27.4031 15.125H23.9313C23.9083 15.0104 23.8854 14.8901 23.8625 14.7641C23.8396 14.638 23.8052 14.5177 23.7594 14.4031L26.7156 12.1687L25.375 9.83125L21.9719 11.275C21.4677 10.7479 20.912 10.3068 20.3047 9.95156C19.6974 9.59635 19.0385 9.32708 18.3281 9.14375L17.8813 5.5H15.1656L14.6844 9.14375C13.974 9.32708 13.3151 9.59635 12.7078 9.95156C12.1005 10.3068 11.5448 10.7365 11.0406 11.2406L7.6375 9.83125L6.29688 12.1687L9.25313 14.3687C9.13854 14.7125 9.05833 15.0562 9.0125 15.4C8.96667 15.7437 8.94375 16.1104 8.94375 16.5C8.94375 16.8667 8.96667 17.2219 9.0125 17.5656C9.05833 17.9094 9.13854 18.2531 9.25313 18.5969L6.29688 20.8313L7.6375 23.1688L11.0406 21.725C11.5906 22.2979 12.2094 22.7792 12.8969 23.1688C13.5844 23.5583 14.3292 23.8104 15.1313 23.925V30.25H12.725Z" fill="#511374"></path>
  </g>
</svg>
