<svg fill="none" height="40" viewBox="0 0 41 40" width="41" xmlns="http://www.w3.org/2000/svg" xmlns:xlink="http://www.w3.org/1999/xlink"><clipPath id="a"><path d="m.984375 0h40v40h-40z"/></clipPath><g clip-path="url(#a)" fill="#000"><path d="m20.0763 28.799c0-4.44 3.61-8.05 8.05-8.05.76 0 1.5.105 2.2.305l.625-5.735c.295-2.685-1.81-5.03-4.515-5.03h-2.575v-1.1855c0-2.7335-2.2235-4.9575-4.957-4.9575s-4.957 2.224-4.957 4.9575v1.185h-2.5805c-2.70495 0-4.80995 2.345-4.51495 5.03l1.79 16.48c.25 2.305 2.19495 4.055 4.51495 4.055h11.09c-2.485-1.37-4.17-4.02-4.17-7.055zm5.085-13.965c0 .995-.805 1.8-1.795 1.8-.995 0-1.805-.805-1.805-1.8 0-.815.5515-1.496 1.3-1.715v1.426c0 .1326.0527.2598.1465.3535.0938.0938.2209.1465.3535.1465.1327 0 .2598-.0527.3536-.1465.0938-.0937.1464-.2209.1464-.3535v-1.428c.748.2165 1.3.9005 1.3 1.717zm-10.2145-5.731c0-2.1825 1.775-3.9575 3.957-3.9575s3.957 1.775 3.957 3.9575v1.185h-7.9135v-1.185zm-.506 7.53c-.99 0-1.8-.805-1.8-1.8 0-.8175.556-1.5015 1.306-1.717v1.4285c0 .1326.0527.2598.1465.3535.0938.0938.2209.1465.3535.1465.1327 0 .2598-.0527.3536-.1465.0938-.0937.1464-.2209.1464-.3535v-1.425c.744.22 1.294.9005 1.294 1.7135 0 .995-.81 1.8-1.8 1.8z"/><path d="m28.1248 21.7476c-3.897 0-7.0545 3.155-7.0545 7.052 0 3.8945 3.1575 7.052 7.0545 7.052 3.894 0 7.0515-3.1575 7.0515-7.052 0-3.8965-3.1575-7.052-7.0515-7.052zm-.003 6.5525c.5099 0 .9989.2022 1.3598.5624.3609.3601.5642.8487.5652 1.3586 0 .886-.607 1.626-1.425 1.8475v.5075c0 .1326-.0527.2597-.1464.3535-.0938.0938-.221.1465-.3536.1465s-.2598-.0527-.3535-.1465c-.0938-.0938-.1465-.2209-.1465-.3535v-.508c-.816-.2215-1.421-.9615-1.421-1.847 0-.1326.0527-.2598.1465-.3536.0937-.0938.2209-.1464.3535-.1464s.2598.0526.3536.1464c.0937.0938.1464.221.1464.3536 0 .2447.0972.4794.2703.6524.173.1731.4077.2703.6525.2703.2447 0 .4794-.0972.6524-.2703.1731-.173.2703-.4077.2703-.6524 0-.508-.415-.921-.925-.921-.5093-.0008-.9974-.2036-1.3575-.5638-.36-.3602-.5625-.8485-.563-1.3577 0-.885.605-1.625 1.421-1.8465v-.508c0-.1326.0527-.2598.1465-.3536.0937-.0938.2209-.1464.3535-.1464s.2598.0526.3536.1464c.0937.0938.1464.221.1464.3536v.508c.818.221 1.425.961 1.425 1.8465 0 .1326-.0527.2597-.1464.3535-.0938.0938-.221.1465-.3536.1465s-.2598-.0527-.3535-.1465c-.0938-.0938-.1465-.2209-.1465-.3535 0-.5075-.415-.9205-.925-.9205-.508 0-.921.413-.921.9205s.413.9215.921.9215z"/></g></svg>