<svg fill="none" height="28" viewBox="0 0 22 28" width="22" xmlns="http://www.w3.org/2000/svg"><path d="m8.8303 5.44134c-4.71316 0-8.533425-.83825-8.533425-1.86703v20.18209c0 1.034 3.820265 1.8673 8.533425 1.8673 4.713 0 8.5332-.8383 8.5332-1.8673v-20.1939c0 1.04081-3.8202 1.87884-8.5332 1.87884z" fill="#d1d1d1"/><path d="m.296875 3.56272v20.19388c0 1.0341 3.820265 1.8673 8.533425 1.8673v-20.18234c-4.71316 0-8.533425-.83825-8.533425-1.87906zm15.867025.96359v20.18229c.7605-.2793 1.1996-.6074 1.1996-.957v-20.1891c0 .35722-.4377.67944-1.1996.96381z" fill="#adadad"/><path d="m17.3635 3.57063c0-1.03316-3.8207-1.87141-8.5332-1.87141-4.71316 0-8.533425.83825-8.533425 1.87141 0 1.03381 3.820265 1.87206 8.533425 1.87206 4.7123 0 8.5332-.83825 8.5332-1.87206zm-17.066625 12.69167c0 1.034 3.820265 1.867 8.533425 1.867 4.713 0 8.5332-.8382 8.5332-1.867v1.5277c0 1.0332-3.8202 1.8664-8.5332 1.8664-4.71316 0-8.533425-.8382-8.533425-1.8664zm0-6.72658c0 1.03318 3.820265 1.86708 8.533425 1.86708 4.713 0 8.5332-.8392 8.5332-1.86708v1.52688c0 1.034-3.8202 1.8672-8.5332 1.8672-4.71316 0-8.533425-.8382-8.533425-1.867z" fill="#939699"/><path d="m21.7659 20.3661c0 3.5614-2.2679 6.4487-5.0662 6.4487s-5.0669-2.8873-5.0669-6.4487c0-3.5615 2.2686-6.4481 5.0669-6.4481s5.0662 2.8866 5.0662 6.4481z" fill="#ecedf0"/><path d="m21.1403 20.3634c0 3.1223-1.9886 5.6525-4.4412 5.6525-2.4532 0-4.4413-2.5302-4.4413-5.6525 0-3.1215 1.9881-5.6525 4.4413-5.6525 2.4526 0 4.4412 2.531 4.4412 5.6525z" fill="#3faa00"/><path d="m15.1408 23.1662 4.1296-3.034-4.1298-3.0345z" fill="#fff"/></svg>