<?xml version="1.0" encoding="UTF-8"?>
<svg xmlns="http://www.w3.org/2000/svg" width="90" height="79" viewBox="0 0 90 79" fill="none">
  <mask id="mask0_13263_5146" style="mask-type:luminance" maskUnits="userSpaceOnUse" x="8" y="3" width="74" height="73">
    <path d="M27.2604 71.32C26.1726 70.7254 25.1236 70.0709 24.1501 69.3547C23.373 68.7831 22.336 68.019 21.5893 67.4078C20.9763 66.9063 20.178 66.2122 19.6231 65.6471C18.9658 64.9769 18.0855 64.0855 17.4633 63.3822C16.9212 62.7692 16.2363 61.9174 15.745 61.2629C15.1891 60.5209 14.4913 59.4986 13.9972 58.715C13.552 58.0089 12.9823 57.0493 12.6136 56.2999C12.2043 55.4684 11.6613 54.3576 11.3009 53.504C10.97 52.7204 10.5837 51.652 10.3099 50.8464C9.81031 49.3788 9.30238 47.3656 9.05165 45.8354C8.76588 44.0903 8.51884 41.736 8.50132 39.968C8.4921 38.9973 8.53174 37.7021 8.60088 36.7342C8.66264 35.8594 8.82765 34.7007 8.93642 33.8305C9.05349 32.8875 9.33833 31.6485 9.56326 30.7249C9.76514 29.8943 10.0878 28.7992 10.3579 27.9871C10.6565 27.0892 11.1138 25.9111 11.4862 25.0409C11.8153 24.2703 12.3315 23.2784 12.6956 22.5244C13.1132 21.6578 13.7999 20.5701 14.318 19.7598C14.7596 19.0685 15.4168 18.1927 15.8888 17.5226C16.4695 16.6994 17.3637 15.6918 18.0403 14.9461C18.5741 14.358 19.3124 13.5975 19.8969 13.061C20.7182 12.3078 21.853 11.3482 22.7232 10.6522C23.3011 10.1904 24.1133 9.62625 24.729 9.21604C25.3439 8.80675 26.1901 8.30251 26.8225 7.92272C27.8937 7.27837 29.3935 6.53354 30.5522 6.06249C31.3072 5.75552 32.3175 5.35453 33.0881 5.09181C33.8735 4.82448 34.9354 4.5083 35.7383 4.29905C36.4915 4.10362 37.5046 3.8704 38.2706 3.73397C38.6301 3.66944 39.1094 3.58279 39.4708 3.53209C40.0257 3.45374 40.7669 3.36432 41.3237 3.30348C41.3651 3.29887 42.3589 3.19102 43.7923 3.14769C44.0292 3.14032 44.3445 3.13295 44.5804 3.13387C45.0533 3.13571 45.6848 3.14309 46.1577 3.15691C46.6794 3.17258 47.8861 3.24633 48.7028 3.33851C49.243 3.39935 49.8932 3.48628 50.6534 3.59939C50.9668 3.64548 51.3807 3.72752 51.6923 3.78283C52.0877 3.85289 52.6095 3.96904 53.0004 4.05845C53.3755 4.14418 53.8724 4.27232 54.2457 4.36818C54.7942 4.50922 55.5188 4.72216 56.0543 4.90376C56.8093 5.16003 57.8095 5.52138 58.5497 5.81728C59.1203 6.04497 59.8716 6.37591 60.4238 6.64508C61.2221 7.03409 62.272 7.58349 63.0436 8.02412C63.687 8.39101 64.5296 8.90907 65.1361 9.33311C65.751 9.7636 66.5742 10.3351 67.1632 10.8006C67.9034 11.3869 68.8713 12.1954 69.5636 12.8388C70.1517 13.3854 70.915 14.1376 71.4589 14.7285C72.0913 15.4153 72.9108 16.3546 73.4814 17.0939C74.4354 18.3282 75.4854 19.7709 76.6985 21.9556C77.5171 23.4296 78.3983 25.5074 79.0224 27.0735C79.3699 27.9456 79.7156 29.1513 79.9618 30.0575C80.1885 30.8936 80.4061 32.0293 80.596 32.8736C80.8052 33.8065 80.9592 35.0768 81.0338 36.0299C81.1186 37.114 81.2385 38.564 81.1951 39.6509C81.1601 40.5376 81.1417 41.7231 81.0624 42.6081C80.9776 43.5658 80.8458 44.8462 80.6485 45.7874C80.4715 46.6318 80.2595 47.7647 80.0392 48.599C79.7958 49.5245 79.4253 50.7468 79.1045 51.6483C78.8215 52.443 78.4076 53.4911 78.06 54.2599C77.6581 55.1476 77.093 56.3211 76.6045 57.1654C75.7813 58.5869 74.5516 60.4056 73.5818 61.7321C72.9854 62.5489 72.0599 63.5361 71.3944 64.2976C70.8735 64.894 70.113 65.6296 69.5231 66.1578C68.686 66.9082 67.5227 67.8549 66.6451 68.5582C65.963 69.1058 64.9923 69.7603 64.2447 70.2147C63.1717 70.8674 61.7042 71.6795 60.5823 72.2455C59.7877 72.6456 58.6898 73.101 57.8602 73.4208C57.0812 73.7213 56.0267 74.0808 55.2256 74.3122C53.4723 74.8183 52.7883 74.9612 51.4148 75.2313C50.7327 75.3649 49.373 75.5677 48.3664 75.6608C47.652 75.7272 47.0896 75.7687 46.6969 75.7844C45.5207 75.8332 45.4534 75.8323 44.3251 75.8277C44.1712 75.8277 42.7728 75.8148 40.99 75.6267C39.9335 75.5152 39.0486 75.3668 39.0394 75.3659C38.6974 75.3087 38.242 75.2304 37.9019 75.164C37.5377 75.093 37.0547 74.9842 36.6915 74.9068C36.2241 74.8072 35.6084 74.6432 35.1475 74.5159C34.6912 74.3897 34.0883 74.2034 33.6375 74.0615C33.0015 73.8624 32.3719 73.6402 31.7505 73.3978C30.2452 72.8097 28.7187 72.1192 27.2604 71.3218V71.32Z" fill="white"></path>
  </mask>
  <g mask="url(#mask0_13263_5146)">
    <path d="M45.1197 74.4164C27.2235 76.9892 12.5426 63.5721 12.2891 44.3613" stroke="white" stroke-width="0.07" stroke-miterlimit="10"></path>
    <path d="M60.9789 48.3306C61.2334 67.6086 54.2156 79.2742 45.3052 74.3877C45.2426 74.3969 45.1799 74.4061 45.1172 74.4153" stroke="white" stroke-width="0.07" stroke-miterlimit="10"></path>
    <path d="M28.8125 72.085C33.3101 74.5518 44.3129 75.4487 53.3882 74.089" stroke="white" stroke-width="0.07" stroke-miterlimit="10"></path>
    <path d="M16.9688 61.3125C24.6623 65.5317 43.4868 67.0665 59.013 64.7408" stroke="white" stroke-width="0.07" stroke-miterlimit="10"></path>
    <path d="M45.3053 74.3888C34.2766 79.1813 25.1294 67.4392 24.875 48.1611" stroke="white" stroke-width="0.07" stroke-miterlimit="10"></path>
    <path d="M45.3056 74.3889C43.9238 79.9677 42.5982 68.8635 42.3438 49.5854" stroke="white" stroke-width="0.07" stroke-miterlimit="10"></path>
    <path d="M77.4034 34.6055C77.6578 53.8835 63.2857 71.6949 45.3047 74.3885" stroke="white" stroke-width="0.07" stroke-miterlimit="10"></path>
    <path d="M81.1885 39.1855C81.2733 37.6304 80.062 36.0615 77.4062 34.605" stroke="white" stroke-width="0.07" stroke-miterlimit="10"></path>
    <path d="M45.3047 74.3885C54.215 79.2751 61.2328 67.6094 60.9784 48.3314C73.6009 46.4408 80.9856 42.8493 81.1847 39.186" stroke="white" stroke-width="0.07" stroke-miterlimit="10"></path>
    <path d="M53.3828 74.0891C62.4581 72.7294 66.1694 69.6275 61.6727 67.1616" stroke="white" stroke-width="0.07" stroke-miterlimit="10"></path>
    <path d="M76.4203 57.1341C76.6711 55.6961 75.646 54.2369 73.1875 52.8892" stroke="white" stroke-width="0.07" stroke-miterlimit="10"></path>
    <path d="M59.0078 64.7411C69.5728 63.1584 75.8891 60.1956 76.4228 57.1343" stroke="white" stroke-width="0.07" stroke-miterlimit="10"></path>
    <path d="M45.3047 74.389C62.0735 77.2485 75.463 63.9401 75.2085 44.6621" stroke="white" stroke-width="0.07" stroke-miterlimit="10"></path>
    <path d="M45.3047 74.3885C65.3275 74.5287 81.3552 59.0153 81.1008 39.7373" stroke="white" stroke-width="0.07" stroke-miterlimit="10"></path>
    <path d="M77.4033 34.6058C68.493 29.7193 46.6929 27.942 28.7109 30.6356" stroke="white" stroke-width="0.07" stroke-miterlimit="10"></path>
    <path d="M28.7109 30.6343C28.9654 49.9123 36.3943 69.501 45.3046 74.3876" stroke="white" stroke-width="0.07" stroke-miterlimit="10"></path>
    <path d="M61.6773 67.1607C57.1797 64.6939 46.1769 63.7969 37.1016 65.1566" stroke="white" stroke-width="0.07" stroke-miterlimit="10"></path>
    <path d="M73.1927 52.8892C65.4991 48.67 46.6747 47.1352 31.1484 49.4609" stroke="white" stroke-width="0.07" stroke-miterlimit="10"></path>
    <path d="M45.3047 74.3889C56.3333 69.5964 65.0685 50.0842 64.815 30.8062" stroke="white" stroke-width="0.07" stroke-miterlimit="10"></path>
    <path d="M45.3047 74.3888C46.6865 68.8099 47.6009 48.6589 47.3465 29.3818" stroke="white" stroke-width="0.07" stroke-miterlimit="10"></path>
    <path d="M8.51351 39.6582C8.3568 41.2539 9.5607 42.8661 12.2865 44.3613" stroke="white" stroke-width="0.07" stroke-miterlimit="10"></path>
    <path d="M45.3064 74.3885C36.3961 69.502 28.9671 49.9133 28.7127 30.6353C16.2313 32.5047 8.87053 36.038 8.51562 39.658" stroke="white" stroke-width="0.07" stroke-miterlimit="10"></path>
    <path d="M37.099 65.1577C28.0237 66.5174 24.3124 69.6193 28.8091 72.0852" stroke="white" stroke-width="0.07" stroke-miterlimit="10"></path>
    <path d="M14.0078 58.7095C14.4678 59.599 15.4403 60.4766 16.9641 61.3118" stroke="white" stroke-width="0.07" stroke-miterlimit="10"></path>
    <path d="M31.1467 49.4609C18.6948 51.3267 12.1452 55.1089 14.0082 58.7096" stroke="white" stroke-width="0.07" stroke-miterlimit="10"></path>
    <path d="M45.3004 74.3887C28.7768 71.4518 15.4205 53.3675 14.4766 34.3052" stroke="white" stroke-width="0.07" stroke-miterlimit="10"></path>
    <path d="M45.302 74.3887C25.2792 74.2486 8.84036 58.5075 8.58594 39.2295" stroke="white" stroke-width="0.07" stroke-miterlimit="10"></path>
    <path d="M12.2899 44.3606C12.1618 24.8834 26.4942 7.13195 44.3886 4.57666C53.2989 9.46323 60.7279 29.0538 60.9823 48.3318C43.0013 51.0253 21.2002 49.2481 12.2899 44.3615V44.3606Z" stroke="white" stroke-width="0.07" stroke-miterlimit="10"></path>
    <path d="M16.5 26.0771C24.1935 30.2963 43.018 31.8312 58.5442 29.5054" stroke="white" stroke-width="0.07" stroke-miterlimit="10"></path>
    <path d="M28.0156 11.8042C32.5132 14.271 43.516 15.1679 52.5914 13.8082" stroke="white" stroke-width="0.07" stroke-miterlimit="10"></path>
    <path d="M24.8804 48.1603C24.626 28.8822 33.3621 9.36823 44.3907 4.57568" stroke="white" stroke-width="0.07" stroke-miterlimit="10"></path>
    <path d="M42.3472 49.5855C42.0928 30.3074 43.0072 10.1555 44.389 4.57666" stroke="white" stroke-width="0.07" stroke-miterlimit="10"></path>
    <path d="M44.3906 4.57682C62.3717 1.88326 77.1549 15.328 77.4093 34.606" stroke="white" stroke-width="0.07" stroke-miterlimit="10"></path>
    <path d="M75.5436 20.0113C75.0403 19.2057 74.1102 18.412 72.7266 17.6533" stroke="white" stroke-width="0.07" stroke-miterlimit="10"></path>
    <path d="M58.5391 29.5051C71.2731 27.5969 77.8346 23.6847 75.5374 20.0112" stroke="white" stroke-width="0.07" stroke-miterlimit="10"></path>
    <path d="M52.5938 13.8074C61.6691 12.4477 65.3803 9.34575 60.8837 6.87988" stroke="white" stroke-width="0.07" stroke-miterlimit="10"></path>
    <path d="M75.2145 44.6611C74.96 25.3831 61.1595 7.43615 44.3906 4.57666" stroke="white" stroke-width="0.07" stroke-miterlimit="10"></path>
    <path d="M81.1067 39.7377C80.8523 20.4596 64.4135 4.7177 44.3906 4.57666" stroke="white" stroke-width="0.07" stroke-miterlimit="10"></path>
    <path d="M44.3835 4.57634C35.4732 -0.310231 28.4554 11.3572 28.7098 30.6353" stroke="white" stroke-width="0.07" stroke-miterlimit="10"></path>
    <path d="M72.7239 17.6533C65.0304 13.4342 46.2059 11.8993 30.6797 14.2251" stroke="white" stroke-width="0.07" stroke-miterlimit="10"></path>
    <path d="M60.8804 6.87989C56.3829 4.4131 45.38 3.51617 36.3047 4.87585" stroke="white" stroke-width="0.07" stroke-miterlimit="10"></path>
    <path d="M64.8209 30.8049C64.5665 11.5269 55.4202 -0.216171 44.3906 4.57545" stroke="white" stroke-width="0.07" stroke-miterlimit="10"></path>
    <path d="M47.3524 29.3806C47.098 10.1026 45.7724 -1.0035 44.3906 4.57628" stroke="white" stroke-width="0.07" stroke-miterlimit="10"></path>
    <path d="M14.0786 20.2261C12.4451 22.1554 13.1125 24.2212 16.4956 26.0769" stroke="white" stroke-width="0.07" stroke-miterlimit="10"></path>
    <path d="M30.6852 14.2251C21.9859 15.5286 16.1674 17.7677 14.0859 20.2261" stroke="white" stroke-width="0.07" stroke-miterlimit="10"></path>
    <path d="M36.31 4.87598C27.2346 6.23566 23.5234 9.33759 28.02 11.8035" stroke="white" stroke-width="0.07" stroke-miterlimit="10"></path>
    <path d="M14.4801 34.3053C14.2257 15.0272 27.6151 1.71708 44.384 4.57657" stroke="white" stroke-width="0.07" stroke-miterlimit="10"></path>
    <path d="M8.58893 39.2288C8.3345 19.9508 24.3622 4.4356 44.3851 4.57664" stroke="white" stroke-width="0.07" stroke-miterlimit="10"></path>
    <path d="M27.3949 71.3615C32.5654 74.197 38.7214 75.3742 45.3059 74.3878M27.3949 71.3615C26.4021 70.7927 25.0729 70.0331 24.1501 69.3547C23.373 68.7831 22.336 68.019 21.5893 67.4078C20.9763 66.9063 20.178 66.2122 19.6231 65.6471C18.9658 64.9769 18.0855 64.0855 17.4633 63.3822C16.9212 62.7692 16.2363 61.9174 15.745 61.2629C15.1891 60.5209 14.4913 59.4986 13.9972 58.715C13.552 58.0089 12.9823 57.0493 12.6136 56.2998C12.2043 55.4684 11.6613 54.3576 11.3009 53.504C10.97 52.7204 10.5837 51.652 10.3099 50.8464C9.81031 49.3788 9.30238 47.3656 9.05165 45.8354C8.76588 44.0903 8.51884 41.736 8.50132 39.968C8.4921 38.9973 8.53174 37.7021 8.60088 36.7342C8.66264 35.8594 8.82765 34.7007 8.93642 33.8305C9.05349 32.8875 9.33833 31.6485 9.56326 30.7249C9.76514 29.8943 10.0878 28.7992 10.3579 27.9871C10.6565 27.0892 11.1138 25.9111 11.4862 25.0409C11.8153 24.2703 12.3315 23.2784 12.6956 22.5244C13.1132 21.6578 13.7999 20.5701 14.318 19.7598C14.7596 19.0685 15.4168 18.1927 15.8888 17.5226C16.4695 16.6994 17.3637 15.6918 18.0403 14.9461C18.5741 14.358 19.3124 13.5974 19.8969 13.061C20.7182 12.3078 21.853 11.3482 22.7232 10.6522C23.3011 10.1904 24.1133 9.62625 24.729 9.21604C25.3439 8.80675 26.1901 8.30251 26.8225 7.92272C27.8937 7.27837 29.3935 6.53354 30.5522 6.06249C31.3072 5.75552 32.3175 5.35453 33.0881 5.09181C33.8735 4.82448 34.9354 4.5083 35.7383 4.29905C36.4915 4.10362 37.5046 3.8704 38.2706 3.73397C38.6301 3.66944 39.1094 3.58279 39.4708 3.53209C40.0257 3.45374 40.7669 3.36432 41.3237 3.30348C41.3651 3.29887 42.3589 3.19102 43.7923 3.14769C44.0292 3.14032 44.3445 3.13295 44.5804 3.13387C45.0533 3.13571 45.6848 3.14309 46.1577 3.15691C46.6794 3.17258 47.8861 3.24633 48.7028 3.33851C49.243 3.39935 49.8932 3.48628 50.6534 3.59939C50.9668 3.64548 51.3807 3.72752 51.6923 3.78283C52.0877 3.85289 52.6095 3.96904 53.0003 4.05845C53.3755 4.14418 53.8724 4.27232 54.2457 4.36818C54.7942 4.50922 55.5188 4.72216 56.0543 4.90376C56.8093 5.16003 57.8095 5.52138 58.5497 5.81728C59.1203 6.04497 59.8716 6.37591 60.4238 6.64508C61.2221 7.03409 62.272 7.58349 63.0436 8.02412C63.687 8.39101 64.5296 8.90907 65.1361 9.33311C65.751 9.7636 66.5742 10.3351 67.1632 10.8006C67.9034 11.3869 68.8713 12.1954 69.5636 12.8388C70.1517 13.3854 70.915 14.1376 71.4589 14.7285C72.0913 15.4153 72.9108 16.3546 73.4814 17.0939C74.4354 18.3282 75.4854 19.7709 76.6985 21.9556C77.5171 23.4296 78.3983 25.5074 79.0224 27.0735C79.3699 27.9456 79.7156 29.1513 79.9618 30.0575C80.1885 30.8936 80.4061 32.0293 80.596 32.8736C80.8052 33.8065 80.9592 35.0768 81.0338 36.0299C81.1186 37.114 81.2385 38.564 81.1951 39.6509C81.1601 40.5376 81.1417 41.7231 81.0624 42.6081C80.9776 43.5658 80.8458 44.8462 80.6485 45.7874C80.4715 46.6318 80.2595 47.7647 80.0392 48.599C79.7958 49.5245 79.4253 50.7468 79.1045 51.6483C78.8215 52.443 78.4076 53.4911 78.06 54.2599C77.6581 55.1476 77.093 56.3211 76.6045 57.1654C75.7813 58.5869 74.5516 60.4056 73.5818 61.7321C72.9854 62.5489 72.0599 63.5361 71.3944 64.2976C70.8735 64.894 70.113 65.6296 69.5231 66.1578C68.686 66.9082 67.5227 67.8549 66.6451 68.5582C65.963 69.1058 64.9923 69.7603 64.2447 70.2147C63.1717 70.8674 61.7042 71.6795 60.5823 72.2455C59.7877 72.6456 58.6898 73.101 57.8602 73.4208C57.0813 73.7213 56.0267 74.0808 55.2256 74.3122C53.4723 74.8183 52.7883 74.9612 51.4148 75.2313C50.7327 75.3649 49.373 75.5677 48.3664 75.6608C47.652 75.7272 47.0896 75.7687 46.6969 75.7844C45.5207 75.8332 45.4534 75.8323 44.3251 75.8277C44.1712 75.8277 42.7728 75.8148 40.99 75.6267C39.9335 75.5152 39.0486 75.3668 39.0394 75.3659C38.6974 75.3087 38.242 75.2304 37.9019 75.164C37.5377 75.093 37.0547 74.9842 36.6915 74.9068C36.2241 74.8072 35.6084 74.6432 35.1475 74.5159C34.6912 74.3897 34.0883 74.2034 33.6375 74.0615C32.877 73.8227 31.8741 73.4651 31.1421 73.148C29.9991 72.6539 28.5039 71.9293 27.3949 71.3624V71.3615Z" stroke="white" stroke-width="0.07" stroke-miterlimit="10"></path>
  </g>
  <path d="M27.2526 71.32C26.1648 70.7254 25.1158 70.0709 24.1423 69.3547C23.3652 68.7831 22.3282 68.019 21.5815 67.4078C20.9685 66.9063 20.1702 66.2122 19.6153 65.6471C18.958 64.9769 18.0777 64.0855 17.4554 63.3822C16.9134 62.7692 16.2285 61.9174 15.7372 61.2629C15.1813 60.5209 14.4835 59.4986 13.9894 58.715C13.5442 58.0089 12.9745 57.0493 12.6057 56.2998C12.1965 55.4684 11.6535 54.3576 11.2931 53.504C10.9621 52.7204 10.5759 51.652 10.3021 50.8464C9.80249 49.3788 9.29457 47.3656 9.04384 45.8354C8.75807 44.0903 8.51102 41.736 8.49351 39.968C8.48429 38.9973 8.52393 37.7021 8.59307 36.7342C8.65483 35.8594 8.81983 34.7007 8.92861 33.8305C9.04568 32.8875 9.33052 31.6485 9.55545 30.7249C9.75732 29.8943 10.08 28.7992 10.3501 27.9871C10.6487 27.0892 11.1059 25.9111 11.4784 25.0409C11.8075 24.2703 12.3237 23.2784 12.6878 22.5244C13.1054 21.6578 13.7921 20.5701 14.3102 19.7598C14.7517 19.0685 15.409 18.1927 15.881 17.5226C16.4617 16.6994 17.3559 15.6918 18.0325 14.9461C18.5662 14.358 19.3046 13.5974 19.8891 13.061C20.7104 12.3078 21.8452 11.3482 22.7154 10.6522C23.2933 10.1904 24.1055 9.62625 24.7212 9.21604C25.3361 8.80675 26.1823 8.30251 26.8147 7.92272C27.8858 7.27837 29.3856 6.53354 30.5444 6.06249C31.2993 5.75552 32.3097 5.35453 33.0803 5.09181C33.8657 4.82448 34.9276 4.5083 35.7305 4.29905C36.4837 4.10362 37.4967 3.8704 38.2628 3.73397C38.6223 3.66944 39.1016 3.58279 39.463 3.53209C40.0179 3.45374 40.7591 3.36432 41.3158 3.30348C41.3573 3.29887 42.351 3.19102 43.7845 3.14769C44.0214 3.14032 44.3366 3.13295 44.5726 3.13387C45.0455 3.13571 45.677 3.14309 46.1499 3.15691C46.6716 3.17258 47.8783 3.24633 48.695 3.33851C49.2352 3.39935 49.8854 3.48628 50.6456 3.59939C50.959 3.64548 51.3729 3.72752 51.6845 3.78283C52.0799 3.85289 52.6017 3.96904 52.9925 4.05845C53.3677 4.14418 53.8646 4.27232 54.2379 4.36818C54.7864 4.50922 55.511 4.72216 56.0465 4.90376C56.8015 5.16003 57.8017 5.52138 58.5419 5.81728C59.1125 6.04497 59.8638 6.37591 60.416 6.64508C61.2143 7.03409 62.2642 7.58349 63.0358 8.02412C63.6792 8.39101 64.5217 8.90907 65.1283 9.33311C65.7432 9.7636 66.5663 10.3351 67.1554 10.8006C67.8956 11.3869 68.8635 12.1954 69.5558 12.8388C70.1439 13.3854 70.9072 14.1376 71.4511 14.7285C72.0834 15.4153 72.9029 16.3546 73.4735 17.0939C74.4276 18.3282 75.4776 19.7709 76.6907 21.9556C77.5093 23.4296 78.3905 25.5074 79.0146 27.0735C79.3621 27.9456 79.7078 29.1513 79.9539 30.0575C80.1807 30.8936 80.3983 32.0293 80.5882 32.8736C80.7974 33.8065 80.9513 35.0768 81.026 36.0299C81.1108 37.114 81.2307 38.564 81.1873 39.6509C81.1523 40.5376 81.1339 41.7231 81.0546 42.6081C80.9698 43.5658 80.838 44.8462 80.6407 45.7874C80.4637 46.6318 80.2517 47.7647 80.0314 48.599C79.788 49.5245 79.4174 50.7468 79.0966 51.6483C78.8136 52.443 78.3998 53.4911 78.0522 54.2599C77.6503 55.1476 77.0852 56.3211 76.5967 57.1654C75.7735 58.5869 74.5438 60.4056 73.574 61.7321C72.9776 62.5489 72.0521 63.5361 71.3865 64.2976C70.8657 64.894 70.1052 65.6296 69.5152 66.1578C68.6782 66.9082 67.5149 67.8549 66.6373 68.5582C65.9552 69.1058 64.9845 69.7603 64.2369 70.2147C63.1639 70.8674 61.6964 71.6795 60.5745 72.2455C59.7799 72.6456 58.682 73.101 57.8524 73.4208C57.0734 73.7213 56.0189 74.0808 55.2178 74.3122C53.4645 74.8183 52.7805 74.9612 51.407 75.2313C50.7249 75.3649 49.3652 75.5677 48.3586 75.6608C47.6441 75.7272 47.0818 75.7687 46.6891 75.7844C45.5129 75.8332 45.4456 75.8323 44.3173 75.8277C44.1633 75.8277 42.7649 75.8148 40.9821 75.6267C39.9257 75.5152 39.0408 75.3668 39.0316 75.3659C38.6896 75.3087 38.2342 75.2304 37.894 75.164C37.5299 75.093 37.0469 74.9842 36.6837 74.9068C36.2163 74.8072 35.6006 74.6432 35.1396 74.5159C34.6833 74.3897 34.0805 74.2034 33.6297 74.0615C32.9936 73.8624 32.364 73.6402 31.7427 73.3978C30.2374 72.8097 28.7109 72.1192 27.2526 71.3218V71.32Z" stroke="white" stroke-width="0.07" stroke-miterlimit="10"></path>
  <path d="M9.82885 32.7959H7.96162V30.6347H12.3358V36.3401C12.0131 36.49 11.4367 36.6398 10.6069 36.7897C9.77699 36.928 9.02203 36.9971 8.34198 36.9971C6.46323 36.9971 5.15501 36.5649 4.41734 35.7004C3.6912 34.836 3.32812 33.401 3.32812 31.3954C3.32812 29.4591 3.75459 28.0471 4.60752 27.1596C5.46046 26.2606 6.82054 25.811 8.68777 25.811C9.36781 25.811 9.97293 25.8283 10.5031 25.8629C11.0449 25.886 11.4598 25.9263 11.748 25.9839V28.3353C11.3676 28.3007 10.9123 28.2776 10.3821 28.2661C9.86343 28.243 9.29865 28.2315 8.68777 28.2315C8.03078 28.2315 7.54092 28.2892 7.21819 28.4044C6.90698 28.5197 6.6707 28.7214 6.50933 29.0095C6.35949 29.2401 6.24999 29.5513 6.18084 29.9431C6.12321 30.3235 6.09439 30.8076 6.09439 31.3954C6.09439 31.9602 6.12321 32.4328 6.18084 32.8132C6.23847 33.1935 6.33068 33.499 6.45746 33.7295C6.61883 34.0407 6.84359 34.2597 7.13174 34.3865C7.43142 34.5133 7.89247 34.5767 8.51488 34.5767C8.72235 34.5767 8.93558 34.5709 9.15458 34.5594C9.3851 34.5363 9.60986 34.5075 9.82885 34.4729V32.7959Z" fill="white"></path>
  <path d="M23.524 31.3954C23.524 33.3664 23.1206 34.7957 22.3138 35.6832C21.5185 36.5591 20.2218 36.9971 18.4237 36.9971C16.545 36.9971 15.2252 36.5822 14.4645 35.7523C13.7038 34.9224 13.3234 33.4701 13.3234 31.3954C13.3234 29.4245 13.7211 28.001 14.5164 27.125C15.3232 26.249 16.6257 25.811 18.4237 25.811C20.3025 25.811 21.6222 26.226 22.383 27.0559C23.1437 27.8857 23.524 29.3323 23.524 31.3954ZM16.3663 33.7122C16.5162 34.0003 16.7352 34.2021 17.0233 34.3173C17.323 34.4326 17.7898 34.4902 18.4237 34.4902C19.0577 34.4902 19.5187 34.4326 19.8069 34.3173C20.1065 34.2021 20.3313 34.0003 20.4811 33.7122C20.5964 33.4817 20.6771 33.182 20.7232 32.8132C20.7808 32.4443 20.8096 31.9717 20.8096 31.3954C20.8096 30.8076 20.7808 30.3293 20.7232 29.9604C20.6771 29.5801 20.5964 29.2746 20.4811 29.0441C20.3428 28.7444 20.1238 28.537 19.8242 28.4217C19.536 28.2949 19.0692 28.2315 18.4237 28.2315C17.7783 28.2315 17.3057 28.2949 17.006 28.4217C16.7179 28.537 16.5046 28.7444 16.3663 29.0441C16.2511 29.2746 16.1646 29.5801 16.107 29.9604C16.0609 30.3293 16.0378 30.8076 16.0378 31.3954C16.0378 31.9717 16.0609 32.4443 16.107 32.8132C16.1646 33.182 16.2511 33.4817 16.3663 33.7122Z" fill="white"></path>
  <path d="M30.0592 33.3318V36.8242H27.3794V25.9839H31.3386C33.0099 25.9839 34.1971 26.2663 34.9002 26.8311C35.6033 27.3959 35.9548 28.3353 35.9548 29.6492C35.9548 30.5367 35.7646 31.2629 35.3843 31.8277C35.0154 32.3809 34.4507 32.7843 33.6899 33.0379L36.3352 36.8242H33.1194L30.8718 33.3318H30.0592ZM33.2404 29.6492C33.2404 29.1882 33.1021 28.8655 32.8255 28.681C32.5489 28.4966 32.0532 28.4044 31.3386 28.4044H27.3578V31.1707H31.3386C32.0532 31.1707 32.5489 31.0612 32.8255 30.8422C33.1021 30.6117 33.2404 30.214 33.2404 29.6492Z" fill="#CC3199"></path>
  <path d="M43.7462 34.3173V36.8242H37.3578V25.9839H43.5906V28.4044H40.0376V30.2025H44.5717V32.4501H40.0376V34.3173H43.7462Z" fill="#CC3199"></path>
  <path d="M57.4847 25.9839V35.7437H54.9778V30.3235L53.1278 34.7495H50.9494L49.134 30.3235V36.8242H46.6271V25.9839H49.8948L52.0905 31.4473L54.3381 25.9839H57.4847Z" fill="#CC3199"></path>
  <path d="M68.9757 31.3954C68.9757 33.3664 68.5722 34.7957 67.7654 35.6832C66.9701 36.5591 65.6734 36.9971 63.8753 36.9971C61.9966 36.9971 60.6768 36.5822 59.9161 35.7523C59.1554 34.9224 58.775 33.4701 58.775 31.3954C58.775 29.4245 59.1727 28.001 59.968 27.125C60.7748 26.249 62.0773 25.811 63.8753 25.811C65.7541 25.811 67.0738 26.226 67.8346 27.0559C68.5953 27.8857 68.9757 29.3323 68.9757 31.3954ZM61.8179 33.7122C61.9678 34.0003 62.1868 34.2021 62.4749 34.3173C62.7746 34.4326 63.2414 34.4902 63.8753 34.4902C64.5093 34.4902 64.9703 34.4326 65.2585 34.3173C65.5582 34.2021 65.7829 34.0003 65.9328 33.7122C66.048 33.4817 66.1287 33.182 66.1748 32.8132C66.2324 32.4443 66.2612 31.9717 66.2612 31.3954C66.2612 30.8076 66.2324 30.3293 66.1748 29.9604C66.1287 29.5801 66.048 29.2746 65.9328 29.0441C65.7944 28.7444 65.5754 28.537 65.2758 28.4217C64.9876 28.2949 64.5208 28.2315 63.8753 28.2315C63.2299 28.2315 62.7573 28.2949 62.4576 28.4217C62.1695 28.537 61.9562 28.7444 61.8179 29.0441C61.7027 29.2746 61.6162 29.5801 61.5586 29.9604C61.5125 30.3293 61.4894 30.8076 61.4894 31.3954C61.4894 31.9717 61.5125 32.4443 61.5586 32.8132C61.6162 33.182 61.7027 33.4817 61.8179 33.7122Z" fill="#CC3199"></path>
  <path d="M78.0323 25.9839V28.4044H75.0759V36.8242H72.3961V28.4044H69.4396V25.9839H78.0323Z" fill="#CC3199"></path>
  <path d="M20.7813 48.9872L18.5856 48.4685C17.7096 48.261 17.1103 47.9441 16.7875 47.5176C16.4763 47.0911 16.3207 46.4803 16.3207 45.685C16.3207 44.4286 16.6492 43.5065 17.3062 42.9187C17.9747 42.3193 19.0063 42.0196 20.401 42.0196C20.9773 42.0196 21.4902 42.0427 21.9397 42.0888C22.3892 42.1349 22.8042 42.2156 23.1845 42.3309V44.734C22.3086 44.5842 21.7034 44.4978 21.3692 44.4747C21.0464 44.4517 20.7064 44.4401 20.3491 44.4401C19.865 44.4401 19.5135 44.5208 19.2945 44.6822C19.0755 44.8435 18.966 45.1144 18.966 45.4948C18.966 45.6792 19.0006 45.8233 19.0697 45.927C19.1389 46.0192 19.2714 46.0884 19.4674 46.1345L21.5421 46.6186C22.1414 46.7569 22.5737 46.8952 22.8388 47.0335C23.1039 47.1603 23.3171 47.3274 23.4785 47.5349C23.6629 47.7539 23.7954 48.0363 23.8761 48.3821C23.9683 48.7278 24.0144 49.1485 24.0144 49.6442C24.0144 50.9005 23.6802 51.8111 23.0116 52.3759C22.3431 52.9291 21.3058 53.2057 19.8996 53.2057C19.185 53.2057 18.5049 53.1596 17.8595 53.0674C17.214 52.9867 16.7126 52.883 16.3553 52.7562V50.2147C16.8164 50.3646 17.3638 50.4856 17.9978 50.5778C18.6317 50.6585 19.2657 50.6988 19.8996 50.6988C20.4067 50.6988 20.7583 50.6354 20.9542 50.5086C21.1502 50.3818 21.2481 50.1283 21.2481 49.7479C21.2481 49.5059 21.2136 49.333 21.1444 49.2292C21.0868 49.114 20.9658 49.0333 20.7813 48.9872Z" fill="white"></path>
  <path d="M31.6607 48.4685V42.1925H34.3405V48.4685C34.3405 50.0476 33.9544 51.2348 33.1821 52.0301C32.4099 52.8139 31.2515 53.2057 29.707 53.2057C28.0818 53.2057 26.8946 52.8311 26.1454 52.0819C25.4078 51.3327 25.0389 50.1283 25.0389 48.4685V42.1925H27.7188V48.4685C27.7188 49.3445 27.8513 49.9381 28.1164 50.2493C28.393 50.549 28.9232 50.6988 29.707 50.6988C30.4793 50.6988 30.9979 50.549 31.263 50.2493C31.5281 49.9381 31.6607 49.3445 31.6607 48.4685Z" fill="white"></path>
  <path d="M46.7718 42.1925V53.0329H44.2649V46.5321L42.415 50.9582H40.2365L38.4212 46.5321V53.0329H35.9142V42.1925H39.1819L41.3776 47.6559L43.6252 42.1925H46.7718Z" fill="white"></path>
  <path d="M59.2828 42.1925V53.0329H56.7759V46.5321L54.926 50.9582H52.7475L50.9322 46.5321V53.0329H48.4252V42.1925H51.6929L53.8886 47.6559L56.1362 42.1925H59.2828Z" fill="white"></path>
  <path d="M63.6161 42.1925V53.0329H60.9363V42.1925H63.6161Z" fill="white"></path>
  <path d="M73.2457 42.1925V44.613H70.2893V53.0329H67.6095V44.613H64.653V42.1925H73.2457Z" fill="white"></path>
  <path d="M85.4664 34.3173V36.8242L79.0781 36.8242V25.9839H85.3108V28.4044L81.7579 28.4044V30.2025H86.292V32.4501L81.7579 32.4501V34.3173L85.4664 34.3173Z" fill="#CC3199"></path>
  <circle cx="63.8306" cy="31.4214" r="1.08057" fill="#CC3199"></circle>
  <circle cx="18.4478" cy="31.4214" r="1.08057" fill="white"></circle>
</svg>
