<svg fill="none" height="41" viewBox="0 0 41 41" width="41" xmlns="http://www.w3.org/2000/svg"><path clip-rule="evenodd" d="m7.6875 5.125c-1.41523 0-2.5625 1.14727-2.5625 2.5625v25.625c0 1.4153 1.14727 2.5625 2.5625 2.5625h25.625c1.4153 0 2.5625-1.1472 2.5625-2.5625v-25.625c0-1.41523-1.1472-2.5625-2.5625-2.5625zm7.0469 5.072c0-.52373.482-.91434.9967-.81799 3.5802.66979 5.9562.67779 9.537.00222.5148-.09712.9975.29306.9975.81697 0 .4557.3695.8252.8253.8252h.2424c.4718 0 .8542.3824.8542.8541v.7466c0 .4716-.3824.8541-.8542.8541h-.2135c-.4718 0-.8542.3824-.8542.8542v.3305c0 .3871-.2613.7271-.6368.821-3.8144.9539-6.2592.953-10.2483-.0047-.3799-.0911-.6461-.4333-.6461-.8239v-.3229c0-.4718-.3824-.8542-.8542-.8542h-.2135c-.4718 0-.8542-.3825-.8542-.8541v-.7466c0-.4717.3824-.8541.8542-.8541h.2413c.4563 0 .8264-.3701.8264-.8264zm1.9218.6831c.4718 0 .8542.3824.8542.8542v1.9135c0 .4717-.3824.8542-.8542.8542-.4717 0-.8541-.3825-.8541-.8542v-1.9135c0-.4718.3824-.8542.8541-.8542zm-.9251 6.1864c-.5147-.0963-.9967.2943-.9967.818 0 .4563-.3701.8264-.8264.8264h-.2413c-.4718 0-.8542.3824-.8542.8541v.7466c0 .4716.3824.8541.8542.8541h.2135c.4718 0 .8542.3824.8542.8542v.3229c0 .3906.2662.7328.6461.8239 3.9891.9577 6.4339.9586 10.2483.0047.3755-.0939.6368-.4339.6368-.821v-.3305c0-.4718.3824-.8542.8542-.8542h.2135c.4718 0 .8542-.3825.8542-.8541v-.7466c0-.4717-.3824-.8541-.8542-.8541h-.2424c-.4558 0-.8253-.3695-.8253-.8252 0-.5239-.4827-.9141-.9975-.817-3.5808.6756-5.9568.6676-9.537-.0022zm1.7793 2.3553c0-.4718-.3824-.8542-.8542-.8542-.4717 0-.8541.3824-.8541.8542v1.9135c0 .4717.3824.8542.8541.8542.4718 0 .8542-.3825.8542-.8542zm-2.776 6.1502c0-.5237.482-.9143.9967-.818 3.5802.6698 5.9562.6778 9.537.0022.5148-.0971.9975.2931.9975.817 0 .4557.3695.8252.8253.8252h.2424c.4718 0 .8542.3824.8542.8541v.7466c0 .4716-.3824.8541-.8542.8541h-.2135c-.4718 0-.8542.3824-.8542.8542v.3305c0 .3871-.2613.7271-.6368.821-3.8144.9539-6.2592.953-10.2483-.0047-.3799-.0911-.6461-.4333-.6461-.8239v-.3229c0-.4718-.3824-.8542-.8542-.8542h-.2135c-.4718 0-.8542-.3825-.8542-.8541v-.7466c0-.4717.3824-.8541.8542-.8541h.2413c.4563 0 .8264-.3701.8264-.8264zm1.9218.6831c.4718 0 .8542.3824.8542.8542v1.9135c0 .4717-.3824.8542-.8542.8542-.4717 0-.8541-.3825-.8541-.8542v-1.9135c0-.4718.3824-.8542.8541-.8542z" fill="#000" fill-rule="evenodd"/></svg>