<?xml version="1.0" encoding="UTF-8"?>
<svg xmlns="http://www.w3.org/2000/svg" width="34" height="33" viewBox="0 0 34 33" fill="none">
  <g clip-path="url(#clip0_17466_24070)">
    <path d="M19.1679 18.8117H6.17187C5.77797 18.8115 5.3879 18.889 5.02393 19.0396C4.65996 19.1902 4.32923 19.411 4.05064 19.6895C3.77205 19.968 3.55105 20.2986 3.40026 20.6625C3.24948 21.0264 3.17188 21.4165 3.17188 21.8104V22.581C3.17188 23.7704 3.59855 24.9224 4.37188 25.8277C6.45854 28.273 9.63987 29.481 13.8346 29.481C14.7879 29.481 15.6879 29.417 16.5359 29.293C16.5128 29.1336 16.5013 28.9728 16.5012 28.8117V27.2744C15.6826 27.4117 14.7946 27.4797 13.8346 27.4797C10.1839 27.4797 7.56254 26.485 5.89188 24.529C5.4273 23.9858 5.17197 23.2945 5.17187 22.5797V21.8104C5.17187 21.2584 5.61987 20.8104 6.17187 20.8104H16.7786C16.9931 20.3206 17.3221 19.8895 17.7379 19.5533C18.1536 19.2171 18.6441 18.9856 19.1679 18.8784V18.8117ZM13.8346 2.81836C14.71 2.81836 15.577 2.9908 16.3858 3.32583C17.1946 3.66086 17.9296 4.15192 18.5486 4.77098C19.1677 5.39004 19.6587 6.12497 19.9938 6.9338C20.3288 7.74264 20.5012 8.60955 20.5012 9.48503C20.5012 10.3605 20.3288 11.2274 19.9938 12.0362C19.6587 12.8451 19.1677 13.58 18.5486 14.1991C17.9296 14.8181 17.1946 15.3092 16.3858 15.6442C15.577 15.9793 14.71 16.1517 13.8346 16.1517C12.0665 16.1517 10.3708 15.4493 9.12049 14.1991C7.87025 12.9488 7.16788 11.2531 7.16788 9.48503C7.16788 7.71692 7.87025 6.02122 9.12049 4.77098C10.3708 3.52074 12.0665 2.81836 13.8346 2.81836ZM13.8346 4.81836C13.2217 4.81836 12.6149 4.93907 12.0487 5.17359C11.4825 5.40811 10.9681 5.75185 10.5347 6.18519C10.1014 6.61853 9.75762 7.13298 9.5231 7.69917C9.28858 8.26536 9.16787 8.87219 9.16787 9.48503C9.16787 10.0979 9.28858 10.7047 9.5231 11.2709C9.75762 11.8371 10.1014 12.3515 10.5347 12.7849C10.9681 13.2182 11.4825 13.5619 12.0487 13.7965C12.6149 14.031 13.2217 14.1517 13.8346 14.1517C15.0722 14.1517 16.2592 13.66 17.1344 12.7849C18.0096 11.9097 18.5012 10.7227 18.5012 9.48503C18.5012 8.24735 18.0096 7.06036 17.1344 6.18519C16.2592 5.31002 15.0722 4.81836 13.8346 4.81836ZM20.5012 20.145H19.8346C19.3041 20.145 18.7954 20.3557 18.4204 20.7308C18.0453 21.1059 17.8346 21.6146 17.8346 22.145V28.8117C17.8346 29.3421 18.0453 29.8508 18.4204 30.2259C18.7954 30.601 19.3041 30.8117 19.8346 30.8117H27.8346C28.365 30.8117 28.8737 30.601 29.2488 30.2259C29.6239 29.8508 29.8346 29.3421 29.8346 28.8117V22.145C29.8346 21.6146 29.6239 21.1059 29.2488 20.7308C28.8737 20.3557 28.365 20.145 27.8346 20.145H27.1679V18.8117C27.1679 17.9276 26.8167 17.0798 26.1916 16.4547C25.5665 15.8295 24.7186 15.4784 23.8346 15.4784C22.9505 15.4784 22.1027 15.8295 21.4775 16.4547C20.8524 17.0798 20.5012 17.9276 20.5012 18.8117V20.145ZM22.5012 18.8117C22.5012 18.4581 22.6417 18.1189 22.8918 17.8689C23.1418 17.6188 23.4809 17.4784 23.8346 17.4784C24.1882 17.4784 24.5273 17.6188 24.7774 17.8689C25.0274 18.1189 25.1679 18.4581 25.1679 18.8117V20.145H22.5012V18.8117ZM25.1679 25.4784C25.1679 25.832 25.0274 26.1711 24.7774 26.4212C24.5273 26.6712 24.1882 26.8117 23.8346 26.8117C23.4809 26.8117 23.1418 26.6712 22.8918 26.4212C22.6417 26.1711 22.5012 25.832 22.5012 25.4784C22.5012 25.1247 22.6417 24.7856 22.8918 24.5355C23.1418 24.2855 23.4809 24.145 23.8346 24.145C24.1882 24.145 24.5273 24.2855 24.7774 24.5355C25.0274 24.7856 25.1679 25.1247 25.1679 25.4784Z" fill="#511374"></path>
  </g>
  <defs>
    <clipPath id="clip0_17466_24070">
      <rect width="33" height="33" fill="white" transform="translate(0.5)"></rect>
    </clipPath>
  </defs>
</svg>
