<?xml version="1.0" encoding="UTF-8"?>
<svg xmlns="http://www.w3.org/2000/svg" width="33" height="33" viewBox="0 0 33 33" fill="none">
  <g clip-path="url(#clip0_20408_8278)">
    <path d="M3.16406 9.81185C3.16406 8.66258 3.62061 7.56038 4.43327 6.74772C5.24592 5.93506 6.34812 5.47852 7.4974 5.47852H25.4974C26.0665 5.47852 26.63 5.5906 27.1557 5.80837C27.6815 6.02614 28.1592 6.34533 28.5616 6.74772C28.9639 7.15011 29.2831 7.62781 29.5009 8.15355C29.7187 8.6793 29.8308 9.24279 29.8308 9.81185V17.4785H29.4868C29.4009 16.1741 28.8062 14.9555 27.8308 14.0852V9.81185C27.8308 9.19301 27.5849 8.59952 27.1473 8.16193C26.7098 7.72435 26.1163 7.47852 25.4974 7.47852H7.4974C6.87856 7.47852 6.28506 7.72435 5.84748 8.16193C5.4099 8.59952 5.16406 9.19301 5.16406 9.81185V22.4785C5.16406 23.7665 6.2094 24.8118 7.4974 24.8118H16.4974V25.4785C16.4974 25.9319 16.5508 26.3772 16.6548 26.8118H7.4974C6.34812 26.8118 5.24592 26.3553 4.43327 25.5426C3.62061 24.73 3.16406 23.6278 3.16406 22.4785V9.81185ZM29.1641 22.8118C29.6945 22.8118 30.2032 23.0226 30.5783 23.3976C30.9534 23.7727 31.1641 24.2814 31.1641 24.8118V25.4785C31.1641 28.1065 28.6841 30.8118 24.4974 30.8118C20.3108 30.8118 17.8308 28.1065 17.8308 25.4785V24.8118C17.8308 24.2814 18.0415 23.7727 18.4165 23.3976C18.7916 23.0226 19.3003 22.8118 19.8308 22.8118H29.1641ZM24.4974 14.1452C25.4699 14.1452 26.4025 14.5315 27.0902 15.2191C27.7778 15.9068 28.1641 16.8394 28.1641 17.8118C28.1641 18.7843 27.7778 19.7169 27.0902 20.4046C26.4025 21.0922 25.4699 21.4785 24.4974 21.4785C23.525 21.4785 22.5923 21.0922 21.9047 20.4046C21.2171 19.7169 20.8308 18.7843 20.8308 17.8118C20.8308 16.8394 21.2171 15.9068 21.9047 15.2191C22.5923 14.5315 23.525 14.1452 24.4974 14.1452Z" fill="#511374"></path>
  </g>
  <defs>
    <clipPath id="clip0_20408_8278">
      <rect width="33" height="33" fill="white"></rect>
    </clipPath>
  </defs>
</svg>
