<?xml version="1.0" encoding="UTF-8"?>
<svg xmlns="http://www.w3.org/2000/svg" width="33" height="33" viewBox="0 0 33 33" fill="none">
  <g clip-path="url(#clip0_17466_24080)">
    <path d="M25.156 3.25174L29.3947 7.49041C29.6732 7.76898 29.8942 8.0997 30.045 8.46368C30.1958 8.82766 30.2734 9.21777 30.2734 9.61174C30.2734 10.0057 30.1958 10.3958 30.045 10.7598C29.8942 11.1238 29.6732 11.4545 29.3947 11.7331L25.9493 15.1784C26.6591 15.2859 27.3068 15.6444 27.7748 16.1887C28.2428 16.7331 28.5001 17.4272 28.5 18.1451V25.1451C28.5 25.9407 28.1839 26.7038 27.6213 27.2664C27.0587 27.829 26.2957 28.1451 25.5 28.1451H7.5C6.70435 28.1451 5.94129 27.829 5.37868 27.2664C4.81607 26.7038 4.5 25.9407 4.5 25.1451V7.14507C4.5 6.34942 4.81607 5.58636 5.37868 5.02375C5.94129 4.46114 6.70435 4.14507 7.5 4.14507H14.5C15.2183 4.14505 15.9127 4.40273 16.4571 4.87128C17.0015 5.33982 17.3597 5.98814 17.4667 6.69841L20.9133 3.25174C21.1919 2.97316 21.5226 2.75218 21.8866 2.60141C22.2506 2.45065 22.6407 2.37305 23.0347 2.37305C23.4286 2.37305 23.8187 2.45065 24.1827 2.60141C24.5467 2.75218 24.8774 2.97316 25.156 3.25174ZM6.5 25.1451C6.5 25.6971 6.948 26.1451 7.5 26.1451L15.4987 26.1437L15.5 17.1437H6.5V25.1451ZM17.4987 26.1437H25.5C25.7652 26.1437 26.0196 26.0384 26.2071 25.8508C26.3946 25.6633 26.5 25.409 26.5 25.1437V18.1451C26.5 17.8799 26.3946 17.6255 26.2071 17.438C26.0196 17.2504 25.7652 17.1451 25.5 17.1451H17.4987V26.1437ZM14.5 6.14374H7.5C7.23478 6.14374 6.98043 6.2491 6.79289 6.43663C6.60536 6.62417 6.5 6.87852 6.5 7.14374V15.1437H15.5V7.14374C15.5 6.87852 15.3946 6.62417 15.2071 6.43663C15.0196 6.2491 14.7652 6.14374 14.5 6.14374ZM17.5 12.5571V15.1437H20.0867L17.5 12.5571ZM22.3267 4.66641L18.0893 8.90374C17.9964 8.99661 17.9227 9.10687 17.8724 9.22824C17.8221 9.34961 17.7962 9.4797 17.7962 9.61107C17.7962 9.74245 17.8221 9.87254 17.8724 9.9939C17.9227 10.1153 17.9964 10.2255 18.0893 10.3184L22.328 14.5571C22.5155 14.7443 22.7697 14.8495 23.0347 14.8495C23.2997 14.8495 23.5538 14.7443 23.7413 14.5571L27.9813 10.3184C28.1686 10.1309 28.2738 9.87674 28.2738 9.61174C28.2738 9.34674 28.1686 9.09257 27.9813 8.90507L23.7413 4.66507C23.5538 4.47781 23.2997 4.37262 23.0347 4.37262C22.7697 4.37262 22.5155 4.47781 22.328 4.66507L22.3267 4.66641Z" fill="#511374"></path>
  </g>
  <defs>
    <clipPath id="clip0_17466_24080">
      <rect width="33" height="33" fill="white"></rect>
    </clipPath>
  </defs>
</svg>
