<svg width="24" height="23" viewBox="0 0 24 23" fill="none" xmlns="http://www.w3.org/2000/svg">
<g id="grid_view">
<mask id="mask0_12003_42237" style="mask-type:alpha" maskUnits="userSpaceOnUse" x="0" y="0" width="24" height="23">
<rect id="Bounding box" y="0.40332" width="24" height="22.0907" fill="#511374"/>
</mask>
<g mask="url(#mask0_12003_42237)">
<g id="check_box">
<mask id="mask1_12003_42237" style="mask-type:alpha" maskUnits="userSpaceOnUse" x="0" y="-1" width="24" height="24">
<rect id="Bounding box_2" y="-1" width="24" height="24" fill="white"/>
</mask>
<g mask="url(#mask1_12003_42237)">
<path id="check_box_2" d="M10.6 15.2L17.65 8.15L16.25 6.75L10.6 12.4L7.75 9.55L6.35 10.95L10.6 15.2ZM5 20C4.45 20 3.979 19.8043 3.587 19.413C3.19567 19.021 3 18.55 3 18V4C3 3.45 3.19567 2.979 3.587 2.587C3.979 2.19567 4.45 2 5 2H19C19.55 2 20.021 2.19567 20.413 2.587C20.8043 2.979 21 3.45 21 4V18C21 18.55 20.8043 19.021 20.413 19.413C20.021 19.8043 19.55 20 19 20H5Z" fill="white"/>
</g>
</g>
</g>
</g>
</svg>
