<?xml version="1.0" encoding="UTF-8"?>
<svg xmlns="http://www.w3.org/2000/svg" width="27" height="35" viewBox="0 0 27 35" fill="none">
  <g clip-path="url(#clip0_8751_16865)">
    <g clip-path="url(#clip1_8751_16865)">
      <path d="M26.4624 17.6948C26.4624 10.3911 20.5415 4.47021 13.2378 4.47021C5.93404 4.47021 0.0131836 10.3911 0.0131836 17.6948C0.0131836 24.9986 5.93404 30.9194 13.2378 30.9194C20.5415 30.9194 26.4624 24.9986 26.4624 17.6948Z" fill="#3178C6"></path>
      <path d="M23.1562 4.47021H3.31933C1.4934 4.47021 0.0131836 5.95043 0.0131836 7.77636V27.6133C0.0131836 29.4392 1.4934 30.9194 3.31933 30.9194H23.1562C24.9822 30.9194 26.4624 29.4392 26.4624 27.6133V7.77636C26.4624 5.95043 24.9822 4.47021 23.1562 4.47021Z" fill="#3178C6"></path>
      <path fill-rule="evenodd" clip-rule="evenodd" d="M16.3862 25.5171V28.1033C16.8563 28.3354 17.3574 28.4987 17.8739 28.5885C18.4736 28.6999 19.0824 28.7552 19.6923 28.7538C20.2857 28.7565 20.8777 28.6969 21.4586 28.5761C21.9795 28.4724 22.4768 28.2737 22.9257 27.9901C23.3418 27.7226 23.6849 27.3559 23.9242 26.923C24.3525 26.0277 24.4092 24.9993 24.0821 24.0624C23.9434 23.7119 23.7373 23.392 23.4754 23.1209C23.1941 22.8309 22.8746 22.5807 22.5257 22.377C22.124 22.1427 21.7067 21.9361 21.2768 21.7588C20.9374 21.6188 20.6329 21.4827 20.3635 21.3505C20.1234 21.2357 19.8935 21.1005 19.6766 20.9463C19.5066 20.8277 19.3589 20.6799 19.2402 20.5099C19.1375 20.3556 19.0839 20.1737 19.0865 19.9884C19.0842 19.818 19.1319 19.6508 19.2237 19.5073C19.3233 19.3568 19.4558 19.231 19.6113 19.1395C19.802 19.028 20.0094 18.9476 20.2254 18.9015C20.4909 18.8432 20.7621 18.8155 21.0338 18.8188C21.2625 18.8198 21.4908 18.8361 21.7173 18.8676C21.9618 18.9009 22.2037 18.9508 22.4414 19.0172C22.6832 19.0843 22.9197 19.1694 23.1489 19.2718C23.3711 19.3702 23.5836 19.4892 23.7837 19.6272V17.2112C23.3669 17.0542 22.9347 16.9417 22.4943 16.8756C21.9628 16.7983 21.4262 16.7618 20.8891 16.7665C20.3012 16.7636 19.715 16.8302 19.1427 16.9649C18.6259 17.0827 18.1343 17.2921 17.6913 17.5831C17.2794 17.8568 16.9393 18.2253 16.6994 18.6576C16.4462 19.1361 16.3209 19.672 16.3358 20.2132C16.317 20.9289 16.5534 21.6279 17.0028 22.1853C17.5547 22.8045 18.25 23.279 19.0278 23.5673C19.3837 23.7127 19.7144 23.8555 20.0196 23.9954C20.2964 24.1189 20.5627 24.2648 20.8156 24.4318C21.0198 24.565 21.1991 24.7328 21.3454 24.9278C21.4741 25.1033 21.5423 25.3159 21.5396 25.5336C21.5406 25.6964 21.4987 25.8566 21.4181 25.9981C21.328 26.1505 21.2017 26.2783 21.0503 26.3701C20.8607 26.486 20.6532 26.5698 20.4362 26.618C20.1536 26.6814 19.8645 26.7114 19.575 26.7073C19.0069 26.7059 18.4434 26.6061 17.9095 26.4122C17.352 26.2059 16.8361 25.9014 16.3862 25.5129V25.5171ZM12.0386 19.1453H15.3563V17.0227H6.10901V19.1453H9.4102V28.5943H12.0386V19.1453Z" fill="white"></path>
    </g>
  </g>
  <defs>
    <clipPath id="clip0_8751_16865">
      <rect width="26.4492" height="33.6626" fill="white" transform="translate(0.0131836 0.86377)"></rect>
    </clipPath>
    <clipPath id="clip1_8751_16865">
      <rect width="26.4492" height="26.4492" fill="white" transform="translate(0.0131836 4.47021)"></rect>
    </clipPath>
  </defs>
</svg>
