<?xml version="1.0" encoding="UTF-8"?>
<svg xmlns="http://www.w3.org/2000/svg" width="28" height="34" viewBox="0 0 28 34" fill="none">
  <path d="M11.4681 18.6666H9.80143C8.4181 18.6666 7.30143 17.5499 7.30143 16.1666C7.30143 14.7833 8.4181 13.6666 9.80143 13.6666H11.4681V11.9999C11.4681 10.6166 12.5848 9.49995 13.9681 9.49995C15.3514 9.49995 16.4681 10.6166 16.4681 11.9999V13.6666H18.1348C19.5181 13.6666 20.6348 14.7833 20.6348 16.1666C20.6348 17.5499 19.5181 18.6666 18.1348 18.6666H16.4681V20.3333C16.4681 21.7166 15.3514 22.8333 13.9681 22.8333C12.5848 22.8333 11.4681 21.7166 11.4681 20.3333V18.6666ZM12.8014 0.766614L2.80143 4.51661C1.50143 5.01661 0.634766 6.24995 0.634766 7.64995V15.4833C0.634766 23.8999 6.3181 31.7499 13.9681 33.6666C21.6181 31.7499 27.3014 23.8999 27.3014 15.4833V7.64995C27.3014 6.26661 26.4348 5.01661 25.1348 4.53328L15.1348 0.78328C14.3848 0.48328 13.5514 0.48328 12.8014 0.766614Z" fill="black"></path>
</svg>
