<?xml version="1.0" encoding="UTF-8"?>
<svg xmlns="http://www.w3.org/2000/svg" width="36" height="30" viewBox="0 0 36 30" fill="none">
  <path d="M5.70912 16.9667V21.65C5.70912 22.8667 6.37578 24 7.44245 24.5833L15.7758 29.1333C16.7758 29.6833 17.9758 29.6833 18.9758 29.1333L27.3091 24.5833C28.3758 24 29.0424 22.8667 29.0424 21.65V16.9667L18.9758 22.4667C17.9758 23.0167 16.7758 23.0167 15.7758 22.4667L5.70912 16.9667ZM15.7758 0.866675L1.72578 8.53334C0.575781 9.16667 0.575781 10.8333 1.72578 11.4667L15.7758 19.1333C16.7758 19.6833 17.9758 19.6833 18.9758 19.1333L32.3758 11.8167V21.6667C32.3758 22.5833 33.1258 23.3333 34.0424 23.3333C34.9591 23.3333 35.7091 22.5833 35.7091 21.6667V10.9833C35.7091 10.3667 35.3758 9.81667 34.8424 9.51667L18.9758 0.866675C17.9758 0.333341 16.7758 0.333341 15.7758 0.866675Z" fill="black"></path>
</svg>
