<?xml version="1.0" encoding="UTF-8"?>
<svg xmlns="http://www.w3.org/2000/svg" width="49" height="49" viewBox="0 0 49 49" fill="none">
  <path d="M14.2131 20.09C11.7631 20.09 9.80313 22.05 9.80313 24.5C9.80313 26.95 11.7631 28.91 14.2131 28.91C16.6631 28.91 18.6231 26.95 18.6231 24.5C18.6231 22.05 16.6631 20.09 14.2131 20.09ZM14.2131 26.95C12.8411 26.95 11.7631 25.872 11.7631 24.5C11.7631 23.128 12.8411 22.05 14.2131 22.05C15.5851 22.05 16.6631 23.128 16.6631 24.5C16.6631 25.872 15.5851 26.95 14.2131 26.95ZM34.7931 20.09C32.3431 20.09 30.3831 22.05 30.3831 24.5C30.3831 26.95 32.3431 28.91 34.7931 28.91C37.2431 28.91 39.2031 26.95 39.2031 24.5C39.2031 22.05 37.2431 20.09 34.7931 20.09ZM34.7931 26.95C33.4211 26.95 32.3431 25.872 32.3431 24.5C32.3431 23.128 33.4211 22.05 34.7931 22.05C36.1651 22.05 37.2431 23.128 37.2431 24.5C37.2431 25.872 36.1651 26.95 34.7931 26.95ZM40.6731 11.76H8.33313C5.09913 11.76 2.45312 14.406 2.45312 17.64V31.36C2.45312 34.594 5.09913 37.24 8.33313 37.24H15.4381C17.1531 37.24 18.7701 36.505 19.8481 35.231L21.5631 33.271C22.2981 32.438 23.3761 31.948 24.5031 31.948C25.6301 31.948 26.7081 32.438 27.4431 33.271L29.1581 35.231C30.2851 36.505 31.9021 37.24 33.5681 37.24H40.6731C43.9071 37.24 46.5531 34.594 46.5531 31.36V17.64C46.5531 14.406 43.9071 11.76 40.6731 11.76ZM44.5931 31.36C44.5931 33.516 42.8291 35.28 40.6731 35.28H33.5681C32.4411 35.28 31.3631 34.79 30.6281 33.957L28.9131 31.997C27.7861 30.723 26.1691 29.988 24.5031 29.988C22.7881 29.988 21.1711 30.723 20.0931 31.997L18.3781 33.957C17.6431 34.79 16.5651 35.28 15.4381 35.28H8.33313C6.17713 35.28 4.41313 33.516 4.41313 31.36V17.64C4.41313 15.484 6.17713 13.72 8.33313 13.72H40.6731C42.8291 13.72 44.5931 15.484 44.5931 17.64V31.36Z" fill="#CC3199" stroke="#CC3199"></path>
</svg>
