<svg id="Layer_1" data-name="Layer 1" xmlns="http://www.w3.org/2000/svg" xmlns:xlink="http://www.w3.org/1999/xlink" viewBox="0 0 47.87 47.84"><defs><style>.cls-1{fill:none;}.cls-2{clip-path:url(#clip-path);}.cls-3{fill:#af2022;fill-rule:evenodd;}</style><clipPath id="clip-path" transform="translate(0 -0.04)"><rect class="cls-1" y="-2.08" width="50" height="50"/></clipPath></defs><g class="cls-2"><path class="cls-3" d="M17.86,35.78,12.1,30a1.44,1.44,0,0,1-.42-1,1.47,1.47,0,0,1,.38-1l24-26.16h0C38.57-.66,43-.53,45.74,2.09l.08.07.09.1.07.08a6.78,6.78,0,0,1,0,9.39h0L30,26.64a1.43,1.43,0,0,1-2-.06,1.38,1.38,0,0,1-.39-1,1.42,1.42,0,0,1,.46-1L44,9.65a3.87,3.87,0,0,0-.12-5.45c-1.47-1.43-4.16-1.93-5.73-.37l-23,25.09,3.82,3.84,4.24-3.84a1.32,1.32,0,0,1,.48-.29,1.47,1.47,0,0,1,1.09.05,1.37,1.37,0,0,1,.45.34,1.43,1.43,0,0,1-.1,2L19.84,35.8a1.41,1.41,0,0,1-1,.37A1.33,1.33,0,0,1,17.86,35.78Z" transform="translate(0 -0.04)"/><path class="cls-3" d="M8.21,7.37a1.64,1.64,0,0,0-.37.53,1.91,1.91,0,0,0-.13.63,1.69,1.69,0,0,0,.13.63,1.51,1.51,0,0,0,.36.54,2.19,2.19,0,0,0,.39.29l14.66,7.93a1.84,1.84,0,0,0,2.17-.36l6.5-7a1.58,1.58,0,0,0,0-2.21,1.68,1.68,0,0,0-.84-.45L12.67,4.15a2.11,2.11,0,0,0-1,0,1.92,1.92,0,0,0-.82.49Zm3.19.87,1.17-1.18,15.71,3.22L23.89,15ZM38.13,39.7a1.41,1.41,0,0,1-.29-.4L30,24.61a1.81,1.81,0,0,1-.19-1.14,1.86,1.86,0,0,1,.54-1l7-6.53a1.58,1.58,0,0,1,2.21,0,1.67,1.67,0,0,1,.44.84l3.76,18.45a2.11,2.11,0,0,1,0,1,2,2,0,0,1-.48.83L40.6,39.75a1.61,1.61,0,0,1-.53.36,1.51,1.51,0,0,1-.63.13,1.68,1.68,0,0,1-.63-.12A1.66,1.66,0,0,1,38.13,39.7ZM32.86,24,39.58,36.5l1.18-1.18L37.55,19.57ZM15.74,47.47a1.58,1.58,0,0,1-.34-.5L11.17,36.72,1,32.47a1.72,1.72,0,0,1-.51-.33A1.53,1.53,0,0,1,0,31.06,1.5,1.5,0,0,1,.45,30l3.31-3.32a1.68,1.68,0,0,1,1.43-.49l8.27,1a1.91,1.91,0,0,1,1.08.53l5.58,5.61a1.85,1.85,0,0,1,.53,1.08l1,8.28a1.72,1.72,0,0,1-.08.78,1.57,1.57,0,0,1-.41.66l-3.3,3.31a1.51,1.51,0,0,1-1.08.46,1.62,1.62,0,0,1-.58-.11,1.43,1.43,0,0,1-.5-.34ZM5.39,29.09l-1.5,1.5,8.79,3.65a1.88,1.88,0,0,1,1,1l3.64,8.82,1.49-1.5-.93-7.39L12.76,30Z" transform="translate(0 -0.04)"/></g></svg>