<?xml version="1.0" encoding="UTF-8"?>
<svg xmlns="http://www.w3.org/2000/svg" width="50" height="50" viewBox="0 0 50 50" fill="none">
  <g clip-path="url(#clip0_10798_5914)">
    <path fill-rule="evenodd" clip-rule="evenodd" d="M17.8634 37.8639L12.1034 32.0899C11.842 31.8278 11.6917 31.475 11.6839 31.1048C11.6761 30.7347 11.8113 30.3759 12.0614 30.1029L36.0704 3.93692L36.1114 3.89392C38.6204 1.37992 43.0014 1.50592 45.7894 4.13192C45.8154 4.15492 45.8404 4.17792 45.8654 4.20292L45.9584 4.29692C45.9844 4.32292 46.0084 4.34892 46.0324 4.37692C48.5424 7.06592 48.5534 11.2319 46.0194 13.7729C46.0063 13.7855 45.993 13.7979 45.9794 13.8099L29.9374 28.7249C29.3574 29.2649 28.4474 29.2279 27.9124 28.6489C27.6537 28.3695 27.5164 27.9988 27.5306 27.6182C27.5449 27.2376 27.7095 26.8783 27.9884 26.6189L44.0104 11.7259C45.4754 10.2379 45.4184 7.86492 43.8864 6.28292C42.4164 4.85392 39.7324 4.35292 38.1564 5.90692L15.1004 31.0329L18.9234 34.8659L23.1574 31.0089C23.2964 30.8818 23.4591 30.7834 23.6363 30.7195C23.8134 30.6555 24.0015 30.6272 24.1896 30.6362C24.3777 30.6452 24.5622 30.6914 24.7324 30.772C24.9027 30.8526 25.0552 30.9661 25.1814 31.1059C25.4369 31.388 25.5701 31.7598 25.552 32.14C25.5338 32.5201 25.3657 32.8775 25.0844 33.1339L19.8404 37.9119C19.5682 38.1601 19.2106 38.2937 18.8423 38.2848C18.474 38.2758 18.1233 38.1251 17.8634 37.8639Z" fill="#912CC6"></path>
    <path fill-rule="evenodd" clip-rule="evenodd" d="M8.20796 9.45392C8.05285 9.60474 7.92934 9.78495 7.84463 9.98402C7.75993 10.1831 7.71573 10.3971 7.71461 10.6134C7.71349 10.8297 7.75548 11.0441 7.83813 11.2441C7.92077 11.444 8.04241 11.6255 8.19596 11.7779C8.31196 11.8949 8.44596 11.9939 8.59196 12.0729L23.246 19.9779C23.5975 20.1627 23.9997 20.2279 24.3916 20.1637C24.7835 20.0995 25.1438 19.9093 25.418 19.6219L31.925 12.6609C32.522 12.0219 32.519 11.0509 31.919 10.4499C31.6898 10.2224 31.3987 10.0676 31.082 10.0049L12.67 6.22991C12.3515 6.16897 12.023 6.18598 11.7125 6.27949C11.402 6.37299 11.1188 6.54023 10.887 6.76691L8.20796 9.45392ZM11.395 10.3229L12.572 9.14291L28.281 12.3619L23.887 17.0619L11.395 10.3219V10.3229ZM38.13 41.7799C38.0131 41.6626 37.9141 41.5289 37.836 41.3829L29.949 26.6939C29.7646 26.3415 29.6996 25.9388 29.7636 25.5462C29.8276 25.1537 30.0172 24.7925 30.304 24.5169L37.249 17.9939C37.886 17.3959 38.854 17.3989 39.455 18.0009C39.679 18.2259 39.832 18.5149 39.898 18.8389L43.663 37.2949C43.7238 37.6139 43.7068 37.9429 43.6135 38.254C43.5202 38.565 43.3533 38.849 43.127 39.0819L40.448 41.7679C40.2978 41.9234 40.1182 42.0472 39.9195 42.1322C39.7208 42.2171 39.5071 42.2615 39.291 42.2626C39.0749 42.2637 38.8608 42.2216 38.6612 42.1387C38.4616 42.0558 38.2817 41.9338 38.13 41.7799ZM32.858 26.0539L39.581 38.5759L40.759 37.3959L37.547 21.6499L32.858 26.0539ZM15.742 49.5539C15.5973 49.4092 15.4827 49.2372 15.405 49.0479L11.171 38.7999L0.945955 34.5549C0.755955 34.4749 0.585955 34.3619 0.440955 34.2179C0.156675 33.9295 -0.00185747 33.5403 1.64253e-05 33.1354C0.00189032 32.7304 0.164018 32.3427 0.450955 32.0569L3.75596 28.7429C4.12396 28.3739 4.67395 28.1849 5.19096 28.2509L13.459 29.2949C13.852 29.3449 14.255 29.5429 14.536 29.8249L20.125 35.4259C20.405 35.7069 20.602 36.1109 20.652 36.5059L21.694 44.7929C21.7244 45.0542 21.6961 45.319 21.6111 45.5679C21.5262 45.8169 21.3867 46.0437 21.203 46.2319L17.897 49.5449C17.7568 49.6885 17.5896 49.8028 17.4048 49.8812C17.2201 49.9595 17.0217 50.0004 16.821 50.0013C16.6204 50.0022 16.4216 49.9632 16.2362 49.8866C16.0507 49.81 15.8824 49.6972 15.741 49.5549L15.742 49.5539ZM5.38696 31.1699L3.89096 32.6699L12.682 36.3199C13.099 36.4919 13.472 36.8679 13.645 37.2839L17.286 46.0969L18.782 44.5969L17.853 37.2109L12.756 32.1009L5.38596 31.1709L5.38696 31.1699Z" fill="#912CC6"></path>
  </g>
  <defs>
    <clipPath id="clip0_10798_5914">
      <rect width="50" height="50" fill="white"></rect>
    </clipPath>
  </defs>
</svg>
